<svg width="28" height="27" viewBox="0 0 28 27" fill="none" xmlns="http://www.w3.org/2000/svg">
<path fill-rule="evenodd" clip-rule="evenodd" d="M12.772 9.38026C13.3546 8.59478 13.5635 7.76694 12.9046 7.03622C11.426 4.96624 10.4316 3.68618 9.80789 3.06973C8.6221 1.89778 6.67145 2.0563 5.64446 3.06873C5.09286 3.61251 4.90612 3.79925 4.33975 4.37481C1.18495 7.53286 3.10891 14.2089 8.22349 19.331C13.3369 24.452 20.009 26.3779 23.1704 23.2132C23.693 22.7091 24.1355 22.2661 24.4845 21.8971C25.4909 20.8328 25.6437 18.9673 24.4779 17.7553C23.8802 17.134 22.6601 16.1871 20.5041 14.6442C19.8438 14.0534 19.0609 14.1815 18.3431 14.6526C17.9978 14.8793 17.7465 15.1085 17.2721 15.5837L16.4105 16.4462C16.297 16.5598 14.756 15.7877 13.2602 14.2897C11.7636 12.7908 10.9924 11.2491 11.1054 11.1361C11.3383 10.903 11.6257 10.6154 11.9676 10.273C12.1181 10.1222 12.1901 10.0492 12.2824 9.95218C12.4747 9.74998 12.6339 9.56649 12.772 9.38026ZM17.9998 18.0372L18.8616 17.1745C19.1227 16.913 19.2919 16.7522 19.4296 16.6413C21.3183 17.9983 22.4121 18.8516 22.8589 19.316C23.1271 19.5949 23.0854 20.1037 22.8522 20.3503C22.5295 20.6916 22.1103 21.1113 21.5958 21.6078C19.5515 23.6539 14.1656 22.0993 9.81316 17.7404C5.45933 13.3801 3.90618 7.99076 5.93503 5.95979C6.49912 5.3866 6.67784 5.20788 7.22157 4.67186C7.42544 4.47088 7.98075 4.42575 8.22875 4.67086C8.70897 5.14546 9.59975 6.28661 10.9101 8.11287C10.8423 8.19713 10.7576 8.29235 10.6545 8.40077C10.5788 8.48035 10.5157 8.54429 10.3779 8.68233C10.0363 9.02445 9.74917 9.31187 9.51656 9.54457C8.05125 11.0105 9.29916 13.5054 11.6706 15.8803C14.0403 18.2536 16.535 19.5035 17.9998 18.0372Z" fill="#00478F"/>
</svg>
