<svg width="26" height="26" viewBox="0 0 26 26" fill="none" xmlns="http://www.w3.org/2000/svg">
<path d="M23.2003 4.87785H6.77815L6.22222 2.33602C6.20033 2.23663 6.13822 2.14687 6.04666 2.0823C5.9551 2.01772 5.83984 1.98239 5.72085 1.98242H2.32766C2.19242 1.98242 2.06272 2.02808 1.9671 2.10934C1.87147 2.19061 1.81775 2.30083 1.81775 2.41576C1.81775 2.53068 1.87147 2.6409 1.9671 2.72217C2.06272 2.80343 2.19242 2.84909 2.32766 2.84909H5.29699L7.91563 14.8186C7.93739 14.9181 7.99942 15.008 8.09097 15.0726C8.18252 15.1373 8.29782 15.1727 8.41688 15.1728H22.6682C22.8035 15.1728 22.9332 15.1271 23.0288 15.0458C23.1244 14.9646 23.1781 14.8544 23.1781 14.7394C23.1781 14.6245 23.1244 14.5143 23.0288 14.433C22.9332 14.3518 22.8035 14.3061 22.6682 14.3061H8.84087L8.4954 12.7272H21.4962C21.6135 12.7273 21.7272 12.6929 21.8181 12.63C21.9091 12.5671 21.9717 12.4795 21.9955 12.3819L23.6996 5.39926C23.715 5.33622 23.7137 5.27105 23.6958 5.2085C23.6778 5.14595 23.6437 5.08759 23.5959 5.03765C23.548 4.98772 23.4877 4.94746 23.4193 4.91982C23.3509 4.89218 23.2761 4.87784 23.2003 4.87785Z" fill="#00478F"/>
<path d="M10.3508 18.818C11.3866 18.818 12.2262 18.1044 12.2262 17.2242C12.2262 16.3439 11.3866 15.6304 10.3508 15.6304C9.31501 15.6304 8.47534 16.3439 8.47534 17.2242C8.47534 18.1044 9.31501 18.818 10.3508 18.818Z" fill="#00478F"/>
<path d="M20.5257 18.818C21.5615 18.818 22.4012 18.1044 22.4012 17.2242C22.4012 16.3439 21.5615 15.6304 20.5257 15.6304C19.4899 15.6304 18.6503 16.3439 18.6503 17.2242C18.6503 18.1044 19.4899 18.818 20.5257 18.818Z" fill="#00478F"/>
</svg>
