<svg width="70" height="73" viewBox="0 0 70 73" fill="none" xmlns="http://www.w3.org/2000/svg">
<path d="M1.25 32.85H3.90125L8.76 69.5057C8.79889 69.7991 8.94623 70.0685 9.17444 70.2638C9.40266 70.4591 9.69614 70.5667 10 70.5667H39.425C40.1259 71.3314 40.9848 71.9434 41.9456 72.3627C42.9063 72.7821 43.9471 72.9992 45 73H46.9575C48.3303 72.9989 49.6841 72.6878 50.9125 72.0911C51.7942 71.6646 52.7654 71.4426 53.75 71.4426C54.7346 71.4426 55.7058 71.6646 56.5875 72.0911C57.8159 72.6878 59.1697 72.9989 60.5425 73H62.5C64.4885 72.9981 66.395 72.2283 67.8011 70.8597C69.2072 69.4912 69.998 67.6355 70 65.7V58.4C69.998 56.4645 69.2072 54.6089 67.8011 53.2403C66.395 51.8717 64.4885 51.1019 62.5 51.1H60.5425C59.1697 51.1011 57.8159 51.4123 56.5875 52.0089C55.7058 52.4354 54.7346 52.6574 53.75 52.6574C52.7654 52.6574 51.7942 52.4354 50.9125 52.0089C50.1996 51.6683 49.4428 51.4228 48.6625 51.2789L51.0988 32.85H53.75C54.0815 32.85 54.3995 32.7218 54.6339 32.4936C54.8683 32.2655 55 31.956 55 31.6333V26.7667C55 26.444 54.8683 26.1345 54.6339 25.9064C54.3995 25.6782 54.0815 25.55 53.75 25.55H48.75V21.9C48.7499 21.5773 48.6182 21.2679 48.3838 21.0398L42.5 15.313V11.534L44.395 10.0594L47.6312 16.3605L49.8688 15.2728L46.3912 8.5045L47.9375 7.3H52.5C52.8315 7.3 53.1495 7.17182 53.3839 6.94365C53.6183 6.71548 53.75 6.40601 53.75 6.08333V1.21667C53.75 0.893987 53.6183 0.584523 53.3839 0.356353C53.1495 0.128184 52.8315 0 52.5 0H40C37.0174 0.00354166 34.1581 1.15834 32.0491 3.21109C29.9401 5.26385 28.7536 8.04697 28.75 10.95C28.75 11.2727 28.8817 11.5821 29.1161 11.8103C29.3505 12.0385 29.6685 12.1667 30 12.1667H32.5V15.313L29.1162 18.6065C28.8818 18.8346 28.7501 19.144 28.75 19.4667V25.55H26.25V15.8167C26.2481 15.666 26.2171 15.517 26.1588 15.3775C26.1359 15.3301 26.11 15.2842 26.0812 15.24C26.0512 15.1762 26.0161 15.1148 25.9763 15.0563L21.25 9.3075V1.21667C21.25 0.893987 21.1183 0.584523 20.8839 0.356353C20.6495 0.128184 20.3315 0 20 0H12.5C12.1685 0 11.8505 0.128184 11.6161 0.356353C11.3817 0.584523 11.25 0.893987 11.25 1.21667V9.3075L6.52375 15.0563C6.48392 15.1148 6.44882 15.1762 6.41875 15.24C6.39001 15.2842 6.36413 15.3301 6.34125 15.3775C6.28288 15.517 6.25192 15.666 6.25 15.8167V25.55H1.25C0.918479 25.55 0.600537 25.6782 0.366117 25.9064C0.131696 26.1345 0 26.444 0 26.7667V31.6333C0 31.956 0.131696 32.2655 0.366117 32.4936C0.600537 32.7218 0.918479 32.85 1.25 32.85ZM62.5 70.5667H60.5425C59.558 70.5654 58.5873 70.3422 57.7063 69.9145C56.4769 69.32 55.1228 69.0106 53.75 69.0106C52.3772 69.0106 51.0231 69.32 49.7937 69.9145C48.9127 70.3422 47.942 70.5654 46.9575 70.5667H45C43.6739 70.5667 42.4021 70.0539 41.4645 69.1413C40.5268 68.2286 40 66.9907 40 65.7V63.8263C41.3709 65.0319 43.1525 65.6995 45 65.7H46.9575C48.3303 65.6989 49.6841 65.3878 50.9125 64.7911C51.7942 64.3646 52.7654 64.1426 53.75 64.1426C54.7346 64.1426 55.7058 64.3646 56.5875 64.7911C57.8159 65.3878 59.1697 65.6989 60.5425 65.7H62.5C64.3475 65.6995 66.1291 65.0319 67.5 63.8263V65.7C67.5 66.9907 66.9732 68.2286 66.0355 69.1413C65.0979 70.0539 63.8261 70.5667 62.5 70.5667ZM57.7063 54.1855C58.5873 53.7578 59.558 53.5346 60.5425 53.5333H62.5C63.8261 53.5333 65.0979 54.0461 66.0355 54.9587C66.9732 55.8714 67.5 57.1093 67.5 58.4C67.5 59.6907 66.9732 60.9286 66.0355 61.8413C65.0979 62.7539 63.8261 63.2667 62.5 63.2667H60.5425C59.558 63.2654 58.5873 63.0422 57.7063 62.6145C56.4769 62.02 55.1228 61.7106 53.75 61.7106C52.3772 61.7106 51.0231 62.02 49.7937 62.6145C48.9127 63.0422 47.942 63.2654 46.9575 63.2667H45C43.6739 63.2667 42.4021 62.7539 41.4645 61.8413C40.5268 60.9286 40 59.6907 40 58.4C40 57.1093 40.5268 55.8714 41.4645 54.9587C42.4021 54.0461 43.6739 53.5333 45 53.5333H46.9575C47.942 53.5346 48.9127 53.7578 49.7937 54.1855C51.0232 54.7796 52.3773 55.0888 53.75 55.0888C55.1227 55.0888 56.4768 54.7796 57.7063 54.1855ZM46.1587 51.1H45C43.0115 51.1019 41.105 51.8717 39.6989 53.2403C38.2928 54.6089 37.502 56.4645 37.5 58.4V65.7C37.5022 66.5295 37.6501 67.3525 37.9375 68.1333H11.0987L6.42125 32.85H12.5V54.75C12.5 56.0407 13.0268 57.2786 13.9645 58.1913C14.9021 59.1039 16.1739 59.6167 17.5 59.6167H30C31.3261 59.6167 32.5979 59.1039 33.5355 58.1913C34.4732 57.2786 35 56.0407 35 54.75V44.5519L38.265 46.1409C38.7362 46.3672 39.2487 46.5006 39.7731 46.5334C40.2975 46.5661 40.8233 46.4975 41.3204 46.3316C41.8174 46.1658 42.2758 45.9058 42.6692 45.5667C43.0626 45.2277 43.3832 44.8162 43.6125 44.356C43.8523 43.8934 43.9959 43.3893 44.0351 42.8726C44.0744 42.3559 44.0085 41.8367 43.8413 41.3448C43.6763 40.8528 43.4123 40.3978 43.0646 40.0063C42.7169 39.6148 42.2925 39.2947 41.8162 39.0647L35 35.7481V32.85H48.5787L46.1587 51.1ZM30 27.9833H32.5V36.5C32.4987 36.7271 32.5628 36.9501 32.685 37.1436C32.8071 37.3371 32.9825 37.4935 33.1912 37.595L40.6913 41.245C40.8723 41.3319 41.0336 41.4532 41.1656 41.6018C41.2977 41.7503 41.3978 41.9232 41.46 42.1101C41.5241 42.3106 41.5461 42.5217 41.5247 42.7308C41.5032 42.9398 41.4387 43.1425 41.335 43.3267C41.2493 43.494 41.1306 43.6432 40.9856 43.7658C40.8406 43.8883 40.6722 43.9818 40.49 44.0409C40.3078 44.1 40.1155 44.1236 39.9239 44.1102C39.7324 44.0969 39.5454 44.0468 39.3738 43.963L34.2987 41.4932C34.1084 41.4027 33.8976 41.3607 33.686 41.3713C33.4745 41.3818 33.2691 41.4446 33.0893 41.5535C32.9095 41.6625 32.761 41.8142 32.658 41.9943C32.5549 42.1745 32.5005 42.3771 32.5 42.5833V54.75C32.5 55.3954 32.2366 56.0143 31.7678 56.4706C31.2989 56.927 30.663 57.1833 30 57.1833V46.2333H27.5V57.1833H25V46.2333H22.5V57.1833H20V46.2333H17.5V57.1833C16.837 57.1833 16.2011 56.927 15.7322 56.4706C15.2634 56.0143 15 55.3954 15 54.75V27.9833H30ZM52.5 30.4167H35V27.9833H52.5V30.4167ZM51.25 4.86667H48.75V2.43333H51.25V4.86667ZM40 2.43333H46.25V5.49933L40.8112 9.73333H31.3387C31.6421 7.70737 32.6839 5.85517 34.2741 4.51495C35.8642 3.17472 37.8965 2.43588 40 2.43333ZM40 12.1667V14.6H35V12.1667H40ZM31.25 19.9704L34.2675 17.0333H40.7325L46.25 22.4037V25.55H31.25V19.9704ZM13.1 10.95H19.4L22.4 14.6H10.1L13.1 10.95ZM13.75 2.43333H18.75V8.51667H13.75V2.43333ZM8.75 17.0333H23.75V25.55H8.75V17.0333ZM2.5 27.9833H12.5V30.4167H2.5V27.9833Z" fill="black"/>
</svg>
