<svg width="26" height="28" viewBox="0 0 26 28" fill="none" xmlns="http://www.w3.org/2000/svg">
<path d="M15.1205 5.91995H9.77334C9.52099 5.91995 9.27797 6.01536 9.09302 6.18704L4.79453 10.1771C4.59069 10.3663 4.47485 10.6318 4.47485 10.91V15.7299C4.47485 16.0081 4.59069 16.2736 4.79453 16.4628L9.09302 20.4529C9.27797 20.6245 9.52099 20.72 9.77334 20.72H15.1205C15.3729 20.72 15.6159 20.6245 15.8009 20.4529L20.0993 16.4628C20.3032 16.2736 20.419 16.0081 20.419 15.7299V10.91C20.419 10.6318 20.3032 10.3663 20.0993 10.1771L15.8009 6.18704C15.6159 6.01536 15.3729 5.91995 15.1205 5.91995Z" fill="#FF0000"/>
<path d="M17.8442 15.0031L17.652 14.8856C17.3831 14.7158 17.2934 14.3371 17.4343 14.0628L17.9466 13.0572C18.0875 12.7699 17.9594 12.5478 17.6392 12.5609L16.8324 12.587C16.525 12.6001 16.1664 12.365 16.0511 12.0646L15.9614 11.8165C15.8462 11.5161 15.5516 11.4377 15.3083 11.6467L14.4245 12.378C14.1812 12.574 14.0403 12.4956 14.1172 12.1821L14.6807 9.77907C14.7575 9.46562 14.5654 9.26972 14.258 9.33502L13.8482 9.40032C13.5408 9.46562 13.1694 9.28278 13.0413 8.99546L12.7211 8.35551C12.5802 8.06818 12.3497 8.06818 12.2088 8.35551L11.8886 8.99546C11.7477 9.28278 11.3763 9.46562 11.0689 9.40032L10.6591 9.3089C10.3517 9.2436 10.1596 9.45256 10.2365 9.75295L10.7872 12.1691C10.864 12.4825 10.7231 12.574 10.4798 12.365L9.59608 11.6336C9.35273 11.4377 9.05816 11.5161 8.94289 11.8034L8.85324 12.0515C8.73797 12.3519 8.39216 12.587 8.07198 12.574L7.2651 12.5478C6.95772 12.5478 6.81683 12.7699 6.95772 13.0572L7.47002 14.0628C7.6109 14.3501 7.52125 14.7158 7.25229 14.8856L7.06018 15.0031C6.79122 15.1729 6.80403 15.4211 7.08579 15.5647L8.93008 16.4789C9.21185 16.6226 9.37835 16.9099 9.31431 17.1189C9.23746 17.3279 9.44239 17.4715 9.74977 17.4323L11.8886 17.1842C11.9655 17.1711 12.0551 17.1711 12.1576 17.1581C12.1576 17.5107 12.1576 17.8633 12.1576 18.216C12.1576 18.5947 12.7339 18.5947 12.7339 18.216C12.7339 17.8633 12.7339 17.5107 12.7339 17.1581C12.8364 17.1581 12.9389 17.1711 13.0285 17.1842L15.1418 17.4323C15.4491 17.4715 15.6541 17.3279 15.5772 17.1189C15.5004 16.9099 15.6797 16.6226 15.9614 16.4789L17.8057 15.5647C18.0875 15.4341 18.1003 15.1729 17.8442 15.0031Z" fill="white"/>
<path d="M12.2218 23.273C12.3001 23.1472 12.4832 23.1472 12.5615 23.273L14.2727 26.0244C14.3556 26.1576 14.2598 26.33 14.1029 26.33H10.6803C10.5235 26.33 10.4277 26.1576 10.5105 26.0244L12.2218 23.273Z" fill="#C4C4C4"/>
<path d="M12.5614 4.16696C12.4831 4.29278 12.3 4.29278 12.2217 4.16696L10.5105 1.41563C10.4276 1.28241 10.5234 1.11 10.6803 1.11L14.1029 1.11C14.2598 1.11 14.3556 1.28241 14.2727 1.41563L12.5614 4.16696Z" fill="#C4C4C4"/>
<path d="M20.4233 20.6412C20.3759 20.4995 20.5122 20.3627 20.6681 20.3954L23.75 21.0431C23.9052 21.0758 23.9634 21.2522 23.8549 21.3611L21.7096 23.5147C21.6011 23.6236 21.4071 23.5836 21.3599 23.4425L20.4233 20.6412Z" fill="#C4C4C4"/>
<path d="M20.8381 6.43729C20.6897 6.49014 20.5374 6.37564 20.5623 6.22991L21.0572 3.33303C21.0824 3.18559 21.2696 3.11693 21.3931 3.20981L23.8484 5.05605C23.9719 5.14894 23.9384 5.33317 23.7883 5.38665L20.8381 6.43729Z" fill="#C4C4C4"/>
<path d="M5.65293 6.15514C5.69423 6.29822 5.55319 6.42915 5.39904 6.39081L2.34682 5.63165C2.19268 5.59332 2.14105 5.41447 2.25389 5.30972L4.48827 3.23568C4.60111 3.13094 4.79379 3.17886 4.83509 3.32194L5.65293 6.15514Z" fill="#C4C4C4"/>
<path d="M22.2982 14.023C22.1653 13.9459 22.1653 13.7541 22.2982 13.677L24.8885 12.1743C25.0218 12.0969 25.1888 12.1931 25.1888 12.3473V15.3528C25.1888 15.5069 25.0218 15.6031 24.8885 15.5258L22.2982 14.023Z" fill="#C4C4C4"/>
<path d="M2.89053 13.677C3.02338 13.7541 3.02338 13.9459 2.89053 14.023L0.300249 15.5257C0.166916 15.6031 -0.000113964 15.5069 -0.000113964 15.3527L-0.000113964 12.3473C-0.000113964 12.1931 0.166916 12.0969 0.300249 12.1743L2.89053 13.677Z" fill="#C4C4C4"/>
<path d="M4.37028 20.0189C4.52288 19.9762 4.66748 20.1023 4.63103 20.2464L3.90847 23.1018C3.8719 23.2463 3.68058 23.3005 3.56442 23.1991L1.26166 21.1906C1.1455 21.0893 1.19182 20.9087 1.34495 20.8658L4.37028 20.0189Z" fill="#C4C4C4"/>
</svg>
