<svg width="56" height="68" viewBox="0 0 56 68" fill="none" xmlns="http://www.w3.org/2000/svg">
<path fill-rule="evenodd" clip-rule="evenodd" d="M49.3851 0C51.3345 0 53.2839 0 55.2333 0C55.2333 22.3024 55.2333 44.5156 55.2333 66.7288C55.2333 68.4237 52.6341 68.4237 52.6341 66.7288V40.9472C50.5919 40.9472 48.6425 40.9472 46.6002 40.9472C46.0433 41.0364 45.4863 40.9472 44.9293 40.6796C40.6592 39.163 40.3807 31.8478 40.3807 28.1902C40.3807 25.4247 40.5663 22.3916 41.0305 19.6261C41.9588 14.0951 43.8154 8.65333 45.4863 3.30075C45.9504 1.60577 47.4357 0 49.3851 0ZM2.59922 1.42735V14.1843C2.59922 17.4851 5.38409 20.1614 8.81877 20.1614C12.2534 20.1614 15.1311 17.4851 15.1311 14.1843V1.42735C15.1311 -0.267629 17.7304 -0.267629 17.7304 1.42735V14.1843C17.7304 18.4664 14.3885 22.0348 10.1184 22.6592V66.7288C10.1184 68.4237 7.51916 68.4237 7.51916 66.7288V22.6592C3.24902 22.0348 0 18.4664 0 14.1843V1.42735C0 -0.267629 2.59922 -0.267629 2.59922 1.42735ZM12.7176 1.42735V13.7383C12.7176 15.4333 10.1184 15.4333 10.1184 13.7383V1.42735C10.1184 -0.267629 12.7176 -0.267629 12.7176 1.42735ZM7.61199 1.42735V13.7383C7.61199 15.4333 4.91994 15.4333 4.91994 13.7383V1.42735C4.91994 -0.267629 7.61199 -0.267629 7.61199 1.42735ZM30.8193 22.6592V66.7288C30.8193 68.4237 28.2201 68.4237 28.2201 66.7288V22.6592C26.085 22.3916 24.1356 21.4995 22.6503 19.8937C20.3296 17.1282 20.1439 13.1138 20.9794 9.72384C21.9077 5.88783 24.7854 0.356838 29.5197 0.356838C34.254 0.356838 37.1317 5.88783 38.0599 9.72384C39.4524 15.6117 37.503 21.9456 30.8193 22.6592ZM29.5197 2.85471C35.2751 2.85471 40.3807 20.1614 29.5197 20.1614C18.6587 20.1614 23.7643 2.85471 29.5197 2.85471ZM49.3851 2.58708C50.4991 2.58708 51.5202 2.58708 52.6341 2.58708V38.4493C50.5919 38.4493 48.5496 38.4493 46.6002 38.4493C42.1444 38.5385 42.7942 25.1571 43.6297 19.9829C44.4652 14.8088 46.4146 9.01017 47.9927 4.01443C48.2712 3.21154 48.921 2.58708 49.3851 2.58708Z" fill="black"/>
</svg>
