<svg width="72" height="70" viewBox="0 0 72 70" fill="none" xmlns="http://www.w3.org/2000/svg">
<path d="M58.8002 39.2091C58.4985 39.2081 58.2074 39.3164 57.985 39.5124C57.7626 39.7083 57.6252 39.9776 57.6002 40.2666L55.2002 67.9439C55.1738 68.2497 55.2749 68.5531 55.4812 68.7873C55.6876 69.0216 55.9823 69.1674 56.3006 69.1928C56.6188 69.2182 56.9346 69.121 57.1783 68.9227C57.422 68.7244 57.5738 68.4411 57.6002 68.1353L58.8002 54.2494L60.0002 68.1353C60.0252 68.4243 60.1626 68.6936 60.385 68.8895C60.6074 69.0855 60.8985 69.1938 61.2002 69.1928C61.2326 69.1928 61.2674 69.1928 61.301 69.1928C61.4587 69.1806 61.6123 69.1385 61.753 69.0691C61.8937 68.9996 62.0187 68.9041 62.1209 68.788C62.223 68.672 62.3003 68.5376 62.3482 68.3927C62.3962 68.2479 62.4138 68.0953 62.4002 67.9439L60.0002 40.2666C59.9751 39.9776 59.8377 39.7083 59.6154 39.5124C59.393 39.3164 59.1019 39.2081 58.8002 39.2091Z" fill="black"/>
<path d="M71.9998 23.0655V36.9041C72.0036 37.4586 71.8678 38.0058 71.6039 38.4989C71.3401 38.992 70.9559 39.4164 70.4843 39.7359C70.0127 40.0555 69.4677 40.2606 68.8957 40.3337C68.3238 40.4069 67.7419 40.346 67.1997 40.1562V68.041C67.1997 68.3469 67.0733 68.6402 66.8483 68.8565C66.6232 69.0727 66.318 69.1942 65.9997 69.1942C65.6815 69.1942 65.3763 69.0727 65.1512 68.8565C64.9262 68.6402 64.7997 68.3469 64.7997 68.041V23.0655C64.7997 22.7596 64.9262 22.4663 65.1512 22.25C65.3763 22.0338 65.6815 21.9123 65.9997 21.9123C66.318 21.9123 66.6232 22.0338 66.8483 22.25C67.0733 22.4663 67.1997 22.7596 67.1997 23.0655V36.9041C67.1997 37.21 67.3262 37.5033 67.5512 37.7196C67.7763 37.9358 68.0815 38.0573 68.3997 38.0573C68.718 38.0573 69.0232 37.9358 69.2483 37.7196C69.4733 37.5033 69.5997 37.21 69.5997 36.9041V23.0655C69.5997 21.5362 68.9676 20.0696 67.8424 18.9882C66.7172 17.9069 65.191 17.2994 63.5997 17.2994C62.6458 17.2966 61.7318 16.9313 61.0573 16.2831C60.3828 15.6348 60.0026 14.7564 59.9997 13.8397V13.7013H59.9757C59.6832 13.7005 59.4011 13.597 59.1825 13.4103C58.9638 13.2236 58.8236 12.9666 58.7882 12.6876C58.7529 12.4086 58.8247 12.1267 58.9904 11.8951C59.156 11.6634 59.404 11.4978 59.6877 11.4295C60.003 11.3494 60.3057 11.2292 60.5877 11.072C60.5997 11.072 60.5997 11.072 60.5997 11.0605C61.1447 10.7566 61.5975 10.3212 61.9133 9.79721C62.229 9.27327 62.3967 8.6791 62.3997 8.07364V5.7672C62.4004 4.84628 62.0205 3.96279 61.3437 3.31085C60.7043 2.71087 59.86 2.35436 58.9677 2.30755C58.5028 2.29185 58.0394 2.36764 57.6061 2.53025C57.1727 2.69287 56.7786 2.93888 56.4477 3.25318C56.0551 3.61135 55.742 4.04229 55.5275 4.51998C55.313 4.99766 55.2015 5.51218 55.1997 6.03244V8.07364C55.1979 8.67306 55.3585 9.26261 55.6656 9.7843C55.9728 10.306 56.4161 10.7418 56.9517 11.0489C57.1446 11.1466 57.3065 11.2924 57.4205 11.471C57.5345 11.6495 57.5964 11.8543 57.5997 12.0638V13.8397C57.5969 14.7564 57.2167 15.6348 56.5422 16.2831C55.8676 16.9313 54.9536 17.2966 53.9997 17.2994C52.4084 17.2994 50.8823 17.9069 49.7571 18.9882C48.6318 20.0696 47.9997 21.5362 47.9997 23.0655V36.9041C47.9997 37.21 48.1261 37.5033 48.3512 37.7196C48.5762 37.9358 48.8814 38.0573 49.1997 38.0573C49.518 38.0573 49.8232 37.9358 50.0482 37.7196C50.2733 37.5033 50.3997 37.21 50.3997 36.9041V23.0655C50.3997 22.7596 50.5261 22.4663 50.7512 22.25C50.9762 22.0338 51.2814 21.9123 51.5997 21.9123C51.918 21.9123 52.2232 22.0338 52.4482 22.25C52.6733 22.4663 52.7997 22.7596 52.7997 23.0655V68.041C52.7997 68.3469 52.6733 68.6402 52.4482 68.8565C52.2232 69.0727 51.918 69.1942 51.5997 69.1942C51.2814 69.1942 50.9762 69.0727 50.7512 68.8565C50.5261 68.6402 50.3997 68.3469 50.3997 68.041V40.1562C49.8576 40.346 49.2757 40.4069 48.7037 40.3337C48.1317 40.2606 47.5867 40.0555 47.1151 39.7359C46.6435 39.4164 46.2594 38.992 45.9955 38.4989C45.7316 38.0058 45.5958 37.4586 45.5997 36.9041V23.0655C45.6022 20.9253 46.488 18.8734 48.0628 17.36C49.6376 15.8467 51.7727 14.9954 53.9997 14.9929C54.318 14.9929 54.6232 14.8714 54.8482 14.6552C55.0733 14.4389 55.1997 14.1456 55.1997 13.8397V12.6865C54.4513 12.1523 53.8442 11.4565 53.4273 10.6551C53.0103 9.85383 52.7954 8.96952 52.7997 8.07364V6.03244C52.8015 5.1996 52.9789 4.37574 53.3213 3.61065C53.6636 2.84556 54.1639 2.15511 54.7917 1.58102C55.357 1.04968 56.0303 0.636148 56.7695 0.366284C57.5087 0.0964207 58.2979 -0.0239704 59.0877 0.0126405C60.6271 0.0820347 62.0795 0.718674 63.1432 1.79031C64.2069 2.86194 64.8002 4.2862 64.7997 5.7672V8.07364C64.7986 8.96697 64.5812 9.8478 64.1646 10.6464C63.7481 11.445 63.1438 12.1396 62.3997 12.675V13.8397C62.3997 14.1456 62.5262 14.4389 62.7512 14.6552C62.9762 14.8714 63.2815 14.9929 63.5997 14.9929C65.8268 14.9954 67.9619 15.8467 69.5366 17.36C71.1114 18.8734 71.9972 20.9253 71.9998 23.0655V23.0655Z" fill="black"/>
<path d="M13.2 39.2091C12.8983 39.2081 12.6073 39.3164 12.3849 39.5124C12.1625 39.7083 12.0251 39.9776 12.0001 40.2666L9.60008 67.9439C9.57366 68.2497 9.67475 68.5531 9.88112 68.7873C10.0875 69.0216 10.3822 69.1674 10.7005 69.1928C11.0187 69.2182 11.3344 69.121 11.5782 68.9227C11.8219 68.7244 11.9736 68.4411 12.0001 68.1353L13.2 54.2494L14.4 68.1353C14.4251 68.4243 14.5625 68.6936 14.7849 68.8895C15.0073 69.0855 15.2983 69.1938 15.6 69.1928C15.6324 69.1928 15.6672 69.1928 15.7008 69.1928C15.8585 69.1806 16.0121 69.1385 16.1528 69.0691C16.2935 68.9996 16.4186 68.9041 16.5207 68.788C16.6229 68.672 16.7001 68.5376 16.7481 68.3927C16.796 68.2479 16.8137 68.0953 16.8 67.9439L14.4 40.2666C14.375 39.9776 14.2376 39.7083 14.0152 39.5124C13.7928 39.3164 13.5018 39.2081 13.2 39.2091Z" fill="black"/>
<path d="M26.4001 23.0655V36.9041C26.4039 37.4586 26.2681 38.0058 26.0043 38.4989C25.7404 38.992 25.3562 39.4164 24.8846 39.7359C24.4131 40.0555 23.868 40.2606 23.2961 40.3337C22.7241 40.4069 22.1422 40.346 21.6001 40.1562V68.041C21.6001 68.3469 21.4736 68.6402 21.2486 68.8565C21.0236 69.0727 20.7183 69.1942 20.4001 69.1942C20.0818 69.1942 19.7766 69.0727 19.5515 68.8565C19.3265 68.6402 19.2001 68.3469 19.2001 68.041V23.0655C19.2001 22.7596 19.3265 22.4663 19.5515 22.25C19.7766 22.0338 20.0818 21.9123 20.4001 21.9123C20.7183 21.9123 21.0236 22.0338 21.2486 22.25C21.4736 22.4663 21.6001 22.7596 21.6001 23.0655V36.9041C21.6001 37.21 21.7265 37.5033 21.9515 37.7196C22.1766 37.9358 22.4818 38.0573 22.8001 38.0573C23.1183 38.0573 23.4236 37.9358 23.6486 37.7196C23.8736 37.5033 24.0001 37.21 24.0001 36.9041V23.0655C24.0001 21.5362 23.3679 20.0696 22.2427 18.9882C21.1175 17.9069 19.5914 17.2994 18.0001 17.2994C17.0462 17.2966 16.1321 16.9313 15.4576 16.2831C14.7831 15.6348 14.4029 14.7564 14.4001 13.8397V12.0638C14.3986 11.8415 14.4648 11.6237 14.5906 11.4372C14.7165 11.2507 14.8963 11.1037 15.1081 11.0143C15.6269 10.7027 16.0545 10.2692 16.3505 9.75467C16.6466 9.24014 16.8013 8.66159 16.8001 8.07364V6.03244C16.7983 5.51218 16.6868 4.99766 16.4723 4.51998C16.2578 4.04229 15.9447 3.61135 15.5521 3.25318C15.2212 2.93888 14.827 2.69287 14.3937 2.53025C13.9604 2.36764 13.497 2.29185 13.0321 2.30755C12.1342 2.35556 11.2852 2.71634 10.6441 3.32238C9.97315 3.97245 9.59773 4.8516 9.60008 5.7672V8.07364C9.6031 8.6791 9.7708 9.27327 10.0866 9.79721C10.4023 10.3212 10.8551 10.7566 11.4001 11.0605C11.4001 11.072 11.4001 11.072 11.4121 11.072C11.6942 11.2292 11.9968 11.3494 12.3121 11.4295C12.5958 11.4978 12.8438 11.6634 13.0094 11.8951C13.175 12.1267 13.2469 12.4086 13.2116 12.6876C13.1762 12.9666 13.036 13.2236 12.8173 13.4103C12.5987 13.597 12.3166 13.7005 12.0241 13.7013H12.0001V13.8397C11.9972 14.7564 11.617 15.6348 10.9425 16.2831C10.268 16.9313 9.35398 17.2966 8.40008 17.2994C6.80878 17.2994 5.28266 17.9069 4.15744 18.9882C3.03222 20.0696 2.40008 21.5362 2.40008 23.0655V36.9041C2.40008 37.21 2.52651 37.5033 2.75155 37.7196C2.97659 37.9358 3.28182 38.0573 3.60008 38.0573C3.91834 38.0573 4.22356 37.9358 4.44861 37.7196C4.67365 37.5033 4.80008 37.21 4.80008 36.9041V23.0655C4.80008 22.7596 4.92651 22.4663 5.15155 22.25C5.37659 22.0338 5.68182 21.9123 6.00008 21.9123C6.31834 21.9123 6.62356 22.0338 6.8486 22.25C7.07365 22.4663 7.20008 22.7596 7.20008 23.0655V68.041C7.20008 68.3469 7.07365 68.6402 6.8486 68.8565C6.62356 69.0727 6.31834 69.1942 6.00008 69.1942C5.68182 69.1942 5.37659 69.0727 5.15155 68.8565C4.92651 68.6402 4.80008 68.3469 4.80008 68.041V40.1562C4.25793 40.346 3.67604 40.4069 3.10409 40.3337C2.53213 40.2606 1.98709 40.0555 1.5155 39.7359C1.04391 39.4164 0.659778 38.992 0.395891 38.4989C0.132005 38.0058 -0.0037965 37.4586 8.07508e-05 36.9041V23.0655C0.00262158 20.9253 0.888435 18.8734 2.46319 17.36C4.03794 15.8467 6.17304 14.9954 8.40008 14.9929C8.71834 14.9929 9.02356 14.8714 9.2486 14.6552C9.47365 14.4389 9.60008 14.1456 9.60008 13.8397V12.675C8.85597 12.1396 8.25173 11.445 7.83518 10.6464C7.41863 9.8478 7.20119 8.96697 7.20008 8.07364V5.7672C7.19962 4.2862 7.79286 2.86194 8.85657 1.79031C9.92028 0.718674 11.3727 0.0820347 12.9121 0.0126405C13.7019 -0.0239704 14.4911 0.0964207 15.2303 0.366284C15.9695 0.636148 16.6428 1.04968 17.2081 1.58102C17.8359 2.15511 18.3361 2.84556 18.6785 3.61065C19.0209 4.37574 19.1983 5.1996 19.2001 6.03244V8.07364C19.2044 8.96952 18.9894 9.85383 18.5725 10.6551C18.1556 11.4565 17.5485 12.1523 16.8001 12.6865V13.8397C16.8001 14.1456 16.9265 14.4389 17.1515 14.6552C17.3766 14.8714 17.6818 14.9929 18.0001 14.9929C20.2271 14.9954 22.3622 15.8467 23.937 17.36C25.5117 18.8734 26.3975 20.9253 26.4001 23.0655V23.0655Z" fill="black"/>
<path d="M36.0002 18.4513C37.8989 18.4513 39.7549 17.9103 41.3336 16.8965C42.9123 15.8828 44.1428 14.4419 44.8694 12.7562C45.596 11.0704 45.7861 9.21543 45.4157 7.42583C45.0453 5.63623 44.131 3.99237 42.7884 2.70214C41.4458 1.41191 39.7352 0.533247 37.873 0.177273C36.0108 -0.178702 34.0806 0.00399731 32.3264 0.702266C30.5722 1.40053 29.0729 2.58301 28.018 4.10016C26.9632 5.61732 26.4001 7.401 26.4001 9.22567C26.403 11.6716 27.4154 14.0166 29.2151 15.7462C31.0148 17.4757 33.455 18.4486 36.0002 18.4513ZM36.0002 2.30642C37.4242 2.30642 38.8162 2.71223 40.0003 3.47252C41.1843 4.23282 42.1071 5.31346 42.6521 6.57779C43.197 7.84211 43.3396 9.23334 43.0618 10.5755C42.784 11.9177 42.0983 13.1506 41.0913 14.1183C40.0844 15.086 38.8015 15.745 37.4048 16.012C36.0081 16.2789 34.5605 16.1419 33.2448 15.6182C31.9292 15.0945 30.8047 14.2077 30.0136 13.0698C29.2224 11.9319 28.8001 10.5942 28.8001 9.22567C28.8021 7.39113 29.5612 5.63226 30.9111 4.33504C32.2609 3.03783 34.0912 2.30825 36.0002 2.30642V2.30642Z" fill="black"/>
<path d="M33.9516 12.3574C34.1766 12.5737 34.4818 12.6953 34.8 12.6953C35.1182 12.6953 35.4233 12.5737 35.6484 12.3574L40.7388 7.46099C40.8534 7.35453 40.9448 7.2272 41.0077 7.0864C41.0706 6.94561 41.1037 6.79418 41.1051 6.64096C41.1064 6.48773 41.0761 6.33577 41.0157 6.19395C40.9554 6.05213 40.8663 5.92328 40.7536 5.81493C40.641 5.70657 40.507 5.62089 40.3595 5.56286C40.212 5.50484 40.054 5.47564 39.8947 5.47697C39.7353 5.4783 39.5779 5.51014 39.4315 5.57062C39.2851 5.6311 39.1527 5.71901 39.042 5.82923L34.8 9.90977L33.1032 8.27802C32.9925 8.1678 32.8601 8.07989 32.7137 8.01941C32.5673 7.95893 32.4098 7.92709 32.2505 7.92576C32.0911 7.92443 31.9331 7.95363 31.7856 8.01165C31.6382 8.06967 31.5042 8.15536 31.3915 8.26371C31.2788 8.37207 31.1897 8.50091 31.1294 8.64273C31.0691 8.78456 31.0387 8.93652 31.0401 9.08974C31.0415 9.24297 31.0746 9.3944 31.1375 9.53519C31.2004 9.67598 31.2918 9.80332 31.4064 9.90977L33.9516 12.3574Z" fill="black"/>
<path d="M45.2484 44.1601C45.022 43.9498 44.7189 43.8335 44.4043 43.8361C44.0896 43.8387 43.7887 43.9601 43.5662 44.1742C43.3437 44.3882 43.2175 44.6777 43.2148 44.9804C43.212 45.2831 43.333 45.5747 43.5516 45.7924L43.9032 46.1306H28.0968L28.4484 45.7924C28.667 45.5747 28.7879 45.2831 28.7852 44.9804C28.7825 44.6777 28.6563 44.3882 28.4338 44.1742C28.2113 43.9601 27.9103 43.8387 27.5957 43.8361C27.281 43.8335 26.9779 43.9498 26.7516 44.1601L24.3516 46.4688C24.1266 46.6853 24.0002 46.9789 24.0002 47.285C24.0002 47.5911 24.1266 47.8846 24.3516 48.1011L26.7516 50.4098C26.9779 50.6201 27.281 50.7365 27.5957 50.7338C27.9103 50.7312 28.2113 50.6098 28.4338 50.3958C28.6563 50.1818 28.7825 49.8922 28.7852 49.5896C28.7879 49.2869 28.667 48.9953 28.4484 48.7776L28.0968 48.4393H43.9032L43.5516 48.7776C43.4369 48.8841 43.3455 49.0114 43.2826 49.1523C43.2197 49.2931 43.1866 49.4446 43.1853 49.5979C43.1839 49.7511 43.2142 49.9031 43.2746 50.045C43.3349 50.1869 43.424 50.3158 43.5367 50.4242C43.6494 50.5325 43.7833 50.6183 43.9308 50.6763C44.0783 50.7343 44.2363 50.7635 44.3956 50.7622C44.555 50.7609 44.7124 50.729 44.8588 50.6685C45.0052 50.608 45.1377 50.5201 45.2484 50.4098L47.6484 48.1011C47.8733 47.8846 47.9997 47.5911 47.9997 47.285C47.9997 46.9789 47.8733 46.6853 47.6484 46.4688L45.2484 44.1601Z" fill="black"/>
</svg>
