<svg width="22" height="21" viewBox="0 0 22 21" fill="none" xmlns="http://www.w3.org/2000/svg">
<path fill-rule="evenodd" clip-rule="evenodd" d="M2.36611 0H19.1661C20.3259 0 21.2661 0.940202 21.2661 2.1V18.9C21.2661 20.0598 20.3259 21 19.1661 21H2.36611C1.20632 21 0.266113 20.0598 0.266113 18.9V2.1C0.266113 0.940202 1.20632 0 2.36611 0ZM2.36646 2.09801V18.8987H19.1663V2.09801H2.36646ZM9.85645 10.5046H11.8167V16.8007H13.9167V10.5046H15.9983V8.40437H13.9167V7.34963C13.9167 6.76967 14.3868 6.29951 14.9667 6.29951H16.0167V4.19927H14.9667C13.227 4.19927 11.8167 5.60974 11.8167 7.34963V8.40437H9.85645V10.5046Z" fill="#00478F"/>
</svg>
