<svg width="34" height="45" viewBox="0 0 34 45" fill="none" xmlns="http://www.w3.org/2000/svg">
<path d="M29.3992 15.3586C28.4317 14.0451 26.7384 13.2623 24.7483 13.2623C23.8938 13.2623 23.0669 13.4122 22.351 13.6887C21.1039 12.8652 19.4934 12.757 18.7378 12.757C18.5373 12.757 18.2359 12.7644 17.886 12.8007C17.875 10.1802 17.8422 5.52095 17.7386 4.11168C17.5287 1.27178 15.384 0 13.3517 0C12.014 0 10.6987 0.529658 9.83018 1.41722C9.0637 2.20153 8.68619 3.21915 8.76534 4.28343C8.782 4.54404 8.73566 6.00594 8.69036 7.42117C8.59299 10.4413 8.45136 14.8766 8.51228 18.408C8.32222 18.2372 8.1254 18.067 7.92701 17.9026C7.16314 17.2702 6.22015 16.9367 5.19645 16.9367C3.18654 16.9367 1.25318 18.2263 0.455464 19.4395C-0.218324 20.4641 0.00193266 21.2509 0.195113 21.6296C0.800689 22.8244 6.8528 32.3424 8.304 34.0366C8.68411 34.4809 9.16889 34.8582 9.71406 35.1873C9.01111 41.8574 9.90047 42.7762 10.2415 43.1212C11.1304 44.0192 15.2736 44.1959 18.3994 44.1959C19.9136 44.1959 21.1888 44.1547 21.7397 44.1339C26.6785 43.9438 27.5163 43.4176 27.9943 42.8487C29.2732 41.3243 29.1477 36.7539 28.9243 35.4265C31.9871 32.7539 34.1027 23.6162 33.9251 21.2285C33.6575 17.6247 31.9704 15.445 29.3992 15.3586ZM25.8235 40.9822C23.8381 41.5958 14.7477 41.5615 12.4066 41.1158C12.2738 40.2456 12.3327 38.258 12.4962 36.3275C15.0091 37.016 17.9 37.1644 19.8756 37.1644C21.8209 37.1644 24.2776 37.0031 26.1786 36.5891C26.2474 37.8475 26.1438 40.1999 25.8235 40.9822ZM26.8592 33.495C26.1786 33.8788 23.5621 34.4183 19.8756 34.4183C15.3038 34.4183 11.6365 33.5864 10.5331 32.2982C9.27875 30.8338 4.11079 22.6964 2.97878 20.7738C3.3339 20.3439 4.29668 19.6812 5.19593 19.6812C5.52918 19.6812 5.7963 19.7751 6.03999 19.9761C7.59116 21.2598 9.00486 22.9937 9.01892 23.0106C9.41518 23.4986 10.1041 23.6758 10.7034 23.441C11.3027 23.2062 11.6641 22.6219 11.5875 22.0094C11.2027 18.9138 11.4324 11.7716 11.5683 7.50407C11.636 5.39884 11.6641 4.4527 11.637 4.09132C11.6151 3.78058 11.712 3.51848 11.9369 3.28865C12.2645 2.95258 12.8075 2.7441 13.3517 2.7441C13.9895 2.7441 14.7701 3.01563 14.8659 4.30577C15.0039 6.16478 15.0106 14.5371 15.0106 14.6214C15.0106 15.1278 15.3173 15.5825 15.7839 15.8212C16.252 16.0615 16.8341 16.0248 17.2741 15.7468C17.3944 15.6698 17.9328 15.5021 18.7378 15.5021C19.7542 15.5021 20.6613 15.7711 20.9451 16.1573C21.1721 16.4646 21.5194 16.6711 21.9084 16.7267C22.3015 16.7818 22.6952 16.685 23.005 16.4551C23.3752 16.1831 24.0583 16.0069 24.7488 16.0069C25.2101 16.0069 26.7525 16.1002 27.2435 17.2936C27.4976 17.9121 28.1844 18.269 28.866 18.1389C28.9993 18.1131 29.1253 18.1002 29.2404 18.1002C30.7317 18.1002 31.0118 20.8666 31.0524 21.4201C31.2373 23.9334 28.7134 32.4491 26.8592 33.495Z" fill="black"/>
<path d="M19.6137 21.5312C18.8306 21.3793 18.074 21.8598 17.9168 22.6024L17.1763 26.0708C17.0191 26.8139 17.5226 27.5386 18.3016 27.6895C18.3989 27.7079 18.4947 27.7173 18.5895 27.7173C19.2612 27.7173 19.8611 27.2686 19.9991 26.6183L20.7384 23.15C20.8957 22.4059 20.3932 21.6821 19.6137 21.5312Z" fill="black"/>
<path d="M25.0706 22.2328C24.2948 22.0919 23.5356 22.5773 23.3846 23.3219L22.6577 26.9298C22.5077 27.6739 23.0191 28.3932 23.8012 28.5357C23.8928 28.5525 23.9839 28.561 24.0735 28.561C24.7499 28.561 25.3528 28.1043 25.4856 27.4466L26.2125 23.8397C26.363 23.0956 25.8512 22.3763 25.0706 22.2328Z" fill="black"/>
</svg>
