<svg width="22" height="21" viewBox="0 0 22 21" fill="none" xmlns="http://www.w3.org/2000/svg">
<path fill-rule="evenodd" clip-rule="evenodd" d="M7.24189 0H15.6419C19.1213 0 21.9419 2.82061 21.9419 6.3V14.7C21.9419 18.1794 19.1213 21 15.6419 21H7.24189C4.16334 21 1.60052 18.7918 1.05089 15.873C1.05574 15.873 1.0606 15.873 1.06546 15.873C1.82538 15.873 2.52246 15.6039 3.06658 15.1557C3.29438 17.2604 5.07687 18.8987 7.242 18.8987H15.642C17.9616 18.8987 19.842 17.0183 19.842 14.6986V6.29819C19.842 3.9785 17.9616 2.09801 15.642 2.09801H7.242C4.9224 2.09801 3.04199 3.9785 3.04199 6.29819V10.2697C2.50153 9.8336 1.81398 9.57249 1.06546 9.57249C1.02408 9.57249 0.982885 9.57328 0.941895 9.57487V6.3C0.941895 2.82061 3.7625 0 7.24189 0ZM6.19214 10.4998C6.19214 13.3992 8.54264 15.7497 11.4421 15.7497C14.3416 15.7497 16.6921 13.3992 16.6921 10.4998C16.6921 7.60036 14.3416 5.2499 11.4421 5.2499C8.54264 5.2499 6.19214 7.60036 6.19214 10.4998Z" fill="#00478F"/>
</svg>
