<svg width="25" height="24" viewBox="0 0 25 24" fill="none" xmlns="http://www.w3.org/2000/svg">
<path fill-rule="evenodd" clip-rule="evenodd" d="M3.562 3H21.5531C22.6571 3 23.5521 3.89543 23.5521 5V19C23.5521 20.1046 22.6571 21 21.5531 21H3.562C2.45797 21 1.56299 20.1046 1.56299 19V5C1.56299 3.89543 2.45797 3 3.562 3ZM3.5615 9.61772V19H21.5526V9.61892L12.5578 14.1185L3.5615 9.61772ZM3.5615 7.38161L12.5578 11.8825L21.5526 7.38285V5H3.5615V7.38161Z" fill="#00478F"/>
<path d="M3.5615 19H3.5115V19.05H3.5615V19ZM3.5615 9.61772L3.58387 9.57301L3.5115 9.5368V9.61772H3.5615ZM21.5526 19V19.05H21.6026V19H21.5526ZM21.5526 9.61892H21.6026V9.538L21.5302 9.5742L21.5526 9.61892ZM12.5578 14.1185L12.5354 14.1633L12.5578 14.1745L12.5802 14.1633L12.5578 14.1185ZM3.5615 7.38161H3.5115V7.4125L3.53913 7.42632L3.5615 7.38161ZM12.5578 11.8825L12.5355 11.9272L12.5578 11.9384L12.5802 11.9272L12.5578 11.8825ZM21.5526 7.38285L21.5749 7.42757L21.6026 7.41375V7.38285H21.5526ZM21.5526 5H21.6026V4.95H21.5526V5ZM3.5615 5V4.95H3.5115V5H3.5615ZM21.5531 2.95H3.562V3.05H21.5531V2.95ZM23.6021 5C23.6021 3.86784 22.6847 2.95 21.5531 2.95V3.05C22.6295 3.05 23.5021 3.92302 23.5021 5H23.6021ZM23.6021 19V5H23.5021V19H23.6021ZM21.5531 21.05C22.6847 21.05 23.6021 20.1322 23.6021 19H23.5021C23.5021 20.077 22.6295 20.95 21.5531 20.95V21.05ZM3.562 21.05H21.5531V20.95H3.562V21.05ZM1.51299 19C1.51299 20.1322 2.43034 21.05 3.562 21.05V20.95C2.48561 20.95 1.61299 20.077 1.61299 19H1.51299ZM1.51299 5V19H1.61299V5H1.51299ZM3.562 2.95C2.43034 2.95 1.51299 3.86784 1.51299 5H1.61299C1.61299 3.92302 2.48561 3.05 3.562 3.05V2.95ZM3.6115 19V9.61772H3.5115V19H3.6115ZM21.5526 18.95H3.5615V19.05H21.5526V18.95ZM21.5026 9.61892V19H21.6026V9.61892H21.5026ZM21.5302 9.5742L12.5354 14.0738L12.5802 14.1633L21.5749 9.66364L21.5302 9.5742ZM12.5802 14.0738L3.58387 9.57301L3.53913 9.66244L12.5354 14.1633L12.5802 14.0738ZM3.53913 7.42632L12.5355 11.9272L12.5802 11.8377L3.58387 7.33689L3.53913 7.42632ZM12.5802 11.9272L21.5749 7.42757L21.5302 7.33813L12.5355 11.8377L12.5802 11.9272ZM21.5026 5V7.38285H21.6026V5H21.5026ZM3.5615 5.05H21.5526V4.95H3.5615V5.05ZM3.6115 7.38161V5H3.5115V7.38161H3.6115Z" fill="black"/>
</svg>
