<svg width="87" height="78" viewBox="0 0 87 78" fill="none" xmlns="http://www.w3.org/2000/svg">
<path d="M26.9092 23.0377C25.523 23.0377 24.1679 23.4488 23.0153 24.2189C21.8627 24.989 20.9644 26.0837 20.4339 27.3644C19.9034 28.6451 19.7646 30.0543 20.0351 31.4139C20.3055 32.7734 20.973 34.0223 21.9532 35.0025C22.9334 35.9827 24.1823 36.6502 25.5418 36.9206C26.9014 37.1911 28.3107 37.0523 29.5913 36.5218C30.872 35.9913 31.9667 35.093 32.7368 33.9404C33.5069 32.7878 33.918 31.4327 33.918 30.0465C33.9158 28.1883 33.1767 26.4069 31.8628 25.0929C30.5489 23.779 28.7674 23.0399 26.9092 23.0377ZM26.9092 35.1003C25.9097 35.1003 24.9326 34.8039 24.1015 34.2485C23.2704 33.6932 22.6227 32.904 22.2401 31.9805C21.8576 31.0571 21.7576 30.0409 21.9526 29.0606C22.1476 28.0802 22.6289 27.1798 23.3357 26.473C24.0424 25.7662 24.9429 25.2849 25.9233 25.0899C26.9036 24.8949 27.9197 24.995 28.8432 25.3775C29.7666 25.76 30.5559 26.4077 31.1112 27.2388C31.6665 28.0699 31.9629 29.047 31.9629 30.0465C31.9614 31.3864 31.4284 32.6709 30.481 33.6183C29.5336 34.5657 28.2491 35.0987 26.9092 35.1003Z" fill="white"/>
<path d="M40.8694 30.0465C40.8747 27.9348 40.3984 25.8497 39.4768 23.9498C38.5551 22.0498 37.2124 20.3849 35.5508 19.0818C33.8675 17.762 31.9056 16.8431 29.814 16.395C27.7225 15.9469 25.5563 15.9813 23.4801 16.4958C20.2333 17.3 17.3858 19.2489 15.4608 21.9844C13.5358 24.7199 12.6626 28.0582 13.0018 31.3859C13.0621 32.1834 13.21 32.9719 13.4428 33.7371C15.2341 39.4934 20.8005 48.2463 25.0223 53.9931C25.2393 54.2898 25.5232 54.5311 25.851 54.6975C26.1788 54.8639 26.5413 54.9506 26.9089 54.9506C27.2765 54.9506 27.6389 54.8639 27.9667 54.6975C28.2945 54.5311 28.5784 54.2898 28.7954 53.9931C33.0177 48.2463 38.5841 39.4934 40.3754 33.7371C40.7261 32.539 40.8927 31.2946 40.8694 30.0465V30.0465ZM38.5091 33.1567C36.7889 38.682 31.3528 47.2106 27.2203 52.8361H27.2198C27.1844 52.8854 27.1377 52.9256 27.0836 52.9533C27.0295 52.9811 26.9696 52.9955 26.9089 52.9955C26.8481 52.9955 26.7882 52.9811 26.7341 52.9533C26.6801 52.9256 26.6334 52.8854 26.5979 52.8361C22.4654 47.2105 17.0293 38.682 15.3091 33.1557C15.1189 32.5261 14.9986 31.8776 14.9502 31.2217C14.6525 28.3605 15.3973 25.488 17.0479 23.132C18.6984 20.776 21.1437 19.0948 23.9345 18.3974C24.9014 18.1652 25.8922 18.0473 26.8866 18.0461C28.4651 18.0416 30.0289 18.3488 31.4884 18.95C32.9479 19.5512 34.2744 20.4345 35.3918 21.5494C36.5092 22.6643 37.3955 23.9887 38 25.4469C38.6045 26.905 38.9152 28.4681 38.9143 30.0465C38.9365 31.0977 38.7999 32.1463 38.5091 33.1567V33.1567Z" fill="white"/>
<path d="M45.3576 52.9535C45.0997 52.9798 44.8628 53.1074 44.699 53.3082C44.5351 53.509 44.4577 53.7667 44.4837 54.0246C44.55 54.6756 44.6173 55.4393 44.6173 56.1744C44.6218 56.6728 44.5841 57.1706 44.5047 57.6626C44.4618 57.9183 44.5221 58.1806 44.6725 58.3918C44.8229 58.603 45.0509 58.7459 45.3066 58.7891C45.3606 58.7977 45.4151 58.8022 45.4698 58.8025C45.7008 58.8021 45.9242 58.7201 46.1004 58.5709C46.2767 58.4217 46.3945 58.2149 46.433 57.9872C46.5304 57.3876 46.577 56.7809 46.5724 56.1734C46.5724 55.3525 46.4999 54.5267 46.4292 53.8279C46.4165 53.7001 46.3787 53.576 46.3179 53.4628C46.2571 53.3496 46.1745 53.2495 46.075 53.1682C45.9754 53.087 45.8608 53.0262 45.7377 52.9894C45.6146 52.9525 45.4854 52.9403 45.3576 52.9535V52.9535Z" fill="white"/>
<path d="M27.8452 56.9963C27.77 56.7482 27.5993 56.5401 27.3707 56.4179C27.1421 56.2956 26.8743 56.2691 26.6262 56.3443C26.378 56.4195 26.17 56.5902 26.0477 56.8188C25.9254 57.0474 25.899 57.3153 25.9741 57.5634C26.4316 58.9916 27.2902 60.2581 28.4476 61.2119C28.645 61.3799 28.9012 61.4626 29.1596 61.4417C29.418 61.4208 29.6576 61.2982 29.8255 61.1007C29.9935 60.9032 30.0762 60.6471 30.0553 60.3887C30.0345 60.1302 29.9118 59.8907 29.7143 59.7227C28.843 59.0117 28.1943 58.0654 27.8452 56.9963V56.9963Z" fill="white"/>
<path d="M36.4142 62.1083C35.19 62.0026 33.9821 61.7563 32.8144 61.3742C32.5683 61.2927 32.3 61.3123 32.0684 61.4286C31.8368 61.5449 31.6609 61.7484 31.5793 61.9944C31.4977 62.2404 31.5171 62.5087 31.6332 62.7404C31.7493 62.972 31.9527 63.1481 32.1986 63.2299C33.5115 63.66 34.8697 63.9371 36.2462 64.0557C36.2744 64.0584 36.3028 64.0596 36.3311 64.0595C36.583 64.0592 36.825 63.9617 37.0067 63.7874C37.1884 63.613 37.2959 63.3752 37.3066 63.1236C37.3173 62.872 37.2305 62.626 37.0642 62.4368C36.898 62.2477 36.6651 62.13 36.4142 62.1083L36.4142 62.1083Z" fill="white"/>
<path d="M66.5052 42.637C65.7409 43.2175 64.8072 43.531 63.8475 43.5295C63.7263 43.5267 63.6127 43.5247 63.4934 43.5162C63.2351 43.4965 62.9797 43.5802 62.7831 43.7487C62.5864 43.9172 62.4647 44.1569 62.4446 44.4151C62.4245 44.6732 62.5077 44.9289 62.6758 45.1258C62.844 45.3227 63.0834 45.4449 63.3416 45.4655C63.5043 45.4779 63.6652 45.4846 63.8189 45.4846C65.2075 45.4991 66.5614 45.0507 67.6669 44.2102C67.8753 44.056 68.0139 43.8254 68.0523 43.5691C68.0907 43.3128 68.0258 43.0517 67.8719 42.8432C67.7179 42.6348 67.4875 42.4959 67.2312 42.4572C66.9749 42.4186 66.7138 42.4832 66.5052 42.637V42.637Z" fill="white"/>
<path d="M66.7864 28.9048C66.6913 28.991 66.6141 29.0951 66.5593 29.2111C66.5044 29.3272 66.473 29.4529 66.4667 29.5811C66.4605 29.7093 66.4796 29.8374 66.5229 29.9582C66.5662 30.0791 66.6329 30.1902 66.7191 30.2852C67.5079 31.087 68.188 31.9888 68.742 32.9677C68.7782 33.0383 68.8121 33.1109 68.845 33.1834C68.9526 33.4194 69.1496 33.6029 69.3925 33.6937C69.6354 33.7845 69.9045 33.775 70.1405 33.6674C70.3764 33.5598 70.56 33.3629 70.6507 33.1199C70.7415 32.877 70.732 32.6079 70.6244 32.372C70.5791 32.2727 70.5318 32.1753 70.4836 32.0799C69.8527 30.9457 69.0737 29.9005 68.1673 28.9716C68.081 28.8766 67.9768 28.7994 67.8608 28.7446C67.7447 28.6898 67.6189 28.6584 67.4907 28.6522C67.3625 28.646 67.2343 28.6651 67.1134 28.7085C66.9926 28.7518 66.8815 28.8185 66.7864 28.9048V28.9048Z" fill="white"/>
<path d="M70.4374 35.6196C70.1786 35.6068 69.9253 35.6973 69.7331 35.871C69.5409 36.0448 69.4255 36.2877 69.4122 36.5465C69.3516 37.7287 69.0686 38.8888 68.5778 39.9659C68.5243 40.0826 68.4943 40.2086 68.4895 40.3369C68.4846 40.4651 68.5051 40.5931 68.5498 40.7134C68.5944 40.8337 68.6623 40.9441 68.7496 41.0382C68.8369 41.1323 68.9418 41.2083 69.0585 41.2618C69.1751 41.3153 69.3012 41.3454 69.4294 41.3502C69.5577 41.355 69.6856 41.3345 69.806 41.2899C69.9263 41.2453 70.0367 41.1774 70.1308 41.0901C70.2249 41.0028 70.3008 40.8978 70.3544 40.7812C70.9485 39.4786 71.2911 38.0755 71.3644 36.6458C71.3774 36.3868 71.2871 36.1332 71.1133 35.9408C70.9395 35.7484 70.6964 35.6328 70.4374 35.6196V35.6196Z" fill="white"/>
<path d="M64.8336 21.8712C64.7105 21.8348 64.5814 21.823 64.4538 21.8365C64.3262 21.85 64.2025 21.8886 64.0897 21.9499C63.977 22.0113 63.8775 22.0942 63.7968 22.1941C63.7162 22.2939 63.656 22.4087 63.6198 22.5318C63.4574 23.071 63.3735 23.6307 63.3706 24.1938C63.3792 25.1989 63.6507 26.1843 64.1582 27.0519C64.2842 27.2784 64.4951 27.4455 64.7444 27.5165C64.9937 27.5875 65.261 27.5565 65.4875 27.4304C65.7139 27.3043 65.881 27.0935 65.952 26.8442C66.023 26.5949 65.9921 26.3276 65.866 26.1011C65.5921 25.6542 65.4172 25.1538 65.3531 24.6336C65.2891 24.1133 65.3373 23.5854 65.4946 23.0854C65.531 22.9623 65.5427 22.8332 65.5291 22.7056C65.5156 22.5779 65.477 22.4541 65.4156 22.3414C65.3542 22.2286 65.2712 22.1291 65.1714 22.0484C65.0715 21.9677 64.9567 21.9075 64.8336 21.8712V21.8712Z" fill="white"/>
<path d="M46.7256 45.4616C46.5013 45.3319 46.2346 45.2964 45.9842 45.363C45.7337 45.4296 45.5199 45.5927 45.3896 45.8168C44.7839 46.8416 44.4014 47.9827 44.267 49.1655C44.2369 49.4414 44.2193 49.7192 44.2107 49.9999C44.2067 50.1283 44.2282 50.2562 44.2737 50.3763C44.3192 50.4964 44.3879 50.6063 44.476 50.6998C44.564 50.7934 44.6696 50.8686 44.7867 50.9213C44.9038 50.974 45.0302 51.0031 45.1586 51.007H45.1882C45.4423 51.007 45.6864 50.908 45.8687 50.731C46.051 50.5541 46.1572 50.313 46.1647 50.0591C46.1714 49.83 46.1862 49.6018 46.2106 49.3756C46.3161 48.4647 46.6128 47.5864 47.0812 46.7981C47.2112 46.5737 47.2468 46.3069 47.1801 46.0562C47.1134 45.8056 46.9499 45.5917 46.7256 45.4616Z" fill="white"/>
<path d="M52.0773 40.7544C51.2932 40.9549 50.5359 41.2485 49.8215 41.6289C49.2693 41.9232 48.7414 42.261 48.2426 42.6388C48.1397 42.7161 48.053 42.8129 47.9877 42.9237C47.9223 43.0345 47.8794 43.1572 47.8615 43.2846C47.8437 43.412 47.8511 43.5417 47.8835 43.6662C47.9159 43.7908 47.9726 43.9077 48.0502 44.0103C48.1279 44.1128 48.2251 44.1991 48.3362 44.264C48.4473 44.3289 48.5701 44.3712 48.6976 44.3886C48.8251 44.4059 48.9548 44.3979 49.0792 44.365C49.2036 44.332 49.3202 44.2749 49.4225 44.1968C49.8391 43.8824 50.2795 43.6009 50.7398 43.3548C51.3153 43.048 51.9255 42.8114 52.5574 42.6503C52.8081 42.586 53.0231 42.4249 53.1553 42.2023C53.2874 41.9798 53.3259 41.7139 53.2624 41.463C53.1988 41.2121 53.0384 40.9966 52.8163 40.8638C52.5941 40.731 52.3283 40.6916 52.0772 40.7544H52.0773Z" fill="white"/>
<path d="M60.224 42.3449L59.8694 42.1511C59.0429 41.6676 58.1749 41.259 57.2757 40.9301C56.9907 40.8344 56.7011 40.7532 56.4079 40.6867C56.2828 40.6582 56.1533 40.6546 56.0268 40.6761C55.9003 40.6977 55.7793 40.7439 55.6707 40.8122C55.562 40.8805 55.4679 40.9695 55.3937 41.0742C55.3195 41.1789 55.2666 41.2972 55.2381 41.4223C55.2095 41.5474 55.2059 41.6769 55.2275 41.8034C55.249 41.9299 55.2952 42.0509 55.3635 42.1595C55.4318 42.2682 55.5209 42.3623 55.6255 42.4365C55.7302 42.5107 55.8485 42.5636 55.9736 42.5921C56.2017 42.6447 56.4285 42.7086 56.6538 42.784C57.4433 43.077 58.2053 43.4392 58.931 43.8666L59.2923 44.0632C59.4051 44.1244 59.5289 44.1627 59.6566 44.1761C59.7842 44.1894 59.9132 44.1775 60.0363 44.141C60.1593 44.1045 60.274 44.0441 60.3737 43.9632C60.4733 43.8824 60.5561 43.7827 60.6173 43.6699C60.6785 43.5571 60.7169 43.4333 60.7302 43.3057C60.7435 43.178 60.7316 43.049 60.6951 42.926C60.6586 42.8029 60.5982 42.6883 60.5173 42.5886C60.4365 42.4889 60.3368 42.4061 60.224 42.3449V42.3449Z" fill="white"/>
<path d="M43.0508 60.5102C42.1877 61.2483 41.1417 61.7403 40.0228 61.9345C39.786 61.9838 39.576 62.1191 39.4332 62.3142C39.2904 62.5094 39.225 62.7505 39.2497 62.9911C39.2744 63.2316 39.3874 63.4545 39.5669 63.6166C39.7463 63.7786 39.9795 63.8684 40.2213 63.8686C40.2887 63.8686 40.3559 63.8616 40.4218 63.8476C41.8848 63.5845 43.2492 62.93 44.3701 61.9536C44.5612 61.7786 44.675 61.5349 44.6865 61.276C44.698 61.0171 44.6063 60.7642 44.4315 60.5729C44.2566 60.3816 44.013 60.2676 43.7541 60.2558C43.4952 60.2441 43.2423 60.3356 43.0508 60.5102V60.5102Z" fill="white"/>
<path d="M63.4509 20.6341L65.5592 18.8236L67.3692 20.9319C67.4528 21.0293 67.5548 21.1093 67.6693 21.1673C67.7839 21.2253 67.9087 21.2601 68.0367 21.2699C68.1647 21.2796 68.2934 21.2641 68.4153 21.2241C68.5373 21.1841 68.6503 21.1205 68.7477 21.0369C68.8451 20.9533 68.9251 20.8513 68.983 20.7368C69.041 20.6223 69.0759 20.4974 69.0857 20.3694C69.0954 20.2414 69.0799 20.1127 69.0399 19.9908C68.9999 19.8688 68.9363 19.7558 68.8527 19.6584L67.0424 17.5499L69.1505 15.7397C69.2479 15.6561 69.3279 15.5541 69.3859 15.4396C69.4439 15.3251 69.4787 15.2002 69.4885 15.0722C69.4982 14.9442 69.4827 14.8156 69.4427 14.6936C69.4027 14.5716 69.3391 14.4587 69.2555 14.3613C69.1719 14.2639 69.0699 14.1839 68.9554 14.1259C68.8409 14.0679 68.716 14.033 68.588 14.0233C68.46 14.0135 68.3314 14.0291 68.2094 14.069C68.0874 14.109 67.9745 14.1726 67.8771 14.2562L65.7688 16.0666L63.9588 13.9584C63.8752 13.861 63.7732 13.781 63.6587 13.7231C63.5442 13.6651 63.4193 13.6302 63.2913 13.6204C63.1633 13.6107 63.0346 13.6262 62.9127 13.6662C62.7907 13.7062 62.6777 13.7698 62.5803 13.8534C62.4829 13.937 62.4029 14.039 62.345 14.1535C62.287 14.2681 62.2521 14.3929 62.2423 14.5209C62.2326 14.6489 62.2482 14.7776 62.2881 14.8996C62.3281 15.0216 62.3917 15.1345 62.4753 15.2319L64.2856 17.3404L62.1775 19.1506C62.0801 19.2342 62.0001 19.3362 61.9421 19.4507C61.8841 19.5652 61.8492 19.6901 61.8395 19.8181C61.8297 19.9461 61.8453 20.0747 61.8853 20.1967C61.9252 20.3187 61.9889 20.4316 62.0725 20.529C62.1561 20.6265 62.2581 20.7064 62.3726 20.7644C62.4871 20.8224 62.612 20.8573 62.74 20.867C62.9985 20.8867 63.2542 20.8029 63.4509 20.6341V20.6341Z" fill="white"/>
<path d="M84.6649 7.06891C83.9253 6.48689 83.0624 6.08163 82.1421 5.88409C81.2219 5.68655 80.2687 5.70195 79.3553 5.92911C77.649 6.34628 75.839 6.70331 73.9761 6.98973C72.4549 7.22456 69.2894 7.71237 67.425 6.79785C66.38 6.13869 65.4709 5.28547 64.7469 4.28429C64.4132 3.88813 64.0887 3.50342 63.7698 3.16358C62.5215 1.83917 60.8746 0.958901 59.0798 0.656752C55.1668 0.00474197 51.3942 1.80134 47.7447 3.53779C45.8064 4.55473 43.766 5.36397 41.6576 5.95201C39.2233 6.61347 36.632 6.37136 34.3624 5.27041C33.4145 4.71124 32.5189 4.06777 31.6866 3.34782C30.2662 2.01724 28.5664 1.02085 26.7116 0.431481C23.8933 -0.0944255 21.0064 -0.139936 18.173 0.296875C12.3544 1.03992 6.8425 3.33339 2.21423 6.93722C1.51929 7.50798 0.960068 8.22623 0.577098 9.03989C0.194128 9.85356 -0.00298988 10.7422 3.42775e-05 11.6415V66.9233C-0.00139212 67.9106 0.240322 68.8831 0.703831 69.7548C1.16734 70.6266 1.83838 71.3708 2.65768 71.9217C3.48895 72.4799 4.44483 72.8249 5.44099 72.9263C6.43715 73.0277 7.44294 72.8823 8.36963 72.5031C11.1019 71.4306 13.9708 70.7462 16.8929 70.4697C19.4985 70.0635 22.1534 70.0929 24.7494 70.5566C26.3241 71.0861 27.7643 71.9526 28.9698 73.0958C29.8934 73.8909 30.8872 74.6006 31.9391 75.216C34.6273 76.5486 37.7084 76.858 40.608 76.0867C42.8557 75.4675 45.0313 74.6115 47.0984 73.5331C50.4763 71.9255 53.9707 70.2625 57.2736 70.8143C58.6456 71.045 59.9045 71.7178 60.8587 72.7303C61.1551 73.0453 61.4553 73.4033 61.7651 73.7717C62.6554 74.9878 63.7823 76.0112 65.0781 76.7807C66.6449 77.4579 68.3412 77.7828 70.0474 77.7324C70.9969 77.7339 71.9449 77.6563 72.8816 77.5005C76.5442 76.9598 80.1224 75.9521 83.5289 74.502C84.572 74.0116 85.453 73.2331 86.068 72.2583C86.6831 71.2835 87.0064 70.1531 86.9999 69.0006V11.8754C87.0029 10.9493 86.794 10.0347 86.3893 9.20163C85.9846 8.36857 85.3948 7.63907 84.6649 7.06891V7.06891ZM85.0449 69.0006C85.0521 69.779 84.8364 70.5433 84.4233 71.2031C84.0103 71.863 83.417 72.3909 82.7137 72.7245C79.4611 74.1021 76.0464 75.0596 72.5518 75.574C70.3392 76.0047 68.0507 75.815 65.9392 75.0261C64.8941 74.3669 63.985 73.5137 63.261 72.5126C62.9274 72.1164 62.6028 71.7317 62.2839 71.3918C61.0357 70.0674 59.3887 69.1875 57.5939 68.886C57.0402 68.7944 56.4799 68.7487 55.9186 68.7495C52.6018 68.7495 49.3847 70.2798 46.2588 71.767C44.3207 72.7839 42.2804 73.5931 40.1722 74.1813C37.7379 74.8433 35.1461 74.6012 32.8766 73.4997C31.9287 72.9405 31.0331 72.297 30.2008 71.5771C28.7804 70.2465 27.0807 69.2501 25.2258 68.6607C22.4076 68.1344 19.5206 68.0889 16.6872 68.5261C13.5828 68.8215 10.535 69.5502 7.6327 70.6912C7.00298 70.95 6.3192 71.0496 5.64181 70.9814C4.96442 70.9131 4.31428 70.679 3.74885 70.2998C3.19242 69.9308 2.73693 69.4287 2.42369 68.8391C2.11045 68.2495 1.94938 67.591 1.95509 66.9233V11.6415C1.9527 11.0312 2.08606 10.428 2.34552 9.87553C2.60498 9.32309 2.98405 8.83527 3.45527 8.44738C7.79515 5.0985 12.9436 2.95711 18.3783 2.24046C20.9841 1.83519 23.6391 1.86454 26.2353 2.32734C27.8099 2.85683 29.2502 3.72339 30.4556 4.86661C31.3792 5.66169 32.3731 6.37133 33.425 6.98681C36.1133 8.31882 39.1942 8.62823 42.0938 7.85743C44.3415 7.23826 46.5172 6.38227 48.5843 5.30386C51.9617 3.69724 55.4522 2.03429 58.759 2.58511C60.1313 2.81602 61.3904 3.48916 62.3446 4.50198C62.641 4.817 62.9412 5.17498 63.251 5.54347C64.1413 6.75947 65.2682 7.78296 66.564 8.55241C68.6861 9.59199 71.5237 9.34665 74.2735 8.92185C76.1923 8.62687 78.0581 8.25935 79.8193 7.82882C80.445 7.67232 81.0981 7.66106 81.7288 7.79591C82.3595 7.93077 82.9509 8.20815 83.4578 8.60683C83.954 8.99466 84.3549 9.49078 84.63 10.0573C84.905 10.6238 85.0469 11.2457 85.0449 11.8754V69.0006Z" fill="white"/>
</svg>
