<svg width="69" height="79" viewBox="0 0 69 79" fill="none" xmlns="http://www.w3.org/2000/svg">
<path d="M64.3909 34.4618C64.8868 33.0568 65.3826 30.9908 65.7958 25.2885C66.7876 13.4707 58.1926 6.94194 52.9861 4.13211C46.9531 0.826421 38.1102 0 34.3086 0C31.2508 0 25.1351 1.48756 23.7302 1.81813C23.4822 1.81813 23.317 1.90077 23.1517 1.98341C22.3252 2.31398 21.912 2.72719 21.7467 3.1404C19.9286 2.89247 17.284 2.72719 14.722 3.71889C10.5072 5.37174 -0.401796 19.6688 0.0114227 29.5859C0.0114227 29.6685 0.0114227 29.8338 0.0114227 29.9991C0.0114227 29.9991 0.0114222 30.247 0.0940659 30.5776C0.17671 30.9908 0.259354 31.4866 0.341997 31.9825C1.08579 35.4535 3.06924 41.9822 7.77993 46.6928C8.02787 47.0234 9.68074 48.6762 11.5815 49.3373C12.4906 50.577 13.2344 51.6513 13.8956 52.7257C14.3088 53.3042 14.5567 53.8 14.722 54.1306C15.3832 55.1223 16.127 56.0313 16.7055 56.6925C16.8707 61.4857 15.3005 63.7997 14.3088 64.7914C13.2344 65.8658 12.7386 67.2707 12.8212 68.7582C12.9038 70.1631 13.6476 71.4028 14.8047 72.2292C14.9699 72.3945 15.2179 72.4771 15.3832 72.5598H15.4658C21.4162 75.9481 30.259 78.51 36.0441 78.51C37.3664 78.51 38.4408 78.4274 39.4325 78.1794C40.5069 77.9315 42.573 76.6092 43.0688 73.5515C43.5647 70.5764 45.3828 66.5269 46.1266 66.1137C46.9531 65.7005 51.1679 66.279 52.5728 66.4443C53.4819 66.5269 54.2257 66.6922 54.8042 66.6922C55.2174 66.6922 57.5315 66.8575 59.267 65.7005C59.4323 65.7831 59.5149 65.7831 59.6802 65.8658C59.8455 65.9484 60.0934 65.9484 60.2587 65.9484C60.9199 65.9484 61.581 65.6178 61.9116 65.0393C62.0769 64.7914 65.6306 59.1718 67.0355 54.7917C68.8537 49.2547 69.7627 41.3211 64.3909 34.4618ZM16.127 51.486C15.3832 50.1638 14.4741 48.9241 13.4824 47.5192C13.3171 47.2713 13.0691 47.106 12.7386 47.0234C11.4989 46.7754 10.094 45.4532 9.68074 44.9573C9.68074 44.9573 9.68074 44.9573 9.5981 44.8747C5.30062 40.7426 3.48246 34.7097 2.82131 31.4866V31.404C2.73867 30.9908 2.65602 30.6602 2.57338 30.247C2.57338 30.247 2.57338 30.247 2.57338 30.1644C2.57338 30.0817 2.57338 29.9991 2.57338 29.9991C2.57338 29.9164 2.57338 29.9164 2.57338 29.8338C1.82958 20.9085 12.5733 7.27251 15.6311 6.03287C18.1104 5.04117 20.8376 5.37174 22.1599 5.70231C22.7385 5.86759 23.317 5.53702 23.5649 4.95853L23.8128 4.38003C23.8955 4.38003 23.9781 4.29739 24.1434 4.21475C26.8706 3.55361 31.9119 2.47926 34.3086 2.47926C37.8623 2.47926 46.1266 3.30568 51.7464 6.36344C56.3745 8.92535 64.0603 14.7103 63.2339 25.1232C62.9033 29.6685 62.4901 31.7346 62.1595 33.0568C61.9942 33.0568 61.8289 33.0568 61.581 33.1395L61.0851 33.3048C60.9199 31.9825 61.0851 30.7429 61.2504 29.4206C61.581 27.4372 61.9116 25.1232 60.9199 22.1481C60.5066 21.0737 59.0191 17.1896 56.2918 13.3054C55.8786 12.7269 55.1348 12.6442 54.5563 12.9748C52.9861 14.0492 51.8291 14.9582 51.0026 15.702L50.8373 15.4541C48.6886 12.3137 46.044 9.75177 42.9035 7.93364C40.1763 6.2808 37.1185 4.87588 34.4739 3.80154C33.8127 3.55361 33.1516 3.80154 32.821 4.46267C32.5731 5.12381 32.821 5.78495 33.4821 6.11552C36.0441 7.27251 39.0193 8.59478 41.5812 10.165C44.3911 11.9005 46.7878 14.1318 48.7712 17.0243L49.2671 17.7681C48.1101 19.3383 44.9696 23.1398 42.2424 24.4621C41.3333 24.8753 40.5069 25.3711 39.7631 26.0323C39.5978 26.1149 39.5151 26.2802 39.4325 26.4455C38.2755 28.8421 37.6143 30.8255 37.3664 32.3131C37.2838 33.0568 37.2011 33.8006 37.2011 34.627C37.2011 34.627 37.2011 34.627 37.2011 34.7097C37.2838 36.1146 37.3664 37.6022 37.6143 38.9244L35.3829 35.9493C34.8044 35.0403 34.2259 34.0485 33.8127 33.1395C32.821 31.2387 31.0855 29.8338 29.102 29.5859C26.4574 29.1727 24.6393 30.6602 24.3087 30.9908C23.1517 31.8999 22.4079 33.1395 22.3252 34.5444C22.0773 36.8584 23.4822 42.1475 26.2095 45.5358C25.3004 47.1886 23.8955 49.9158 22.8211 53.8L18.9368 55.4529C18.3583 54.8744 17.6145 53.8827 16.9534 52.8909C16.7055 52.5604 16.4575 52.0645 16.127 51.486ZM46.4572 53.5521L46.3746 53.6347L35.3003 47.8498C35.8788 47.2713 36.2094 46.6101 36.3747 46.2796C36.4573 46.1969 36.4573 46.1143 36.54 46.0317C36.6226 45.7837 37.0358 44.4615 36.1267 42.8086C35.7962 42.2301 35.0524 41.9822 34.4739 42.3128C33.8954 42.6433 33.6474 43.3871 33.978 43.9656C34.3086 44.5441 34.2259 44.9573 34.2259 45.1226C33.6474 46.1143 33.2342 46.3622 32.9863 46.4449C32.821 46.4449 32.7383 46.5275 32.6557 46.6102H32.5731H32.4904C31.4987 46.6928 30.259 45.949 28.6062 44.3788C28.5235 44.2962 28.5235 44.2962 28.4409 44.2135C28.4409 44.1309 28.3582 44.0482 28.2756 44.0482C25.7963 41.1558 24.5566 36.3625 24.7219 34.7097C24.8045 33.9659 25.1351 33.3874 25.7963 32.8916L25.8789 32.8089C25.9616 32.7263 27.0359 31.7346 28.6888 31.9825C29.8458 32.1478 30.9202 32.9742 31.5813 34.2138C32.0772 35.2055 32.6557 36.2799 33.3169 37.3542C33.3169 37.4369 33.3995 37.4369 33.3995 37.5195L38.7713 43.883C39.1019 44.2962 39.7631 44.4615 40.2589 44.2135C40.7548 43.9656 41.0854 43.3871 40.9201 42.8086C40.9201 42.8086 40.1763 39.5029 39.9284 36.1972L48.1927 38.4286C48.1927 38.5112 48.1927 38.6765 48.2754 38.7592C48.2754 38.9244 49.2671 42.8913 49.5977 45.2052C49.6803 46.7754 47.201 52.5604 46.4572 53.5521ZM49.8456 36.3625C49.8456 36.3625 49.763 36.3625 49.763 36.2799L39.9284 33.5527C39.9284 33.1395 40.011 32.8089 40.011 32.4783C40.1763 31.3214 40.7548 29.6685 41.6639 27.6025C42.2424 27.1893 42.8209 26.776 43.482 26.5281C47.4489 24.6273 51.5811 18.8424 51.9117 18.3465C52.1596 18.016 53.1514 17.1896 55.1348 15.7846C57.2835 19.0077 58.4405 22.0654 58.7711 22.9745C59.5976 25.3711 59.3496 27.1066 59.0191 29.0074C58.7711 30.4123 58.5232 31.9825 58.8538 33.718C58.8538 33.8006 58.8538 33.8833 58.9364 33.9659L49.8456 36.3625ZM55.0522 64.2129C54.4736 64.1303 53.7299 64.0476 52.9034 63.965C48.6059 63.3865 46.044 63.2212 44.8043 63.965C42.9862 65.122 41.0854 70.2458 40.5895 73.1383C40.2589 75.287 39.0193 75.7002 38.854 75.7828C38.1102 75.9481 37.1185 76.1134 36.0441 76.1134C30.6723 76.1134 22.4079 73.7168 16.7055 70.4937C16.6228 70.4937 16.6228 70.4111 16.5402 70.4111C16.4575 70.3284 16.3749 70.3284 16.2922 70.2458C15.7964 69.9152 15.3832 69.2541 15.3832 68.5929C15.3005 67.8492 15.6311 67.1054 16.127 66.6095C17.284 65.4525 19.1021 62.8906 19.2674 58.0148L24.3087 55.7834C24.6393 55.6181 24.8872 55.3702 24.9698 54.957C25.9616 51.4034 27.1186 48.8415 28.0277 47.2713C29.5979 48.5936 31.0028 49.1721 32.4078 49.1721L46.5399 56.5272C47.3663 57.3536 51.5811 61.5684 56.0439 64.1303C55.7133 64.2129 55.3827 64.2129 55.0522 64.2129ZM64.7215 54.0479C63.5645 57.5189 60.9199 62.0642 60.0934 63.3865C55.3001 61.651 49.8456 56.3619 48.4407 55.0396C49.4324 53.4694 52.2423 47.4366 51.9117 44.8747C51.6638 42.8913 51.0026 39.8335 50.672 38.6765L61.9942 35.6187C67.2008 41.6516 66.3744 48.9241 64.7215 54.0479Z" fill="black"/>
<path d="M31.8292 40.1675C31.416 40.0848 30.6722 39.8368 30.3416 39.5888C30.259 39.5061 30.1763 39.4234 30.1763 39.258C30.259 39.258 30.3416 39.3407 30.4243 39.3407C30.5896 39.4234 30.6722 39.4234 30.8375 39.4234C31.3334 39.4234 31.8292 39.0927 31.9945 38.5966C32.1598 38.1832 32.1598 37.2737 30.9201 35.124C30.259 34.0492 29.4326 33.7184 28.854 33.5531C27.4491 33.305 26.2094 34.1318 26.0442 34.2145C25.4657 34.6279 25.383 35.372 25.7962 35.9508C26.2094 36.5296 26.9532 36.6123 27.5317 36.1988C27.6144 36.1162 28.0276 35.8681 28.3582 35.9508C28.4408 35.9508 28.6061 36.0335 28.7714 36.3642C28.854 36.4469 28.854 36.5296 28.9367 36.6123C27.945 37.1083 27.697 37.7698 27.6144 38.2659C27.4491 39.258 28.0276 40.7463 28.854 41.4077C29.8458 42.3172 31.3334 42.5652 31.6639 42.6479C31.7466 42.6479 31.8292 42.6479 31.8292 42.6479C32.4077 42.6479 32.9862 42.2345 33.0689 41.5731C32.9862 40.9116 32.4904 40.2502 31.8292 40.1675Z" fill="black"/>
</svg>
