<svg width="31" height="57" viewBox="0 0 31 57" fill="none" xmlns="http://www.w3.org/2000/svg">
<path d="M26.6932 0H4.30682C3.16458 0 2.06912 0.455205 1.26144 1.26547C0.453753 2.07574 0 3.17471 0 4.3206V52.6794C0 53.8253 0.453753 54.9243 1.26144 55.7345C2.06912 56.5448 3.16458 57 4.30682 57H26.6932C27.8354 57 28.9309 56.5448 29.7386 55.7345C30.5462 54.9243 31 53.8253 31 52.6794V4.3206C31 3.17471 30.5462 2.07574 29.7386 1.26547C28.9309 0.455205 27.8354 0 26.6932 0ZM1.72727 9.5361H29.2727V46.0959H1.72727V9.5361ZM4.30682 1.71H26.6932C27.3788 1.71 28.0364 1.98324 28.5212 2.46962C29.006 2.95599 29.2784 3.61566 29.2784 4.3035V7.809H1.72727V4.3206C1.72503 3.97906 1.79005 3.64044 1.91861 3.32418C2.04717 3.00791 2.23673 2.72024 2.47641 2.47767C2.7161 2.23511 3.00118 2.04242 3.31529 1.91068C3.6294 1.77894 3.96636 1.71074 4.30682 1.71ZM26.6932 55.29H4.30682C3.62117 55.29 2.96361 55.0168 2.47879 54.5304C1.99396 54.044 1.72159 53.3843 1.72159 52.6965V47.823H29.2727V52.6794C29.275 53.0209 29.21 53.3596 29.0814 53.6758C28.9528 53.9921 28.7633 54.2798 28.5236 54.5223C28.2839 54.7649 27.9988 54.9576 27.6847 55.0893C27.3706 55.2211 27.0336 55.2893 26.6932 55.29Z" fill="white"/>
<path d="M15.5 54C16.8807 54 18 52.8807 18 51.5C18 50.1193 16.8807 49 15.5 49C14.1193 49 13 50.1193 13 51.5C13 52.8807 14.1193 54 15.5 54Z" fill="white"/>
<path d="M12.0232 5.98684H18.9768C19.1028 6.01029 19.2319 6.00233 19.3549 5.96353C19.478 5.92473 19.5921 5.85601 19.6895 5.76213C19.7868 5.66825 19.865 5.55147 19.9186 5.41987C19.9722 5.28827 20 5.145 20 5C20 4.855 19.9722 4.71173 19.9186 4.58013C19.865 4.44853 19.7868 4.33175 19.6895 4.23787C19.5921 4.14399 19.478 4.07527 19.3549 4.03647C19.2319 3.99767 19.1028 3.98971 18.9768 4.01316H12.0232C11.8972 3.98971 11.7681 3.99767 11.6451 4.03647C11.522 4.07527 11.4079 4.14399 11.3105 4.23787C11.2132 4.33175 11.135 4.44853 11.0814 4.58013C11.0278 4.71173 11 4.855 11 5C11 5.145 11.0278 5.28827 11.0814 5.41987C11.135 5.55147 11.2132 5.66825 11.3105 5.76213C11.4079 5.85601 11.522 5.92473 11.6451 5.96353C11.7681 6.00233 11.8972 6.01029 12.0232 5.98684V5.98684Z" fill="white"/>
</svg>
