<svg width="25" height="24" viewBox="0 0 25 24" fill="none" xmlns="http://www.w3.org/2000/svg">
<path fill-rule="evenodd" clip-rule="evenodd" d="M12.5585 23.3276L13.2159 22.7533C18.7441 17.9237 21.5541 13.7068 21.5541 10C21.5541 4.75066 17.459 1 12.5585 1C7.65801 1 3.56299 4.75066 3.56299 10C3.56299 13.7068 6.3729 17.9237 11.9011 22.7533L12.5585 23.3276ZM12.5585 20.6634C7.86746 16.4335 5.562 12.8492 5.562 10C5.562 5.8966 8.72454 3 12.5585 3C16.3925 3 19.5551 5.8966 19.5551 10C19.5551 12.8492 17.2496 16.4335 12.5585 20.6634ZM12.5585 5C15.3186 5 17.556 7.23858 17.556 10C17.556 12.7614 15.3186 15 12.5585 15C9.79847 15 7.561 12.7614 7.561 10C7.561 7.23858 9.79847 5 12.5585 5ZM9.56001 10C9.56001 8.34315 10.9025 7 12.5585 7C14.2146 7 15.557 8.34315 15.557 10C15.557 11.6569 14.2146 13 12.5585 13C10.9025 13 9.56001 11.6569 9.56001 10Z" fill="#00478F"/>
</svg>
