<svg width="71" height="75" viewBox="0 0 71 75" fill="none" xmlns="http://www.w3.org/2000/svg">
<path d="M36.0349 38.2491C36.1493 38.3658 36.2862 38.4588 36.4375 38.5227C36.5888 38.5866 36.7514 38.6201 36.916 38.6213C37.0805 38.6225 37.2436 38.5913 37.3958 38.5296C37.548 38.4678 37.6863 38.3768 37.8024 38.2617C37.9186 38.1467 38.0104 38.01 38.0725 37.8595C38.1346 37.7091 38.1657 37.5479 38.1641 37.3855C38.1624 37.223 38.128 37.0625 38.0629 36.9134C37.9977 36.7642 37.9031 36.6293 37.7846 36.5166L37.5727 36.3086C36.4108 35.1621 34.8354 34.5181 33.1927 34.5181C31.5501 34.5181 29.9746 35.1621 28.8128 36.3086L28.5996 36.5178C28.4811 36.6305 28.3865 36.7654 28.3214 36.9146C28.2562 37.0638 28.2218 37.2243 28.2202 37.3867C28.2185 37.5492 28.2496 37.7103 28.3117 37.8608C28.3738 38.0112 28.4656 38.1479 28.5818 38.263C28.698 38.378 28.8362 38.469 28.9884 38.5308C29.1406 38.5925 29.3037 38.6237 29.4683 38.6225C29.6328 38.6213 29.7955 38.5878 29.9467 38.5239C30.098 38.46 30.2349 38.367 30.3494 38.2503L30.5638 38.0399C31.2715 37.3714 32.2133 36.9982 33.1927 36.9982C34.1722 36.9982 35.1139 37.3714 35.8217 38.0399L36.0349 38.2491Z" fill="black"/>
<path d="M30.9759 32.0241C31.0917 32.1707 31.2399 32.2892 31.4091 32.3708C31.5783 32.4524 31.7641 32.4948 31.9524 32.4949H34.4308C34.7595 32.4949 35.0747 32.3661 35.3071 32.1368C35.5395 31.9074 35.67 31.5964 35.67 31.2721C35.67 30.9477 35.5395 30.6367 35.3071 30.4073C35.0747 30.178 34.7595 30.0492 34.4308 30.0492H33.5398L34.3937 26.6777C34.4709 26.364 34.4193 26.0329 34.2501 25.7566C34.0809 25.4803 33.8079 25.2812 33.4906 25.2028C33.1733 25.1244 32.8374 25.1729 32.5562 25.3379C32.275 25.5028 32.0713 25.7708 31.9896 26.0834L30.7504 30.9749C30.7047 31.1552 30.7013 31.3434 30.7404 31.5252C30.7794 31.707 30.86 31.8776 30.9759 32.0241Z" fill="black"/>
<path d="M70.3683 54.4897C70.3774 52.7714 69.9231 51.0815 69.0521 49.5933C68.1811 48.105 66.9247 46.8719 65.4115 46.0201V5.60291C65.4115 4.30635 64.8892 3.0629 63.9597 2.14609C63.0301 1.22929 61.7693 0.714233 60.4547 0.714233C59.14 0.714233 57.8792 1.22929 56.9496 2.14609C56.0201 3.0629 55.4978 4.30635 55.4978 5.60291V46.0201C54.6982 46.4741 53.968 47.0378 53.3292 47.6944C52.0384 47.338 50.7042 47.1571 49.3637 47.1567H41.8665C41.5378 47.1567 41.2227 47.0279 40.9903 46.7987C40.7579 46.5695 40.6273 46.2587 40.6273 45.9345V42.7324C42.3303 41.7535 43.8209 40.453 45.0138 38.9053C46.2067 37.3576 47.0785 35.5931 47.5793 33.7128H49.3018C50.2868 33.7099 51.2307 33.3227 51.9273 32.6357C52.6238 31.9487 53.0165 31.0178 53.0194 30.0463V26.3798C53.0177 25.8671 52.9064 25.3605 52.6929 24.893C52.4794 24.4255 52.1684 24.0076 51.7802 23.6666V11.7138C51.7756 8.7979 50.5991 6.00275 48.5085 3.94092C46.4179 1.87909 43.5838 0.718759 40.6273 0.714233H30.7136C29.6245 0.714129 28.5547 0.99777 27.6125 1.53645C26.6702 2.07514 25.889 2.84974 25.3478 3.78188C24.7361 3.37593 24.0157 3.15893 23.2784 3.15857H20.7999C19.1567 3.15857 17.5807 3.80239 16.4187 4.9484C15.2567 6.09441 14.6039 7.64873 14.6039 9.26942V23.6666C14.2157 24.0076 13.9047 24.4255 13.6912 24.893C13.4776 25.3605 13.3664 25.8671 13.3647 26.3798V30.0463C13.3676 31.0178 13.7603 31.9487 14.4568 32.6357C15.1534 33.3227 16.0972 33.7099 17.0823 33.7128H18.8048C19.3056 35.5931 20.1774 37.3576 21.3703 38.9053C22.5631 40.453 24.0538 41.7535 25.7568 42.7324V45.9345C25.7568 46.2587 25.6262 46.5695 25.3938 46.7987C25.1614 47.0279 24.8462 47.1567 24.5176 47.1567H17.0204C13.3295 47.1487 9.76828 48.498 7.03222 50.9411C4.29616 53.3841 2.58186 56.7454 2.2242 60.3684L0.972596 72.7001C0.95921 72.8702 0.980852 73.0413 1.03622 73.203C1.09159 73.3648 1.17954 73.5138 1.29479 73.6411C1.41065 73.7677 1.55209 73.869 1.71002 73.9385C1.86796 74.0079 2.03888 74.044 2.2118 74.0444H64.1723C64.3448 74.0451 64.5156 74.0103 64.6738 73.9421C64.8319 73.8739 64.9738 73.7739 65.0904 73.6485C65.2071 73.5231 65.2959 73.375 65.3512 73.2138C65.4065 73.0526 65.427 72.8818 65.4115 72.7123L64.5812 63.3627C66.3052 62.5843 67.7666 61.3347 68.7923 59.7621C69.8181 58.1894 70.365 56.3596 70.3683 54.4897ZM50.541 26.3798V30.0463C50.541 30.3705 50.4104 30.6813 50.178 30.9105C49.9456 31.1397 49.6304 31.2685 49.3018 31.2685H48.0006C48.0378 30.8652 48.0626 30.4619 48.0626 30.0463V25.1576H49.3018C49.6304 25.1576 49.9456 25.2864 50.178 25.5156C50.4104 25.7448 50.541 26.0557 50.541 26.3798ZM17.0823 31.2685C16.7537 31.2685 16.4385 31.1397 16.2061 30.9105C15.9737 30.6813 15.8431 30.3705 15.8431 30.0463V26.3798C15.8431 26.0557 15.9737 25.7448 16.2061 25.5156C16.4385 25.2864 16.7537 25.1576 17.0823 25.1576H18.3215V30.0463C18.3215 30.4619 18.3463 30.8652 18.3835 31.2685H17.0823ZM18.3215 19.0468V22.7133H17.0823V9.26942C17.0853 8.2979 17.4779 7.36699 18.1744 6.68001C18.871 5.99304 19.8149 5.60581 20.7999 5.60291H23.2784C23.607 5.60291 23.9222 5.73168 24.1546 5.96088C24.387 6.19008 24.5176 6.50094 24.5176 6.82508C24.5176 7.14922 24.6481 7.46009 24.8805 7.68929C25.1129 7.91849 25.4281 8.04725 25.7568 8.04725C26.0854 8.04725 26.4006 7.91849 26.633 7.68929C26.8654 7.46009 26.996 7.14922 26.996 6.82508C26.9989 5.85356 27.3916 4.92265 28.0881 4.23567C28.7847 3.5487 29.7285 3.16147 30.7136 3.15857H40.6273C42.9271 3.16116 45.132 4.06334 46.7582 5.66719C48.3844 7.27104 49.2991 9.44558 49.3018 11.7138V22.7133H48.0626V19.0468C48.0626 17.4261 47.4098 15.8718 46.2478 14.7258C45.0858 13.5798 43.5098 12.9359 41.8665 12.9359H39.8342C39.2754 11.8451 38.6376 10.7954 37.9258 9.79496C37.8063 9.64111 37.6525 9.51646 37.4763 9.43068C37.3001 9.3449 37.1062 9.30027 36.9097 9.30027C36.7132 9.30027 36.5193 9.3449 36.3431 9.43068C36.1669 9.51646 36.013 9.64111 35.8935 9.79496C35.1817 10.7954 34.5439 11.8451 33.9851 12.9359H24.5176C22.8743 12.9359 21.2983 13.5798 20.1363 14.7258C18.9743 15.8718 18.3215 17.4261 18.3215 19.0468ZM38.1489 15.3803C38.1489 15.7044 38.0183 16.0153 37.7859 16.2445C37.5535 16.4737 37.2383 16.6024 36.9097 16.6024C36.581 16.6024 36.2658 16.4737 36.0334 16.2445C35.801 16.0153 35.6705 15.7044 35.6705 15.3803C35.9391 14.4449 36.3575 13.5579 36.9097 12.7526C37.4641 13.5567 37.8826 14.4441 38.1489 15.3803ZM20.7999 30.0463V19.0468C20.8029 18.0753 21.1955 17.1444 21.8921 16.4574C22.5886 15.7704 23.5325 15.3832 24.5176 15.3803H33.192C33.192 16.3527 33.5837 17.2853 34.2809 17.9729C34.9781 18.6605 35.9237 19.0468 36.9097 19.0468C37.8956 19.0468 38.8412 18.6605 39.5384 17.9729C40.2356 17.2853 40.6273 16.3527 40.6273 15.3803H41.8665C42.8516 15.3832 43.7955 15.7704 44.492 16.4574C45.1886 17.1444 45.5812 18.0753 45.5841 19.0468V30.0463C45.5841 33.2877 44.2785 36.3963 41.9546 38.6884C39.6306 40.9804 36.4786 42.268 33.192 42.268C29.9055 42.268 26.7535 40.9804 24.4295 38.6884C22.1055 36.3963 20.7999 33.2877 20.7999 30.0463ZM40.2927 49.2466C39.8422 50.7596 38.9069 52.088 37.6269 53.033C36.3469 53.978 34.7909 54.4887 33.192 54.4887C31.5931 54.4887 30.0372 53.978 28.7572 53.033C27.4772 52.088 26.5419 50.7596 26.0914 49.2466C26.7305 48.952 27.2715 48.4842 27.6511 47.8977C28.0308 47.3112 28.2333 46.6303 28.2352 45.9345V43.8568C31.4386 44.9975 34.9455 44.9975 38.1489 43.8568V45.9345C38.1507 46.6303 38.3533 47.3112 38.7329 47.8977C39.1126 48.4842 39.6535 48.952 40.2927 49.2466ZM50.541 71.6001V64.2671C50.541 63.9429 50.4104 63.6321 50.178 63.4029C49.9456 63.1737 49.6304 63.0449 49.3018 63.0449C48.9731 63.0449 48.6579 63.1737 48.4255 63.4029C48.1931 63.6321 48.0626 63.9429 48.0626 64.2671V71.6001H18.3215V64.2671C18.3215 63.9429 18.191 63.6321 17.9586 63.4029C17.7262 63.1737 17.411 63.0449 17.0823 63.0449C16.7537 63.0449 16.4385 63.1737 16.2061 63.4029C15.9737 63.6321 15.8431 63.9429 15.8431 64.2671V71.6001H3.58733L4.69022 60.6128C4.98698 57.593 6.41511 54.7909 8.69539 52.7545C10.9757 50.718 13.9441 49.5936 17.0204 49.601H23.613C24.1572 51.699 25.3941 53.5587 27.1285 54.8867C28.863 56.2147 30.9963 56.9356 33.192 56.9356C35.3878 56.9356 37.5211 56.2147 39.2556 54.8867C40.99 53.5587 42.2269 51.699 42.7711 49.601H49.3637C50.1584 49.6038 50.951 49.6816 51.7306 49.8332C50.9155 51.3235 50.5063 52.9967 50.5431 54.6896C50.5799 56.3824 51.0613 58.0369 51.9404 59.4913C52.8195 60.9457 54.0661 62.1503 55.5585 62.9874C57.0508 63.8245 58.7378 64.2654 60.4547 64.2671C61.0283 64.2638 61.6006 64.2106 62.1648 64.1082L62.8215 71.6001H50.541ZM60.4547 61.8227C58.4827 61.8227 56.5915 61.0502 55.1971 59.6749C53.8027 58.2997 53.0194 56.4346 53.0194 54.4897C53.0105 53.1001 53.4063 51.7372 54.1598 50.5629C54.9132 49.3887 55.9927 48.4525 57.2699 47.8656C57.4824 47.7687 57.6621 47.6134 57.7874 47.4183C57.9127 47.2231 57.9783 46.9965 57.9762 46.7656V5.60291C57.9782 4.95523 58.2399 4.33463 58.7043 3.87664C59.1687 3.41866 59.7979 3.16051 60.4547 3.15857C61.1105 3.16337 61.738 3.42244 62.2018 3.87981C62.6655 4.33717 62.9282 4.95612 62.9331 5.60291V8.04725H60.4547V10.4916H62.9331V12.9359H60.4547V15.3803H62.9331V17.8246H59.2154V51.0432C58.3886 51.3315 57.6918 51.8988 57.248 52.6448C56.8043 53.3908 56.6423 54.2676 56.7906 55.12C56.9389 55.9725 57.3879 56.7458 58.0584 57.3033C58.7289 57.8608 59.5777 58.1665 60.4547 58.1665C61.3316 58.1665 62.1804 57.8608 62.8509 57.3033C63.5214 56.7458 63.9704 55.9725 64.1187 55.12C64.267 54.2676 64.105 53.3908 63.6613 52.6448C63.2175 51.8988 62.5207 51.3315 61.6939 51.0432V44.7124H62.9331V46.7656C62.931 46.9965 62.9966 47.2231 63.1219 47.4183C63.2472 47.6134 63.4269 47.7687 63.6394 47.8656C64.9166 48.4525 65.9961 49.3887 66.7495 50.5629C67.503 51.7372 67.8988 53.1001 67.8899 54.4897C67.8899 56.4346 67.1066 58.2997 65.7122 59.6749C64.3178 61.0502 62.4266 61.8227 60.4547 61.8227ZM61.6939 37.3793V34.935H62.9331V37.3793H61.6939ZM62.9331 39.8237V42.268H61.6939V39.8237H62.9331ZM61.6939 32.4907V30.0463H62.9331V32.4907H61.6939ZM61.6939 27.602V25.1576H62.9331V27.602H61.6939ZM61.6939 22.7133V20.269H62.9331V22.7133H61.6939ZM61.6939 54.4897C61.6939 54.7314 61.6212 54.9677 61.485 55.1687C61.3489 55.3697 61.1553 55.5263 60.9289 55.6189C60.7024 55.7114 60.4533 55.7356 60.2129 55.6884C59.9725 55.6412 59.7517 55.5248 59.5784 55.3539C59.4051 55.183 59.2871 54.9652 59.2393 54.7281C59.1914 54.4911 59.216 54.2453 59.3098 54.022C59.4036 53.7987 59.5624 53.6078 59.7662 53.4735C59.97 53.3392 60.2096 53.2675 60.4547 53.2675C60.7833 53.2675 61.0985 53.3963 61.3309 53.6255C61.5633 53.8547 61.6939 54.1656 61.6939 54.4897Z" fill="black"/>
<path d="M31.5934 22.3606L31.296 22.6542C30.7481 23.183 30.1363 23.6431 29.4744 24.0242V25.1618C29.4744 25.4862 29.3438 25.7973 29.1114 26.0267C28.879 26.2561 28.5638 26.385 28.2352 26.385C27.9065 26.385 27.5913 26.2561 27.3589 26.0267C27.1265 25.7973 26.9959 25.4862 26.9959 25.1618V24.9661C26.3889 25.0935 25.7702 25.1591 25.1495 25.1618H24.5175C24.1889 25.1618 23.8737 25.0329 23.6413 24.8035C23.4089 24.5741 23.2783 24.263 23.2783 23.9386C23.2783 23.6141 23.4089 23.303 23.6413 23.0736C23.8737 22.8442 24.1889 22.7153 24.5175 22.7153H25.1495C25.964 22.7184 26.771 22.5621 27.5239 22.2556C28.2769 21.9491 28.9608 21.4984 29.5363 20.9295L29.8337 20.6237C30.0671 20.3933 30.3836 20.2639 30.7136 20.2639C31.0436 20.2639 31.3601 20.3933 31.5934 20.6237C31.8267 20.854 31.9578 21.1664 31.9578 21.4921C31.9578 21.8179 31.8267 22.1303 31.5934 22.3606Z" fill="black"/>
<path d="M43.1057 23.9386C43.1057 24.263 42.9752 24.5741 42.7428 24.8035C42.5104 25.0329 42.1952 25.1618 41.8665 25.1618H41.2345C40.6139 25.1591 39.9951 25.0935 39.3881 24.9661V25.1618C39.3881 25.4862 39.2575 25.7973 39.0251 26.0267C38.7927 26.2561 38.4775 26.385 38.1489 26.385C37.8202 26.385 37.505 26.2561 37.2726 26.0267C37.0402 25.7973 36.9096 25.4862 36.9096 25.1618V24.0242C36.2495 23.646 35.6414 23.1856 35.1004 22.6542L34.7906 22.3606C34.5572 22.1303 34.4261 21.8179 34.4261 21.4921C34.4261 21.1664 34.5572 20.854 34.7906 20.6237C35.0239 20.3933 35.3404 20.2639 35.6704 20.2639C36.0004 20.2639 36.3169 20.3933 36.5503 20.6237L36.8477 20.9295C37.4232 21.4984 38.1071 21.9491 38.8601 22.2556C39.613 22.5621 40.42 22.7184 41.2345 22.7153H41.8665C42.1952 22.7153 42.5104 22.8442 42.7428 23.0736C42.9752 23.303 43.1057 23.6141 43.1057 23.9386Z" fill="black"/>
<path d="M9.64682 25.1578C10.6328 25.1578 11.5784 24.7715 12.2756 24.0839C12.9728 23.3963 13.3645 22.4636 13.3645 21.4912C13.3645 19.9293 11.4784 17.0657 10.6667 15.9083C10.5466 15.7541 10.3921 15.6292 10.2153 15.5433C10.0384 15.4574 9.84396 15.4127 9.64682 15.4127C9.44969 15.4127 9.2552 15.4574 9.07837 15.5433C8.90153 15.6292 8.74709 15.7541 8.62696 15.9083C7.81527 17.0657 5.9292 19.9293 5.9292 21.4912C5.9292 22.4636 6.32088 23.3963 7.01807 24.0839C7.71526 24.7715 8.66085 25.1578 9.64682 25.1578ZM9.64682 18.8684C10.1988 19.6721 10.6171 20.5575 10.886 21.4912C10.886 21.8154 10.7555 22.1262 10.5231 22.3554C10.2907 22.5846 9.97548 22.7134 9.64682 22.7134C9.31817 22.7134 9.00297 22.5846 8.77057 22.3554C8.53818 22.1262 8.40762 21.8154 8.40762 21.4912C8.67643 20.5574 9.09477 19.672 9.64682 18.8684Z" fill="black"/>
<path d="M10.886 45.9349C12.2007 45.9349 13.4615 45.4199 14.391 44.503C15.3206 43.5862 15.8429 42.3428 15.8429 41.0462C15.8429 38.6739 12.4821 34.8595 11.808 34.1188C11.6888 33.9962 11.5456 33.8987 11.3872 33.8321C11.2287 33.7654 11.0583 33.7311 10.886 33.7311C10.7138 33.7311 10.5433 33.7654 10.3849 33.8321C10.2264 33.8987 10.0833 33.9962 9.96406 34.1188C9.28993 34.8595 5.9292 38.6739 5.9292 41.0462C5.9292 42.3428 6.45144 43.5862 7.38102 44.503C8.31061 45.4199 9.5714 45.9349 10.886 45.9349ZM10.886 36.8284C12.2021 38.4564 13.3645 40.2884 13.3645 41.0462C13.3645 41.6945 13.1033 42.3162 12.6385 42.7746C12.1737 43.233 11.5434 43.4906 10.886 43.4906C10.2287 43.4906 9.59832 43.233 9.13353 42.7746C8.66874 42.3162 8.40762 41.6945 8.40762 41.0462C8.40762 40.2677 9.57124 38.449 10.886 36.8284Z" fill="black"/>
</svg>
