<svg width="112" height="100" viewBox="0 0 112 100" fill="none" xmlns="http://www.w3.org/2000/svg">
<path d="M57.3602 59.4403C57.951 60.5569 59.3961 61.2418 60.9227 61.2418C61.3854 61.2418 61.8559 61.1778 62.3116 61.0461H62.3124C64.2737 60.4734 65.2429 58.8233 64.473 57.3662L57.2856 43.7659C56.5148 42.3101 54.2875 41.5913 52.3333 42.1614C50.3721 42.734 49.4029 44.3842 50.1728 45.8413L57.3602 59.4403ZM52.9909 43.4058C53.2323 43.3341 53.4825 43.3015 53.7274 43.3015C54.5351 43.3015 55.2998 43.6628 55.6123 44.2537L62.7997 57.8541C63.207 58.625 62.6934 59.499 61.6558 59.8016C60.619 60.1056 59.4408 59.7221 59.0335 58.9524L51.8461 45.3534C51.4388 44.5824 51.9523 43.7085 52.9909 43.4058Z" fill="black"/>
<path d="M83.7056 0.219099C82.61 -0.0991896 81.4704 -0.0704915 80.316 0.303889C76.1302 1.65922 72.9811 7.28798 72.3921 8.40329L60.5898 30.7339L58.4115 34.8552L56.8816 37.7498L55.3517 34.855L55.352 34.8552L47.0716 19.1886L41.3714 8.40329C40.7824 7.28798 37.6289 1.65792 33.4475 0.303889C32.2939 -0.0704914 31.1544 -0.0978851 30.0579 0.219099C28.3838 0.708272 26.5209 2.11709 27.1547 6.05787C27.5717 8.65375 28.8543 11.2196 29.2371 11.9436L30.1728 13.714L30.1721 13.7138L38.4524 29.3803L38.4527 29.3804L49.8793 51.0005L40.281 69.161L40.2802 69.1612L31.9902 84.8461L31.9911 84.8458L27.4778 93.3851C26.8413 94.5891 26.8747 95.9053 27.5708 97.091C28.267 98.2768 29.5426 99.1899 31.1623 99.6634C31.934 99.8878 32.7399 100 33.545 100C34.4299 100 35.3139 99.8643 36.1506 99.5943C37.7466 99.0764 38.9765 98.1294 39.6121 96.9254L48.8893 79.3714L48.8898 79.3712L56.8813 64.2511L64.8728 79.3712L64.8739 79.3716L74.1514 96.9254C74.787 98.1294 76.0169 99.0764 77.6129 99.5943C78.4487 99.8643 79.3327 100 80.2177 100C81.0227 100 81.8286 99.8878 82.6003 99.6634C85.9451 98.6864 87.5991 95.8701 86.2857 93.3851L63.8844 50.9999L75.3108 29.3804L75.3111 29.3803L83.5914 13.7138L83.5907 13.714L84.5264 11.9436C85.4043 10.2817 89.4892 1.90707 83.7056 0.219099ZM73.91 28.3759L61.672 32.3428L68.093 20.193L80.3309 16.2261L73.91 28.3759ZM30.9104 11.4557C30.6523 10.9666 29.3424 8.40068 28.9404 5.89873C28.5409 3.41503 29.1379 1.92273 30.7146 1.46356C31.0025 1.37877 31.2949 1.33702 31.5934 1.33702C31.9595 1.33702 32.3361 1.40094 32.7294 1.52747C35.6581 2.47712 38.4875 6.60314 39.6982 8.89116L44.7416 18.4337L32.5029 14.4689L30.9104 11.4557ZM33.4326 16.2261L45.6705 20.193L52.0915 32.3428L39.8535 28.3759L33.4326 16.2261ZM53.0215 34.1002L71.153 68.4066L58.9143 64.4417L56.3237 59.5401C56.3451 59.504 56.3824 59.4774 56.402 59.4404L56.2472 59.3952L40.7828 30.1353L53.0215 34.1002ZM61.9161 45.3535L61.4082 46.3145L59.8263 43.3217C60.1448 43.2967 60.4671 43.3158 60.773 43.4059C61.8107 43.7085 62.3234 44.5825 61.9161 45.3535ZM66.0721 77.9848L59.8433 66.1988L72.0813 70.1656L78.5119 82.3324L66.274 78.3668L66.0721 77.9848ZM54.3264 59.4148C53.7778 59.857 52.9072 60.0354 52.1073 59.8017C51.6042 59.6556 51.2083 59.3725 50.9924 59.0034C50.7764 58.6355 50.7659 58.2272 50.9634 57.8541L52.2324 55.4528L54.3264 59.4148ZM50.8449 52.8274L51.2668 53.6259L49.2901 57.3663C48.917 58.072 48.9363 58.8429 49.3445 59.5382C49.7519 60.2335 50.4998 60.7683 51.4506 61.0462C51.9071 61.1792 52.3768 61.2418 52.8403 61.2418C53.6254 61.2418 54.3835 61.0553 55.0202 60.7275L55.9158 62.4222L54.8485 64.4416L42.611 68.4061L50.8449 52.8274ZM41.6813 70.1656L53.9193 66.1988L47.4886 78.3668L35.2507 82.3324L41.6813 70.1656ZM37.9388 96.4375C37.4779 97.3089 36.5878 97.995 35.4316 98.3694C34.2745 98.7438 32.9928 98.7608 31.8199 98.419C30.647 98.0772 29.7226 97.4159 29.2187 96.5562C28.7147 95.6979 28.6902 94.7443 29.1511 93.8729L34.3211 84.0909L46.5593 80.1262L37.9388 96.4375ZM81.9436 98.419C80.769 98.7608 79.4873 98.7438 78.3319 98.3694C77.1757 97.995 76.2856 97.3089 75.8247 96.4375L67.204 80.1264L79.4427 84.0913L84.6124 93.8729C85.5632 95.6731 84.3657 97.712 81.9436 98.419ZM62.919 49.173L62.3738 48.1415L63.5894 45.8413C64.3593 44.3843 63.3901 42.7341 61.4306 42.1628C60.698 41.9474 59.9074 41.9205 59.1558 42.0529L57.8471 39.5768L60.7417 34.1003L72.9807 30.1353L62.919 49.173ZM69.0218 18.4338L74.0653 8.89116C75.2742 6.60314 78.1019 2.47712 81.0341 1.52747C81.747 1.29789 82.4045 1.27441 83.0489 1.46356C86.5315 2.47973 84.4439 8.44373 82.8531 11.4557L81.2606 14.4689L69.0218 18.4338Z" fill="black"/>
<path d="M110.798 84.2853H107.876V23.6276C109.297 23.3331 110.349 22.3734 110.349 21.225V12.8764C110.349 11.495 108.836 10.3718 106.977 10.3718C105.119 10.3718 103.606 11.495 103.606 12.8764V21.225C103.606 22.3734 104.658 23.3331 106.078 23.6276V84.2853H103.157C102.66 84.2853 102.258 84.584 102.258 84.9532C102.258 85.3223 102.66 85.621 103.157 85.621H106.078V88.9605C106.078 89.3296 106.481 89.6283 106.977 89.6283C107.474 89.6283 107.876 89.3296 107.876 88.9605V85.621H110.798C111.295 85.621 111.697 85.3223 111.697 84.9532C111.697 84.584 111.295 84.2853 110.798 84.2853Z" fill="black"/>
<path d="M8.54033 84.2852H5.61864V23.6276C7.03936 23.3331 8.09084 22.3734 8.09084 21.2249V12.8764C8.09084 11.495 6.57823 10.3718 4.71966 10.3718C2.86115 10.3718 1.34847 11.495 1.34847 12.8764V21.2249C1.34847 22.3734 2.40003 23.3331 3.82067 23.6276V84.2852H0.898982C0.402121 84.2852 0 84.584 0 84.9531C0 85.3223 0.402121 85.621 0.898982 85.621H3.82067V88.9604C3.82067 89.3296 4.22279 89.6283 4.71966 89.6283C5.21659 89.6283 5.61864 89.3296 5.61864 88.9604V85.621H8.54033C9.03726 85.621 9.43931 85.3223 9.43931 84.9531C9.43931 84.584 9.03726 84.2852 8.54033 84.2852Z" fill="black"/>
</svg>
