<svg width="290" height="111" viewBox="0 0 290 111" fill="none" xmlns="http://www.w3.org/2000/svg">
<path d="M16.8134 15.6541C22.832 15.6541 27.7242 17.1668 31.4898 20.1922L26.9517 27.4338C25.439 26.3717 23.8459 25.5188 22.1722 24.8751C20.5308 24.2314 18.7445 23.9095 16.8134 23.9095C15.5582 23.9095 14.6731 24.0544 14.1582 24.344C13.6754 24.6015 13.434 24.9556 13.434 25.4061C13.434 25.7924 13.7237 26.082 14.303 26.2751C14.9145 26.4683 15.6709 26.6775 16.5721 26.9028L20.9653 27.9166C24.216 28.6568 26.662 29.7511 28.3035 31.1994C29.9771 32.6478 30.8139 34.6593 30.8139 37.2341C30.8139 39.8089 30.1863 41.9331 28.9311 43.6068C27.6759 45.2482 25.9701 46.4712 23.8137 47.2758C21.6895 48.0805 19.2756 48.4828 16.5721 48.4828C14.5444 48.4828 12.5168 48.3058 10.4891 47.9517C8.46145 47.5655 6.57863 47.0184 4.84064 46.3103C3.10265 45.57 1.60605 44.6849 0.350833 43.655L4.79236 36.2686C5.72572 37.0088 6.8522 37.6847 8.17178 38.2962C9.49137 38.8756 10.8592 39.3422 12.2754 39.6963C13.6915 40.0503 15.0111 40.2273 16.2341 40.2273C17.3928 40.2273 18.1813 40.0986 18.5997 39.8411C19.0503 39.5514 19.2756 39.1974 19.2756 38.779C19.2756 38.3284 19.0825 37.9905 18.6963 37.7652C18.3422 37.5399 17.6824 37.3146 16.7169 37.0893L11.8891 36.0272C10.1833 35.641 8.558 35.126 7.01312 34.4823C5.46824 33.8386 4.21303 32.9052 3.24748 31.6822C2.28193 30.427 1.79916 28.7373 1.79916 26.6131C1.79916 24.4245 2.37849 22.5095 3.53715 20.8681C4.72799 19.2266 6.43379 17.9553 8.65456 17.0541C10.9075 16.1208 13.6271 15.6541 16.8134 15.6541ZM64.3879 16.1369V48H52.2219L44.5941 33.5168L42.8561 29.6063H42.7596L42.9527 36.172V48H33.2006V16.1369H45.3665L52.9944 30.6684L54.7324 34.5306H54.8289L54.6358 27.9649V16.1369H64.3879ZM83.462 15.6541C88.5472 15.6541 92.506 17.0863 95.3382 19.9508C98.2027 22.8153 99.6349 26.8545 99.6349 32.0684C99.6349 37.2824 98.2027 41.3216 95.3382 44.1861C92.506 47.0505 88.5472 48.4828 83.462 48.4828C80.1147 48.4828 77.2181 47.8391 74.772 46.5517C72.3582 45.2643 70.4914 43.3975 69.1719 40.9515C67.8845 38.5054 67.2408 35.5444 67.2408 32.0684C67.2408 28.5925 67.8845 25.6314 69.1719 23.1854C70.4914 20.7393 72.3582 18.8726 74.772 17.5852C77.2181 16.2978 80.1147 15.6541 83.462 15.6541ZM83.462 24.1027C81.8206 24.1027 80.6136 24.7464 79.8412 26.0338C79.1009 27.289 78.7308 29.3005 78.7308 32.0684C78.7308 34.8363 79.1009 36.864 79.8412 38.1514C80.6136 39.4066 81.8206 40.0342 83.462 40.0342C85.1034 40.0342 86.2943 39.4066 87.0345 38.1514C87.7748 36.864 88.1449 34.8363 88.1449 32.0684C88.1449 29.3005 87.7748 27.289 87.0345 26.0338C86.2943 24.7464 85.1034 24.1027 83.462 24.1027ZM107.745 48L98.7169 16.1369H110.835L114.552 39.1652L119.042 16.1369H128.697L133.428 39.0204L137.049 16.1369H148.732L139.656 48H127.732L125.221 36.0272L123.966 27.8683H123.821L122.566 36.0272L120.104 48H107.745Z" fill="#00478F"/>
<path d="M73.8727 64.8493V96.7124H64.0724V85.6569L64.2172 74.9393H64.0724L57.8929 96.7124H48.9132L42.8303 74.9393H42.6372L42.782 85.6569V96.7124H32.9334V64.8493H48.6719L52.3409 78.9946L53.741 84.9327H53.8375L55.2376 78.9946L58.9067 64.8493H73.8727ZM92.4712 64.3665C97.5564 64.3665 101.515 65.7988 104.347 68.6632C107.212 71.5277 108.644 75.5669 108.644 80.7809C108.644 85.9948 107.212 90.034 104.347 92.8985C101.515 95.763 97.5564 97.1952 92.4712 97.1952C89.124 97.1952 86.2273 96.5515 83.7813 95.2641C81.3674 93.9767 79.5007 92.11 78.1811 89.6639C76.8937 87.2179 76.25 84.2568 76.25 80.7809C76.25 77.3049 76.8937 74.3439 78.1811 71.8978C79.5007 69.4517 81.3674 67.585 83.7813 66.2976C86.2273 65.0102 89.124 64.3665 92.4712 64.3665ZM92.4712 72.8151C90.8298 72.8151 89.6228 73.4588 88.8504 74.7462C88.1101 76.0014 87.74 78.0129 87.74 80.7809C87.74 83.5488 88.1101 85.5764 88.8504 86.8638C89.6228 88.119 90.8298 88.7466 92.4712 88.7466C94.1126 88.7466 95.3035 88.119 96.0437 86.8638C96.784 85.5764 97.1541 83.5488 97.1541 80.7809C97.1541 78.0129 96.784 76.0014 96.0437 74.7462C95.3035 73.4588 94.1126 72.8151 92.4712 72.8151ZM141.16 64.8493V83.0016C141.16 92.464 136.026 97.1952 125.759 97.1952C115.492 97.1952 110.359 92.464 110.359 83.0016V64.8493H121.656V83.8706C121.656 87.1213 123.024 88.7466 125.759 88.7466C128.527 88.7466 129.911 87.1213 129.911 83.8706V64.8493H141.16ZM175.095 64.8493V96.7124H162.929L155.301 82.2292L153.563 78.3187H153.466L153.659 84.8844V96.7124H143.907V64.8493H156.073L163.701 79.3808L165.439 83.243H165.536L165.343 76.6773V64.8493H175.095ZM208.218 64.8493V73.1047H198.272V96.7124H187.024V73.1047H177.03V64.8493H208.218ZM203.458 96.7124L213.79 64.8493H227.307L237.687 96.7124H226.197L224.749 90.6295H216.155L214.659 96.7124H203.458ZM219.149 78.4153L217.845 83.6292H223.107L221.852 78.4153L220.549 73.0082H220.404L219.149 78.4153ZM249.44 64.8493V96.7124H238.192V64.8493H249.44ZM284.007 64.8493V96.7124H271.842L264.214 82.2292L262.476 78.3187H262.379L262.572 84.8844V96.7124H252.82V64.8493H264.986L272.614 79.3808L274.352 83.243H274.449L274.255 76.6773V64.8493H284.007Z" fill="#00478F"/>
<path d="M149.308 24.575L156.288 14.8783L163.27 24.577C158.841 22.7099 153.735 22.7085 149.308 24.575Z" stroke="#00478F" stroke-width="3" stroke-miterlimit="10" stroke-linecap="round" stroke-linejoin="round"/>
<path d="M134.266 46.5L156.352 15L167.812 30.751L163.516 36.6551L159.219 30.7497L147.759 46.5H134.266Z" stroke="#00478F" stroke-width="3" stroke-miterlimit="10" stroke-linecap="round" stroke-linejoin="round"/>
<path d="M178.894 29.72L174.171 23.1581L169.448 29.718C172.412 28.3414 175.927 28.3414 178.894 29.72Z" stroke="#00478F" stroke-width="3" stroke-miterlimit="10" stroke-linecap="round" stroke-linejoin="round"/>
<path d="M171.035 46.5L163.176 36.8625L174.182 22L193.045 46.5H171.035Z" stroke="#00478F" stroke-width="3" stroke-miterlimit="10" stroke-linecap="round" stroke-linejoin="round"/>
<path d="M146.726 46.5L159.188 31L171.646 46.5H159.186H146.726Z" stroke="#00478F" stroke-width="3" stroke-miterlimit="10" stroke-linecap="round" stroke-linejoin="round"/>
<path d="M171.186 41.447L175.658 35.2356L180.127 41.447L175.658 35.2356L171.186 41.447Z" stroke="#00478F" stroke-width="3" stroke-miterlimit="10" stroke-linecap="round" stroke-linejoin="round"/>
<path d="M142.13 41.7897L145.112 37.6483L148.09 41.7897L145.112 37.6483L142.13 41.7897Z" stroke="#00478F" stroke-width="3" stroke-miterlimit="10" stroke-linecap="round" stroke-linejoin="round"/>
<path d="M168.209 31.4403L174.171 23.1582L178.02 28.5051C179.545 26.6883 180.459 24.4119 180.459 21.9321C180.459 16.0049 175.272 11.1997 168.871 11.1997C164.128 11.1997 160.054 13.8411 158.261 17.6188L168.209 31.4403Z" stroke="#00478F" stroke-width="3" stroke-miterlimit="10" stroke-linecap="round" stroke-linejoin="round"/>
<path d="M161.583 5.64264L163.167 9.18306L161.583 5.64264Z" stroke="#00478F" stroke-width="3" stroke-miterlimit="10" stroke-linecap="round" stroke-linejoin="round"/>
<path d="M168.87 2V8.13415V2Z" stroke="#00478F" stroke-width="3" stroke-miterlimit="10" stroke-linecap="round" stroke-linejoin="round"/>
<path d="M182.638 27.2142L186.461 28.6812L182.638 27.2142Z" stroke="#00478F" stroke-width="3" stroke-miterlimit="10" stroke-linecap="round" stroke-linejoin="round"/>
<path d="M153.649 7.83807L158.334 12.1741L153.649 7.83807Z" stroke="#00478F" stroke-width="3" stroke-miterlimit="10" stroke-linecap="round" stroke-linejoin="round"/>
<path d="M186.462 15.1846L182.636 16.6509L186.462 15.1846Z" stroke="#00478F" stroke-width="3" stroke-miterlimit="10" stroke-linecap="round" stroke-linejoin="round"/>
<path d="M190.392 21.9322H183.771H190.392Z" stroke="#00478F" stroke-width="3" stroke-miterlimit="10" stroke-linecap="round" stroke-linejoin="round"/>
<path d="M176.157 5.64264L174.572 9.18306L176.157 5.64264Z" stroke="#00478F" stroke-width="3" stroke-miterlimit="10" stroke-linecap="round" stroke-linejoin="round"/>
<path d="M184.089 7.83807L179.407 12.1741L184.089 7.83807Z" stroke="#00478F" stroke-width="3" stroke-miterlimit="10" stroke-linecap="round" stroke-linejoin="round"/>
</svg>
