<svg width="263" height="300" viewBox="0 0 263 300" fill="none" xmlns="http://www.w3.org/2000/svg">
<path d="M189.08 107.876C189.653 105.771 192.92 106.482 192.399 108.642C192.299 108.99 192.16 109.324 191.984 109.638C193.594 108.925 195.321 108.524 197.079 108.454C198.641 108.411 200.324 109.1 201.87 108.912C201.004 107.295 199.63 106.024 197.978 105.309C195.779 104.949 195.127 103.399 193.141 102.871C188.51 101.661 183.788 100.879 179.031 100.536C181.901 103.685 185.058 106.544 188.458 109.072C188.566 108.785 188.7 108.51 188.859 108.249C188.846 108.247 189.061 107.82 189.08 107.876ZM160.68 134.476C160.685 134.492 160.622 134.514 160.537 134.526C162.56 137.631 164.519 140.779 166.311 144.06C167.268 145.78 168.399 147.735 169.592 149.837C170.505 149.219 171.497 148.735 172.542 148.399C173.946 147.892 174.533 146.558 175.853 145.859C175.505 145.347 175.182 144.817 174.885 144.271C174.655 144.255 174.429 144.19 174.223 144.081C174.017 143.971 173.834 143.82 173.686 143.635C171.941 141.505 167.681 142.084 165.675 139.914C164.182 138.334 162.976 136.493 162.116 134.478C161.678 134.405 161.084 134.501 160.68 134.476ZM296.374 114.463C302.372 115.738 301.843 126.636 300.652 130.841C299.713 134.106 298.356 137.223 296.618 140.112C296.56 140.394 296.413 140.648 296.199 140.833C293.953 144.421 291.172 147.619 287.956 150.311C278.408 158.376 267.469 165.389 257.214 172.481C246.713 179.731 236.167 187.384 225.439 194.289C216.199 200.246 207.867 207.777 198.874 214.077C190.299 220.063 181.508 226.233 173.316 232.718C159.591 243.607 145.078 253.662 131.506 264.852C124.058 270.98 116.959 278.081 109.125 283.643C102.495 288.321 91.2863 289.159 83.5744 288.905C79.4408 288.755 66.0193 287.922 64.5812 282.353C63.1821 276.957 69.5203 275.802 73.3217 273.812C89.0528 265.567 103.311 253.922 117.584 243.266C114.999 239.891 113.472 235.793 113.21 231.524C113.019 231.338 112.878 231.104 112.799 230.846C112.721 230.588 112.708 230.314 112.762 230.051C112.903 229.288 113.084 228.534 113.305 227.791C113.239 227.751 113.175 227.705 113.115 227.654C111.283 225.344 109.854 222.726 108.891 219.92C107.909 217.024 108.54 212.494 106.735 210.071C103.054 205.079 102.743 197.032 100.193 191.407C95.0866 180.089 85.5305 167.953 85.3965 155.148C85.3086 147.724 91.3371 142.939 97.5183 139.73C96.7151 138.684 96.0534 137.532 95.5516 136.306C95.0885 135.155 94.8876 133.874 94.3941 132.734C93.8034 131.712 93.0975 130.765 92.2915 129.912C92.2709 129.902 92.2808 129.881 92.2656 129.886C90.8636 130.3 89.348 130.421 88.5065 128.827C88.1157 127.717 87.9831 126.531 88.1195 125.365C88.2559 124.199 88.6574 123.086 89.2915 122.115C87.4741 122.055 85.673 121.71 83.9508 121.09C83.1986 122.14 82.1083 122.879 80.871 123.179C79.6337 123.479 78.3284 123.319 77.1838 122.729C74.5421 121.641 70.8449 123.144 68.8854 120.902C68.8604 120.869 68.8372 120.834 68.8162 120.798C68.5197 120.851 68.2143 120.823 67.9294 120.719C65.1435 119.711 62.5713 118.151 60.3598 116.127C58.1483 114.103 56.3407 111.655 55.0404 108.923C53.7402 106.19 52.9726 103.227 52.7816 100.203C52.5907 97.1786 52.98 94.1521 53.9275 91.2962C56.4742 83.4905 67.5986 70.3602 77.2458 73.5862C78.6512 72.4378 80.4423 71.9034 82.2393 72.0965C82.3328 71.7528 82.5435 71.4566 82.8332 71.2619C85.7242 69.1798 85.7245 65.1107 88.3491 62.7726C89.938 60.987 92.1117 59.8669 94.4628 59.6222C100.143 59.7505 105.186 58.9364 110.558 61.745C112.031 62.5091 112.118 64.1256 112.214 65.5705C112.105 66.8101 111.85 68.0298 111.456 69.2032C110.75 72.5571 112.167 71.8221 112.317 74.1194C112.51 76.6976 111.673 77.2858 114.68 78.2907C115.98 78.7309 117.069 79.6713 117.718 80.9138C119.981 79.1382 122.503 77.7407 125.194 76.7718C129.436 75.293 136.833 70.6058 141.387 73.1072C141.506 73.1882 141.618 73.2792 141.722 73.3795C146.777 73.2463 150.131 80.9203 151.674 85.4729C153.512 85.8614 155.228 86.7256 156.66 87.9836C158.092 89.2416 159.193 90.8516 159.857 92.661C160.439 92.3075 161.048 92.0028 161.678 91.75C163.847 90.5476 166.084 89.477 168.377 88.5435C173.262 87.192 177.378 92.1203 177.572 96.9199C183.881 97.1394 190.14 98.258 196.171 100.244C197.226 100.614 197.302 101.476 198.633 101.863C199.86 102.113 201.022 102.637 202.036 103.397C203.569 104.965 204.847 106.775 205.823 108.757C205.954 108.972 206.042 109.212 206.081 109.462C206.869 109.768 207.612 110.185 208.291 110.7C209.304 111.476 209.29 113.442 210.273 114.118C211.299 114.691 212.362 115.192 213.452 115.618C215.557 116.41 217.401 117.811 218.759 119.652C219.742 121.601 220.194 123.67 221.045 125.68C221.071 125.756 221.085 125.835 221.088 125.916C221.64 126.195 222.145 126.561 222.586 127.003C223.388 127.757 224.022 128.681 224.445 129.709C224.868 130.737 225.07 131.845 225.036 132.956C225.001 134.067 224.732 135.154 224.247 136.141C223.762 137.129 223.073 137.993 222.227 138.675C224.676 139.968 227.01 141.481 229.203 143.198C233.347 146.713 233.601 151.841 230.936 156.545C232.232 157.399 233.479 158.33 234.671 159.332C234.76 159.427 234.842 159.529 234.917 159.635C238.713 156.683 242.501 153.699 246.178 150.584C257.133 141.288 269.429 132.94 279.607 122.778C284.209 118.184 289.357 112.986 296.374 114.463ZM297.784 122.795C297.768 121.912 297.508 121.048 297.035 120.306C296.561 119.564 295.894 118.973 295.11 118.604C294.379 118.301 291.32 117.352 290.986 118.375C290.836 118.834 291.336 120.123 291.367 120.666C291.442 121.361 291.47 122.074 291.561 122.763C291.829 124.557 291.909 126.909 292.272 128.825C292.965 128.805 293.714 128.692 294.324 128.645C295.372 128.74 296.425 128.757 297.474 128.694C297.516 128.695 297.559 128.699 297.601 128.705C298.169 128.637 297.851 123.364 297.784 122.795ZM296.77 132.27C295.522 132.336 294.238 132.136 293.003 132.14C292.174 132.186 291.342 132.155 290.517 132.045C290.21 131.951 289.928 131.783 289.695 131.555C289.462 131.327 289.285 131.046 289.177 130.735C288.39 127.293 287.835 123.802 287.516 120.287C284.824 122.421 282.263 124.723 279.846 127.18C280.331 129.772 279.773 132.294 280.307 134.881C280.494 135.634 280.576 136.41 280.551 137.184C280.518 137.511 280.541 137.835 280.529 138.173C283.367 138.311 286.208 138.302 289.042 138.147C290.745 137.997 292.472 137.704 294.191 137.702C295.258 136.006 296.124 134.182 296.77 132.27ZM291.05 142.221C291.274 141.937 291.491 141.623 291.716 141.321C289.641 141.641 287.544 141.81 285.442 141.827C283.476 141.759 280.363 142.32 278.526 141.386C277.981 140.997 277.554 140.455 277.298 139.826C277.042 139.196 276.966 138.506 277.081 137.838C277.309 136.132 276.557 134.758 276.643 133.106C276.708 132.03 276.808 130.958 276.79 129.893C274.867 131.507 272.936 133.104 270.99 134.708C271.353 136.673 271.043 138.611 271.224 140.621C271.313 141.713 271.301 142.809 271.188 143.896C271.177 144.075 271.14 144.25 271.078 144.417C271.308 144.603 271.488 144.846 271.603 145.122C271.843 145.112 272.134 145.103 272.473 145.095C277.589 145.376 282.712 145.363 287.819 145.057C288.071 145.019 288.329 145.043 288.572 145.128C289.431 144.209 290.264 143.233 291.05 142.221ZM279.214 153.044C281.092 151.722 282.928 150.324 284.65 148.855C279.554 149.203 274.432 149.036 269.356 148.358C267.392 148.061 267.673 145.448 267.787 144.095C268.008 141.801 268.067 139.492 267.966 137.186C265.855 138.925 263.739 140.656 261.619 142.378C261.746 142.634 261.805 142.92 261.791 143.206C261.694 145.923 261.68 148.612 261.468 151.331C261.44 151.672 261.407 151.998 261.375 152.325C261.704 152.549 261.953 152.878 262.085 153.26C262.595 153.288 263.247 153.522 263.829 153.598C266.365 153.803 268.911 153.739 271.427 153.409C273.768 153.241 276.081 153.358 278.398 152.957C278.671 152.901 278.956 152.931 279.214 153.044ZM268.885 159.752C270.407 158.798 271.927 157.841 273.441 156.869C271.595 156.92 269.746 156.955 267.903 157.17C265.059 157.4 262.191 157.163 259.408 156.47C258.81 156.264 258.311 155.824 258.021 155.246C257.732 154.668 257.674 153.998 257.861 153.382C258.31 150.625 258.482 147.826 258.376 145.027C254.941 147.833 251.491 150.645 248.085 153.479C246.519 154.778 244.919 156.026 243.346 157.295C243.425 157.573 243.441 157.865 243.392 158.149C242.91 161.111 242.45 164.083 241.787 166.992C246.572 165.053 251.475 163.428 256.466 162.126C260.363 161.27 264.704 161.032 268.504 159.78C268.657 159.759 268.769 159.775 268.885 159.752ZM261.604 164.623C259.535 164.859 257.495 165.291 255.508 165.914C251.159 167.413 242.882 170.336 240.648 171.132C239.665 172.567 237.014 171.824 237.593 169.886C238.45 166.721 239.13 163.506 239.628 160.257C235.629 163.354 231.586 166.372 227.543 169.39C227.724 169.664 227.816 169.989 227.804 170.318C227.745 172.685 227.431 175.035 226.868 177.324C226.531 178.551 226.42 180.015 225.058 180.49C223.423 180.749 221.757 180.762 220.113 180.53C218.025 180.667 215.929 180.643 213.841 180.457C213.587 180.414 213.347 180.307 213.142 180.143C210.098 182.352 206.996 184.452 203.874 186.54C204.681 186.428 205.496 186.379 206.311 186.393C207.353 186.318 208.401 186.428 209.411 186.718C210.403 187.141 211.479 187.3 212.541 187.181C212.785 187.11 213.042 187.096 213.294 187.139C213.545 187.182 213.785 187.282 213.997 187.431C214.208 187.58 214.385 187.774 214.516 188.001C214.646 188.228 214.727 188.48 214.753 188.742C214.92 188.893 215.049 189.084 215.131 189.297C215.212 189.511 215.242 189.74 215.219 189.967C215.415 192.039 215.366 194.125 215.071 196.179C214.861 196.937 214.705 197.694 214.557 198.466C216.537 197.023 218.503 195.537 220.479 194.072C220.474 193.864 220.507 193.658 220.577 193.464C221.695 190.428 218.618 185.73 223.166 184.679C227.141 183.494 231.275 182.94 235.426 183.033C244.083 176.78 252.884 170.825 261.604 164.623ZM231.08 162.607C231.446 162.314 231.819 162.036 232.173 161.764C225.775 156.502 215.933 151.828 208.365 157.594C202.053 162.422 203.923 168.133 208.092 172.953C207.539 171.137 207.325 169.233 207.463 167.344C207.692 163.526 209.398 161.86 212.437 159.892C217.905 156.376 226.293 158.781 231.08 162.607ZM219.297 136.558C220.916 135.474 222.725 132.57 221.233 130.647C220.699 129.879 219.971 129.274 219.131 128.898C218.29 128.522 217.367 128.39 216.464 128.517C214.753 128.938 213.006 129.194 211.245 129.282C210.865 129.266 210.478 129.233 210.091 129.202C212.443 131.176 214.753 133.182 217.055 135.176C217.711 135.734 218.396 136.254 219.107 136.735C219.164 136.67 219.228 136.611 219.297 136.558ZM227.993 154.82C228.523 154.069 228.887 153.207 229.063 152.294C229.238 151.38 229.22 150.436 229.009 149.526C227.431 150.017 225.921 150.712 224.517 151.594C224.022 151.956 223.553 152.354 223.114 152.786C224.795 153.312 226.428 153.993 227.993 154.82ZM217.206 125.038C217.045 123.971 216.663 122.95 216.087 122.044C215.511 121.137 214.755 120.366 213.868 119.783C212.651 119.095 211.379 118.615 210.13 117.996C209.11 117.54 208.188 116.881 207.415 116.056C206.116 114.659 206.6 112.492 203.55 112.536C203.26 112.538 202.973 112.46 202.72 112.308C199.522 112.961 195.875 111.918 192.675 113.147C194.637 115.237 196.576 117.309 198.599 119.315C198.734 119.185 198.894 119.085 199.069 119.02L202.527 117.815C203.144 117.642 203.779 117.546 204.419 117.527C204.926 117.496 205.587 117.913 206.115 117.94C208.276 117.98 208.52 121.394 206.32 121.345C205.755 121.292 205.193 121.204 204.637 121.081C204.569 121.008 204.48 120.959 204.384 120.94C204.288 120.92 204.189 120.931 204.1 120.972L201.376 121.921C202.012 122.478 202.616 123.043 203.277 123.573C204.06 124.186 204.841 124.857 205.614 125.494C205.854 125.379 206.118 125.325 206.384 125.339C208.233 125.617 210.096 125.771 211.961 125.799C213.371 125.659 214.807 125.103 216.236 125.049C216.552 125.027 216.874 125.025 217.206 125.038ZM223.461 148.242C224.816 147.697 225.981 147.012 227.282 146.466C224.55 143.422 219.615 141.222 216.526 139.188C209.756 134.417 203.378 129.078 197.457 123.227C194.123 120.097 191.305 115.695 187.743 112.996C184.779 111.046 182.019 108.783 179.507 106.246C176.491 103.08 174.078 99.3152 169.397 98.8183C165.429 98.1772 161.422 97.8545 157.413 97.853C157.299 97.8488 157.185 97.8329 157.074 97.8055C157.041 97.8169 157.031 97.8379 156.993 97.8336C153.051 98.9846 151.016 102.856 149.613 106.584C147.372 112.491 149.746 117.379 152.665 122.245C154.497 125.271 156.429 128.225 158.371 131.155C158.852 131.068 159.344 131.066 159.827 131.149C160.142 131.067 160.464 131.011 160.789 130.979C158.36 124.444 154.638 118.693 154.093 111.538C154.065 111.077 154.217 110.625 154.514 110.283C154.811 109.94 155.23 109.735 155.678 109.712C156.126 109.689 156.566 109.85 156.902 110.16C157.238 110.47 157.443 110.904 157.47 111.365C158.02 118.481 162.117 124.492 164.461 131.093C166.121 135.825 168.335 138.344 172.877 139.334C170.691 132.786 169.046 126.183 166.84 119.625C166.691 119.187 166.717 118.707 166.912 118.292C167.107 117.877 167.455 117.561 167.88 117.413C168.304 117.265 168.771 117.297 169.176 117.503C169.581 117.708 169.893 118.07 170.041 118.509C173.427 128.597 174.621 138.984 181.433 146.73C181.441 146.706 181.439 146.68 181.428 146.657C180.775 142.095 180.763 138.62 179.935 134.228C179.073 129.261 177.827 124.368 176.21 119.597C176.08 119.163 176.118 118.696 176.316 118.295C176.513 117.893 176.856 117.587 177.271 117.443C177.686 117.298 178.141 117.325 178.54 117.519C178.94 117.712 179.253 118.057 179.413 118.48C181.478 124.953 183.179 131.538 184.506 138.204C185.722 143.275 185.296 147.881 187.494 152.889C189.538 157.485 194.625 159.876 197.249 164.029C198.992 166.952 201.032 169.677 203.335 172.159C199.925 166.851 198.723 160.611 204.84 155.943C208.892 152.711 214.038 151.27 219.16 151.933C219.314 151.559 219.59 151.253 219.941 151.068C221.293 150.364 221.957 148.842 223.455 148.244L223.461 148.242ZM228.773 187.918C229.349 187.466 229.942 187.066 230.536 186.618C228.427 186.948 226.342 187.41 224.291 187.999C223.857 188.151 223.848 189.858 223.856 191.575C225.481 190.351 227.147 189.14 228.773 187.918ZM224.257 171.841C221.986 173.539 219.733 175.233 217.467 176.946C219.449 176.673 221.446 176.534 223.448 176.528C223.559 176.008 223.563 175.341 223.643 174.954C223.898 173.925 224.101 172.883 224.254 171.832L224.257 171.841ZM216.573 173.327C220.469 170.488 224.347 167.638 228.201 164.741C224.694 162.318 219.027 160.704 215.132 162.469C209.024 165.228 210.753 170.988 212.971 175.896C214.175 175.049 215.385 174.186 216.573 173.327ZM208.956 178.684C208.95 178.666 208.929 178.655 208.924 178.639C208.669 178.743 208.394 178.782 208.12 178.754C206.094 178.472 204.2 177.538 202.707 176.088C200.133 179.564 197.146 182.694 193.816 185.405C190.519 188.072 186.991 190.422 183.274 192.428C183.865 193.226 184.477 194.137 185.098 195.123C192.873 189.388 200.986 184.145 208.96 178.682L208.956 178.684ZM211.825 193.058C211.893 192.269 211.899 191.476 211.844 190.684C210.084 190.313 208.306 190.043 206.52 189.875C204.098 189.966 201.744 190.467 199.338 190.546C198.971 190.566 198.608 190.451 198.314 190.22C194.424 192.796 190.548 195.405 186.786 198.197C187.102 198.842 187.38 199.505 187.619 200.183C188.027 200.241 188.4 200.454 188.664 200.78C189.635 201.903 191.467 201.653 192.713 201.977C193.952 202.251 195.172 202.618 196.361 203.075C198.926 204.347 201.774 204.871 204.591 204.591C204.794 204.536 205.007 204.532 205.212 204.579C205.418 204.627 205.61 204.723 205.773 204.862C207.43 203.674 209.065 202.477 210.716 201.271C210.61 200.897 210.619 200.5 210.74 200.133C211.037 199.291 211.246 198.418 211.363 197.529C211.347 196.828 211.457 196.132 211.687 195.476C212.044 194.701 211.749 193.88 211.829 193.057L211.825 193.058ZM174.044 96.4758C173.827 95.2742 173.371 94.1288 172.707 93.1114C170.978 91.0709 168.517 92.0014 166.604 93.1128C165.886 93.5312 165.19 93.9571 164.47 94.3186C167.758 94.4072 171.007 95.1392 174.044 96.4758ZM200.22 173.496C199.136 172.245 198.118 170.935 197.089 169.796C193.411 165.711 189.773 161.467 186.107 157.308C184.987 156.016 184.055 154.565 183.34 153.001C183.128 152.941 182.929 152.84 182.754 152.704C181.006 151.373 179.36 149.905 177.83 148.315C177.669 148.67 177.393 148.956 177.05 149.124C176.502 149.406 176.335 150.297 175.812 150.645C175.342 150.982 174.834 151.259 174.299 151.469C173.559 151.64 172.857 151.948 172.227 152.377C172.007 152.641 171.721 152.837 171.399 152.944C171.394 152.953 171.388 152.96 171.38 152.966C171.372 152.972 171.363 152.976 171.354 152.978C171.912 153.985 172.475 155.009 173.033 156.075C173.587 155.861 174.163 155.661 174.719 155.504C175.204 155.415 175.677 155.269 176.128 155.068C176.499 154.812 176.955 154.718 177.397 154.806C177.839 154.894 178.232 155.158 178.489 155.541C178.736 155.928 178.829 156.396 178.749 156.848C178.669 157.3 178.422 157.701 178.06 157.967C177.379 158.387 176.626 158.674 175.841 158.813C175.434 158.938 175.039 159.093 174.64 159.232C178.058 166.256 180.66 173.768 179.435 179.986C179.379 180.287 179.247 180.567 179.052 180.797C178.857 181.028 178.605 181.2 178.323 181.297C177.972 181.41 177.615 181.504 177.254 181.577C178.709 184.177 179.926 186.973 181.406 189.527C181.514 189.462 181.626 189.405 181.742 189.358C185.748 187.535 189.412 185.012 192.572 181.9C195.531 179.526 198.111 176.691 200.22 173.496ZM194.885 212.784C197.041 211.219 199.17 209.661 201.339 208.109C198.774 207.521 196.247 206.764 193.772 205.845C191.908 205.478 190.064 205.009 188.246 204.44C188.1 206.592 187.454 208.67 186.364 210.501C187.213 210.862 188.089 211.15 188.982 211.363C190.617 211.644 192.336 211.748 193.951 212.186C194.318 212.271 194.648 212.482 194.885 212.784ZM156.673 94.5015C156.753 94.4735 156.839 94.4634 156.92 94.4354C156.274 92.7299 155.144 91.2596 153.679 90.2179C152.213 89.1763 150.481 88.6122 148.71 88.5998C148.455 90.1061 147.865 91.5277 146.988 92.7545C146.692 93.0916 146.278 93.2947 145.835 93.3204C145.392 93.3461 144.955 93.1923 144.617 92.892C144.279 92.5917 144.067 92.1686 144.026 91.7131C143.985 91.2576 144.119 90.8058 144.398 90.4541C144.767 89.9014 144.963 89.2533 145.344 88.7013C145.234 88.85 145.325 88.4871 145.354 88.3086C144.825 88.2724 144.277 88.2399 143.74 88.1887C142.279 88.0689 140.826 87.8517 139.391 87.5385C134.896 86.4596 132.331 88.835 130.108 92.0521C130.025 92.238 129.913 92.4085 129.777 92.5568C129.533 92.8926 129.3 93.2575 129.08 93.6127C127.764 95.6981 125.592 109.259 128.063 114.485C128.626 115.085 129.197 115.681 129.704 116.318C129.728 116.33 129.743 116.324 129.763 116.335C129.955 114.678 130.281 113.042 130.738 111.444C132.541 105.163 135.478 99.3005 139.396 94.1609C140.706 92.3714 143.311 94.7766 142.018 96.5578C138.374 101.12 135.665 106.4 134.052 112.084C133.533 114.838 133.446 117.665 133.793 120.457C133.93 119.652 134.036 118.856 134.111 118.07C134.298 115.821 137.625 116.549 137.426 118.764C136.908 124.997 134.411 132.526 136.543 138.5C138.896 144.584 141.69 150.482 144.903 156.142C150.296 166.323 157.052 175.032 160.975 185.711C164.318 182.346 168.343 179.78 172.768 178.193C172.936 178.059 173.131 177.966 173.34 177.923C173.549 177.879 173.765 177.886 173.972 177.942C174.003 177.931 174.026 177.941 174.041 177.935C174.056 177.93 174.056 177.93 174.077 177.941C179.282 179.198 172.414 164.052 171.587 162.4C169.673 158.607 167.43 154.893 165.772 150.975C161.665 141.232 155.434 133.042 149.875 124.194C146.583 118.976 143.534 112.99 145.941 106.619C147.937 101.317 150.152 96.1796 155.856 94.5224C156.123 94.4537 156.402 94.4466 156.673 94.5015ZM147.761 84.8991C147.253 83.7637 146.664 82.6158 146.283 81.4911C145.868 80.2654 142.967 76.1912 141.316 76.7112L141.301 76.7165C139.317 79.3686 136.569 81.7147 134.284 84.3236C138.371 83.2327 143.211 84.5224 147.761 84.8991ZM191.477 215.247C190.425 215.095 189.353 214.951 188.332 214.79C187.044 214.571 185.369 213.436 184.121 213.665C183.924 213.698 183.722 213.693 183.526 213.651C182.682 214.286 181.692 214.688 180.65 214.818C179.608 214.948 178.547 214.803 177.568 214.395C173.244 215.903 169.108 216.9 166.643 213.116C163.356 215.464 159.986 217.565 156.581 219.714C155.875 220.163 155.174 220.631 154.455 221.102C154.504 221.243 154.53 221.391 154.533 221.54C154.463 224.764 153.138 228.301 153.516 231.588C156.678 231.409 159.844 231.769 163.024 231.537C165.018 231.529 167.002 231.291 168.939 230.825C169.114 230.761 169.302 230.745 169.486 230.778C169.67 230.811 169.842 230.893 169.987 231.015C171.648 229.788 173.309 228.561 174.954 227.34C180.434 223.279 185.949 219.265 191.478 215.25L191.477 215.247ZM184.536 201.582C184.014 200.617 183.473 199.658 182.949 198.694C182.179 197.481 181.53 196.247 180.735 195.063C179.229 192.731 177.853 190.313 176.615 187.822C175.986 186.598 175.232 185.435 174.657 184.194C173.993 183.48 173.4 182.701 172.884 181.868C172.667 181.944 172.456 182.037 172.25 182.109C168.909 183.848 165.801 186.02 163.001 188.571C164.518 192.13 165.494 195.902 165.895 199.754C166.389 202.938 167.225 206.06 168.389 209.061C168.938 210.294 169.935 211.26 171.163 211.749C172.391 212.239 173.751 212.213 174.949 211.676C175.019 211.382 175.159 211.11 175.355 210.885C175.552 210.661 175.8 210.49 176.077 210.388C176.354 210.286 176.652 210.256 176.945 210.3C177.238 210.344 177.516 210.462 177.756 210.643C182.877 211.831 185.137 208.811 184.536 201.582ZM135.97 77.0942C135.884 76.9745 135.82 76.8406 135.78 76.6985C135.581 76.8205 135.372 76.9236 135.155 77.0065C129.087 79.122 124.53 80.5098 119.457 84.718C113.582 89.5974 114.237 96.3073 115.637 103.239C116.407 106.592 116.477 110.066 115.843 113.432C115.21 116.798 113.886 119.978 111.961 122.762C110.125 125.475 108.735 127.975 105.487 128.739C102.307 129.496 98.945 128.132 95.8258 128.961C96.8814 130.305 97.6766 131.843 98.1677 133.491C98.7321 135.201 99.5708 136.803 100.649 138.232C101.882 137.691 103.093 137.196 104.202 136.772C108.233 135.201 115.136 137.346 119.17 138.103C123.832 138.854 128.533 139.298 133.243 139.433C132.572 137.543 132.162 135.568 132.024 133.567C131.957 131.868 132.065 130.168 132.348 128.496C132.164 128.454 131.994 128.364 131.852 128.235C131.711 128.106 131.604 127.942 131.542 127.758C130.607 125.222 129.992 122.576 129.714 119.886C129.625 119.874 129.538 119.855 129.452 119.83C129.117 119.962 128.745 119.967 128.403 119.846C128.061 119.725 127.77 119.485 127.581 119.167C126.477 117.855 125.293 116.618 124.035 115.463C122.981 113.996 122.086 112.417 121.365 110.753C119.938 107.631 118.748 104.402 117.805 101.095C117.244 99.4408 120.446 98.3247 121.006 99.9792C121.752 102.179 122.64 104.905 123.687 107.464C122.801 101.774 123.953 95.9711 126.928 91.1377C126.918 91.0834 126.917 91.0282 126.923 90.9736C127.971 87.4497 129.777 84.222 132.207 81.5284C133.382 79.9807 134.638 78.5005 135.97 77.0942ZM160.362 189.677L160.35 189.643C158.674 189.977 158.963 189.349 158.711 188.604C154.155 174.689 143.412 163.911 137.857 150.322C136.852 147.881 135.625 145.422 134.557 142.908C134.44 142.941 134.32 142.957 134.199 142.957C126.475 142.615 118.858 141.405 111.202 140.391C104.527 139.5 101.341 142.351 95.802 145.077C85.4286 150.227 89.0541 161.454 93.1371 169.114C98.7898 179.628 103.524 190.629 107.284 201.988C108.272 205.012 111.751 209.256 111.786 212.317C111.685 216.466 112.73 220.574 114.8 224.163C117.307 219.735 121.618 217.343 127.282 215.574C132.494 213.941 139.527 215.874 143.941 211.8C144.936 210.881 146.018 210.004 147.068 209.139C151.757 205.34 143.035 205.123 143.093 205.123C141.438 204.947 141.532 202.946 142.546 202.075C142.536 200.832 142.281 199.601 141.798 198.456C141.315 197.311 140.613 196.275 139.734 195.412C139.037 194.764 138.301 194.162 137.53 193.61C136.847 193.125 136.309 192.453 135.977 191.672C135.019 192.146 133.961 192.376 132.893 192.34C132.504 192.573 132.071 192.718 131.621 192.766C128.649 193.217 125.764 194.129 123.066 195.469L113.351 198.856C111.75 199.414 110.628 196.105 112.229 195.547L123.291 191.691C125.053 191.077 126.768 190.276 128.554 189.784C128.049 189.304 127.502 188.874 126.919 188.501C125.092 187.288 126.54 184.158 128.395 185.361C129.673 186.485 131.019 187.525 132.423 188.475C132.331 187.793 132.331 187.101 132.424 186.421C133.039 181.471 130.645 180.455 129.392 176.358C127.728 170.927 126.019 164.509 120.313 162.04C116.363 160.037 112.279 158.333 108.093 156.942C105.968 156.406 106.593 152.988 108.729 153.538C113.21 154.576 117.52 156.305 121.513 158.665C121.455 158.547 121.387 158.435 121.309 158.33C118.427 153.84 114.507 150.563 111.307 146.404C109.934 144.624 112.733 142.687 114.076 144.435C115.919 146.805 118.156 148.655 120.082 150.906C122.075 153.246 123.425 155.958 125.289 158.343C127.218 161.053 128.772 164.024 129.908 167.167L130.086 167.105C130.219 166.652 130.737 166.878 131.302 166.681L133.908 165.773C134.981 165.399 135.675 165.804 135.929 166.66C136.46 167.546 136.407 168.602 135.43 168.942L131.288 170.386C131.393 170.646 131.51 170.884 131.615 171.143C132.803 170.978 134.012 171.026 135.189 171.285C137.072 171.718 139.027 171.574 140.931 171.909C143.085 172.288 142.431 175.699 140.28 175.319C138.73 175.046 136.954 175.331 135.443 174.935C134.589 174.688 133.711 174.547 132.827 174.513C133.52 176.357 134.407 178.12 135.471 179.769C135.546 179.891 135.601 180.002 135.679 180.123C138.225 181.244 140.373 183.038 142.937 184.105C144.914 184.921 146.859 185.644 148.777 186.602C150.997 187.401 153.278 187.999 155.595 188.389C157.491 188.968 158.904 190.499 160.687 191.11C160.505 190.672 160.514 190.126 160.362 189.677ZM165.21 209.891C163.545 205.087 163.074 199.842 161.739 194.95C159.082 194.822 157.886 193.407 155.48 192.248C155.251 192.144 155.017 192.053 154.78 191.974C154.7 193.436 154.522 194.888 154.247 196.322C153.839 197.405 153.184 198.369 152.337 199.134C151.683 199.555 151.142 200.138 150.763 200.83C150.628 201.345 150.458 201.85 150.254 202.34C150.024 202.744 149.767 203.13 149.483 203.495C150.542 204.693 151.24 206.18 151.489 207.773C151.842 209.187 150.952 210.365 149.867 211.336C150.274 212.191 150.754 213.008 151.302 213.777C151.915 214.43 152.396 215.202 152.717 216.045C153.028 216.729 153.383 217.39 153.781 218.024C157.623 215.339 161.435 212.647 165.207 209.882L165.21 209.891ZM151.125 194.217C151.122 193.202 151.23 192.19 151.446 191.201C150.213 191.064 149.006 190.729 147.869 190.209C145.752 189.135 143.592 188.259 141.444 187.251C139.53 186.364 137.835 185.16 136.007 184.151C135.574 185.713 135.596 187.377 136.07 188.938C136.303 188.9 136.541 188.914 136.77 188.978C136.999 189.042 137.212 189.155 137.396 189.309C138.607 190.088 139.729 191.007 140.74 192.047C141.989 193.216 143.091 194.542 144.02 195.991C145.06 197.821 145.664 199.875 145.781 201.982C145.932 202.004 146.067 202.03 146.201 202.059C147.527 200.69 147.583 198.58 149.108 197.325C150.192 196.43 151.083 195.786 151.125 194.217ZM115.167 83.2742C113.6 80.6 110.051 81.4858 108.927 78.1701C108.589 77.3161 108.581 76.3652 108.903 75.5127C109.058 74.8932 108.987 74.2343 108.705 73.6592C107.876 74.5511 107.402 75.7314 107.374 76.9718C107.287 77.4254 107.029 77.8228 106.655 78.0775C106.282 78.3322 105.825 78.4235 105.382 78.3315C104.949 78.23 104.568 77.961 104.319 77.5803C104.07 77.1996 103.972 76.7365 104.046 76.2872C104.101 75.02 104.475 73.793 105.131 72.726C105.786 71.659 106.701 70.7883 107.787 70.1989C107.775 70.1652 107.785 70.1442 107.779 70.1262C108.638 66.0616 108.418 64.1301 104.138 63.2377C101.014 62.6582 97.8248 62.618 94.7008 63.1187C89.1734 64.1369 88.9624 70.5937 85.2396 73.7615C86.5982 75.9712 86.2943 79.8323 86.4293 82.0218C86.4417 82.2233 86.4403 82.4271 86.4443 82.6466C87.5046 82.4936 88.5821 82.4921 89.6463 82.6424C89.477 80.6669 89.4205 78.6843 89.477 76.7047C89.4499 74.4751 92.8198 74.2642 92.8548 76.5312C92.6946 78.794 92.8138 81.0718 93.2097 83.3104C93.2528 83.474 93.2676 83.6439 93.2535 83.8122C95.7075 85.1635 97.8071 87.1128 99.3666 89.4876C99.3274 88.9993 99.3011 88.5064 99.3029 88.0314C99.2515 83.8674 99.1245 79.9532 99.4222 75.8157C99.5942 73.5719 102.918 74.3007 102.758 76.5205C102.238 84.8711 102.973 93.2692 104.938 101.419C104.984 101.624 104.989 101.835 104.953 102.041C105.606 107.085 101.96 112.121 102.026 116.809C102.021 116.257 105.795 117.18 108.287 118.161C109.104 115.027 107.717 110.513 107.041 107.624C106.78 105.244 106.74 102.847 106.925 100.465C106.762 98.284 106.834 96.0936 107.14 93.9343C107.932 90.2542 106.099 86.3777 104.941 82.9033C104.792 82.4645 104.818 81.9849 105.013 81.57C105.208 81.1551 105.556 80.8388 105.981 80.6908C106.405 80.5428 106.871 80.5752 107.277 80.7808C107.682 80.9864 107.993 81.3485 108.142 81.7873C110.253 88.4932 111.015 95.5566 110.381 102.544C110.248 106.752 111.817 111.273 111.883 115.575C114.983 108.555 110.672 97.7911 111.478 90.5544C111.924 87.7782 113.216 85.2294 115.167 83.2742ZM156.627 240.552C159.161 238.832 161.688 237.063 164.208 235.246C160.328 235.469 156.794 234.818 153.136 235.109C152.963 235.113 152.791 235.089 152.625 235.036C152.425 235.131 152.206 235.179 151.985 235.176C151.763 235.173 151.545 235.12 151.345 235.019C151.145 234.919 150.968 234.774 150.828 234.596C150.689 234.417 150.589 234.21 150.536 233.987C150.077 231.958 150.017 229.859 150.357 227.815C150.53 226.424 150.82 224.952 151.007 223.499C146.751 226.574 142.676 229.865 138.5 233.022C138.754 234.494 138.863 235.986 138.827 237.477C138.825 238.366 139.062 239.802 138.048 240.509C135.483 242.255 131.577 241.008 128.96 240.05C128.893 240.023 128.828 239.99 128.767 239.952C122.908 243.955 117.05 247.902 111.346 252.147C118.173 250.951 124.906 249.266 131.494 247.104C132.567 246.73 133.408 248.101 133.372 249.211C133.465 249.434 133.511 249.675 133.504 249.918C133.476 252.056 133.696 254.181 133.691 256.329C133.686 257.161 133.683 257.996 133.698 258.836C136.251 256.91 138.73 254.823 141.199 252.707C141.02 252.075 140.908 251.426 140.863 250.771C140.911 250.038 140.913 249.302 140.869 248.567C140.724 247.377 140.498 246.198 140.193 245.038C140.074 244.698 140.002 244.343 139.979 243.983C139.814 243.772 139.701 243.523 139.65 243.257C139.599 242.992 139.611 242.719 139.686 242.461C139.761 242.204 139.896 241.97 140.08 241.779C140.263 241.589 140.489 241.448 140.739 241.369C143.283 240.942 145.87 240.829 148.447 241.031C150.89 240.9 153.52 240.892 155.93 240.551C156.158 240.494 156.398 240.494 156.627 240.552ZM147.798 222.113C148.877 221.385 149.949 220.64 151.023 219.897C150.941 219.793 150.867 219.682 150.802 219.567C150.486 218.844 149.961 218.354 149.678 217.571C149.477 216.991 149.162 216.459 148.754 216.006C148.552 215.78 147.455 213.648 147.421 213.549C147.344 213.537 147.269 213.513 147.2 213.476C146.83 213.79 146.442 214.08 146.037 214.345C147.226 216.756 147.83 219.422 147.798 222.113ZM144.08 222.965C144.476 220.579 144.124 218.116 143.073 215.933C139.72 217.156 136.244 218.002 132.705 218.455C134.859 219.431 137.088 220.214 139.368 220.794C141.323 221.28 142.085 223.158 144.08 222.965ZM151.213 244.382C150.35 244.432 149.497 244.443 148.65 244.48C147.155 244.556 145.198 244.277 143.516 244.382C143.831 245.505 144.057 246.652 144.193 247.811C144.271 248.672 144.065 249.333 144.157 250.135C146.472 248.143 148.804 246.203 151.213 244.382ZM108.182 121.915C108.153 121.888 108.115 121.883 108.083 121.839C106.532 120.272 102.759 121.401 100.648 120.767C100.166 121.379 99.5322 121.844 98.8123 122.115C98.0924 122.386 97.3128 122.452 96.5549 122.306C95.4276 122.255 94.2253 122.247 93.0025 122.229C92.9714 122.295 92.9889 122.347 92.9496 122.396C92.2499 123.669 91.7576 125.053 91.4921 126.493C91.7605 126.382 92.0259 126.27 92.2974 126.175C92.6183 126.057 92.9692 126.052 93.2956 126.161C94.9532 125.165 96.8698 124.709 98.7954 124.854C100.582 125.511 102.492 125.707 104.359 125.424C105.228 125.205 106.03 124.771 106.696 124.16C107.362 123.549 107.872 122.778 108.182 121.915ZM99.9615 110.295C101.408 106.458 101.527 102.211 100.298 98.2621C98.4302 92.7509 93.3159 84.6915 86.5563 86.0866C86.5107 86.1025 86.4667 86.0802 86.4167 86.0976C86.1984 89.9389 85.4856 93.8045 85.2582 97.6766L85.2461 97.7912C86.2681 98.1674 87.1395 98.8886 87.7171 99.8366C88.0171 99.6853 88.3573 99.637 88.6881 99.6989C92.4346 100.449 94.0714 102.376 96.5466 105.243C97.9112 106.753 99.0612 108.455 99.9615 110.295ZM138.128 228.701C139.335 227.874 140.529 227.071 141.717 226.248C140.645 225.742 139.629 225.116 138.688 224.382C137.289 223.678 135.821 223.135 134.309 222.764C133.818 222.583 133.36 222.392 132.868 222.209C132.882 222.262 132.888 222.317 132.884 222.372C133.001 223.415 132.895 224.47 132.571 225.46C134.583 226.216 136.461 227.311 138.128 228.701ZM97.5484 114.633C96.6162 110.349 93.5734 105.12 89.2312 103.508C89.7554 107.182 89.2175 110.922 87.685 114.258C87.1592 115.068 86.5278 115.799 85.8083 116.431C85.0552 116.854 84.3405 117.344 83.6722 117.896C83.6103 118.007 83.5596 118.124 83.5209 118.245C83.4283 118.925 85.1649 118.395 85.5585 118.288C86.4519 118.225 87.3511 118.297 88.2273 118.502C90.1664 118.677 92.1021 118.577 94.0397 118.697C94.5488 118.723 98.0411 119.311 98.1234 118.235C98.1329 117.012 97.9384 115.793 97.5484 114.633ZM81.9587 96.7911C82.386 91.9256 84.0139 75.0749 81.3744 75.5708C78.3287 76.1506 79.3984 85.01 79.521 87.2991C79.7879 90.3175 79.8522 93.3489 79.7133 96.3715C80.4703 96.4527 81.221 96.5929 81.9587 96.7911ZM135.345 236.803C135.296 236.344 135.289 235.882 135.323 235.422C134.499 236.006 133.682 236.607 132.854 237.172C132.679 237.288 132.494 237.428 132.319 237.544C132.778 237.667 133.244 237.756 133.714 237.811C134.28 237.853 134.849 237.853 135.414 237.811C135.407 237.474 135.384 237.138 135.345 236.803ZM129.383 224.395C129.767 223.137 129.652 221.767 129.063 220.584C128.826 220.481 128.62 220.317 128.463 220.107C128.307 219.897 128.206 219.649 128.172 219.388C128.166 219.373 128.144 219.363 128.137 219.345C124.713 219.9 121.553 221.539 119.094 224.034C121.863 223.073 124.866 223.042 127.674 223.947C128.233 224.069 128.804 224.221 129.381 224.389L129.383 224.395ZM75.8417 77.999C75.8238 77.5935 75.8356 77.1875 75.8769 76.7844C66.9504 74.2158 55.6393 90.2778 55.9186 97.6004C55.8627 101.482 56.8739 105.313 58.8356 108.652C60.7973 111.992 63.6296 114.703 67.0058 116.475C66.3098 110.352 71.2324 102.584 74.4221 98.846C74.9637 98.2098 75.5885 97.6542 76.2789 97.1947C77.0241 90.888 76.0418 84.3502 75.8417 77.999ZM85.6004 109.011C85.741 107.669 85.8121 106.32 85.8135 104.968C84.4676 104.107 82.0187 105.237 80.4255 105.072C78.6906 104.661 76.9095 104.515 75.1394 104.638C74.972 104.656 74.8027 104.653 74.6356 104.628C73.7852 105.938 73.0089 107.298 72.3103 108.702C71.4908 110.081 70.9665 111.628 70.7721 113.239C70.5776 114.85 70.7174 116.489 71.1822 118.048C71.5047 118.842 75.9438 118.941 76.669 118.967C78.1404 119.009 80.6091 121.09 80.1013 118.639C79.9278 118.176 79.8713 117.676 79.9372 117.187C80.003 116.699 80.1891 116.236 80.4777 115.845C81.106 115.301 81.799 114.842 82.5403 114.478C83.4655 113.918 84.2328 113.122 84.7686 112.164C85.3044 111.207 85.5908 110.121 85.6004 109.011ZM84.2275 101.206C82.9736 100.631 81.6516 100.233 80.2978 100.023C78.697 99.5998 78.3126 99.2896 77.0044 101.134C77.0004 101.135 76.9971 101.138 76.9952 101.142C76.9934 101.146 76.9931 101.151 76.9946 101.155L77.3503 101.144C78.6899 101.083 79.9933 101.776 81.3325 101.643C82.3248 101.568 83.2765 101.309 84.2313 101.217L84.2275 101.206ZM135.17 230.719C131.388 227.961 123.832 225.731 120.118 227.377C113.993 230.084 117.312 237.163 120.308 241.242C125.195 237.633 130.167 234.16 135.182 230.728L135.17 230.719ZM130.335 255.699C130.338 254.205 130.268 252.71 130.124 251.222C122.524 253.416 114.806 255.174 107.007 256.486C106.808 256.538 106.6 256.542 106.398 256.496C106.197 256.451 106.007 256.359 105.845 256.226C102.469 258.733 99.0554 261.179 95.6033 263.562C101.156 263.198 106.813 263.465 112.35 262.812C112.644 262.792 112.938 262.853 113.204 262.988C113.47 263.123 113.697 263.327 113.863 263.58C114.572 265.279 114.849 267.132 114.668 268.962C114.669 270.84 114.575 272.716 114.387 274.582C119.488 269.815 124.858 265.361 130.47 261.242C130.26 259.403 130.22 257.549 130.349 255.706L130.335 255.699ZM111.16 268.157C110.915 266.058 109.769 266.533 108.121 266.736C102.139 267.526 95.894 266.633 89.9085 267.776C89.7289 267.804 89.5455 267.799 89.3669 267.761C87.6473 268.898 85.9192 270.031 84.1825 271.16C83.0644 271.881 81.9592 272.583 80.8532 273.282C84.5274 273.451 88.2039 273.211 91.819 272.567C95.5225 272.029 99.4429 272.038 103.182 271.869C103.539 271.837 103.9 271.882 104.242 272.001C104.584 272.119 104.899 272.308 105.168 272.557C105.437 272.805 105.654 273.107 105.806 273.445C105.957 273.782 106.04 274.147 106.049 274.517C106.228 276.619 106.225 278.731 106.039 280.828C107.69 279.944 109.266 278.919 110.748 277.763C111.19 274.589 111.332 271.375 111.172 268.165L111.16 268.157ZM102.258 282.556C102.506 280.544 102.57 275.453 102.554 275.404C99.4948 275.988 96.3849 275.426 93.313 275.864C88.1465 276.628 82.302 277.556 77.124 276.216C76.9078 276.158 76.7037 276.059 76.5222 275.924C75.4949 276.533 74.4586 277.123 73.4168 277.689C71.516 278.521 69.6685 279.474 67.8853 280.544C66.4201 281.609 76.5795 284.433 77.2708 284.524C85.6576 285.988 94.2415 285.312 102.267 282.555L102.258 282.556Z" fill="#00478F"/>
<path d="M209.029 113.559L209.048 113.515C209.037 113.571 209.033 113.629 209.036 113.687C209.077 113.858 209.132 114.021 209.194 114.202C209.323 114.635 209.286 115.101 209.088 115.501C208.891 115.902 208.549 116.206 208.136 116.35C207.722 116.495 207.268 116.468 206.87 116.275C206.471 116.082 206.159 115.738 205.999 115.316C205.607 114.315 205.575 113.208 205.909 112.194C206.09 111.784 206.419 111.464 206.827 111.302C207.235 111.14 207.69 111.148 208.096 111.325C208.502 111.502 208.827 111.834 209.002 112.25C209.178 112.667 209.19 113.135 209.035 113.557L209.029 113.559Z" fill="#00478F"/>
<path d="M203.435 115.816C203.561 116.251 203.523 116.717 203.328 117.12C203.134 117.524 202.797 117.834 202.386 117.99C201.962 118.136 201.498 118.103 201.094 117.898C200.69 117.693 200.379 117.333 200.229 116.896C199.977 115.8 200.085 114.653 200.534 113.635C201.386 111.565 204.434 113.124 203.597 115.186C203.545 115.297 203.502 116.013 203.435 115.816Z" fill="#00478F"/>
<path d="M193.201 89.4015C193.206 89.4172 193.189 89.4232 193.128 89.3894C193.149 89.4022 193.179 89.3918 193.201 89.4015Z" fill="#00478F"/>
<path d="M187.373 112.238C187.225 111.801 187.251 111.323 187.445 110.91C187.639 110.497 187.985 110.182 188.408 110.034C188.831 109.887 189.295 109.919 189.698 110.124C190.102 110.329 190.412 110.689 190.56 111.126C191.238 112.835 191.414 114.706 191.066 116.505C190.477 118.441 190.512 120.384 190.106 122.34C190.006 122.773 189.747 123.148 189.383 123.386C189.019 123.624 188.579 123.707 188.153 123.618C187.727 123.529 187.35 123.274 187.099 122.907C186.848 122.54 186.743 122.089 186.806 121.649C187.115 120.041 187.068 118.425 187.402 116.833C187.854 115.341 187.844 113.735 187.373 112.238Z" fill="#00478F"/>
<path d="M183.579 103.5C182.976 101.349 186.16 100.221 186.768 102.388C187.007 103.243 186.979 104.158 187.208 104.999C187.813 107.149 184.629 108.277 184.018 106.111C183.784 105.255 183.814 104.339 183.579 103.5Z" fill="#00478F"/>
<path d="M130.286 88.6817C131.103 86.6054 134.154 88.1656 133.331 90.2239C133.116 90.7999 133.103 91.4484 132.833 92.0238C132.578 92.5363 132.484 93.105 132.245 93.6145C131.841 94.7787 131.152 95.8134 130.245 96.6195C128.506 97.9773 126.59 95.0667 128.322 93.744C128.896 93.2932 129.078 92.2275 129.312 91.552C129.54 91.0945 129.725 90.6156 129.865 90.1214C129.96 89.6281 130.101 89.1459 130.286 88.6817Z" fill="#00478F"/>
<path d="M134.71 147.857C135.137 147.967 135.508 148.242 135.746 148.624C135.983 149.007 136.069 149.467 135.986 149.909C135.902 150.352 135.655 150.742 135.297 150.998C134.938 151.254 134.496 151.356 134.062 151.284C132.657 150.808 131.2 150.52 129.728 150.427C129.29 150.436 128.864 150.269 128.54 149.963C128.216 149.656 128.018 149.234 127.988 148.784C127.959 148.334 128.1 147.891 128.382 147.55C128.663 147.208 129.064 146.994 129.499 146.952C131.265 147.01 133.018 147.315 134.71 147.857Z" fill="#00478F"/>
<path d="M111.78 138.731C112.033 139.115 112.131 139.584 112.051 140.037C111.97 140.49 111.72 140.89 111.353 141.151C110.98 141.399 110.527 141.489 110.088 141.401C109.649 141.314 109.258 141.055 108.996 140.68C108.327 139.749 107.436 139.01 106.411 138.537C105.969 138.443 105.58 138.173 105.329 137.787C105.077 137.4 104.984 136.928 105.07 136.475C105.155 136.022 105.413 135.624 105.786 135.37C106.158 135.115 106.616 135.025 107.057 135.118C108.932 135.832 110.572 137.087 111.78 138.731Z" fill="#00478F"/>
<path d="M120.745 177.392C122.924 177.355 123.174 180.857 120.981 180.896C118.729 180.747 116.471 180.851 114.246 181.206C112.268 181.673 110.273 181.979 108.339 182.581C107.913 182.73 107.445 182.697 107.039 182.491C106.633 182.284 106.321 181.921 106.171 181.48C106.022 181.039 106.048 180.557 106.244 180.14C106.439 179.723 106.788 179.405 107.214 179.257C109.436 178.554 111.74 178.195 114.006 177.683C116.234 177.345 118.493 177.247 120.745 177.392Z" fill="#00478F"/>
<path d="M108.619 147.901C110.739 148.418 110.118 151.843 107.974 151.332C107.274 151.225 106.567 151.192 105.863 151.234C105.122 151.173 104.38 151.154 103.639 151.175C103.197 151.184 102.768 151.015 102.442 150.704C102.115 150.394 101.917 149.967 101.89 149.513C101.862 149.059 102.007 148.613 102.293 148.271C102.58 147.928 102.986 147.716 103.425 147.677C104.359 147.628 105.288 147.781 106.218 147.721C107.021 147.668 107.829 147.729 108.619 147.901Z" fill="#00478F"/>
<path d="M108.996 153.692C109.421 153.544 109.887 153.577 110.293 153.783C110.699 153.988 111.01 154.351 111.159 154.79C111.308 155.23 111.282 155.71 111.087 156.125C110.892 156.541 110.543 156.858 110.118 157.006L108.114 157.705C107.689 157.853 107.222 157.821 106.817 157.615C106.411 157.409 106.099 157.046 105.95 156.607C105.802 156.167 105.828 155.687 106.023 155.272C106.218 154.856 106.566 154.54 106.991 154.391L108.996 153.692Z" fill="#00478F"/>
<path d="M115.031 171.744C115.456 171.595 115.923 171.628 116.33 171.834C116.736 172.04 117.048 172.404 117.197 172.844C117.346 173.285 117.32 173.766 117.125 174.182C116.929 174.599 116.58 174.916 116.155 175.065L111.329 176.75C109.724 177.31 108.6 173.989 110.205 173.429L115.031 171.744Z" fill="#00478F"/>
<path d="M93.0947 129.755C93.1046 129.734 93.1826 129.8 93.1993 129.849C93.1841 129.855 93.1668 129.861 93.1615 129.845C93.3713 129.969 93.5961 130.065 93.8298 130.128C94.4155 130.275 95.0018 130.366 95.5965 130.49C96.0295 130.593 96.4083 130.865 96.6519 131.249C96.8954 131.633 96.9846 132.098 96.9002 132.545C96.8158 132.992 96.5647 133.385 96.2003 133.641C95.836 133.896 95.3874 133.994 94.9503 133.913C92.9266 133.473 90.4622 133.056 89.8197 130.639C89.6816 130.2 89.7125 129.726 89.9059 129.315C90.0994 128.903 90.4405 128.586 90.8581 128.43C91.2821 128.283 91.7474 128.315 92.152 128.521C92.5566 128.726 92.8675 129.087 93.0165 129.525C93.078 129.706 93.0477 129.717 93.025 129.707C93.0477 129.717 93.0537 129.735 93.0947 129.755Z" fill="#00478F"/>
</svg>
