<svg width="304" height="111" viewBox="0 0 304 111" fill="none" xmlns="http://www.w3.org/2000/svg">
<path d="M17.3525 15.6541C23.3711 15.6541 28.2632 17.1668 32.0289 20.1922L27.4908 27.4338C25.9781 26.3717 24.3849 25.5188 22.7113 24.8751C21.0699 24.2314 19.2836 23.9095 17.3525 23.9095C16.0973 23.9095 15.2122 24.0544 14.6972 24.344C14.2145 24.6015 13.9731 24.9556 13.9731 25.4061C13.9731 25.7924 14.2628 26.082 14.8421 26.2751C15.4536 26.4683 16.2099 26.6775 17.1111 26.9028L21.5044 27.9166C24.7551 28.6568 27.2011 29.7511 28.8425 31.1994C30.5162 32.6478 31.353 34.6593 31.353 37.2341C31.353 39.8089 30.7254 41.9331 29.4702 43.6068C28.2149 45.2482 26.5091 46.4712 24.3527 47.2758C22.2285 48.0805 19.8147 48.4828 17.1111 48.4828C15.0835 48.4828 13.0558 48.3058 11.0282 47.9517C9.00051 47.5655 7.11769 47.0184 5.3797 46.3103C3.64171 45.57 2.14511 44.6849 0.889895 43.655L5.33142 36.2686C6.26479 37.0088 7.39126 37.6847 8.71084 38.2962C10.0304 38.8756 11.3983 39.3422 12.8144 39.6963C14.2306 40.0503 15.5502 40.2273 16.7732 40.2273C17.9318 40.2273 18.7204 40.0986 19.1388 39.8411C19.5894 39.5514 19.8147 39.1974 19.8147 38.779C19.8147 38.3284 19.6215 37.9905 19.2353 37.7652C18.8813 37.5399 18.2215 37.3146 17.256 37.0893L12.4282 36.0272C10.7224 35.641 9.09706 35.126 7.55218 34.4823C6.00731 33.8386 4.75209 32.9052 3.78654 31.6822C2.82099 30.427 2.33822 28.7373 2.33822 26.6131C2.33822 24.4245 2.91755 22.5095 4.07621 20.8681C5.26705 19.2266 6.97286 17.9553 9.19362 17.0541C11.4466 16.1208 14.1662 15.6541 17.3525 15.6541ZM64.9269 16.1369V48H52.761L45.1332 33.5168L43.3952 29.6063H43.2986L43.4917 36.172V48H33.7397V16.1369H45.9056L53.5334 30.6684L55.2714 34.5306H55.368L55.1749 27.9649V16.1369H64.9269ZM84.001 15.6541C89.0863 15.6541 93.045 17.0863 95.8773 19.9508C98.7418 22.8153 100.174 26.8545 100.174 32.0684C100.174 37.2824 98.7418 41.3216 95.8773 44.1861C93.045 47.0505 89.0863 48.4828 84.001 48.4828C80.6538 48.4828 77.7572 47.8391 75.3111 46.5517C72.8972 45.2643 71.0305 43.3975 69.7109 40.9515C68.4235 38.5054 67.7798 35.5444 67.7798 32.0684C67.7798 28.5925 68.4235 25.6314 69.7109 23.1854C71.0305 20.7393 72.8972 18.8726 75.3111 17.5852C77.7572 16.2978 80.6538 15.6541 84.001 15.6541ZM84.001 24.1027C82.3596 24.1027 81.1527 24.7464 80.3802 26.0338C79.64 27.289 79.2699 29.3005 79.2699 32.0684C79.2699 34.8363 79.64 36.864 80.3802 38.1514C81.1527 39.4066 82.3596 40.0342 84.001 40.0342C85.6425 40.0342 86.8333 39.4066 87.5736 38.1514C88.3138 36.864 88.684 34.8363 88.684 32.0684C88.684 29.3005 88.3138 27.289 87.5736 26.0338C86.8333 24.7464 85.6425 24.1027 84.001 24.1027ZM108.284 48L99.256 16.1369H111.374L115.091 39.1652L119.581 16.1369H129.236L133.967 39.0204L137.588 16.1369H149.271L140.195 48H128.271L125.76 36.0272L124.505 27.8683H124.36L123.105 36.0272L120.643 48H108.284Z" fill="#1A83CC"/>
<path d="M75.7149 64.8493V96.7124H65.9145V85.6569L66.0594 74.9393H65.9145L59.735 96.7124H50.7554L44.6724 74.9393H44.4793L44.6242 85.6569V96.7124H34.7756V64.8493H50.514L54.1831 78.9946L55.5832 84.9327H55.6797L57.0798 78.9946L60.7488 64.8493H75.7149ZM94.3134 64.3665C99.3986 64.3665 103.357 65.7987 106.19 68.6632C109.054 71.5277 110.486 75.5669 110.486 80.7808C110.486 85.9948 109.054 90.034 106.19 92.8985C103.357 95.7629 99.3986 97.1952 94.3134 97.1952C90.9661 97.1952 88.0695 96.5515 85.6234 95.2641C83.2096 93.9767 81.3428 92.11 80.0232 89.6639C78.7358 87.2178 78.0921 84.2568 78.0921 80.7808C78.0921 77.3049 78.7358 74.3438 80.0232 71.8978C81.3428 69.4517 83.2096 67.585 85.6234 66.2976C88.0695 65.0102 90.9661 64.3665 94.3134 64.3665ZM94.3134 72.8151C92.6719 72.8151 91.465 73.4588 90.6926 74.7462C89.9523 76.0014 89.5822 78.0129 89.5822 80.7808C89.5822 83.5487 89.9523 85.5764 90.6926 86.8638C91.465 88.119 92.6719 88.7466 94.3134 88.7466C95.9548 88.7466 97.1456 88.119 97.8859 86.8638C98.6262 85.5764 98.9963 83.5487 98.9963 80.7808C98.9963 78.0129 98.6262 76.0014 97.8859 74.7462C97.1456 73.4588 95.9548 72.8151 94.3134 72.8151ZM143.002 64.8493V83.0016C143.002 92.464 137.868 97.1952 127.601 97.1952C117.334 97.1952 112.201 92.464 112.201 83.0016V64.8493H123.498V83.8706C123.498 87.1213 124.866 88.7466 127.601 88.7466C130.369 88.7466 131.753 87.1213 131.753 83.8706V64.8493H143.002ZM176.937 64.8493V96.7124H164.771L157.143 82.2292L155.405 78.3187H155.309L155.502 84.8844V96.7124H145.75V64.8493H157.916L165.543 79.3808L167.281 83.243H167.378L167.185 76.6773V64.8493H176.937ZM210.06 64.8493V73.1047H200.115V96.7124H188.866V73.1047H178.872V64.8493H210.06ZM205.301 96.7124L215.632 64.8493H229.15L239.529 96.7124H228.039L226.591 90.6294H217.998L216.501 96.7124H205.301ZM220.991 78.4152L219.687 83.6292H224.95L223.694 78.4152L222.391 73.0082H222.246L220.991 78.4152ZM251.283 64.8493V96.7124H240.034V64.8493H251.283ZM285.85 64.8493V96.7124H273.684L266.056 82.2292L264.318 78.3187H264.221L264.414 84.8844V96.7124H254.662V64.8493H266.828L274.456 79.3808L276.194 83.243H276.291L276.098 76.6773V64.8493H285.85Z" fill="#1A83CC"/>
<path d="M149.694 24.575L156.977 14.8783L164.261 24.577C159.64 22.7099 154.313 22.7085 149.694 24.575Z" stroke="#1A83CC" stroke-width="3" stroke-miterlimit="10" stroke-linecap="round" stroke-linejoin="round"/>
<path d="M134 46.5L157.043 15L169 30.751L164.517 36.6551L160.034 30.7497L148.077 46.5H134Z" stroke="#1A83CC" stroke-width="3" stroke-miterlimit="10" stroke-linecap="round" stroke-linejoin="round"/>
<path d="M180.562 29.72L175.635 23.1581L170.707 29.718C173.799 28.3414 177.467 28.3414 180.562 29.72Z" stroke="#1A83CC" stroke-width="3" stroke-miterlimit="10" stroke-linecap="round" stroke-linejoin="round"/>
<path d="M172.363 46.5L164.163 36.8625L175.646 22L195.326 46.5H172.363Z" stroke="#1A83CC" stroke-width="3" stroke-miterlimit="10" stroke-linecap="round" stroke-linejoin="round"/>
<path d="M147 46.5L160.002 31L173 46.5H160H147Z" stroke="#1A83CC" stroke-width="3" stroke-miterlimit="10" stroke-linecap="round" stroke-linejoin="round"/>
<path d="M172.52 41.447L177.186 35.2356L181.849 41.447L177.186 35.2356L172.52 41.447Z" stroke="#1A83CC" stroke-width="3" stroke-miterlimit="10" stroke-linecap="round" stroke-linejoin="round"/>
<path d="M142.205 41.7897L145.316 37.6483L148.423 41.7897L145.316 37.6483L142.205 41.7897Z" stroke="#1A83CC" stroke-width="3" stroke-miterlimit="10" stroke-linecap="round" stroke-linejoin="round"/>
<path d="M169.414 31.4403L175.634 23.1582L179.65 28.5051C181.241 26.6883 182.194 24.4119 182.194 21.9321C182.194 16.0049 176.783 11.1997 170.104 11.1997C165.156 11.1997 160.906 13.841 159.035 17.6188L169.414 31.4403Z" stroke="#1A83CC" stroke-width="3" stroke-miterlimit="10" stroke-linecap="round" stroke-linejoin="round"/>
<path d="M162.501 5.64264L164.153 9.18306L162.501 5.64264Z" stroke="#1A83CC" stroke-width="3" stroke-miterlimit="10" stroke-linecap="round" stroke-linejoin="round"/>
<path d="M170.104 2V8.13415V2Z" stroke="#1A83CC" stroke-width="3" stroke-miterlimit="10" stroke-linecap="round" stroke-linejoin="round"/>
<path d="M184.468 27.2142L188.457 28.6812L184.468 27.2142Z" stroke="#1A83CC" stroke-width="3" stroke-miterlimit="10" stroke-linecap="round" stroke-linejoin="round"/>
<path d="M154.223 7.83807L159.11 12.1741L154.223 7.83807Z" stroke="#1A83CC" stroke-width="3" stroke-miterlimit="10" stroke-linecap="round" stroke-linejoin="round"/>
<path d="M188.458 15.1846L184.466 16.6509L188.458 15.1846Z" stroke="#1A83CC" stroke-width="3" stroke-miterlimit="10" stroke-linecap="round" stroke-linejoin="round"/>
<path d="M192.558 21.9322H185.651H192.558Z" stroke="#1A83CC" stroke-width="3" stroke-miterlimit="10" stroke-linecap="round" stroke-linejoin="round"/>
<path d="M177.705 5.64264L176.053 9.18306L177.705 5.64264Z" stroke="#1A83CC" stroke-width="3" stroke-miterlimit="10" stroke-linecap="round" stroke-linejoin="round"/>
<path d="M185.982 7.83807L181.097 12.1741L185.982 7.83807Z" stroke="#1A83CC" stroke-width="3" stroke-miterlimit="10" stroke-linecap="round" stroke-linejoin="round"/>
</svg>
