<svg width="113" height="121" viewBox="0 0 113 121" fill="none" xmlns="http://www.w3.org/2000/svg">
<path d="M64.806 119.93C64.7829 119.87 65.6042 117.709 66.6312 115.129L68.4985 110.437L66.5612 111.266L64.6239 112.095L63.7832 114.207L62.9425 116.32L62.3426 116.05L61.7427 115.78L62.3288 114.307L62.9149 112.835L61.2104 113.563L59.5059 114.292L59.2706 113.677L59.0353 113.062L60.6239 112.377C61.4977 112 62.2278 111.653 62.2463 111.607C62.2649 111.56 61.6885 111.256 60.9655 110.931L59.651 110.339L59.9257 109.747L60.2003 109.155L62.1759 110.006L64.1516 110.858L66.0499 110.046C67.0939 109.6 67.964 109.195 67.9833 109.146C68.0027 109.098 66.0037 108.151 63.5411 107.044L59.0636 105.03L59.3383 104.437L59.6129 103.845L64.0938 105.825L68.5747 107.805L67.7907 105.749L67.0067 103.694L65.0146 102.798L63.0224 101.902L63.2756 101.265L63.5287 100.629L64.8375 101.218C65.5574 101.542 66.1615 101.769 66.1801 101.722C66.1986 101.675 65.9243 100.877 65.5704 99.9477L64.9269 98.2582L65.5057 98.0097L66.0846 97.7612L66.7482 99.4866L67.4118 101.212L67.9748 99.7974L68.5378 98.3826L69.1377 98.6525L69.7375 98.9223L68.9199 100.977L68.1022 103.031L68.9223 105.167L69.7425 107.303L71.6569 102.577L73.5714 97.8514L74.1579 98.074L74.7444 98.2966L72.8549 103.045C71.8156 105.656 71.0029 107.809 71.0488 107.83C71.0947 107.851 71.9867 107.499 73.0312 107.049L74.9301 106.231L75.7694 104.122L76.6087 102.013L77.2086 102.283L77.8085 102.553L77.2562 103.94C76.9524 104.704 76.7416 105.345 76.7877 105.366C76.8338 105.387 77.5676 105.103 78.4184 104.736C79.2691 104.369 80.0067 104.087 80.0575 104.11C80.1775 104.164 80.53 105.085 80.4793 105.212C80.4579 105.266 79.7432 105.607 78.8912 105.971C78.0391 106.335 77.326 106.673 77.3066 106.722C77.2871 106.771 77.8601 107.076 78.58 107.399L79.8888 107.988L79.6356 108.624L79.3825 109.26L77.3904 108.364L75.3983 107.468L73.4646 108.301L71.531 109.135L75.9878 111.175L80.4447 113.215L80.236 113.837L80.0273 114.459L75.4696 112.409L70.912 110.359L71.727 112.495L72.542 114.632L74.4966 115.548L76.4512 116.464L76.2426 117.086L76.0339 117.708L74.6394 117.081L73.245 116.454L73.9201 118.226C74.2913 119.2 74.5783 120.039 74.5578 120.091C74.5093 120.213 73.6405 120.586 73.5254 120.534C73.4768 120.512 73.1309 119.698 72.7567 118.725L72.0765 116.956L71.4904 118.428L70.9044 119.901L70.3045 119.631L69.7046 119.361L70.5453 117.249L71.386 115.136L70.6115 113.12C70.1855 112.01 69.8009 111.087 69.7568 111.067C69.7127 111.047 68.8274 113.165 67.7894 115.773L65.9023 120.514L65.3751 120.277C65.0852 120.147 64.8291 119.991 64.806 119.93ZM12.2458 89.258L13.4991 86.109L12.1828 86.6699L10.8665 87.2309L10.3219 88.5994L9.77728 89.9679L9.38257 89.748L8.98785 89.5281L9.29722 88.6547L9.6066 87.7812L8.54454 88.2322L7.48248 88.6832L7.31077 88.2346L7.13906 87.7859L8.1978 87.3262L9.25655 86.8666L8.46029 86.4679L7.66402 86.0692L7.80278 85.6202L7.94153 85.1713L9.23206 85.7518L10.5226 86.3323L11.8361 85.764L13.1496 85.1958L10.1799 83.86L7.21023 82.5243L7.39433 82.0617L7.57845 81.599L10.5481 82.9348L13.5178 84.2705L12.9886 82.8774L12.4594 81.4844L11.1578 80.8608L9.85633 80.2374L10.0174 79.8326L10.1785 79.4278L11.0568 79.7826L11.9351 80.1373L11.5081 79.0091L11.081 77.8808L11.5035 77.6994L11.9259 77.518L12.364 78.6502L12.8021 79.7824L13.1576 78.8892L13.5131 77.9959L13.9493 78.1922L14.3856 78.3884L13.8437 79.7499L13.3019 81.1114L13.8398 82.5064L14.3776 83.9013L15.6309 80.7523L16.8841 77.6032L17.3204 77.7995L17.7566 77.9957L16.5034 81.1448L15.2502 84.2938L16.5665 83.7328L17.8827 83.1719L18.4273 81.8034L18.972 80.4349L19.3667 80.6548L19.7614 80.8746L19.452 81.7481L19.1426 82.6216L20.2262 82.1645L21.3097 81.7074L21.4511 82.166L21.5925 82.6245L20.5426 83.0803L19.4927 83.5362L20.289 83.9349L21.0852 84.3336L20.9465 84.7825L20.8077 85.2315L19.5172 84.651L18.2266 84.0705L16.9132 84.6387L15.5997 85.207L18.5693 86.5427L21.539 87.8785L21.3549 88.3411L21.1708 88.8037L18.2011 87.468L15.2315 86.1322L15.7625 87.5301L16.2935 88.928L17.584 89.5085L18.8746 90.089L18.6681 90.5075L18.4617 90.9259L17.638 90.596L16.8144 90.2661L17.2377 91.3846L17.6611 92.5031L17.2531 92.7145L16.845 92.9259L16.4103 91.81C16.1713 91.1962 15.9401 90.6781 15.8966 90.6585C15.8531 90.6389 15.6609 91.0164 15.4695 91.4973L15.1216 92.3717L14.7268 92.1519L14.3321 91.932L14.8564 90.5244L15.3807 89.1167L14.8761 87.8092L14.3715 86.5018L13.1183 89.6507L11.8651 92.7995L11.4289 92.6033L10.9926 92.4071L12.2458 89.258ZM40.9302 81.374C40.907 81.3136 42.5985 76.9665 44.6889 71.7138L48.4897 62.1635L44.4579 63.8933L40.4261 65.6232L38.7573 69.8165L37.0884 74.0098L35.9432 73.4947L34.798 72.9796L35.9487 70.0882C36.5816 68.498 37.0622 67.1801 37.0166 67.1596C36.9711 67.1392 35.4691 67.7521 33.6788 68.5218C31.8886 69.2915 30.373 69.8983 30.3108 69.8704C30.2487 69.8424 30.0117 69.3217 29.7842 68.7131L29.3706 67.6066L32.6369 66.1441L35.9033 64.6816L33.2882 63.4311C31.8499 62.7433 30.6633 62.1635 30.6515 62.1428C30.6396 62.1221 30.8561 61.5779 31.1327 60.9336L31.6355 59.7621L35.5216 61.4743L39.4077 63.1865L43.5142 61.4218L47.6208 59.6571L38.5379 55.5717L29.455 51.4862L29.9579 50.3147L30.4608 49.1432L39.4691 53.1603L48.4775 57.1774L46.8404 52.8965L45.2033 48.6156L41.2997 46.8598L37.3961 45.1039L37.9218 43.8746L38.4476 42.6452L41.1079 43.7736L43.7683 44.9021L42.4841 41.3928L41.1999 37.8834L42.2348 37.4285C42.804 37.1783 43.3196 36.996 43.3807 37.0235C43.4418 37.051 44.0952 38.6483 44.8327 40.573L46.1736 44.0726L47.3354 41.1533L48.4972 38.2341L49.6424 38.7492L50.7876 39.2643L49.1418 43.3998L47.496 47.5352L49.1668 51.8976L50.8377 56.2599L54.6853 46.6745L58.5328 37.0892L59.6639 37.5591L60.795 38.029L56.9619 47.6605L53.1288 57.292L57.2362 55.5297L61.3437 53.7673L63.0072 49.6722L64.6706 45.577L65.8017 46.0469L66.9328 46.5168L65.8035 49.3544C65.1824 50.9151 64.7106 52.2084 64.755 52.2284C64.7995 52.2484 66.3186 51.6288 68.1308 50.8516L71.4257 49.4385L71.87 50.5868C72.1144 51.2183 72.2929 51.7889 72.2667 51.8548C72.2404 51.9207 70.753 52.6032 68.9612 53.3716L65.7035 54.7686L68.3811 56.0411L71.0586 57.3136L70.5753 58.528L70.092 59.7424L66.1536 58.0065L62.2152 56.2706L58.2212 57.9838L54.2272 59.697L63.2303 63.8148L72.2334 67.9326L71.7927 69.132L71.352 70.3315L62.2146 66.2214L53.0772 62.1114L54.7462 66.4756L56.4152 70.8399L60.3188 72.5957L64.2224 74.3515L63.6967 75.5809L63.1709 76.8103L60.5019 75.6779L57.8328 74.5456L59.1582 78.004C59.8872 79.9062 60.4622 81.5164 60.4359 81.5823C60.4097 81.6482 59.9002 81.9093 59.3036 82.1626L58.219 82.6232L56.832 79.003L55.4449 75.3828L54.2831 78.3021L53.1213 81.2214L51.9761 80.7063L50.8309 80.1912L52.4767 76.0557L54.1225 71.9202L52.4513 67.557L50.7801 63.1937L46.9486 72.8211L43.1172 82.4486L42.0447 81.9662C41.4548 81.7009 40.9533 81.4344 40.9302 81.374ZM6.73911 52.9044C6.716 52.844 7.53735 50.6833 8.56434 48.1027L10.4316 43.4108L8.4943 44.2398L6.557 45.0688L5.71631 47.1812L4.87561 49.2936L4.27575 49.0238L3.67588 48.754L4.26195 47.2814L4.84801 45.8087L3.14352 46.5373L1.43902 47.266L1.20371 46.6512L0.968426 46.0364L2.55706 45.3509C3.43082 44.9738 4.1609 44.6272 4.17945 44.5806C4.198 44.534 3.62165 44.2298 2.89867 43.9046L1.58418 43.3133L1.85878 42.7209L2.1334 42.1286L4.10908 42.9803L6.08475 43.832L7.983 43.0204C9.02704 42.574 9.8971 42.1689 9.91647 42.1202C9.93584 42.0716 7.93682 41.1255 5.47423 40.0178L0.996793 38.0039L1.27139 37.4115L1.54601 36.8191L6.02691 38.799L10.5078 40.7788L9.72381 38.7233L8.93979 36.6677L6.9477 35.7717L4.95558 34.8756L5.20874 34.2395L5.46189 33.6034L6.77069 34.1921C7.49053 34.5159 8.09468 34.7427 8.11323 34.6961C8.13178 34.6494 7.8574 33.851 7.5035 32.9218L6.86005 31.2323L7.43888 30.9837L8.01772 30.7352L8.68129 32.4606L9.34491 34.1861L9.90792 32.7714L10.4709 31.3567L11.0708 31.6265L11.6707 31.8963L10.853 33.9509L10.0354 36.0054L10.8555 38.1415L11.6756 40.2775L13.59 35.5515L15.5045 30.8254L16.091 31.048L16.6775 31.2706L14.788 36.0185C13.7488 38.6299 12.936 40.7833 12.9819 40.804C13.0278 40.8246 13.9199 40.4733 14.9643 40.0233L16.8632 39.2051L17.7026 37.096L18.5419 34.987L19.1418 35.2568L19.7416 35.5266L19.1893 36.9145C18.8855 37.6778 18.6747 38.3193 18.7208 38.3401C18.7669 38.3608 19.5007 38.0773 20.3515 37.71C21.2023 37.3427 21.9399 37.0608 21.9906 37.0837C22.1106 37.1377 22.4631 38.0586 22.4125 38.1859C22.391 38.2397 21.6764 38.5814 20.8243 38.9453C19.9722 39.3092 19.2592 39.647 19.2397 39.6959C19.2202 39.7448 19.7933 40.0497 20.5131 40.3735L21.8219 40.9622L21.5688 41.5983L21.3156 42.2344L19.3235 41.3383L17.3314 40.4423L15.3978 41.2754L13.4641 42.1086L17.921 44.1489L22.3778 46.1893L22.1691 46.8113L21.9604 47.4333L17.4028 45.3833L12.8451 43.3332L13.6601 45.4695L14.4751 47.6058L16.4297 48.522L18.3844 49.4383L18.1757 50.0603L17.967 50.6823L16.5726 50.0551L15.1781 49.4279L15.8532 51.1996C16.2245 52.174 16.5115 53.0135 16.4909 53.0651C16.4424 53.1871 15.5736 53.5601 15.4585 53.5084C15.4099 53.4865 15.064 52.6723 14.6899 51.6991L14.0096 49.9296L13.4236 51.4023L12.8375 52.8749L12.2376 52.6051L11.6378 52.3352L12.4785 50.2228L13.3192 48.1104L12.5447 46.0937C12.1187 44.9845 11.7341 44.0607 11.6899 44.0409C11.6458 44.021 10.7605 46.1386 9.72258 48.7466L7.83545 53.4885L7.30828 53.2514C7.01835 53.1209 6.76223 52.9648 6.73911 52.9044ZM94.4113 47.2632L96.9539 40.8745L94.2407 42.0374L91.5275 43.2004L90.4339 45.9484L89.3402 48.6965L88.5768 48.3531L87.8133 48.0097L88.5837 46.0739L89.354 44.1382L87.1432 45.0851C85.9272 45.6059 84.8857 46.011 84.8287 45.9854C84.6859 45.9212 84.1659 44.5733 84.2258 44.4226C84.2525 44.3555 85.2172 43.8971 86.3694 43.4039L88.4644 42.5073L86.7678 41.676L85.0711 40.8446L85.3727 39.9917L85.6744 39.1388L88.2707 40.3066L90.867 41.4744L93.5788 40.308L96.2906 39.1415L90.2658 36.4315L84.2411 33.7216L84.5632 32.912L84.8854 32.1024L90.8296 34.7761C94.0989 36.2466 96.7895 37.4101 96.8088 37.3617C96.828 37.3133 96.3681 36.0336 95.7866 34.5179L94.7295 31.7621L92.1241 30.5539L89.5187 29.3457L89.7118 28.7598C90.1039 27.5695 89.9941 27.5823 92.0136 28.4907L93.7824 29.2864L92.9177 27.0207C92.4421 25.7746 92.0743 24.7015 92.1003 24.6361C92.1594 24.4877 93.4328 23.9475 93.5739 24.0109C93.6309 24.0366 94.0684 25.0763 94.5463 26.3214L95.4151 28.5853L96.1624 26.7075L96.9097 24.8296L97.7277 25.1976L98.5457 25.5655L97.4351 28.3562L96.3245 31.147L97.368 33.9167C97.9419 35.4401 98.4514 36.7044 98.5001 36.7264C98.5489 36.7483 99.728 33.9038 101.12 30.4052L103.652 24.0442L104.415 24.3876L105.179 24.731L102.636 31.1197L100.094 37.5084L102.807 36.3455L105.52 35.1825L106.616 32.4294L107.711 29.6763L108.489 30.0659L109.266 30.4556L108.595 32.3037L107.923 34.1518L110.016 33.25C111.168 32.7541 112.157 32.3698 112.216 32.3962C112.361 32.4614 112.882 33.8079 112.822 33.9603C112.795 34.0274 111.83 34.4858 110.678 34.979L108.583 35.8756L110.28 36.7069L111.977 37.5382L111.675 38.3912L111.373 39.2441L108.777 38.0763L106.181 36.9084L103.469 38.0749L100.757 39.2414L106.782 41.9514L112.807 44.6613L112.484 45.4709L112.162 46.2805L106.164 43.5823C102.864 42.0983 100.149 40.9237 100.13 40.9721C100.111 41.0205 100.571 42.3013 101.152 43.8183L102.21 46.5765L104.858 47.7678L107.507 48.9591L107.141 49.7832L106.775 50.6073L104.967 49.8316L103.159 49.0559L104.068 51.4364L104.977 53.8168L104.286 54.1215C103.906 54.2892 103.544 54.4036 103.482 54.3758C103.421 54.3481 102.965 53.2695 102.47 51.979L101.57 49.6328L100.799 51.5685L100.029 53.5042L99.2653 53.1608L98.5019 52.8174L99.5924 50.0772L100.683 47.337L99.5832 44.4483L98.4835 41.5596L95.9396 47.9491L93.3957 54.3387L92.6322 53.9952L91.8687 53.6518L94.4113 47.2632ZM42.9001 12.2318L44.1534 9.08275L42.8371 9.64372L41.5208 10.2047L40.9762 11.5732L40.4316 12.9416L40.0369 12.7218L39.6422 12.5019L39.9515 11.6284L40.2609 10.755L39.1989 11.206L38.1368 11.657L37.9651 11.2083L37.7934 10.7597L38.8521 10.3L39.9109 9.84035L39.1146 9.44164L38.3183 9.04294L38.4571 8.594L38.5958 8.14507L39.8864 8.72555L41.1769 9.30603L42.4904 8.73779L43.8039 8.16956L40.8342 6.8338L37.8645 5.49804L38.0487 5.03542L38.2328 4.5728L41.2024 5.90856L44.1721 7.24432L43.6429 5.85121L43.1137 4.45812L41.8122 3.83461L40.5106 3.21113L40.6717 2.80633L40.8328 2.40154L41.7111 2.75633L42.5894 3.11113L42.1624 1.98287L41.7353 0.854609L42.1578 0.673208L42.5802 0.491805L43.0183 1.62398L43.4564 2.75616L43.8119 1.86294L44.1674 0.969711L44.6036 1.16595L45.0399 1.36218L44.4981 2.72368L43.9562 4.08518L44.4941 5.48014L45.032 6.87509L46.2852 3.72605L47.5384 0.577L47.9747 0.773234L48.411 0.969468L47.1577 4.11851L45.9045 7.26756L47.2208 6.7066L48.537 6.14563L49.0817 4.77715L49.6263 3.40867L50.021 3.62853L50.4157 3.84839L50.1063 4.72186L49.7969 5.59532L50.8805 5.13825L51.964 4.68118L52.1054 5.13974L52.2468 5.59829L51.1969 6.05413L50.147 6.50996L50.9433 6.90867L51.7395 7.30738L51.6008 7.75631L51.462 8.20524L50.1715 7.62476L48.881 7.04428L47.5675 7.61252L46.254 8.18076L49.2237 9.51651L52.1933 10.8523L52.0092 11.3149L51.8251 11.7775L48.8554 10.4418L45.8858 9.106L46.4168 10.5039L46.9478 11.9018L48.2383 12.4823L49.5289 13.0628L49.3224 13.4812L49.116 13.8997L48.2923 13.5698L47.4687 13.2399L47.8921 14.3584L48.3154 15.4769L47.9074 15.6883L47.4993 15.8997L47.0647 14.7838C46.8256 14.17 46.5944 13.6518 46.5509 13.6323C46.5074 13.6127 46.3153 13.9902 46.1239 14.4711L45.7759 15.3455L45.3812 15.1256L44.9864 14.9058L45.5107 13.4981L46.035 12.0905L45.5304 10.783L45.0258 9.47554L43.7726 12.6244L42.5194 15.7733L42.0832 15.5771L41.6469 15.3808L42.9001 12.2318Z" fill="white"/>
</svg>
