<svg width="151" height="131" viewBox="0 0 151 131" fill="none" xmlns="http://www.w3.org/2000/svg">
<path d="M143.708 40.1228C143.692 40.1103 143.617 39.3922 143.541 38.527L143.402 36.9539L142.948 37.4944L142.493 38.0346L142.556 38.7428L142.618 39.451L142.399 39.476L142.181 39.501L142.137 39.0072L142.094 38.5137L141.694 38.9889L141.294 39.4641L141.133 39.3363L140.971 39.2084L141.343 38.7638C141.548 38.5194 141.714 38.3065 141.712 38.2907C141.711 38.2751 141.494 38.287 141.231 38.3171L140.752 38.372L140.746 38.1671L140.74 37.962L141.455 37.8697L142.169 37.7775L142.615 37.2482C142.86 36.9571 143.059 36.7055 143.057 36.6893C143.056 36.673 142.32 36.7435 141.422 36.846L139.79 37.0326L139.784 36.8276L139.778 36.6227L141.407 36.4264L143.035 36.2301L142.497 35.8026L141.959 35.3749L141.233 35.4579L140.506 35.5409L140.488 35.3275L140.469 35.1144L140.946 35.0598C141.208 35.0298 141.422 34.9926 141.421 34.9768C141.419 34.9612 141.219 34.7902 140.976 34.5969L140.534 34.2452L140.67 34.0834L140.806 33.9219L141.259 34.28L141.712 34.6381L141.67 34.1638L141.628 33.6895L141.847 33.6645L142.066 33.6395L142.126 34.3282L142.187 35.0169L142.748 35.4605L143.308 35.9039L143.179 34.3141L143.049 32.724L143.257 32.6885L143.465 32.653L143.605 34.2447C143.682 35.1202 143.759 35.8349 143.776 35.8331C143.792 35.8311 144.006 35.5906 144.251 35.2986L144.695 34.7673L144.633 34.0601L144.571 33.3532L144.789 33.3282L145.008 33.3032L145.049 33.7685C145.071 34.0244 145.104 34.2321 145.12 34.2303C145.137 34.2283 145.314 34.0319 145.513 33.7937C145.712 33.5557 145.89 33.3591 145.909 33.3569C145.952 33.3519 146.194 33.5433 146.197 33.5859C146.199 33.6041 146.037 33.8132 145.837 34.0506C145.637 34.2878 145.474 34.4956 145.476 34.512C145.477 34.5284 145.693 34.5174 145.956 34.4872L146.433 34.4328L146.451 34.646L146.47 34.8594L145.744 34.9424L145.018 35.0253L144.565 35.5662L144.113 36.1071L145.743 35.931L147.373 35.755L147.402 35.9571L147.432 36.1592L145.771 36.3492L144.11 36.539L144.669 36.9834L145.228 37.4278L145.946 37.3564L146.664 37.2851L146.694 37.4872L146.724 37.6895L146.216 37.7476L145.707 37.8055L146.171 38.1743C146.426 38.3771 146.635 38.5571 146.637 38.5743C146.641 38.6153 146.437 38.8579 146.395 38.8627C146.377 38.8648 146.154 38.7012 145.898 38.4991L145.433 38.132L145.477 38.6256L145.52 39.1193L145.302 39.1444L145.083 39.1694L145.021 38.4612L144.958 37.7529L144.429 37.3341C144.138 37.1038 143.886 36.9171 143.87 36.9189C143.854 36.9208 143.904 37.6376 143.981 38.5121L144.121 40.1019L143.929 40.1238C143.823 40.1359 143.724 40.1354 143.708 40.1228ZM123.506 40.4121L123.413 39.3564L123.104 39.7228L122.795 40.0894L122.835 40.5481L122.876 41.007L122.726 41.012L122.576 41.0169L122.538 40.7305L122.501 40.4438L122.252 40.7391L122.002 41.0342L121.884 40.9412L121.767 40.8479L122.014 40.5508L122.261 40.2537L121.965 40.276L121.669 40.2981L121.644 40.1541L121.619 40.0101L122.089 39.9564L122.56 39.9027L122.867 39.5347L123.174 39.1667L122.091 39.2902L121.009 39.4139L120.995 39.259L120.981 39.1039L122.064 38.9801L123.147 38.8564L122.783 38.5662L122.419 38.2761L121.938 38.3199L121.458 38.3639L121.446 38.2282L121.434 38.0925L121.749 38.0449L122.063 37.9975L121.769 37.7623L121.474 37.527L121.573 37.409L121.672 37.291L121.97 37.5256L122.269 37.76L122.242 37.4606L122.216 37.1612L122.375 37.143L122.534 37.1248L122.574 37.5812L122.614 38.0378L122.981 38.3269L123.348 38.6163L123.255 37.5604L123.162 36.5047L123.321 36.4865L123.48 36.4683L123.573 37.5242L123.666 38.5799L123.975 38.2133L124.284 37.8469L124.244 37.388L124.203 36.9293L124.354 36.9243L124.504 36.9192L124.541 37.2059L124.578 37.4925L124.833 37.192L125.088 36.8917L125.198 36.9925L125.308 37.0934L125.063 37.388L124.818 37.6826L125.114 37.6603L125.41 37.638L125.435 37.782L125.461 37.9262L124.99 37.9799L124.52 38.0336L124.213 38.4016L123.905 38.7696L124.988 38.6459L126.071 38.5222L126.084 38.6773L126.098 38.8324L125.015 38.9562L123.933 39.0799L124.298 39.371L124.663 39.6621L125.134 39.6084L125.604 39.5547L125.605 39.7015L125.605 39.8482L125.311 39.8936L125.017 39.9388L125.308 40.172L125.6 40.4053L125.51 40.5291L125.42 40.6527L125.125 40.4221C124.963 40.2952 124.817 40.193 124.801 40.1946C124.785 40.1965 124.784 40.3299 124.798 40.4912L124.824 40.7844L124.674 40.7893L124.524 40.7942L124.471 40.3282L124.419 39.8623L124.075 39.5912L123.731 39.3201L123.824 40.3757L123.917 41.4314L123.758 41.4496L123.599 41.4678L123.506 40.4121ZM130.884 33.5986C130.869 33.5862 130.729 32.135 130.574 30.374L130.291 27.1721L129.346 28.2978L128.402 29.4235L128.525 30.8294L128.649 32.2353L128.232 32.283L127.814 32.3307L127.729 31.3613C127.682 30.8282 127.63 30.3935 127.613 30.3954C127.597 30.3973 127.24 30.8082 126.821 31.3084C126.401 31.8087 126.04 32.2202 126.017 32.2228C125.994 32.2253 125.847 32.1233 125.689 31.9959L125.402 31.7644L126.158 30.8358L126.915 29.9074L125.95 29.9962C125.42 30.0451 124.981 30.0821 124.974 30.0784C124.967 30.0747 124.951 29.8923 124.938 29.673L124.915 29.2743L126.326 29.1027L127.737 28.9312L128.699 27.7838L129.661 26.6365L126.35 27.0149L123.039 27.3932L123.016 26.9945L122.992 26.5958L126.271 26.2111L129.549 25.8264L128.428 24.9365L127.306 24.0466L125.883 24.2092L124.46 24.3719L124.434 23.9537L124.409 23.5356L125.369 23.4064L126.328 23.2771L125.426 22.5382L124.524 21.7992L124.765 21.5074C124.897 21.3468 125.024 21.2134 125.046 21.2108C125.068 21.2083 125.5 21.5334 126.004 21.9332L126.922 22.6603L126.836 21.6815L126.75 20.7028L127.167 20.6551L127.585 20.6074L127.707 21.9939L127.829 23.3803L128.973 24.2867L130.117 25.1931L129.843 21.9741L129.57 18.7552L129.977 18.6975L130.383 18.6399L130.668 21.869L130.952 25.0981L131.915 23.9512L132.878 22.8043L132.767 21.4259L132.656 20.0475L133.062 19.9898L133.469 19.9322L133.553 20.8836C133.599 21.4068 133.65 21.8334 133.666 21.8315C133.682 21.8297 134.043 21.4142 134.468 20.9083L135.24 19.9885L135.543 20.2263C135.709 20.3571 135.846 20.4823 135.849 20.5043C135.85 20.5264 135.508 20.9537 135.088 21.4539L134.325 22.3633L135.311 22.2702L136.297 22.177L136.333 22.5842L136.369 22.9913L134.938 23.165L133.508 23.3387L132.572 24.4538L131.636 25.5688L134.928 25.2122L138.22 24.8555L138.266 25.2517L138.312 25.6478L134.981 26.0285L131.65 26.4092L132.794 27.3164L133.938 28.2235L135.361 28.0609L136.784 27.8983L136.809 28.3164L136.835 28.7345L135.872 28.8641L134.909 28.9938L135.816 29.7122C136.315 30.1074 136.725 30.4487 136.727 30.4708C136.728 30.4929 136.615 30.6467 136.475 30.8126L136.22 31.1141L135.271 30.362L134.321 29.6099L134.408 30.5887L134.494 31.5674L134.076 31.615L133.659 31.6628L133.537 30.2763L133.415 28.8898L132.271 27.9833L131.126 27.0767L131.411 30.3044L131.695 33.5322L131.304 33.5767C131.089 33.6013 130.9 33.6111 130.884 33.5986ZM116.482 31.4847C116.466 31.4722 116.39 30.7541 116.314 29.8889L116.176 28.3159L115.721 28.8562L115.267 29.3965L115.329 30.1047L115.392 30.813L115.173 30.8379L114.954 30.8629L114.911 30.3692L114.867 29.8755L114.467 30.3507L114.068 30.8259L113.906 30.6981L113.745 30.5703L114.117 30.1257C114.321 29.8812 114.488 29.6683 114.486 29.6527C114.485 29.637 114.268 29.6489 114.005 29.679L113.525 29.7338L113.519 29.5288L113.514 29.3239L114.228 29.2316L114.943 29.1393L115.388 28.6101C115.633 28.319 115.833 28.0675 115.831 28.0511C115.83 28.0348 115.094 28.1054 114.196 28.208L112.564 28.3945L112.558 28.1896L112.552 27.9847L114.18 27.7883L115.809 27.592L115.271 27.1644L114.733 26.7368L114.006 26.8198L113.28 26.9028L113.261 26.6895L113.243 26.4762L113.72 26.4217C113.982 26.3917 114.196 26.3544 114.194 26.3388C114.193 26.3231 113.993 26.1521 113.75 25.9587L113.308 25.6071L113.444 25.4454L113.579 25.2837L114.032 25.6418L114.486 25.9999L114.444 25.5256L114.402 25.0513L114.621 25.0263L114.84 25.0013L114.9 25.6901L114.961 26.3789L115.522 26.8224L116.082 27.2659L115.953 25.676L115.823 24.086L116.031 24.0504L116.239 24.0148L116.379 25.6066C116.456 26.4821 116.533 27.1969 116.549 27.1949C116.566 27.193 116.78 26.9525 117.024 26.6603L117.469 26.1292L117.407 25.4221L117.344 24.715L117.563 24.6901L117.782 24.6651L117.823 25.1304C117.845 25.3863 117.877 25.5941 117.894 25.5922C117.911 25.5902 118.088 25.3938 118.287 25.1556C118.486 24.9175 118.664 24.7209 118.682 24.7188C118.726 24.7138 118.968 24.9052 118.971 24.9479C118.973 24.9659 118.811 25.1749 118.611 25.4124C118.411 25.6498 118.248 25.8575 118.25 25.8739C118.251 25.8903 118.467 25.8792 118.729 25.8492L119.207 25.7947L119.225 26.0079L119.244 26.2212L118.518 26.3042L117.792 26.3872L117.339 26.928L116.886 27.4689L118.516 27.2928L120.146 27.1168L120.176 27.319L120.206 27.5212L118.545 27.7111L116.883 27.9009L117.442 28.3453L118.002 28.7897L118.72 28.7183L119.438 28.6469L119.468 28.8491L119.498 29.0513L118.989 29.1094L118.481 29.1675L118.944 29.5362C119.199 29.7389 119.409 29.919 119.411 29.9363C119.414 29.9772 119.211 30.2199 119.169 30.2246C119.151 30.2267 118.927 30.0631 118.672 29.8611L118.207 29.4938L118.251 29.9875L118.294 30.4813L118.075 30.5062L117.857 30.5313L117.794 29.823L117.732 29.1148L117.203 28.6961C116.911 28.4658 116.66 28.2789 116.644 28.2808C116.628 28.2826 116.678 28.9995 116.755 29.8739L116.895 31.4636L116.703 31.4856C116.597 31.4977 116.497 31.4973 116.482 31.4847ZM141.766 15.6484L141.577 13.5065L140.941 14.2637L140.305 15.0209L140.386 15.9423L140.467 16.8636L140.189 16.8954L139.911 16.9271L139.854 16.2782L139.796 15.6292L139.278 16.246C138.993 16.5854 138.743 16.8649 138.722 16.8672C138.67 16.8732 138.315 16.5938 138.311 16.5432C138.309 16.5208 138.528 16.2393 138.798 15.918L139.29 15.3337L138.661 15.3859L138.033 15.4381L137.996 15.1583L137.96 14.8785L138.906 14.7703L139.853 14.6623L140.488 13.9042L141.123 13.1463L138.927 13.3972L136.731 13.6482L136.706 13.3769L136.683 13.1054L138.85 12.8578C140.041 12.7216 141.015 12.5969 141.014 12.5807C141.012 12.5644 140.686 12.2936 140.288 11.9788L139.565 11.4065L138.61 11.5052L137.655 11.604L137.626 11.414C137.566 11.0283 137.535 11.0497 138.271 10.9656L138.916 10.8919L138.323 10.4206C137.997 10.1615 137.728 9.93152 137.726 9.90952C137.722 9.85977 138.021 9.50586 138.073 9.49999C138.093 9.49773 138.378 9.70727 138.705 9.96587L139.299 10.4359L139.243 9.80639L139.188 9.17683L139.486 9.14272L139.784 9.10862L139.867 10.0443L139.949 10.9799L140.67 11.5581C141.067 11.8763 141.406 12.1349 141.424 12.1329C141.441 12.1308 141.371 11.1694 141.268 9.99647L141.08 7.86395L141.359 7.83207L141.637 7.8003L141.825 9.94223L142.014 12.084L142.65 11.3268L143.286 10.5696L143.205 9.6466L143.124 8.72361L143.413 8.70205L143.702 8.68041L143.776 9.28955L143.85 9.89871L144.34 9.31329C144.609 8.99132 144.847 8.7259 144.869 8.72337C144.921 8.71739 145.276 8.99622 145.281 9.04729C145.283 9.06977 145.063 9.35117 144.793 9.67259L144.301 10.257L144.93 10.2047L145.559 10.1524L145.595 10.4322L145.632 10.712L144.685 10.8201L143.739 10.9283L143.104 11.6863L142.468 12.4442L144.665 12.1933L146.861 11.9423L146.885 12.2136L146.909 12.4851L144.722 12.735C143.519 12.8725 142.536 12.9982 142.538 13.0144C142.539 13.0306 142.866 13.3017 143.264 13.6168L143.988 14.1897L144.953 14.0794L145.919 13.9691L145.932 14.2515L145.945 14.5339L145.291 14.6194L144.638 14.7049L145.261 15.2L145.884 15.6951L145.723 15.8903C145.635 15.9977 145.544 16.0876 145.522 16.0901C145.499 16.0927 145.204 15.8756 144.865 15.6076L144.25 15.1203L144.307 15.7693L144.364 16.4183L144.085 16.4501L143.807 16.4819L143.726 15.5632L143.645 14.6446L142.89 14.0433L142.134 13.442L142.323 15.5842L142.511 17.7267L142.233 17.7584L141.955 17.7902L141.766 15.6484ZM121.231 14.5881L121.138 13.5324L120.829 13.8989L120.52 14.2654L120.561 14.7242L120.601 15.183L120.451 15.188L120.301 15.193L120.263 14.9064L120.226 14.6198L119.977 14.9151L119.727 15.2103L119.609 15.1171L119.492 15.0239L119.739 14.7268L119.986 14.4297L119.69 14.4519L119.394 14.4741L119.369 14.3301L119.344 14.1861L119.814 14.1324L120.285 14.0786L120.592 13.7106L120.899 13.3426L119.816 13.4663L118.734 13.59L118.72 13.4349L118.706 13.2798L119.789 13.1561L120.872 13.0324L120.508 12.7422L120.144 12.4521L119.663 12.496L119.183 12.5399L119.171 12.4042L119.159 12.2685L119.474 12.221L119.788 12.1736L119.494 11.9383L119.199 11.7031L119.298 11.5851L119.397 11.4671L119.695 11.7016L119.994 11.9361L119.967 11.6366L119.941 11.3372L120.1 11.319L120.259 11.3008L120.299 11.7573L120.339 12.2137L120.706 12.503L121.073 12.7922L120.98 11.7365L120.887 10.6807L121.046 10.6625L121.205 10.6444L121.298 11.7001L121.391 12.7559L121.7 12.3894L122.009 12.0229L121.969 11.5641L121.928 11.1053L122.079 11.1003L122.229 11.0953L122.266 11.3819L122.303 11.6685L122.558 11.3681L122.813 11.0676L122.923 11.1685L123.033 11.2694L122.788 11.564L122.543 11.8586L122.839 11.8363L123.135 11.8141L123.161 11.9581L123.186 12.1021L122.715 12.1559L122.245 12.2097L121.938 12.5777L121.63 12.9457L122.713 12.822L123.796 12.6982L123.809 12.8533L123.823 13.0084L122.74 13.1322L121.658 13.2559L122.023 13.547L122.388 13.8382L122.859 13.7844L123.329 13.7307L123.33 13.8775L123.33 14.0243L123.036 14.0696L122.742 14.1148L123.033 14.3481L123.325 14.5813L123.235 14.705L123.145 14.8288L122.85 14.5981C122.688 14.4712 122.542 14.3689 122.526 14.3707C122.51 14.3725 122.509 14.5059 122.523 14.6672L122.549 14.9603L122.399 14.9653L122.249 14.9703L122.197 14.5043L122.144 14.0382L121.8 13.7672L121.456 13.4961L121.549 14.5518L121.642 15.6075L121.483 15.6257L121.324 15.6439L121.231 14.5881Z" fill="#00478F"/>
<path d="M42.7212 106.41C42.7011 106.408 42.261 105.835 41.743 105.138L40.8011 103.871L40.6971 104.569L40.5928 105.267L41.0168 105.838L41.4409 106.409L41.2677 106.544L41.0945 106.68L40.7988 106.282L40.5034 105.885L40.4115 106.499L40.3197 107.113L40.1155 107.089L39.9111 107.064L39.9951 106.491C40.0413 106.175 40.0714 105.907 40.0619 105.894C40.0526 105.882 39.8742 106.005 39.6653 106.169L39.2859 106.467L39.1736 106.295L39.061 106.123L39.6217 105.671L40.1823 105.218L40.2846 104.534C40.3408 104.157 40.3787 103.839 40.3691 103.826C40.3592 103.812 39.7694 104.258 39.0583 104.815L37.7654 105.829L37.6531 105.657L37.5408 105.486L38.8251 104.466L40.1094 103.446L39.4272 103.364L38.7449 103.281L38.1696 103.732L37.5944 104.183L37.4666 104.011L37.3391 103.839L37.7169 103.543C37.9248 103.38 38.0873 103.237 38.0778 103.224C38.0684 103.211 37.8085 103.17 37.5003 103.133L36.9396 103.065L36.9704 102.856L37.0014 102.647L37.5751 102.715L38.1488 102.783L37.8648 102.4L37.5808 102.018L37.754 101.882L37.9272 101.747L38.3395 102.302L38.7518 102.857L39.4619 102.941L40.1717 103.025L39.2287 101.739L38.2858 100.452L38.444 100.313L38.6025 100.174L39.5554 101.456C40.0796 102.162 40.5194 102.73 40.5327 102.72C40.5458 102.71 40.6019 102.393 40.6573 102.016L40.7578 101.331L40.3345 100.761L39.9112 100.191L40.0844 100.055L40.2576 99.9194L40.5361 100.294C40.6894 100.501 40.8255 100.661 40.8389 100.65C40.8523 100.64 40.8998 100.38 40.9446 100.073C40.9897 99.7658 41.0383 99.5051 41.0529 99.4936C41.0876 99.4664 41.3935 99.503 41.419 99.5374C41.4299 99.552 41.4011 99.8151 41.355 100.122C41.309 100.429 41.2794 100.691 41.2892 100.704C41.299 100.717 41.4772 100.595 41.685 100.432L42.063 100.136L42.1905 100.308L42.3183 100.479L41.743 100.93L41.1679 101.381L41.0655 102.079L40.9631 102.777L42.2596 101.773L43.5559 100.77L43.6873 100.926L43.8186 101.083L42.5027 102.115L41.1866 103.147L41.8957 103.232L42.6049 103.318L43.1793 102.881L43.7535 102.445L43.8848 102.601L44.0164 102.758L43.6138 103.073L43.2109 103.389L43.799 103.46C44.1223 103.5 44.3954 103.543 44.4057 103.557C44.4303 103.59 44.3839 103.903 44.3505 103.929C44.3365 103.94 44.0605 103.918 43.7369 103.88L43.1487 103.81L43.4442 104.208L43.7399 104.606L43.5667 104.742L43.3935 104.878L42.9694 104.307L42.5455 103.736L41.8751 103.657C41.5064 103.613 41.1945 103.586 41.1816 103.596C41.169 103.606 41.5868 104.19 42.1104 104.895L43.0622 106.176L42.91 106.295C42.8263 106.361 42.7413 106.412 42.7212 106.41ZM25.6626 117.236L25.0305 116.385L24.959 116.859L24.8877 117.333L25.1623 117.703L25.4372 118.072L25.3118 118.155L25.1864 118.238L25.0048 118.013L24.823 117.789L24.765 118.171L24.7068 118.553L24.5579 118.536L24.4089 118.518L24.464 118.135L24.5192 117.752L24.2785 117.927L24.0376 118.101L23.9408 117.991L23.8439 117.882L24.2166 117.589L24.5893 117.297L24.6583 116.823L24.7272 116.349L23.8696 117.021L23.0121 117.693L22.9194 117.568L22.8265 117.443L23.684 116.771L24.5414 116.099L24.0794 116.042L23.6174 115.985L23.2312 116.274L22.8453 116.563L22.7641 116.454L22.6829 116.344L22.9256 116.139L23.1685 115.934L22.7946 115.888L22.4206 115.842L22.4431 115.689L22.4657 115.537L22.8426 115.581L23.2193 115.624L23.0401 115.383L22.8609 115.142L22.9868 115.043L23.1127 114.944L23.386 115.312L23.6594 115.68L24.1233 115.734L24.5874 115.788L23.9551 114.938L23.3231 114.087L23.449 113.988L23.5749 113.889L24.2072 114.74L24.8392 115.591L24.9106 115.117L24.9821 114.643L24.7072 114.273L24.4326 113.903L24.558 113.82L24.6832 113.737L24.865 113.962L25.0468 114.187L25.1067 113.797L25.1669 113.408L25.3133 113.436L25.46 113.464L25.4053 113.844L25.3506 114.223L25.5913 114.049L25.832 113.875L25.9288 113.985L26.0258 114.094L25.6532 114.386L25.2805 114.678L25.2115 115.153L25.1425 115.627L26 114.955L26.8575 114.283L26.9504 114.408L27.0433 114.533L26.1858 115.205L25.3284 115.877L25.7919 115.934L26.2555 115.991L26.6282 115.699L27.0008 115.406L27.0782 115.531L27.1553 115.656L26.9284 115.849L26.7014 116.041L27.0721 116.087L27.4428 116.133L27.4308 116.286L27.4186 116.438L27.0468 116.396C26.8422 116.373 26.6646 116.362 26.6519 116.372C26.6394 116.382 26.7081 116.496 26.8048 116.626L26.9803 116.862L26.8549 116.945L26.7295 117.028L26.4409 116.659L26.1525 116.289L25.7174 116.238L25.2824 116.187L25.9145 117.038L26.5465 117.889L26.4206 117.987L26.2946 118.086L25.6626 117.236ZM28.38 107.567C28.3602 107.565 27.481 106.402 26.4266 104.983L24.5096 102.403L24.2941 103.857L24.0785 105.311L24.9203 106.443L25.762 107.576L25.4313 107.836L25.1006 108.095L24.5202 107.314C24.201 106.884 23.9291 106.541 23.916 106.551C23.9028 106.562 23.8141 107.098 23.7188 107.744C23.6235 108.39 23.5309 108.93 23.5129 108.944C23.495 108.958 23.3157 108.949 23.1145 108.923L22.7486 108.876L22.9069 107.689L23.0651 106.501L22.2902 107.082C21.8639 107.401 21.509 107.663 21.5015 107.663C21.4939 107.664 21.3847 107.517 21.2587 107.337L21.0297 107.009L22.1422 106.124L23.2548 105.239L23.4735 103.758L23.6923 102.276L21.0697 104.333L18.4471 106.389L18.2181 106.062L17.9891 105.734L20.5809 103.69L23.1727 101.645L21.7511 101.474L20.3294 101.304L19.2023 102.187L18.0751 103.071L17.8345 102.728L17.5939 102.385L18.3438 101.773L19.0937 101.16L17.938 101.003L16.7824 100.846L16.8348 100.471C16.8636 100.265 16.9016 100.085 16.9192 100.071C16.9369 100.057 17.4745 100.108 18.1139 100.185L19.2765 100.324L18.6905 99.5349L18.1045 98.7462L18.4352 98.487L18.7659 98.2277L19.596 99.3449L20.4261 100.462L21.8752 100.635L23.3243 100.808L21.4058 98.2092L19.4873 95.6101L19.8035 95.3481L20.1197 95.0861L22.053 97.688L23.9863 100.29L24.2059 98.8088L24.4254 97.3276L23.6091 96.2114L22.7928 95.0951L23.109 94.8331L23.4251 94.5711L23.9947 95.3377C24.308 95.7593 24.5748 96.0961 24.5877 96.086C24.6005 96.0759 24.6903 95.533 24.7873 94.8796L24.9636 93.6915L25.3458 93.7358C25.5561 93.76 25.7388 93.7946 25.7521 93.8123C25.7653 93.8302 25.6976 94.3734 25.6017 95.0194L25.4274 96.194L26.2187 95.5983L27.0102 95.0024L27.2538 95.3307L27.4977 95.6586L26.37 96.5557L25.2423 97.4528L25.0287 98.8929L24.8151 100.333L27.4329 98.3053L30.0508 96.2775L30.2977 96.5907L30.5446 96.9039L27.9062 98.9726L25.2679 101.041L26.7172 101.215L28.1665 101.389L29.2936 100.505L30.4208 99.6217L30.6614 99.9646L30.902 100.307L30.1496 100.922L29.3972 101.537L30.5461 101.674C31.1781 101.749 31.706 101.825 31.7192 101.843C31.7324 101.861 31.7166 102.051 31.684 102.266L31.6247 102.656L30.4221 102.513L29.2194 102.369L29.8054 103.158L30.3914 103.947L30.0607 104.206L29.7301 104.465L28.8999 103.348L28.0698 102.231L26.6204 102.058L25.1709 101.884L27.1035 104.485L29.036 107.086L28.7262 107.329C28.5559 107.462 28.4001 107.57 28.38 107.567ZM15.0031 113.309C14.9831 113.306 14.5429 112.734 14.0249 112.037L13.0831 110.769L12.9789 111.468L12.8747 112.166L13.2988 112.736L13.7228 113.307L13.5496 113.443L13.3764 113.579L13.0808 113.181L12.7852 112.783L12.6933 113.397L12.6015 114.012L12.3973 113.987L12.1931 113.963L12.277 113.389C12.3231 113.074 12.3532 112.805 12.3438 112.793C12.3345 112.78 12.156 112.904 11.9473 113.068L11.5677 113.365L11.4554 113.194L11.343 113.022L11.9036 112.569L12.4641 112.116L12.5664 111.432C12.6226 111.056 12.6606 110.737 12.6508 110.724C12.6411 110.711 12.0513 111.156 11.3403 111.714L10.0474 112.728L9.93504 112.556L9.82269 112.385L11.107 111.365L12.3913 110.345L11.709 110.262L11.0267 110.18L10.4515 110.631L9.8763 111.082L9.74861 110.91L9.62092 110.738L9.99883 110.442C10.2067 110.279 10.3691 110.135 10.3597 110.123C10.3504 110.11 10.0904 110.069 9.78209 110.031L9.22147 109.963L9.25236 109.755L9.28326 109.546L9.85688 109.614L10.4305 109.681L10.1466 109.299L9.86258 108.917L10.0358 108.781L10.209 108.645L10.6214 109.2L11.0338 109.755L11.7437 109.84L12.4536 109.924L11.5106 108.637L10.5676 107.35L10.726 107.211L10.8843 107.072L11.8373 108.355C12.3615 109.06 12.8012 109.629 12.8144 109.619C12.8277 109.608 12.8838 109.291 12.9391 108.914L13.0397 108.229L12.6164 107.659L12.193 107.09L12.3662 106.954L12.5394 106.818L12.818 107.193C12.9712 107.399 13.1075 107.559 13.1208 107.549C13.1341 107.538 13.1818 107.279 13.2266 106.971C13.2715 106.664 13.3202 106.404 13.3348 106.392C13.3695 106.365 13.6754 106.402 13.7009 106.436C13.7117 106.451 13.6829 106.714 13.6369 107.021C13.5909 107.328 13.5613 107.59 13.5711 107.603C13.5809 107.616 13.759 107.494 13.9669 107.331L14.3448 107.034L14.4725 107.206L14.6002 107.378L14.0249 107.829L13.4497 108.28L13.3473 108.978L13.2449 109.676L14.5413 108.672L15.8378 107.668L15.9692 107.825L16.1006 107.982L14.7845 109.013L13.4686 110.045L14.1777 110.131L14.8868 110.217L15.4611 109.78L16.0354 109.343L16.1668 109.5L16.2982 109.656L15.8955 109.972L15.4929 110.288L16.0809 110.359C16.4042 110.398 16.6773 110.442 16.6876 110.456C16.7121 110.489 16.6657 110.802 16.6325 110.828C16.6185 110.839 16.3423 110.817 16.0188 110.778L15.4305 110.709L15.7261 111.107L16.0217 111.505L15.8485 111.64L15.6753 111.776L15.2513 111.206L14.8273 110.635L14.157 110.555C13.7883 110.512 13.4763 110.484 13.4635 110.494C13.4508 110.504 13.8687 111.089 14.3922 111.793L15.344 113.074L15.1918 113.194C15.1081 113.259 15.0232 113.311 15.0031 113.309ZM28.2503 86.5767L26.9679 84.8507L26.8226 85.8289L26.6772 86.8071L27.2288 87.5497L27.7804 88.292L27.56 88.4648L27.3396 88.6375L26.951 88.1146L26.5624 87.5918L26.4438 88.3887C26.3785 88.8271 26.3117 89.1963 26.2952 89.2092C26.2539 89.2416 25.8055 89.1892 25.7754 89.1484C25.7619 89.1303 25.8015 88.7756 25.8634 88.3604L25.976 87.6053L25.4678 87.979L24.9598 88.3525L24.7822 88.1333L24.6047 87.914L25.3543 87.3262L26.1039 86.7386L26.2482 85.7601L26.3923 84.7818L24.6527 86.1457L22.9131 87.5096L22.7505 87.291L22.5881 87.0722L24.3044 85.7265C25.2484 84.9864 26.0127 84.3703 26.003 84.3572C25.9933 84.344 25.5733 84.2844 25.0697 84.2244L24.1539 84.1155L23.3919 84.6998L22.6299 85.2841L22.5056 85.1376C22.2529 84.8401 22.2379 84.8745 22.821 84.4174L23.3318 84.0168L22.5797 83.926C22.1659 83.8762 21.8167 83.8208 21.8036 83.803C21.7739 83.763 21.8436 83.3047 21.8843 83.2727C21.9007 83.26 22.2527 83.2896 22.6665 83.3388L23.4188 83.4281L23.0419 82.9209L22.6649 82.4136L22.9011 82.2283L23.1374 82.0431L23.6975 82.7971L24.2577 83.551L25.1749 83.6659C25.6793 83.7293 26.1035 83.7721 26.1176 83.7611C26.1317 83.7501 25.5687 82.9676 24.8664 82.0224L23.5895 80.3042L23.81 80.1312L24.0305 79.9584L25.3128 81.6844L26.5953 83.4101L26.7406 82.432L26.886 81.4538L26.3333 80.7101L25.7807 79.9663L26.0158 79.7965L26.251 79.6265L26.6328 80.1069L27.0145 80.5873L27.1254 79.8319C27.1864 79.4165 27.2502 79.0657 27.2672 79.0523C27.3089 79.0196 27.7572 79.0714 27.7878 79.1125C27.8013 79.1306 27.7616 79.4853 27.6997 79.9007L27.587 80.6558L28.0952 80.2821L28.6034 79.9084L28.781 80.1276L28.9585 80.3469L28.2089 80.9347L27.4592 81.5225L27.315 82.5008L27.1709 83.4791L28.9105 82.1152L30.6501 80.7512L30.8127 80.9699L30.9751 81.1887L29.2431 82.5466C28.2903 83.2937 27.5189 83.9155 27.5286 83.9284C27.5383 83.9416 27.9587 84.0014 28.4627 84.0614L29.3791 84.1706L30.1439 83.571L30.9086 82.9714L31.0677 83.2052L31.2268 83.4389L30.7147 83.854L30.2027 84.269L30.993 84.3645L31.7832 84.4599L31.7485 84.7103C31.7293 84.8481 31.6991 84.9723 31.6814 84.9861C31.6636 85.0001 31.298 84.97 30.8692 84.9189L30.0896 84.8263L30.4782 85.3491L30.8666 85.8722L30.6462 86.045L30.4258 86.2178L29.8758 85.4775L29.3257 84.7374L28.3672 84.6207L27.4087 84.5041L28.6912 86.2304L29.9735 87.9569L29.7531 88.1297L29.5327 88.3025L28.2503 86.5767ZM10.2012 96.4269L9.56904 95.5762L9.49767 96.0502L9.42628 96.5243L9.70099 96.894L9.97567 97.2637L9.85038 97.3466L9.72507 97.4295L9.54331 97.2048L9.36154 96.9801L9.3035 97.3624L9.24547 97.7447L9.09645 97.7268L8.94745 97.709L9.0026 97.3264L9.05774 96.9438L8.81698 97.1178L8.57621 97.2919L8.47938 97.1824L8.38253 97.0729L8.75518 96.7808L9.12782 96.4886L9.19676 96.0142L9.26573 95.5399L8.40827 96.2121L7.55079 96.8845L7.45792 96.7595L7.36507 96.6345L8.22255 95.9622L9.08002 95.2899L8.61799 95.2333L8.15595 95.1767L7.76994 95.4656L7.38395 95.7544L7.3027 95.645L7.22144 95.5357L7.46426 95.3307L7.70709 95.1257L7.33315 95.0794L6.95921 95.0331L6.98175 94.8808L7.0043 94.7284L7.38115 94.772L7.75799 94.8157L7.5787 94.5744L7.39941 94.3331L7.52538 94.2343L7.65134 94.1355L7.92463 94.5033L8.19792 94.8712L8.66192 94.9255L9.1259 94.9798L8.4938 94.1291L7.8617 93.2783L7.98767 93.1796L8.11364 93.0808L8.74574 93.9315L9.37784 94.7823L9.44923 94.3082L9.5206 93.8341L9.24591 93.4644L8.97122 93.0947L9.09652 93.0118L9.22182 92.9289L9.40359 93.1536L9.58535 93.3783L9.64538 92.9887L9.7054 92.5992L9.85196 92.6275L9.99853 92.6558L9.94384 93.0352L9.88914 93.4147L10.1299 93.2406L10.3707 93.0665L10.4675 93.176L10.5644 93.2855L10.1917 93.5777L9.81908 93.8698L9.75012 94.3442L9.68116 94.8186L10.5386 94.1463L11.3961 93.474L11.489 93.5989L11.5818 93.7239L10.7244 94.3962L9.86687 95.0685L10.3305 95.1253L10.7941 95.1821L11.1668 94.8899L11.5394 94.5978L11.6167 94.7226L11.694 94.8474L11.467 95.0401L11.24 95.2327L11.6107 95.2786L11.9814 95.3245L11.9694 95.4772L11.9573 95.6299L11.5854 95.5877C11.3808 95.5646 11.2032 95.5536 11.1906 95.5635C11.178 95.5733 11.2467 95.6877 11.3433 95.8176L11.5188 96.0538L11.3935 96.1367L11.2682 96.2196L10.9796 95.8499L10.691 95.4803L10.256 95.4295L9.82104 95.3787L10.4531 96.2294L11.0852 97.0801L10.9592 97.1788L10.8333 97.2776L10.2012 96.4269Z" fill="#00478F"/>
<path d="M88.0252 40.9943C88.3447 39.9479 90.1663 40.3013 89.8758 41.375C89.8201 41.548 89.7425 41.714 89.6444 41.8701C90.5421 41.5157 91.5051 41.3164 92.4853 41.2816C93.3563 41.2602 94.2947 41.6027 95.1568 41.5092C94.6739 40.7055 93.9078 40.0737 92.9866 39.7183C91.7605 39.5393 91.3969 38.7688 90.2896 38.5064C87.7073 37.9049 85.0744 37.5162 82.4219 37.3457C84.0222 38.911 85.7825 40.3321 87.6783 41.5888C87.7386 41.4461 87.8133 41.3094 87.9019 41.1797C87.8947 41.1787 88.0146 40.9664 88.0252 40.9943ZM72.1896 54.2165C72.1923 54.2245 72.1572 54.2354 72.1098 54.2414C73.2378 55.7848 74.3302 57.3496 75.3294 58.9805C75.863 59.8355 76.4936 60.8073 77.1588 61.8521C77.6679 61.5449 78.221 61.3044 78.8037 61.1373C79.5866 60.8853 79.9139 60.2222 80.6499 59.8748C80.4559 59.6203 80.2758 59.3568 80.1101 59.0854C79.9819 59.0774 79.8559 59.0451 79.741 58.991C79.6262 58.9363 79.5241 58.8612 79.4416 58.7693C78.4686 57.7105 76.0933 57.9983 74.9747 56.9196C74.1423 56.1343 73.4698 55.2191 72.9903 54.2175C72.746 54.1812 72.4148 54.229 72.1896 54.2165ZM147.851 44.2685C151.196 44.9023 150.901 50.3194 150.237 52.4096C149.713 54.0326 148.957 55.582 147.987 57.0181C147.955 57.1582 147.873 57.2845 147.754 57.3764C146.501 59.16 144.951 60.7496 143.158 62.0878C137.834 66.0967 131.734 69.5827 126.016 73.108C120.161 76.7118 114.28 80.5159 108.299 83.9482C103.146 86.9093 98.5006 90.6528 93.4862 93.7844C88.7049 96.7599 83.8031 99.8269 79.2353 103.05C71.5823 108.463 63.49 113.461 55.9224 119.024C51.7694 122.07 47.8111 125.599 43.4429 128.364C39.7461 130.689 33.4962 131.106 29.1961 130.98C26.8913 130.905 19.4076 130.491 18.6057 127.723C17.8256 125.041 21.3597 124.467 23.4793 123.477C32.2508 119.379 40.2011 113.59 48.1596 108.294C46.7182 106.616 45.8668 104.579 45.7207 102.457C45.6142 102.364 45.5356 102.248 45.4915 102.12C45.448 101.992 45.4408 101.855 45.4709 101.725C45.5495 101.345 45.6504 100.971 45.7737 100.601C45.7369 100.581 45.7012 100.559 45.6677 100.533C44.6462 99.385 43.8494 98.0836 43.3125 96.6888C42.7649 95.2493 43.1167 92.9975 42.1103 91.7931C40.0578 89.3117 39.8844 85.3117 38.4625 82.5157C35.6152 76.8897 30.2868 70.8572 30.2121 64.4921C30.1631 60.8018 33.5245 58.4233 36.9711 56.8282C36.5233 56.3082 36.1543 55.7356 35.8745 55.1262C35.6163 54.554 35.5043 53.9173 35.2291 53.3506C34.8997 52.8426 34.5061 52.3719 34.0567 51.9479C34.0452 51.9429 34.0507 51.9325 34.0423 51.9349C33.2605 52.1407 32.4154 52.2009 31.9462 51.4085C31.7283 50.8568 31.6544 50.2672 31.7304 49.6876C31.8065 49.1081 32.0304 48.5548 32.3839 48.0721C31.3706 48.0423 30.3663 47.8708 29.406 47.5626C28.9866 48.0846 28.3786 48.4519 27.6887 48.601C26.9988 48.7502 26.271 48.6706 25.6328 48.3774C24.1598 47.8365 22.0983 48.5836 21.0057 47.4692C20.9917 47.4528 20.9788 47.4354 20.9671 47.4175C20.8018 47.4438 20.6315 47.4299 20.4726 47.3782C18.9192 46.8772 17.485 46.1017 16.2519 45.0956C15.0187 44.0896 14.0108 42.8727 13.2858 41.5147C12.5608 40.1562 12.1328 38.6833 12.0263 37.1802C11.9199 35.6768 12.1369 34.1724 12.6653 32.7528C14.0853 28.8728 20.2882 22.346 25.6674 23.9496C26.451 23.3787 27.4497 23.1131 28.4517 23.2091C28.5038 23.0382 28.6213 22.891 28.7828 22.7942C30.3948 21.7592 30.395 19.7366 31.8585 18.5744C32.7444 17.6868 33.9565 17.13 35.2674 17.0084C38.4346 17.0721 41.2466 16.6675 44.242 18.0636C45.0633 18.4434 45.1118 19.2469 45.1653 19.9651C45.1045 20.5813 44.9624 21.1876 44.7427 21.7709C44.349 23.438 45.1391 23.0727 45.2228 24.2146C45.3304 25.4962 44.8637 25.7885 46.5404 26.2881C47.2652 26.5069 47.8724 26.9743 48.2343 27.5919C49.4961 26.7093 50.9024 26.0147 52.4029 25.533C54.7682 24.798 58.8927 22.4681 61.4319 23.7115C61.4983 23.7517 61.5608 23.797 61.6187 23.8468C64.4374 23.7806 66.3075 27.5952 67.1679 29.8582C68.1927 30.0513 69.1496 30.4809 69.948 31.1062C70.7465 31.7315 71.3604 32.5318 71.7307 33.4312C72.0552 33.2555 72.3948 33.104 72.746 32.9784C73.9555 32.3807 75.2028 31.8485 76.4813 31.3845C79.2052 30.7127 81.5002 33.1624 81.6084 35.5482C85.1263 35.6573 88.6162 36.2134 91.9791 37.2006C92.5673 37.3845 92.6097 37.813 93.3518 38.0053C94.036 38.1296 94.6839 38.3901 95.2493 38.7678C96.1041 39.5473 96.8167 40.447 97.3609 41.4322C97.434 41.5391 97.483 41.6584 97.5048 41.7826C97.9442 41.9347 98.3585 42.142 98.7371 42.398C99.3019 42.7837 99.2941 43.761 99.8422 44.097C100.414 44.3818 101.007 44.6309 101.615 44.8426C102.789 45.2363 103.817 45.9327 104.574 46.8478C105.122 47.8167 105.374 48.8451 105.849 49.8442C105.863 49.882 105.871 49.9213 105.873 49.9615C106.18 50.1002 106.462 50.2822 106.708 50.5019C107.155 50.8767 107.509 51.336 107.744 51.847C107.98 52.358 108.093 52.9087 108.074 53.461C108.054 54.0132 107.904 54.5535 107.634 55.0442C107.364 55.5353 106.979 55.9648 106.508 56.3038C107.873 56.9465 109.175 57.6986 110.397 58.552C112.708 60.2993 112.85 62.8483 111.364 65.1865C112.086 65.611 112.782 66.0738 113.446 66.5719C113.496 66.6191 113.542 66.6698 113.584 66.7225C115.7 65.2551 117.812 63.7719 119.863 62.2235C125.971 57.6026 132.827 53.453 138.502 48.4017C141.068 46.1181 143.939 43.5343 147.851 44.2685ZM148.638 48.4102C148.629 47.9712 148.484 47.5418 148.22 47.1729C147.956 46.8041 147.584 46.5103 147.147 46.3269C146.739 46.1763 145.033 45.7046 144.847 46.2131C144.763 46.4412 145.042 47.082 145.06 47.3519C145.101 47.6974 145.117 48.0518 145.168 48.3943C145.317 49.286 145.362 50.4551 145.564 51.4075C145.951 51.3976 146.368 51.3414 146.708 51.3181C147.293 51.3653 147.88 51.3737 148.465 51.3424C148.488 51.3429 148.512 51.3449 148.536 51.3479C148.852 51.3141 148.675 48.693 148.638 48.4102ZM148.072 53.12C147.376 53.1528 146.66 53.0534 145.972 53.0554C145.51 53.0782 145.046 53.0628 144.586 53.0081C144.414 52.9614 144.257 52.8779 144.127 52.7646C143.997 52.6512 143.899 52.5116 143.838 52.357C143.4 50.646 143.09 48.9107 142.912 47.1635C141.411 48.2243 139.983 49.3685 138.636 50.5898C138.906 51.8783 138.595 53.1319 138.893 54.4178C138.997 54.7921 139.043 55.1779 139.029 55.5626C139.01 55.7252 139.023 55.8862 139.016 56.0542C140.599 56.1228 142.183 56.1183 143.763 56.0413C144.713 55.9667 145.676 55.8211 146.634 55.8201C147.229 54.9771 147.712 54.0704 148.072 53.12ZM144.883 58.0664C145.008 57.9252 145.129 57.7691 145.254 57.619C144.097 57.7781 142.928 57.8621 141.756 57.8705C140.66 57.8367 138.924 58.1156 137.9 57.6513C137.596 57.458 137.358 57.1886 137.215 56.8759C137.072 56.5627 137.03 56.2197 137.094 55.8877C137.221 55.0397 136.802 54.3567 136.85 53.5355C136.886 53.0007 136.942 52.4678 136.932 51.9384C135.859 52.7407 134.783 53.5345 133.697 54.3318C133.9 55.3086 133.727 56.2719 133.828 57.2711C133.878 57.8139 133.871 58.3587 133.808 58.899C133.802 58.988 133.781 59.075 133.747 59.158C133.875 59.2504 133.975 59.3712 134.039 59.5084C134.173 59.5034 134.335 59.499 134.524 59.495C137.377 59.6347 140.234 59.6282 143.081 59.4761C143.222 59.4572 143.366 59.4692 143.501 59.5114C143.98 59.0546 144.445 58.5694 144.883 58.0664ZM138.283 63.4463C139.33 62.7891 140.354 62.0942 141.314 61.364C138.473 61.537 135.617 61.454 132.786 61.117C131.691 60.9693 131.848 59.6705 131.912 58.9979C132.035 57.8576 132.068 56.7099 132.011 55.5636C130.834 56.428 129.654 57.2885 128.472 58.1444C128.543 58.2717 128.576 58.4138 128.568 58.556C128.514 59.9066 128.506 61.2432 128.388 62.5948C128.372 62.7643 128.354 62.9263 128.336 63.0889C128.52 63.2002 128.659 63.3638 128.732 63.5536C129.017 63.5676 129.38 63.6839 129.705 63.7217C131.119 63.8236 132.538 63.7917 133.941 63.6277C135.246 63.5442 136.536 63.6023 137.828 63.403C137.98 63.3752 138.139 63.3901 138.283 63.4463ZM132.524 66.7807C133.372 66.3065 134.22 65.8307 135.064 65.3476C134.035 65.3729 133.004 65.3903 131.976 65.4972C130.39 65.6115 128.791 65.4937 127.239 65.1493C126.906 65.0469 126.628 64.8281 126.466 64.5408C126.305 64.2535 126.273 63.9205 126.377 63.6143C126.627 62.2438 126.723 60.8525 126.664 59.4612C124.749 60.856 122.825 62.2538 120.926 63.6625C120.053 64.3082 119.161 64.9286 118.283 65.5593C118.327 65.6975 118.336 65.8427 118.309 65.9839C118.04 67.4562 117.784 68.9335 117.414 70.3795C120.082 69.4157 122.816 68.6079 125.599 67.9607C127.772 67.5352 130.192 67.4169 132.311 66.7946C132.397 66.7841 132.459 66.7921 132.524 66.7807ZM128.464 69.2019C127.31 69.3192 126.173 69.534 125.065 69.8437C122.64 70.5888 118.025 72.0417 116.779 72.4374C116.231 73.1507 114.753 72.7814 115.076 71.8181C115.553 70.2448 115.933 68.6467 116.21 67.0317C113.981 68.5711 111.726 70.0713 109.472 71.5715C109.573 71.7077 109.624 71.8692 109.617 72.0328C109.584 73.2094 109.409 74.3775 109.095 75.5153C108.908 76.1252 108.846 76.853 108.086 77.0891C107.175 77.2178 106.246 77.2243 105.329 77.1089C104.165 77.177 102.996 77.1651 101.832 77.0727C101.69 77.0513 101.556 76.9981 101.442 76.9166C99.7446 78.0146 98.015 79.0585 96.2742 80.0964C96.7242 80.0407 97.1786 80.0164 97.633 80.0233C98.214 79.986 98.7984 80.0407 99.3616 80.1849C99.9147 80.3951 100.515 80.4742 101.107 80.415C101.243 80.3797 101.386 80.3728 101.527 80.3941C101.667 80.4155 101.8 80.4652 101.919 80.5393C102.036 80.6133 102.135 80.7098 102.208 80.8226C102.281 80.9355 102.326 81.0607 102.34 81.191C102.433 81.266 102.505 81.3609 102.551 81.4668C102.596 81.5732 102.613 81.687 102.6 81.7999C102.709 82.8298 102.682 83.8667 102.518 84.8877C102.4 85.2645 102.313 85.6408 102.231 86.0245C103.335 85.3073 104.431 84.5686 105.533 83.8404C105.53 83.737 105.549 83.6346 105.588 83.5382C106.211 82.029 104.495 79.6938 107.031 79.1713C109.248 78.5823 111.553 78.3069 113.867 78.3531C118.694 75.2449 123.602 72.2848 128.464 69.2019ZM111.444 68.1998C111.648 68.0542 111.856 67.916 112.053 67.7808C108.486 65.1652 102.998 62.8418 98.7783 65.708C95.2588 68.1079 96.3015 70.9467 98.6261 73.3426C98.3177 72.4399 98.1984 71.4935 98.2754 70.5545C98.4031 68.6566 99.3543 67.8285 101.049 66.8503C104.098 65.1025 108.775 66.298 111.444 68.1998ZM104.874 55.2514C105.777 54.7126 106.785 53.2691 105.953 52.3132C105.656 51.9315 105.25 51.6307 104.781 51.4438C104.312 51.2569 103.798 51.1913 103.294 51.2544C102.34 51.4637 101.366 51.591 100.384 51.6347C100.172 51.6268 99.9565 51.6103 99.7407 51.5949C101.052 52.5762 102.34 53.5733 103.624 54.5645C103.99 54.8418 104.372 55.1003 104.768 55.3394C104.8 55.3071 104.835 55.2778 104.874 55.2514ZM109.723 64.3291C110.018 63.9558 110.221 63.5273 110.319 63.0735C110.417 62.6191 110.407 62.1499 110.289 61.6975C109.409 61.9416 108.567 62.2871 107.785 62.7255C107.509 62.9054 107.247 63.1033 107.002 63.318C107.94 63.5795 108.85 63.918 109.723 64.3291ZM103.708 49.5251C103.618 48.9947 103.405 48.4872 103.084 48.0369C102.763 47.586 102.341 47.2028 101.847 46.913C101.168 46.571 100.459 46.3324 99.7625 46.0247C99.1937 45.798 98.6796 45.4704 98.2486 45.0604C97.5243 44.3659 97.7942 43.2888 96.0935 43.3106C95.9318 43.3116 95.7718 43.2729 95.6307 43.1973C93.8475 43.5219 91.814 43.0034 90.0297 43.6144C91.1237 44.6532 92.2049 45.6832 93.3329 46.6803C93.4082 46.6157 93.4974 46.566 93.595 46.5337L95.5231 45.9347C95.8671 45.8487 96.2212 45.801 96.5781 45.7916C96.8608 45.7761 97.2293 45.9834 97.5237 45.9969C98.7287 46.0167 98.8648 47.7138 97.6381 47.6894C97.323 47.6631 97.0096 47.6193 96.6996 47.5582C96.6617 47.5219 96.6121 47.4975 96.5586 47.4881C96.505 47.4781 96.4498 47.4836 96.4002 47.504L94.8813 47.9757C95.2359 48.2526 95.5727 48.5334 95.9413 48.7969C96.3779 49.1016 96.8134 49.4351 97.2444 49.7518C97.3782 49.6946 97.5254 49.6678 97.6737 49.6747C98.7047 49.8129 99.7435 49.8895 100.783 49.9034C101.57 49.8338 102.37 49.5574 103.167 49.5306C103.343 49.5196 103.523 49.5186 103.708 49.5251ZM107.196 61.0593C107.951 60.7884 108.601 60.4479 109.326 60.1765C107.803 58.6634 105.051 57.5698 103.329 56.5588C99.5539 54.1872 95.9976 51.5333 92.6961 48.6249C90.8371 47.069 89.2658 44.8809 87.2797 43.5393C85.627 42.57 84.088 41.4451 82.6873 40.184C81.0056 38.6103 79.6602 36.7389 77.0501 36.4919C74.8376 36.1732 72.6033 36.0128 70.3679 36.012C70.3043 36.01 70.2408 36.0021 70.1789 35.9884C70.1605 35.9941 70.1549 36.0045 70.1337 36.0024C67.9357 36.5745 66.801 38.4989 66.0187 40.352C64.7691 43.2883 66.0929 45.718 67.7205 48.1368C68.742 49.6409 69.8192 51.1093 70.9021 52.5657C71.1703 52.5225 71.4446 52.5215 71.7139 52.5627C71.8896 52.522 72.0691 52.4942 72.2503 52.4782C70.896 49.2298 68.8206 46.3711 68.5167 42.8146C68.5011 42.5854 68.5859 42.3607 68.7515 42.1907C68.9171 42.0202 69.1507 41.9183 69.4005 41.9069C69.6503 41.8955 69.8956 41.9755 70.083 42.1296C70.2703 42.2837 70.3846 42.4994 70.3997 42.7286C70.7064 46.2658 72.9908 49.2537 74.2978 52.5349C75.2234 54.8871 76.4579 56.1392 78.9905 56.6313C77.7716 53.3765 76.8544 50.0943 75.6243 46.8344C75.5412 46.6167 75.5557 46.3781 75.6645 46.1718C75.7732 45.9655 75.9672 45.8085 76.2042 45.7349C76.4406 45.6613 76.701 45.6772 76.9269 45.7796C77.1527 45.8815 77.3267 46.0615 77.4092 46.2797C79.2972 51.2942 79.963 56.4574 83.7613 60.3077C83.7657 60.2958 83.7646 60.2829 83.7585 60.2714C83.3944 58.0038 83.3877 56.2764 82.926 54.0933C82.4453 51.6243 81.7506 49.1921 80.849 46.8205C80.7765 46.6048 80.7977 46.3726 80.9081 46.1733C81.0179 45.9735 81.2092 45.8214 81.4406 45.7498C81.672 45.6777 81.9257 45.6911 82.1481 45.7876C82.3712 45.8835 82.5457 46.055 82.6349 46.2653C83.7863 49.4829 84.7348 52.7561 85.4747 56.0696C86.1528 58.5903 85.9152 60.8799 87.1408 63.3692C88.2805 65.6538 91.117 66.8423 92.5801 68.9067C93.552 70.3596 94.6895 71.7142 95.9736 72.9479C94.0723 70.3094 93.402 67.2077 96.8128 64.8873C99.0722 63.2807 101.942 62.5644 104.798 62.894C104.883 62.7081 105.037 62.556 105.233 62.464C105.987 62.1141 106.357 61.3575 107.192 61.0603L107.196 61.0593ZM110.158 80.7814C110.479 80.5567 110.809 80.3578 111.141 80.1352C109.965 80.2992 108.802 80.5288 107.659 80.8216C107.417 80.8972 107.412 81.7457 107.416 82.5992C108.322 81.9907 109.251 81.3888 110.158 80.7814ZM107.64 72.7898C106.373 73.6339 105.117 74.4759 103.854 75.3274C104.959 75.1917 106.072 75.1226 107.188 75.1196C107.25 74.8612 107.253 74.5296 107.297 74.3372C107.439 73.8257 107.553 73.3078 107.638 72.7854L107.64 72.7898ZM103.355 73.5285C105.527 72.1173 107.69 70.7006 109.839 69.2606C107.883 68.0562 104.723 67.2539 102.552 68.1312C99.1458 69.5027 100.11 72.3658 101.347 74.8055C102.018 74.3845 102.693 73.9555 103.355 73.5285ZM99.1079 76.1913C99.1045 76.1824 99.0928 76.1769 99.09 76.169C98.9478 76.2207 98.7945 76.2401 98.6417 76.2261C97.512 76.086 96.456 75.6217 95.6235 74.9009C94.1882 76.6288 92.5227 78.1846 90.6659 79.5322C88.8275 80.8579 86.8604 82.026 84.7878 83.0232C85.1173 83.4198 85.4586 83.8727 85.8048 84.3628C90.1401 81.5121 94.6639 78.9059 99.1101 76.1904L99.1079 76.1913ZM100.708 83.3363C100.746 82.9441 100.749 82.55 100.718 82.1563C99.7368 81.9719 98.7454 81.8376 97.7496 81.7541C96.3991 81.7994 95.0865 82.0484 93.7449 82.0877C93.5403 82.0976 93.3379 82.0405 93.174 81.9256C91.0049 83.2061 88.8437 84.503 86.746 85.8908C86.9222 86.2114 87.0773 86.541 87.2105 86.878C87.438 86.9068 87.646 87.0127 87.7932 87.1748C88.3346 87.733 89.3561 87.6087 90.0509 87.7698C90.7418 87.906 91.422 88.0884 92.085 88.3156C93.5152 88.9478 95.1032 89.2083 96.674 89.0691C96.7872 89.0418 96.9059 89.0398 97.0202 89.0632C97.1351 89.087 97.2422 89.1348 97.333 89.2038C98.257 88.6133 99.1686 88.0183 100.089 87.4188C100.03 87.2329 100.035 87.0356 100.103 86.8532C100.268 86.4346 100.385 86.0007 100.45 85.5588C100.441 85.2103 100.502 84.8644 100.631 84.5383C100.83 84.153 100.665 83.7449 100.71 83.3358L100.708 83.3363ZM79.6412 35.3275C79.5202 34.7302 79.266 34.1608 78.8957 33.6551C77.9316 32.6408 76.5594 33.1033 75.4927 33.6558C75.0924 33.8638 74.7043 34.0755 74.3028 34.2552C76.1362 34.2992 77.9478 34.6631 79.6412 35.3275ZM94.2367 73.6125C93.6323 72.9907 93.0647 72.3395 92.4909 71.7733C90.4401 69.7428 88.4116 67.6332 86.3674 65.5658C85.7429 64.9236 85.2233 64.2023 84.8246 63.4249C84.7064 63.3951 84.5954 63.3449 84.4978 63.2773C83.5232 62.6156 82.6054 61.8859 81.7523 61.0956C81.6625 61.272 81.5086 61.4142 81.3173 61.4977C81.0118 61.6379 80.9187 62.0808 80.627 62.2538C80.365 62.4213 80.0817 62.559 79.7834 62.6634C79.3708 62.7484 78.9794 62.9015 78.6281 63.1147C78.5054 63.2459 78.3459 63.3434 78.1664 63.3966C78.1636 63.401 78.1603 63.4045 78.1558 63.4075C78.1513 63.4105 78.1463 63.4125 78.1413 63.4135C78.4524 63.914 78.7664 64.423 79.0775 64.9529C79.3864 64.8465 79.7076 64.7471 80.0176 64.6691C80.288 64.6248 80.5518 64.5523 80.8032 64.4524C81.0101 64.3251 81.2644 64.2784 81.5108 64.3221C81.7573 64.3659 81.9764 64.4971 82.1197 64.6875C82.2574 64.8798 82.3093 65.1125 82.2647 65.3372C82.2201 65.5618 82.0824 65.7612 81.8805 65.8934C81.5008 66.1021 81.0809 66.2448 80.6432 66.3139C80.4163 66.376 80.196 66.4531 79.9735 66.5222C81.8794 70.0137 83.3302 73.7477 82.6472 76.8385C82.616 76.9882 82.5424 77.1273 82.4336 77.2417C82.3249 77.3565 82.1844 77.442 82.0272 77.4902C81.8314 77.5464 81.6324 77.5931 81.4311 77.6294C82.2424 78.9218 82.921 80.3116 83.7462 81.5812C83.8064 81.5488 83.8689 81.5205 83.9336 81.4972C86.1673 80.591 88.2103 79.3368 89.9723 77.7899C91.6222 76.6099 93.0608 75.2007 94.2367 73.6125ZM91.262 93.1417C92.4641 92.3638 93.6513 91.5893 94.8607 90.8179C93.4305 90.5256 92.0214 90.1493 90.6414 89.6925C89.602 89.51 88.5738 89.2769 87.5601 88.9941C87.4787 90.0638 87.1185 91.0967 86.5107 92.0069C86.9841 92.1863 87.4726 92.3295 87.9705 92.4353C88.8822 92.575 89.8407 92.6267 90.7412 92.8444C90.9458 92.8867 91.1298 92.9916 91.262 93.1417ZM69.9553 34.3461C69.9999 34.3322 70.0479 34.3272 70.093 34.3132C69.7328 33.4655 69.1027 32.7346 68.2859 32.2168C67.4684 31.6991 66.5027 31.4186 65.5152 31.4125C65.373 32.1612 65.044 32.8679 64.555 33.4777C64.39 33.6453 64.1591 33.7462 63.9121 33.759C63.6651 33.7718 63.4214 33.6953 63.233 33.546C63.0445 33.3968 62.9263 33.1865 62.9034 32.96C62.8806 32.7336 62.9553 32.509 63.1109 32.3342C63.3166 32.0595 63.4259 31.7373 63.6383 31.4629C63.577 31.5369 63.6277 31.3565 63.6439 31.2677C63.3489 31.2497 63.0434 31.2336 62.744 31.2081C61.9293 31.1486 61.1191 31.0406 60.319 30.8849C57.8126 30.3486 56.3824 31.5294 55.1429 33.1285C55.0966 33.221 55.0341 33.3057 54.9583 33.3794C54.8223 33.5463 54.6923 33.7277 54.5697 33.9043C53.8359 34.9409 52.6248 41.6817 54.0026 44.2794C54.3165 44.5777 54.6349 44.874 54.9176 45.1906C54.931 45.1966 54.9394 45.1936 54.9505 45.199C55.0576 44.3754 55.2393 43.5622 55.4942 42.7678C56.4995 39.6457 58.1371 36.7316 60.3218 34.1768C61.0522 33.2873 62.5048 34.4828 61.7838 35.3682C59.7519 37.636 58.2414 40.2606 57.342 43.086C57.0526 44.4549 57.0041 45.8602 57.1976 47.248C57.274 46.8478 57.3331 46.4522 57.3749 46.0615C57.4792 44.9435 59.3343 45.3054 59.2233 46.4064C58.9345 49.5047 57.5422 53.2472 58.731 56.2168C60.043 59.241 61.6009 62.1728 63.3924 64.9862C66.3995 70.047 70.1666 74.376 72.3541 79.6843C74.2181 78.0116 76.4624 76.7361 78.9297 75.9473C79.0234 75.8807 79.1321 75.8344 79.2487 75.8131C79.3652 75.7912 79.4856 75.7947 79.6011 75.8225C79.6184 75.817 79.6312 75.822 79.6395 75.819C79.6479 75.8165 79.6479 75.8165 79.6596 75.822C82.5619 76.4468 78.7323 68.9181 78.2712 68.0969C77.204 66.2115 75.9533 64.3654 75.0288 62.4178C72.7388 57.5748 69.2644 53.5037 66.1648 49.1056C64.3292 46.5118 62.6291 43.5363 63.9712 40.3694C65.0842 37.7339 66.3192 35.1802 69.4997 34.3565C69.6486 34.3223 69.8042 34.3188 69.9553 34.3461ZM64.986 29.573C64.7028 29.0086 64.3744 28.438 64.1619 27.8789C63.9305 27.2696 62.3129 25.2444 61.3924 25.5029L61.384 25.5056C60.2777 26.8239 58.7455 27.9901 57.4714 29.2869C59.7502 28.7446 62.449 29.3857 64.986 29.573ZM89.3617 94.366C88.7751 94.2904 88.1774 94.2189 87.6081 94.1388C86.8899 94.03 85.9559 93.4658 85.2601 93.5796C85.1502 93.596 85.0376 93.5935 84.9283 93.5727C84.4577 93.8883 83.9057 94.0881 83.3247 94.1527C82.7437 94.2174 82.152 94.1453 81.6062 93.9425C79.1951 94.6921 76.8889 95.1877 75.5145 93.3067C73.6817 94.4739 71.8026 95.5182 69.904 96.5864C69.5103 96.8096 69.1195 97.0423 68.7186 97.2764C68.7459 97.3465 68.7604 97.42 68.7621 97.4941C68.723 99.0967 67.9842 100.855 68.195 102.489C69.9581 102.4 71.7234 102.579 73.4966 102.463C74.6084 102.459 75.7147 102.341 76.7947 102.109C76.8923 102.078 76.9971 102.07 77.0997 102.086C77.2023 102.103 77.2982 102.143 77.3791 102.204C78.3052 101.594 79.2314 100.984 80.1486 100.377C83.2042 98.3585 86.2794 96.3633 89.3623 94.3675L89.3617 94.366ZM85.4915 87.5734C85.2004 87.0938 84.8988 86.6171 84.6066 86.1379C84.1772 85.5349 83.8154 84.9215 83.3721 84.333C82.5323 83.1738 81.7651 81.9719 81.0748 80.7336C80.7241 80.1252 80.3036 79.5471 79.983 78.9302C79.6128 78.5753 79.2821 78.1881 78.9944 77.774C78.8734 77.8118 78.7558 77.858 78.6409 77.8938C76.778 78.7582 75.045 79.8379 73.4837 81.1059C74.3296 82.8751 74.8738 84.75 75.0974 86.6648C75.3729 88.2475 75.839 89.7993 76.488 91.2911C76.7942 91.904 77.3501 92.3841 78.0348 92.6272C78.7195 92.8708 79.4778 92.8579 80.1458 92.5909C80.1849 92.4448 80.2629 92.3096 80.3722 92.1977C80.4821 92.0864 80.6203 92.0014 80.7748 91.9507C80.9293 91.9 81.0954 91.8851 81.2588 91.907C81.4222 91.9288 81.5772 91.9875 81.711 92.0775C84.5664 92.668 85.8266 91.1668 85.4915 87.5734ZM58.4115 25.6933C58.3635 25.6338 58.3278 25.5672 58.3055 25.4966C58.1946 25.5573 58.078 25.6085 57.957 25.6497C54.5736 26.7013 52.0326 27.3911 49.204 29.4829C45.9281 31.9084 46.2933 35.2437 47.074 38.6893C47.5033 40.356 47.5423 42.0829 47.1888 43.756C46.8359 45.4292 46.0976 47.0099 45.0243 48.3938C44.0005 49.7423 43.2255 50.985 41.4144 51.3648C39.6413 51.7411 37.7666 51.0631 36.0274 51.4751C36.616 52.1432 37.0594 52.9077 37.3332 53.7269C37.6479 54.5769 38.1156 55.3732 38.7168 56.0835C39.4043 55.8146 40.0795 55.5686 40.6979 55.3578C42.9456 54.5769 46.7946 55.6431 49.0439 56.0194C51.6434 56.3927 54.2647 56.6134 56.8909 56.6805C56.5168 55.7411 56.2882 54.7593 56.2112 53.7647C56.1739 52.9201 56.2341 52.0751 56.3919 51.244C56.2893 51.2231 56.1945 51.1784 56.1153 51.1143C56.0367 51.0501 55.977 50.9686 55.9425 50.8772C55.4211 49.6166 55.0782 48.3013 54.9232 46.9642C54.8736 46.9582 54.825 46.9488 54.7771 46.9363C54.5903 47.0019 54.3829 47.0044 54.1922 46.9443C54.0015 46.8841 53.8392 46.7648 53.7338 46.6068C53.1183 45.9546 52.4581 45.3397 51.7566 44.7656C51.1689 44.0364 50.6699 43.2515 50.2678 42.4244C49.4722 40.8725 48.8086 39.2674 48.2828 37.6236C47.97 36.8013 49.7554 36.2465 50.0677 37.0689C50.4836 38.1624 50.9788 39.5174 51.5626 40.7895C51.0685 37.9611 51.7109 35.0766 53.3697 32.674C53.3642 32.647 53.3636 32.6196 53.3669 32.5925C53.9513 30.8408 54.9583 29.2364 56.3133 27.8974C56.9684 27.1281 57.6688 26.3923 58.4115 25.6933ZM72.0122 81.6557L72.0056 81.6388C71.071 81.8048 71.2322 81.4927 71.0917 81.1224C68.5513 74.2055 62.5611 68.848 59.4636 62.0932C58.9033 60.8799 58.2191 59.6575 57.6236 58.4079C57.5584 58.4243 57.4915 58.4322 57.424 58.4322C53.1171 58.2622 48.87 57.6608 44.601 57.1567C40.8791 56.7138 39.1026 58.131 36.0141 59.486C30.23 62.046 32.2516 67.6267 34.5282 71.4343C37.6801 76.6606 40.3199 82.1289 42.4164 87.7752C42.9673 89.2784 44.9072 91.388 44.9267 92.9096C44.8704 94.9719 45.453 97.0139 46.6073 98.7979C48.0051 96.5969 50.4089 95.4079 53.5671 94.5285C56.4733 93.7168 60.3948 94.6777 62.856 92.6526C63.4108 92.1958 64.0142 91.7598 64.5996 91.3298C67.2142 89.4415 62.3509 89.3336 62.3832 89.3336C61.4604 89.2461 61.5128 88.2514 62.0782 87.8185C62.0726 87.2006 61.9304 86.5887 61.6611 86.0196C61.3918 85.4504 61.0004 84.9354 60.5102 84.5065C60.1216 84.1844 59.7112 83.8851 59.2813 83.6107C58.9005 83.3696 58.6005 83.0356 58.4154 82.6474C57.8812 82.883 57.2913 82.9973 56.6958 82.9794C56.4789 83.0953 56.2374 83.1673 55.9865 83.1912C54.3293 83.4154 52.7207 83.8687 51.2163 84.5348L45.7993 86.2184C44.9066 86.4958 44.281 84.8509 45.1737 84.5736L51.3418 82.6568C52.3242 82.3516 53.2805 81.9535 54.2764 81.7089C53.9948 81.4703 53.6898 81.2566 53.3647 81.0712C52.346 80.4682 53.1534 78.9123 54.1877 79.5103C54.9003 80.069 55.6508 80.586 56.4337 81.0582C56.3824 80.7192 56.3824 80.3752 56.4343 80.0372C56.7772 77.5767 55.4423 77.0717 54.7436 75.0351C53.8158 72.3355 52.8629 69.1453 49.6813 67.918C47.4788 66.9223 45.2016 66.0753 42.8675 65.3839C41.6826 65.1174 42.0311 63.4184 43.2221 63.6918C45.7207 64.2078 48.1239 65.0672 50.3504 66.2403C50.318 66.1817 50.2801 66.126 50.2366 66.0738C48.6296 63.8419 46.4439 62.213 44.6596 60.1457C43.894 59.2609 45.4547 58.298 46.2036 59.1669C47.2312 60.345 48.4785 61.2646 49.5525 62.3835C50.6637 63.5467 51.4165 64.8948 52.4558 66.0803C53.5314 67.4274 54.3979 68.9042 55.0314 70.4665L55.1306 70.4357C55.2048 70.2105 55.4936 70.3228 55.8086 70.2249L57.2617 69.7736C57.86 69.5877 58.247 69.789 58.3886 70.2145C58.6847 70.6549 58.6551 71.1798 58.1104 71.3488L55.8008 72.0666C55.8594 72.1958 55.9246 72.3141 55.9832 72.4429C56.6456 72.3609 57.3197 72.3847 57.976 72.5135C59.0259 72.7287 60.116 72.6571 61.1777 72.8236C62.3787 73.012 62.0141 74.7076 60.8147 74.5187C59.9504 74.383 58.9601 74.5246 58.1176 74.3278C57.6414 74.205 57.1519 74.1349 56.659 74.118C57.0454 75.0346 57.54 75.911 58.1332 76.7307C58.1751 76.7913 58.2057 76.8465 58.2492 76.9066C59.6688 77.4639 60.8665 78.3556 62.2962 78.886C63.3986 79.2916 64.4831 79.651 65.5525 80.1272C66.7904 80.5244 68.0623 80.8216 69.3542 81.0155C70.4114 81.3033 71.1993 82.0643 72.1935 82.368C72.092 82.1503 72.097 81.8789 72.0122 81.6557ZM74.7155 91.7037C73.7871 89.3157 73.5244 86.7085 72.7801 84.2768C71.2985 84.2132 70.6316 83.5098 69.2901 82.9337C69.1624 82.882 69.0319 82.8368 68.8998 82.7975C68.8552 83.5242 68.7559 84.246 68.6026 84.9588C68.3751 85.4971 68.0099 85.9763 67.5376 86.3566C67.1729 86.5659 66.8713 86.8557 66.6599 87.1996C66.5847 87.4556 66.4899 87.7066 66.3761 87.9502C66.2479 88.151 66.1046 88.3429 65.9462 88.5243C66.5367 89.1198 66.9259 89.859 67.0647 90.6508C67.2616 91.3537 66.7653 91.9393 66.1603 92.4219C66.3873 92.8469 66.6549 93.253 66.9605 93.6353C67.3023 93.9599 67.5705 94.3436 67.7495 94.7627C67.9229 95.1027 68.1208 95.4312 68.3427 95.7464C70.485 94.4117 72.6105 93.0736 74.7138 91.6992L74.7155 91.7037ZM66.8618 83.9125C66.8601 83.4079 66.9203 82.9049 67.0408 82.4133C66.3533 82.3452 65.6802 82.1786 65.0463 81.9202C63.8658 81.3863 62.6614 80.9509 61.4637 80.4498C60.3965 80.0089 59.4514 79.4104 58.4321 78.9089C58.1907 79.6853 58.2029 80.5124 58.4672 81.2884C58.5972 81.2695 58.7299 81.2764 58.8575 81.3083C58.9852 81.3401 59.104 81.3962 59.2066 81.4728C59.8818 81.86 60.5075 82.3168 61.0712 82.8338C61.7676 83.4149 62.3821 84.074 62.9001 84.7943C63.48 85.7039 63.8168 86.7249 63.882 87.7723C63.9662 87.7832 64.0415 87.7961 64.1162 87.8105C64.8556 87.13 64.8868 86.0812 65.7371 85.4574C66.3415 85.0125 66.8384 84.6924 66.8618 83.9125ZM46.8119 28.7652C45.9382 27.436 43.9593 27.8763 43.3325 26.2281C43.1441 25.8036 43.1396 25.3309 43.3191 24.9072C43.4056 24.5992 43.366 24.2717 43.2087 23.9858C42.7465 24.4292 42.4822 25.0159 42.4666 25.6325C42.4181 25.8579 42.2742 26.0555 42.0657 26.1821C41.8577 26.3087 41.6029 26.3541 41.3559 26.3083C41.1144 26.2579 40.902 26.1242 40.7631 25.9349C40.6243 25.7457 40.5697 25.5155 40.6109 25.2922C40.6416 24.6623 40.8501 24.0524 41.2159 23.522C41.5811 22.9916 42.0913 22.5588 42.6969 22.2658C42.6902 22.2491 42.6958 22.2386 42.6924 22.2297C43.1714 20.2092 43.0487 19.2491 40.6622 18.8055C38.9203 18.5175 37.142 18.4975 35.4001 18.7464C32.3181 19.2525 32.2004 22.4621 30.1246 24.0367C30.8822 25.1351 30.7127 27.0544 30.788 28.1427C30.7949 28.2429 30.7941 28.3442 30.7964 28.4533C31.3876 28.3772 31.9884 28.3765 32.5818 28.4512C32.4874 27.4692 32.4559 26.4837 32.4874 25.4997C32.4723 24.3914 34.3513 24.2866 34.3708 25.4135C34.2815 26.5382 34.3479 27.6705 34.5687 28.7832C34.5927 28.8646 34.601 28.949 34.5931 29.0327C35.9614 29.7044 37.1322 30.6733 38.0017 31.8538C37.9799 31.6111 37.9652 31.3661 37.9662 31.1299C37.9375 29.0601 37.8667 27.1145 38.0327 25.0578C38.1286 23.9424 39.982 24.3047 39.8927 25.4081C39.6028 29.559 40.0126 33.7335 41.1083 37.7846C41.1339 37.8865 41.1367 37.9914 41.1167 38.0938C41.4808 40.6011 39.4478 43.1044 39.4846 45.4347C39.4818 45.1603 41.5862 45.6191 42.9757 46.1067C43.4312 44.5489 42.6578 42.3051 42.2809 40.869C42.1354 39.6859 42.1131 38.4945 42.2162 37.3104C42.1253 36.2263 42.1655 35.1375 42.3361 34.0641C42.7777 32.2349 41.7557 30.3079 41.11 28.5809C41.0269 28.3628 41.0414 28.1244 41.1501 27.9181C41.2588 27.7119 41.4529 27.5547 41.6899 27.4811C41.9263 27.4075 42.1861 27.4236 42.4125 27.5258C42.6383 27.628 42.8117 27.808 42.8948 28.0261C44.0719 31.3595 44.4968 34.8706 44.1433 38.3438C44.0691 40.4355 44.944 42.6828 44.9808 44.8213C46.7093 41.3318 44.3055 35.9813 44.7549 32.3841C45.0036 31.0041 45.724 29.7371 46.8119 28.7652ZM69.9296 106.945C71.3426 106.09 72.7516 105.21 74.1567 104.307C71.9933 104.418 70.0228 104.094 67.9831 104.239C67.8866 104.241 67.7907 104.229 67.6982 104.203C67.5866 104.25 67.4645 104.274 67.3413 104.272C67.2175 104.271 67.096 104.244 66.9844 104.194C66.8729 104.145 66.7742 104.072 66.6962 103.984C66.6187 103.895 66.5629 103.792 66.5334 103.681C66.2774 102.673 66.244 101.629 66.4335 100.613C66.53 99.9218 66.6917 99.1901 66.796 98.4679C64.4229 99.9964 62.1507 101.632 59.8222 103.202C59.9638 103.933 60.0246 104.675 60.0045 105.416C60.0034 105.858 60.1356 106.572 59.5702 106.923C58.1399 107.791 55.962 107.171 54.5028 106.695C54.4654 106.682 54.4292 106.665 54.3951 106.646C51.1282 108.636 47.8618 110.598 44.6813 112.708C48.488 112.114 52.2423 111.276 55.9157 110.201C56.514 110.016 56.9829 110.697 56.9628 111.249C57.0147 111.36 57.0404 111.479 57.0365 111.6C57.0208 112.663 57.1435 113.719 57.1407 114.787C57.1379 115.201 57.1363 115.616 57.1446 116.033C58.5682 115.076 59.9504 114.038 61.3271 112.987C61.2273 112.672 61.1649 112.35 61.1398 112.024C61.1665 111.66 61.1677 111.294 61.1431 110.929C61.0623 110.337 60.9362 109.751 60.7662 109.174C60.6998 109.005 60.6597 108.829 60.6469 108.65C60.5549 108.545 60.4918 108.421 60.4634 108.289C60.435 108.157 60.4417 108.022 60.4835 107.893C60.5253 107.766 60.6006 107.649 60.7032 107.554C60.8052 107.46 60.9312 107.39 61.0706 107.351C62.4891 107.138 63.9316 107.082 65.3685 107.183C66.7307 107.118 68.1972 107.114 69.541 106.944C69.6681 106.916 69.802 106.916 69.9296 106.945ZM65.0067 97.7789C65.6083 97.4171 66.206 97.0467 66.8049 96.6774C66.7592 96.6257 66.7179 96.5705 66.6817 96.5134C66.5055 96.154 66.2127 95.9104 66.0549 95.5212C65.9429 95.2329 65.7672 94.9685 65.5397 94.7433C65.4271 94.6309 64.8154 93.5712 64.7965 93.522C64.7535 93.516 64.7117 93.5041 64.6732 93.4857C64.4669 93.6418 64.2506 93.7859 64.0247 93.9176C64.6877 95.1161 65.0245 96.4413 65.0067 97.7789ZM62.9335 98.2024C63.1544 97.0164 62.9581 95.7921 62.372 94.707C60.5024 95.3149 58.5643 95.7355 56.5909 95.9606C57.792 96.4458 59.0349 96.835 60.3062 97.1233C61.3963 97.3649 61.8211 98.2984 62.9335 98.2024ZM66.9108 108.848C66.4296 108.873 65.954 108.879 65.4817 108.897C64.6481 108.935 63.5569 108.796 62.6191 108.848C62.7947 109.407 62.9207 109.977 62.9965 110.553C63.04 110.981 62.9252 111.309 62.9765 111.708C64.2673 110.718 65.5676 109.754 66.9108 108.848ZM42.9171 47.9727C42.9009 47.9593 42.8798 47.9568 42.8619 47.935C41.9971 47.156 39.8933 47.7172 38.7162 47.4021C38.4475 47.7063 38.0941 47.9374 37.6927 48.0721C37.2912 48.2069 36.8565 48.2397 36.4339 48.1671C35.8054 48.1417 35.135 48.1378 34.4532 48.1288C34.4358 48.1616 34.4456 48.1875 34.4237 48.2118C34.0335 48.8446 33.759 49.5326 33.611 50.2484C33.7606 50.1932 33.9086 50.1375 34.06 50.0903C34.2389 50.0316 34.4346 50.0291 34.6166 50.0833C35.5409 49.5882 36.6095 49.3616 37.6832 49.4336C38.6794 49.7602 39.7444 49.8577 40.7854 49.717C41.27 49.6081 41.7172 49.3924 42.0885 49.0887C42.4599 48.785 42.7443 48.4017 42.9171 47.9727ZM38.3334 42.1967C39.14 40.2894 39.2063 38.1783 38.5211 36.2154C37.4796 33.4759 34.6279 29.4698 30.8588 30.1632C30.8334 30.1711 30.8089 30.16 30.781 30.1687C30.6593 32.0781 30.2618 33.9996 30.135 35.9244L30.1283 35.9813C30.6981 36.1683 31.184 36.5268 31.5061 36.9981C31.6733 36.9228 31.863 36.8988 32.0475 36.9296C34.1365 37.3025 35.0492 38.2603 36.4293 39.6854C37.1902 40.436 37.8314 41.2821 38.3334 42.1967ZM59.6148 101.054C60.2878 100.643 60.9535 100.243 61.616 99.8344C61.0182 99.5828 60.4517 99.2717 59.927 98.9068C59.1469 98.5569 58.3284 98.2869 57.4853 98.1025C57.2115 98.0126 56.9562 97.9176 56.6818 97.8267C56.6896 97.853 56.693 97.8803 56.6907 97.9077C56.756 98.4261 56.6969 98.9506 56.5162 99.4427C57.6381 99.8185 58.6853 100.363 59.6148 101.054ZM36.9879 44.353C36.4681 42.2235 34.7715 39.6243 32.3503 38.823C32.6426 40.6493 32.3427 42.5084 31.4882 44.1666C31.195 44.5692 30.8429 44.9326 30.4417 45.2468C30.0218 45.457 29.6233 45.7006 29.2507 45.975C29.2161 46.0302 29.1879 46.0883 29.1663 46.1485C29.1147 46.4865 30.083 46.223 30.3024 46.1698C30.8006 46.1385 31.302 46.1743 31.7905 46.2762C32.8718 46.3632 33.9511 46.3135 35.0315 46.3731C35.3154 46.3861 37.2626 46.6783 37.3085 46.1435C37.3138 45.5356 37.2054 44.9296 36.9879 44.353ZM28.2952 35.4842C28.5335 33.0657 29.4412 24.6896 27.9694 24.9361C26.2712 25.2243 26.8676 29.6281 26.936 30.7659C27.0848 32.2663 27.1207 33.7732 27.0432 35.2756C27.4653 35.316 27.8839 35.3857 28.2952 35.4842ZM58.063 105.081C58.0357 104.853 58.0318 104.623 58.0507 104.395C57.5913 104.685 57.1357 104.984 56.674 105.264C56.5764 105.322 56.4733 105.392 56.3757 105.449C56.6316 105.51 56.8915 105.555 57.1535 105.582C57.4691 105.603 57.7864 105.603 58.1015 105.582C58.0975 105.415 58.0847 105.248 58.063 105.081ZM54.7386 98.9133C54.9527 98.2879 54.8886 97.6069 54.5602 97.0189C54.428 96.9677 54.3132 96.8862 54.2256 96.7818C54.1386 96.6774 54.0823 96.5541 54.0634 96.4244C54.06 96.4169 54.0478 96.412 54.0439 96.403C52.1347 96.6789 50.3727 97.4936 49.0016 98.7338C50.5455 98.2561 52.22 98.2407 53.7857 98.6906C54.0974 98.7512 54.4158 98.8268 54.7375 98.9103L54.7386 98.9133ZM24.8844 26.1431C24.8745 25.9415 24.881 25.7397 24.9041 25.5393C19.9267 24.2625 13.6197 32.2466 13.7755 35.8865C13.7443 37.8159 14.3082 39.7202 15.402 41.38C16.4958 43.0402 18.0751 44.3878 19.9576 45.2686C19.5695 42.225 22.3143 38.3637 24.0929 36.5056C24.3949 36.1894 24.7433 35.9132 25.1282 35.6848C25.5437 32.5499 24.996 29.3001 24.8844 26.1431ZM30.3258 41.5584C30.4042 40.8914 30.4439 40.2208 30.4446 39.5488C29.6942 39.1208 28.3287 39.6825 27.4403 39.6005C26.473 39.3962 25.4798 39.3236 24.4928 39.3847C24.3995 39.3937 24.3051 39.3922 24.2119 39.3797C23.7378 40.0309 23.3049 40.7069 22.9154 41.4048C22.4584 42.0903 22.1661 42.8593 22.0577 43.6601C21.9492 44.4609 22.0272 45.2756 22.2863 46.0505C22.4662 46.4452 24.9414 46.4944 25.3457 46.5073C26.1662 46.5282 27.5427 47.5626 27.2596 46.3443C27.1628 46.1142 27.1313 45.8656 27.1681 45.6225C27.2047 45.38 27.3085 45.1498 27.4694 44.9555C27.8198 44.6851 28.2062 44.4569 28.6195 44.276C29.1354 43.9976 29.5632 43.6019 29.862 43.1257C30.1608 42.65 30.3205 42.1102 30.3258 41.5584ZM29.5603 37.6787C28.8611 37.3929 28.124 37.1951 27.3691 37.0907C26.4765 36.8803 26.2622 36.7262 25.5328 37.643C25.5305 37.6435 25.5287 37.6449 25.5276 37.6469C25.5266 37.6489 25.5265 37.6514 25.5273 37.6534L25.7256 37.6479C26.4726 37.6176 27.1993 37.9621 27.9461 37.896C28.4994 37.8587 29.03 37.7299 29.5624 37.6842L29.5603 37.6787ZM57.9654 102.057C55.8566 100.686 51.6434 99.5774 49.5725 100.396C46.1573 101.741 48.0079 105.26 49.6785 107.288C52.4034 105.494 55.1758 103.767 57.9721 102.061L57.9654 102.057ZM55.2694 114.474C55.2711 113.731 55.2321 112.988 55.1518 112.248C50.9141 113.339 46.6106 114.213 42.262 114.865C42.151 114.891 42.035 114.893 41.9224 114.87C41.8103 114.848 41.7044 114.802 41.614 114.736C39.7316 115.982 37.8282 117.198 35.9033 118.382C38.9995 118.201 42.1538 118.334 45.2412 118.01C45.4051 118 45.569 118.03 45.7173 118.097C45.8657 118.164 45.9922 118.265 46.0848 118.391C46.4801 119.236 46.6346 120.157 46.5337 121.067C46.5342 122 46.4818 122.933 46.377 123.86C49.2213 121.491 52.2155 119.277 55.3447 117.229C55.2276 116.315 55.2053 115.393 55.2773 114.477L55.2694 114.474ZM44.5776 120.666C44.441 119.623 43.802 119.859 42.8831 119.96C39.5476 120.353 36.0654 119.909 32.728 120.477C32.6278 120.491 32.5256 120.488 32.426 120.47C31.4671 121.035 30.5036 121.598 29.5352 122.159C28.9118 122.518 28.2955 122.866 27.6788 123.214C29.7275 123.298 31.7775 123.179 33.7932 122.858C35.8583 122.591 38.0443 122.596 40.1292 122.512C40.3282 122.496 40.5295 122.518 40.7202 122.577C40.9109 122.636 41.0865 122.73 41.2365 122.854C41.3865 122.977 41.5075 123.127 41.5923 123.295C41.6765 123.462 41.7228 123.644 41.7278 123.828C41.8276 124.873 41.8259 125.922 41.7222 126.965C42.6428 126.525 43.5216 126.016 44.3479 125.441C44.5944 123.864 44.6735 122.266 44.5843 120.67L44.5776 120.666ZM39.6139 127.824C39.7522 126.824 39.7879 124.293 39.779 124.269C38.0732 124.559 36.3392 124.28 34.6263 124.497C31.7455 124.877 28.4866 125.338 25.5994 124.672C25.4789 124.644 25.3651 124.594 25.2639 124.527C24.6911 124.83 24.1132 125.123 23.5323 125.405C22.4725 125.818 21.4423 126.292 20.448 126.824C19.631 127.353 25.2958 128.757 25.6813 128.802C30.3577 129.53 35.144 129.194 39.619 127.823L39.6139 127.824Z" fill="#00478F"/>
</svg>
