<svg width="162" height="156" viewBox="0 0 162 156" fill="none" xmlns="http://www.w3.org/2000/svg">
<mask id="path-1-inside-1" fill="white">
<path d="M92.3179 154.48C92.2846 154.402 93.4662 151.615 94.9436 148.286L97.6298 142.233L94.8428 143.303L92.0559 144.372L90.8465 147.097L89.6371 149.822L88.7741 149.474L87.9112 149.126L88.7543 147.226L89.5974 145.327L87.1453 146.267L84.6933 147.207L84.3548 146.414L84.0163 145.62L86.3017 144.736C87.5586 144.25 88.6089 143.803 88.6356 143.742C88.6623 143.682 87.8332 143.29 86.7931 142.87L84.9021 142.108L85.2972 141.344L85.6922 140.579L88.5344 141.678L91.3765 142.777L94.1073 141.73C95.6092 141.154 96.8609 140.631 96.8887 140.569C96.9166 140.506 94.0409 139.285 90.4982 137.856L84.0571 135.258L84.4522 134.494L84.8472 133.73L91.2933 136.284L97.7394 138.838L96.6116 136.187L95.4837 133.535L92.6179 132.379L89.7521 131.223L90.1163 130.402L90.4805 129.582L92.3633 130.341C93.3988 130.759 94.2679 131.052 94.2946 130.991C94.3213 130.931 93.9266 129.901 93.4175 128.703L92.4918 126.523L93.3245 126.202L94.1572 125.882L95.1119 128.108L96.0665 130.334L96.8764 128.509L97.6864 126.684L98.5493 127.032L99.4123 127.38L98.236 130.03L97.0598 132.68L98.2396 135.436L99.4194 138.191L102.173 132.095L104.928 125.998L105.771 126.285L106.615 126.573L103.897 132.697C102.402 136.066 101.233 138.844 101.299 138.871C101.365 138.897 102.648 138.444 104.15 137.864L106.882 136.808L108.09 134.087L109.297 131.367L110.16 131.715L111.023 132.063L110.228 133.853C109.791 134.838 109.488 135.665 109.554 135.692C109.621 135.719 110.676 135.353 111.9 134.879C113.124 134.406 114.185 134.042 114.258 134.071C114.431 134.141 114.938 135.329 114.865 135.493C114.834 135.563 113.806 136.004 112.58 136.473C111.355 136.942 110.329 137.378 110.301 137.441C110.273 137.504 111.097 137.898 112.133 138.315L114.016 139.075L113.651 139.895L113.287 140.716L110.421 139.56L107.556 138.404L104.774 139.479L101.992 140.554L108.404 143.186L114.815 145.818L114.515 146.62L114.215 147.422L107.658 144.778L101.102 142.133L102.274 144.889L103.447 147.645L106.259 148.827L109.07 150.009L108.77 150.811L108.47 151.614L106.464 150.805L104.458 149.995L105.429 152.281C105.963 153.538 106.376 154.621 106.347 154.687C106.277 154.845 105.027 155.326 104.861 155.259C104.791 155.231 104.294 154.181 103.756 152.925L102.777 150.643L101.934 152.542L101.091 154.442L100.228 154.094L99.3649 153.746L100.574 151.021L101.784 148.296L100.67 145.694C100.057 144.263 99.5034 143.072 99.4399 143.046C99.3765 143.021 98.1029 145.752 96.6098 149.117L93.895 155.234L93.1367 154.928C92.7196 154.76 92.3511 154.558 92.3179 154.48ZM16.7064 114.913L18.5092 110.851L16.6157 111.574L14.7221 112.298L13.9386 114.063L13.1552 115.829L12.5874 115.545L12.0195 115.261L12.4646 114.135L12.9097 113.008L11.3818 113.59L9.85394 114.171L9.60693 113.593L9.35991 113.014L10.883 112.421L12.4061 111.828L11.2606 111.314L10.1151 110.799L10.3147 110.22L10.5143 109.641L12.3708 110.39L14.2273 111.139L16.1169 110.406L18.0064 109.673L13.7344 107.949L9.46229 106.226L9.72714 105.63L9.992 105.033L14.2641 106.756L18.5362 108.479L17.7748 106.682L17.0136 104.885L15.1412 104.08L13.2689 103.276L13.5006 102.754L13.7324 102.232L14.9959 102.689L16.2594 103.147L15.645 101.692L15.0307 100.236L15.6384 100.002L16.2461 99.7682L16.8764 101.229L17.5066 102.689L18.018 101.537L18.5294 100.385L19.157 100.638L19.7846 100.891L19.0051 102.647L18.2256 104.404L18.9994 106.203L19.7731 108.003L21.576 103.94L23.3789 99.8782L24.0065 100.131L24.6341 100.384L22.8312 104.447L21.0283 108.509L22.9219 107.785L24.8154 107.062L25.5989 105.296L26.3824 103.531L26.9502 103.815L27.518 104.098L27.073 105.225L26.6279 106.352L28.1866 105.762L29.7454 105.173L29.9488 105.764L30.1523 106.356L28.6419 106.944L27.1315 107.532L28.277 108.046L29.4225 108.56L29.2228 109.139L29.0232 109.719L27.1667 108.97L25.3102 108.221L23.4207 108.954L21.5311 109.687L25.8032 111.41L30.0753 113.133L29.8104 113.73L29.5456 114.327L25.2735 112.604L21.0014 110.881L21.7653 112.684L22.5292 114.487L24.3857 115.236L26.2423 115.985L25.9453 116.525L25.6483 117.064L24.4634 116.639L23.2785 116.213L23.8876 117.656L24.4966 119.099L23.9096 119.372L23.3226 119.644L22.6973 118.205C22.3534 117.413 22.0208 116.745 21.9582 116.719C21.8957 116.694 21.6192 117.181 21.3439 117.802L20.8433 118.93L20.2755 118.646L19.7077 118.362L20.4619 116.546L21.2161 114.731L20.4902 113.044L19.7642 111.357L17.9615 115.419L16.1587 119.481L15.5311 119.228L14.9035 118.975L16.7064 114.913ZM57.9708 104.742C57.9376 104.665 60.3708 99.0568 63.378 92.2808L68.8457 79.9609L63.0457 82.1924L57.2457 84.4239L54.845 89.8333L52.4442 95.2427L50.7968 94.5782L49.1493 93.9137L50.8047 90.1838C51.7151 88.1324 52.4064 86.4323 52.3409 86.4059C52.2754 86.3795 50.1147 87.1702 47.5393 88.1631C44.9638 89.156 42.7835 89.9388 42.6941 89.9028C42.6048 89.8667 42.2639 89.1949 41.9366 88.4099L41.3416 86.9826L46.0404 85.0959L50.7392 83.2093L46.9773 81.5961C44.9082 80.7088 43.2013 79.961 43.1842 79.9342C43.167 79.9074 43.4786 79.2055 43.8764 78.3744L44.5998 76.8631L50.1902 79.0718L55.7806 81.2806L61.6881 79.0041L67.5957 76.7277L54.5294 71.4574L41.463 66.1871L42.1864 64.6759L42.9098 63.1647L55.869 68.3468L68.8282 73.5288L66.4731 68.0065L64.1181 62.4841L58.5024 60.2191L52.8868 57.9541L53.6431 56.3682L54.3995 54.7823L58.2266 56.238L62.0536 57.6937L60.2063 53.1666L58.3589 48.6396L59.8476 48.0528C60.6664 47.73 61.4082 47.4949 61.4961 47.5303C61.584 47.5658 62.5239 49.6263 63.5849 52.1092L65.5139 56.6237L67.1852 52.8578L68.8566 49.0919L70.504 49.7564L72.1515 50.4209L69.7839 55.7557L67.4163 61.0905L69.8199 66.7178L72.2234 72.3452L77.7585 59.9801L83.2935 47.6151L84.9206 48.2212L86.5477 48.8274L81.0336 61.252L75.5194 73.6767L81.4283 71.4032L87.3371 69.1298L89.7301 63.8471L92.1232 58.5644L93.7503 59.1705L95.3774 59.7767L93.7528 63.4372C92.8593 65.4505 92.1806 67.1188 92.2446 67.1446C92.3086 67.1704 94.4939 66.3712 97.1009 65.3686L101.841 63.5456L102.48 65.0269C102.832 65.8416 103.088 66.5777 103.051 66.6627C103.013 66.7477 100.873 67.6282 98.2955 68.6193L93.609 70.4214L97.4609 72.063L101.313 73.7046L100.617 75.2711L99.9222 76.8377L94.2565 74.5983L88.5908 72.359L82.8452 74.5691L77.0996 76.7791L90.0511 82.0911L103.003 87.403L102.369 88.9503L101.735 90.4976L88.59 85.1957L75.4452 79.8937L77.8462 85.5236L80.2471 91.1534L85.8627 93.4184L91.4784 95.6835L90.722 97.2694L89.9657 98.8552L86.1261 97.3945L82.2865 95.9338L84.1931 100.395C85.2418 102.849 86.069 104.926 86.0313 105.011C85.9935 105.096 85.2605 105.433 84.4024 105.76L82.8421 106.354L80.8467 101.684L78.8513 97.0138L77.1799 100.78L75.5086 104.546L73.8611 103.881L72.2137 103.217L74.5813 97.8818L76.9489 92.5471L74.5448 86.9185L72.1406 81.2898L66.6288 93.7093L61.117 106.129L59.5741 105.506C58.7256 105.164 58.0041 104.82 57.9708 104.742ZM8.78454 68.0167C8.7513 67.9388 9.93288 65.1514 11.4103 61.8225L14.0965 55.7699L11.3095 56.8393L8.52257 57.9087L7.31318 60.6337L6.10378 63.3588L5.24083 63.0107L4.37788 62.6626L5.22098 60.7629L6.06408 58.8632L3.61204 59.8032L1.15999 60.7431L0.821481 59.95L0.483014 59.1569L2.76838 58.2726C4.02534 57.7863 5.07562 57.3391 5.1023 57.279C5.12899 57.2188 4.29986 56.8264 3.25981 56.4069L1.36882 55.6442L1.76386 54.88L2.15891 54.1159L5.00106 55.2146L7.84321 56.3133L10.574 55.2663C12.0759 54.6904 13.3276 54.1679 13.3554 54.1051C13.3833 54.0423 10.5075 52.8219 6.96493 51.393L0.523823 48.795L0.918852 48.0308L1.31391 47.2667L7.76001 49.8207L14.2061 52.3747L13.0783 49.723L11.9504 47.0714L9.08462 45.9155L6.21883 44.7596L6.583 43.939L6.94718 43.1184L8.82998 43.8778C9.86553 44.2955 10.7346 44.588 10.7613 44.5279C10.788 44.4678 10.3933 43.4378 9.88418 42.2391L8.95854 40.0596L9.79121 39.739L10.6239 39.4184L11.5785 41.6442L12.5332 43.87L13.3431 42.0451L14.1531 40.2201L15.016 40.5682L15.879 40.9162L14.7027 43.5666L13.5265 46.217L14.7062 48.9725L15.8861 51.728L18.6401 45.6314L21.3942 39.5348L22.2379 39.822L23.0817 40.1091L20.3635 46.2339C18.8684 49.6025 17.6992 52.3805 17.7653 52.4071C17.8313 52.4337 19.1146 51.9805 20.6171 51.4L23.3488 50.3445L24.5562 47.6239L25.7637 44.9032L26.6266 45.2513L27.4896 45.5994L26.695 47.3897C26.258 48.3744 25.9547 49.2019 26.0211 49.2287C26.0874 49.2554 27.1431 48.8897 28.367 48.4159C29.5908 47.9421 30.6519 47.5785 30.7249 47.6079C30.8976 47.6776 31.4046 48.8656 31.3318 49.0298C31.301 49.0992 30.2729 49.54 29.0471 50.0095C27.8213 50.4789 26.7955 50.9146 26.7676 50.9777C26.7396 51.0407 27.5639 51.4341 28.5995 51.8518L30.4823 52.6112L30.1181 53.4318L29.7539 54.2523L26.8881 53.0964L24.0223 51.9405L21.2406 53.0153L18.459 54.0901L24.8704 56.7221L31.2819 59.3542L30.9817 60.1566L30.6815 60.959L24.125 58.3144L17.5685 55.6699L18.7409 58.4257L19.9133 61.1815L22.7252 62.3634L25.5371 63.5454L25.2369 64.3478L24.9367 65.1502L22.9307 64.3411L20.9247 63.532L21.8958 65.8175C22.4299 67.0745 22.8428 68.1574 22.8133 68.2239C22.7434 68.3813 21.4936 68.8626 21.328 68.7958C21.2581 68.7676 20.7605 67.7173 20.2223 66.4618L19.2437 64.1792L18.4006 66.0789L17.5575 67.9786L16.6946 67.6305L15.8316 67.2825L17.041 64.5574L18.2504 61.8324L17.1362 59.2308C16.5235 57.8 15.9701 56.6083 15.9067 56.5827C15.8432 56.5571 14.5696 59.2888 13.0765 62.6531L10.3617 68.7701L9.60335 68.4642C9.18626 68.296 8.81781 68.0946 8.78454 68.0167ZM134.907 60.7395L138.565 52.4981L134.662 53.9983L130.759 55.4985L129.185 59.0435L127.612 62.5885L126.514 62.1455L125.416 61.7025L126.524 59.2054L127.632 56.7083L124.452 57.9298C122.702 58.6016 121.204 59.1242 121.122 59.0912C120.916 59.0083 120.168 57.2695 120.255 57.0752C120.293 56.9886 121.681 56.3972 123.338 55.7611L126.352 54.6045L123.911 53.532L121.471 52.4596L121.905 51.3593L122.339 50.2591L126.074 51.7655L129.808 53.272L133.71 51.7673L137.611 50.2625L128.944 46.7666L120.277 43.2708L120.74 42.2264L121.204 41.1821L129.755 44.6311C134.458 46.5281 138.328 48.0291 138.356 47.9666C138.384 47.9042 137.722 46.2533 136.886 44.2981L135.365 40.7431L131.617 39.1845L127.869 37.626L128.147 36.8701C128.711 35.3347 128.553 35.3512 131.458 36.5231L134.003 37.5494L132.759 34.6267C132.074 33.0192 131.545 31.6349 131.583 31.5505C131.668 31.3591 133.5 30.6622 133.703 30.7441C133.784 30.7772 134.414 32.1184 135.101 33.7246L136.351 36.645L137.426 34.2226L138.501 31.8002L139.678 32.2748L140.855 32.7495L139.257 36.3495L137.659 39.9496L139.161 43.5225C139.986 45.4877 140.719 47.1187 140.789 47.147C140.859 47.1753 142.556 43.5059 144.559 38.9927L148.2 30.787L149.299 31.23L150.397 31.673L146.739 39.9144L143.082 48.1558L146.985 46.6556L150.888 45.1554L152.464 41.6039L154.04 38.0524L155.158 38.555L156.277 39.0577L155.311 41.4417L154.345 43.8258L157.356 42.6625C159.012 42.0227 160.436 41.5271 160.521 41.5611C160.729 41.6452 161.479 43.3821 161.392 43.5787C161.354 43.6654 159.966 44.2567 158.308 44.8928L155.294 46.0495L157.735 47.1219L160.176 48.1943L159.742 49.2946L159.308 50.3948L155.573 48.8884L151.838 47.3819L147.937 48.8867L144.036 50.3914L152.703 53.8873L161.37 57.3831L160.907 58.4275L160.443 59.4718L151.814 55.9912C147.067 54.0768 143.161 52.5616 143.134 52.624C143.106 52.6864 143.768 54.3387 144.605 56.2956L146.126 59.8537L149.936 61.3905L153.746 62.9272L153.22 63.9903L152.694 65.0534L150.093 64.0527L147.492 63.0521L148.799 66.1229L150.106 69.1936L149.112 69.5868C148.565 69.803 148.045 69.9506 147.957 69.9148C147.868 69.879 147.212 68.4876 146.5 66.8229L145.205 63.7963L144.097 66.2933L142.988 68.7904L141.89 68.3474L140.792 67.9044L142.361 64.3696L143.929 60.8347L142.347 57.1083L140.765 53.3818L137.106 61.6243L133.446 69.8669L132.348 69.4239L131.25 68.9809L134.907 60.7395ZM60.8048 15.549L62.6076 11.4867L60.7141 12.2104L58.8205 12.934L58.0371 14.6994L57.2536 16.4647L56.6858 16.1811L56.1179 15.8975L56.563 14.7707L57.0081 13.6439L55.4802 14.2257L53.9523 14.8075L53.7053 14.2287L53.4583 13.65L54.9814 13.057L56.5045 12.464L55.359 11.9497L54.2135 11.4354L54.4131 10.8563L54.6127 10.2771L56.4692 11.026L58.3258 11.7748L60.2153 11.0417L62.1048 10.3087L57.8328 8.5856L53.5607 6.86247L53.8255 6.26569L54.0904 5.66891L58.3625 7.39204L62.6346 9.11517L61.8733 7.31806L61.112 5.52097L59.2396 4.71665L57.3673 3.91235L57.5991 3.39017L57.8308 2.86799L59.0943 3.32566L60.3578 3.78335L59.7434 2.3279L59.1291 0.872444L59.7368 0.638436L60.3445 0.404426L60.9748 1.86493L61.605 3.32545L62.1164 2.17319L62.6278 1.02093L63.2554 1.27407L63.883 1.52721L63.1035 3.28354L62.324 5.03988L63.0978 6.83937L63.8715 8.63886L65.6744 4.5766L67.4773 0.514329L68.1049 0.76747L68.7325 1.02061L66.9296 5.08288L65.1267 9.14515L67.0203 8.42151L68.9138 7.69786L69.6973 5.93252L70.4808 4.16718L71.0486 4.45081L71.6164 4.73443L71.1714 5.86119L70.7263 6.98796L72.2851 6.39835L73.8438 5.80872L74.0472 6.40026L74.2507 6.99179L72.7403 7.57982L71.2299 8.16785L72.3754 8.68218L73.5209 9.19652L73.3212 9.77564L73.1216 10.3548L71.2651 9.60594L69.4086 8.85712L67.5191 9.59015L65.6295 10.3232L69.9016 12.0463L74.1737 13.7694L73.9088 14.3662L73.644 14.963L69.3719 13.2399L65.0998 11.5167L65.8637 13.32L66.6276 15.1233L68.4841 15.8721L70.3407 16.6209L70.0437 17.1608L69.7467 17.7006L68.5618 17.275L67.3769 16.8494L67.986 18.2923L68.595 19.7352L68.008 20.0079L67.421 20.2806L66.7957 18.8411C66.4518 18.0493 66.1192 17.3809 66.0566 17.3556C65.9941 17.3304 65.7176 17.8173 65.4423 18.4377L64.9417 19.5657L64.3739 19.2821L63.8061 18.9984L64.5603 17.1826L65.3145 15.3668L64.5886 13.6801L63.8626 11.9934L62.0599 16.0555L60.2571 20.1176L59.6295 19.8644L59.0019 19.6113L60.8048 15.549Z"/>
</mask>
<path d="M92.3179 154.48C92.2846 154.402 93.4662 151.615 94.9436 148.286L97.6298 142.233L94.8428 143.303L92.0559 144.372L90.8465 147.097L89.6371 149.822L88.7741 149.474L87.9112 149.126L88.7543 147.226L89.5974 145.327L87.1453 146.267L84.6933 147.207L84.3548 146.414L84.0163 145.62L86.3017 144.736C87.5586 144.25 88.6089 143.803 88.6356 143.742C88.6623 143.682 87.8332 143.29 86.7931 142.87L84.9021 142.108L85.2972 141.344L85.6922 140.579L88.5344 141.678L91.3765 142.777L94.1073 141.73C95.6092 141.154 96.8609 140.631 96.8887 140.569C96.9166 140.506 94.0409 139.285 90.4982 137.856L84.0571 135.258L84.4522 134.494L84.8472 133.73L91.2933 136.284L97.7394 138.838L96.6116 136.187L95.4837 133.535L92.6179 132.379L89.7521 131.223L90.1163 130.402L90.4805 129.582L92.3633 130.341C93.3988 130.759 94.2679 131.052 94.2946 130.991C94.3213 130.931 93.9266 129.901 93.4175 128.703L92.4918 126.523L93.3245 126.202L94.1572 125.882L95.1119 128.108L96.0665 130.334L96.8764 128.509L97.6864 126.684L98.5493 127.032L99.4123 127.38L98.236 130.03L97.0598 132.68L98.2396 135.436L99.4194 138.191L102.173 132.095L104.928 125.998L105.771 126.285L106.615 126.573L103.897 132.697C102.402 136.066 101.233 138.844 101.299 138.871C101.365 138.897 102.648 138.444 104.15 137.864L106.882 136.808L108.09 134.087L109.297 131.367L110.16 131.715L111.023 132.063L110.228 133.853C109.791 134.838 109.488 135.665 109.554 135.692C109.621 135.719 110.676 135.353 111.9 134.879C113.124 134.406 114.185 134.042 114.258 134.071C114.431 134.141 114.938 135.329 114.865 135.493C114.834 135.563 113.806 136.004 112.58 136.473C111.355 136.942 110.329 137.378 110.301 137.441C110.273 137.504 111.097 137.898 112.133 138.315L114.016 139.075L113.651 139.895L113.287 140.716L110.421 139.56L107.556 138.404L104.774 139.479L101.992 140.554L108.404 143.186L114.815 145.818L114.515 146.62L114.215 147.422L107.658 144.778L101.102 142.133L102.274 144.889L103.447 147.645L106.259 148.827L109.07 150.009L108.77 150.811L108.47 151.614L106.464 150.805L104.458 149.995L105.429 152.281C105.963 153.538 106.376 154.621 106.347 154.687C106.277 154.845 105.027 155.326 104.861 155.259C104.791 155.231 104.294 154.181 103.756 152.925L102.777 150.643L101.934 152.542L101.091 154.442L100.228 154.094L99.3649 153.746L100.574 151.021L101.784 148.296L100.67 145.694C100.057 144.263 99.5034 143.072 99.4399 143.046C99.3765 143.021 98.1029 145.752 96.6098 149.117L93.895 155.234L93.1367 154.928C92.7196 154.76 92.3511 154.558 92.3179 154.48ZM16.7064 114.913L18.5092 110.851L16.6157 111.574L14.7221 112.298L13.9386 114.063L13.1552 115.829L12.5874 115.545L12.0195 115.261L12.4646 114.135L12.9097 113.008L11.3818 113.59L9.85394 114.171L9.60693 113.593L9.35991 113.014L10.883 112.421L12.4061 111.828L11.2606 111.314L10.1151 110.799L10.3147 110.22L10.5143 109.641L12.3708 110.39L14.2273 111.139L16.1169 110.406L18.0064 109.673L13.7344 107.949L9.46229 106.226L9.72714 105.63L9.992 105.033L14.2641 106.756L18.5362 108.479L17.7748 106.682L17.0136 104.885L15.1412 104.08L13.2689 103.276L13.5006 102.754L13.7324 102.232L14.9959 102.689L16.2594 103.147L15.645 101.692L15.0307 100.236L15.6384 100.002L16.2461 99.7682L16.8764 101.229L17.5066 102.689L18.018 101.537L18.5294 100.385L19.157 100.638L19.7846 100.891L19.0051 102.647L18.2256 104.404L18.9994 106.203L19.7731 108.003L21.576 103.94L23.3789 99.8782L24.0065 100.131L24.6341 100.384L22.8312 104.447L21.0283 108.509L22.9219 107.785L24.8154 107.062L25.5989 105.296L26.3824 103.531L26.9502 103.815L27.518 104.098L27.073 105.225L26.6279 106.352L28.1866 105.762L29.7454 105.173L29.9488 105.764L30.1523 106.356L28.6419 106.944L27.1315 107.532L28.277 108.046L29.4225 108.56L29.2228 109.139L29.0232 109.719L27.1667 108.97L25.3102 108.221L23.4207 108.954L21.5311 109.687L25.8032 111.41L30.0753 113.133L29.8104 113.73L29.5456 114.327L25.2735 112.604L21.0014 110.881L21.7653 112.684L22.5292 114.487L24.3857 115.236L26.2423 115.985L25.9453 116.525L25.6483 117.064L24.4634 116.639L23.2785 116.213L23.8876 117.656L24.4966 119.099L23.9096 119.372L23.3226 119.644L22.6973 118.205C22.3534 117.413 22.0208 116.745 21.9582 116.719C21.8957 116.694 21.6192 117.181 21.3439 117.802L20.8433 118.93L20.2755 118.646L19.7077 118.362L20.4619 116.546L21.2161 114.731L20.4902 113.044L19.7642 111.357L17.9615 115.419L16.1587 119.481L15.5311 119.228L14.9035 118.975L16.7064 114.913ZM57.9708 104.742C57.9376 104.665 60.3708 99.0568 63.378 92.2808L68.8457 79.9609L63.0457 82.1924L57.2457 84.4239L54.845 89.8333L52.4442 95.2427L50.7968 94.5782L49.1493 93.9137L50.8047 90.1838C51.7151 88.1324 52.4064 86.4323 52.3409 86.4059C52.2754 86.3795 50.1147 87.1702 47.5393 88.1631C44.9638 89.156 42.7835 89.9388 42.6941 89.9028C42.6048 89.8667 42.2639 89.1949 41.9366 88.4099L41.3416 86.9826L46.0404 85.0959L50.7392 83.2093L46.9773 81.5961C44.9082 80.7088 43.2013 79.961 43.1842 79.9342C43.167 79.9074 43.4786 79.2055 43.8764 78.3744L44.5998 76.8631L50.1902 79.0718L55.7806 81.2806L61.6881 79.0041L67.5957 76.7277L54.5294 71.4574L41.463 66.1871L42.1864 64.6759L42.9098 63.1647L55.869 68.3468L68.8282 73.5288L66.4731 68.0065L64.1181 62.4841L58.5024 60.2191L52.8868 57.9541L53.6431 56.3682L54.3995 54.7823L58.2266 56.238L62.0536 57.6937L60.2063 53.1666L58.3589 48.6396L59.8476 48.0528C60.6664 47.73 61.4082 47.4949 61.4961 47.5303C61.584 47.5658 62.5239 49.6263 63.5849 52.1092L65.5139 56.6237L67.1852 52.8578L68.8566 49.0919L70.504 49.7564L72.1515 50.4209L69.7839 55.7557L67.4163 61.0905L69.8199 66.7178L72.2234 72.3452L77.7585 59.9801L83.2935 47.6151L84.9206 48.2212L86.5477 48.8274L81.0336 61.252L75.5194 73.6767L81.4283 71.4032L87.3371 69.1298L89.7301 63.8471L92.1232 58.5644L93.7503 59.1705L95.3774 59.7767L93.7528 63.4372C92.8593 65.4505 92.1806 67.1188 92.2446 67.1446C92.3086 67.1704 94.4939 66.3712 97.1009 65.3686L101.841 63.5456L102.48 65.0269C102.832 65.8416 103.088 66.5777 103.051 66.6627C103.013 66.7477 100.873 67.6282 98.2955 68.6193L93.609 70.4214L97.4609 72.063L101.313 73.7046L100.617 75.2711L99.9222 76.8377L94.2565 74.5983L88.5908 72.359L82.8452 74.5691L77.0996 76.7791L90.0511 82.0911L103.003 87.403L102.369 88.9503L101.735 90.4976L88.59 85.1957L75.4452 79.8937L77.8462 85.5236L80.2471 91.1534L85.8627 93.4184L91.4784 95.6835L90.722 97.2694L89.9657 98.8552L86.1261 97.3945L82.2865 95.9338L84.1931 100.395C85.2418 102.849 86.069 104.926 86.0313 105.011C85.9935 105.096 85.2605 105.433 84.4024 105.76L82.8421 106.354L80.8467 101.684L78.8513 97.0138L77.1799 100.78L75.5086 104.546L73.8611 103.881L72.2137 103.217L74.5813 97.8818L76.9489 92.5471L74.5448 86.9185L72.1406 81.2898L66.6288 93.7093L61.117 106.129L59.5741 105.506C58.7256 105.164 58.0041 104.82 57.9708 104.742ZM8.78454 68.0167C8.7513 67.9388 9.93288 65.1514 11.4103 61.8225L14.0965 55.7699L11.3095 56.8393L8.52257 57.9087L7.31318 60.6337L6.10378 63.3588L5.24083 63.0107L4.37788 62.6626L5.22098 60.7629L6.06408 58.8632L3.61204 59.8032L1.15999 60.7431L0.821481 59.95L0.483014 59.1569L2.76838 58.2726C4.02534 57.7863 5.07562 57.3391 5.1023 57.279C5.12899 57.2188 4.29986 56.8264 3.25981 56.4069L1.36882 55.6442L1.76386 54.88L2.15891 54.1159L5.00106 55.2146L7.84321 56.3133L10.574 55.2663C12.0759 54.6904 13.3276 54.1679 13.3554 54.1051C13.3833 54.0423 10.5075 52.8219 6.96493 51.393L0.523823 48.795L0.918852 48.0308L1.31391 47.2667L7.76001 49.8207L14.2061 52.3747L13.0783 49.723L11.9504 47.0714L9.08462 45.9155L6.21883 44.7596L6.583 43.939L6.94718 43.1184L8.82998 43.8778C9.86553 44.2955 10.7346 44.588 10.7613 44.5279C10.788 44.4678 10.3933 43.4378 9.88418 42.2391L8.95854 40.0596L9.79121 39.739L10.6239 39.4184L11.5785 41.6442L12.5332 43.87L13.3431 42.0451L14.1531 40.2201L15.016 40.5682L15.879 40.9162L14.7027 43.5666L13.5265 46.217L14.7062 48.9725L15.8861 51.728L18.6401 45.6314L21.3942 39.5348L22.2379 39.822L23.0817 40.1091L20.3635 46.2339C18.8684 49.6025 17.6992 52.3805 17.7653 52.4071C17.8313 52.4337 19.1146 51.9805 20.6171 51.4L23.3488 50.3445L24.5562 47.6239L25.7637 44.9032L26.6266 45.2513L27.4896 45.5994L26.695 47.3897C26.258 48.3744 25.9547 49.2019 26.0211 49.2287C26.0874 49.2554 27.1431 48.8897 28.367 48.4159C29.5908 47.9421 30.6519 47.5785 30.7249 47.6079C30.8976 47.6776 31.4046 48.8656 31.3318 49.0298C31.301 49.0992 30.2729 49.54 29.0471 50.0095C27.8213 50.4789 26.7955 50.9146 26.7676 50.9777C26.7396 51.0407 27.5639 51.4341 28.5995 51.8518L30.4823 52.6112L30.1181 53.4318L29.7539 54.2523L26.8881 53.0964L24.0223 51.9405L21.2406 53.0153L18.459 54.0901L24.8704 56.7221L31.2819 59.3542L30.9817 60.1566L30.6815 60.959L24.125 58.3144L17.5685 55.6699L18.7409 58.4257L19.9133 61.1815L22.7252 62.3634L25.5371 63.5454L25.2369 64.3478L24.9367 65.1502L22.9307 64.3411L20.9247 63.532L21.8958 65.8175C22.4299 67.0745 22.8428 68.1574 22.8133 68.2239C22.7434 68.3813 21.4936 68.8626 21.328 68.7958C21.2581 68.7676 20.7605 67.7173 20.2223 66.4618L19.2437 64.1792L18.4006 66.0789L17.5575 67.9786L16.6946 67.6305L15.8316 67.2825L17.041 64.5574L18.2504 61.8324L17.1362 59.2308C16.5235 57.8 15.9701 56.6083 15.9067 56.5827C15.8432 56.5571 14.5696 59.2888 13.0765 62.6531L10.3617 68.7701L9.60335 68.4642C9.18626 68.296 8.81781 68.0946 8.78454 68.0167ZM134.907 60.7395L138.565 52.4981L134.662 53.9983L130.759 55.4985L129.185 59.0435L127.612 62.5885L126.514 62.1455L125.416 61.7025L126.524 59.2054L127.632 56.7083L124.452 57.9298C122.702 58.6016 121.204 59.1242 121.122 59.0912C120.916 59.0083 120.168 57.2695 120.255 57.0752C120.293 56.9886 121.681 56.3972 123.338 55.7611L126.352 54.6045L123.911 53.532L121.471 52.4596L121.905 51.3593L122.339 50.2591L126.074 51.7655L129.808 53.272L133.71 51.7673L137.611 50.2625L128.944 46.7666L120.277 43.2708L120.74 42.2264L121.204 41.1821L129.755 44.6311C134.458 46.5281 138.328 48.0291 138.356 47.9666C138.384 47.9042 137.722 46.2533 136.886 44.2981L135.365 40.7431L131.617 39.1845L127.869 37.626L128.147 36.8701C128.711 35.3347 128.553 35.3512 131.458 36.5231L134.003 37.5494L132.759 34.6267C132.074 33.0192 131.545 31.6349 131.583 31.5505C131.668 31.3591 133.5 30.6622 133.703 30.7441C133.784 30.7772 134.414 32.1184 135.101 33.7246L136.351 36.645L137.426 34.2226L138.501 31.8002L139.678 32.2748L140.855 32.7495L139.257 36.3495L137.659 39.9496L139.161 43.5225C139.986 45.4877 140.719 47.1187 140.789 47.147C140.859 47.1753 142.556 43.5059 144.559 38.9927L148.2 30.787L149.299 31.23L150.397 31.673L146.739 39.9144L143.082 48.1558L146.985 46.6556L150.888 45.1554L152.464 41.6039L154.04 38.0524L155.158 38.555L156.277 39.0577L155.311 41.4417L154.345 43.8258L157.356 42.6625C159.012 42.0227 160.436 41.5271 160.521 41.5611C160.729 41.6452 161.479 43.3821 161.392 43.5787C161.354 43.6654 159.966 44.2567 158.308 44.8928L155.294 46.0495L157.735 47.1219L160.176 48.1943L159.742 49.2946L159.308 50.3948L155.573 48.8884L151.838 47.3819L147.937 48.8867L144.036 50.3914L152.703 53.8873L161.37 57.3831L160.907 58.4275L160.443 59.4718L151.814 55.9912C147.067 54.0768 143.161 52.5616 143.134 52.624C143.106 52.6864 143.768 54.3387 144.605 56.2956L146.126 59.8537L149.936 61.3905L153.746 62.9272L153.22 63.9903L152.694 65.0534L150.093 64.0527L147.492 63.0521L148.799 66.1229L150.106 69.1936L149.112 69.5868C148.565 69.803 148.045 69.9506 147.957 69.9148C147.868 69.879 147.212 68.4876 146.5 66.8229L145.205 63.7963L144.097 66.2933L142.988 68.7904L141.89 68.3474L140.792 67.9044L142.361 64.3696L143.929 60.8347L142.347 57.1083L140.765 53.3818L137.106 61.6243L133.446 69.8669L132.348 69.4239L131.25 68.9809L134.907 60.7395ZM60.8048 15.549L62.6076 11.4867L60.7141 12.2104L58.8205 12.934L58.0371 14.6994L57.2536 16.4647L56.6858 16.1811L56.1179 15.8975L56.563 14.7707L57.0081 13.6439L55.4802 14.2257L53.9523 14.8075L53.7053 14.2287L53.4583 13.65L54.9814 13.057L56.5045 12.464L55.359 11.9497L54.2135 11.4354L54.4131 10.8563L54.6127 10.2771L56.4692 11.026L58.3258 11.7748L60.2153 11.0417L62.1048 10.3087L57.8328 8.5856L53.5607 6.86247L53.8255 6.26569L54.0904 5.66891L58.3625 7.39204L62.6346 9.11517L61.8733 7.31806L61.112 5.52097L59.2396 4.71665L57.3673 3.91235L57.5991 3.39017L57.8308 2.86799L59.0943 3.32566L60.3578 3.78335L59.7434 2.3279L59.1291 0.872444L59.7368 0.638436L60.3445 0.404426L60.9748 1.86493L61.605 3.32545L62.1164 2.17319L62.6278 1.02093L63.2554 1.27407L63.883 1.52721L63.1035 3.28354L62.324 5.03988L63.0978 6.83937L63.8715 8.63886L65.6744 4.5766L67.4773 0.514329L68.1049 0.76747L68.7325 1.02061L66.9296 5.08288L65.1267 9.14515L67.0203 8.42151L68.9138 7.69786L69.6973 5.93252L70.4808 4.16718L71.0486 4.45081L71.6164 4.73443L71.1714 5.86119L70.7263 6.98796L72.2851 6.39835L73.8438 5.80872L74.0472 6.40026L74.2507 6.99179L72.7403 7.57982L71.2299 8.16785L72.3754 8.68218L73.5209 9.19652L73.3212 9.77564L73.1216 10.3548L71.2651 9.60594L69.4086 8.85712L67.5191 9.59015L65.6295 10.3232L69.9016 12.0463L74.1737 13.7694L73.9088 14.3662L73.644 14.963L69.3719 13.2399L65.0998 11.5167L65.8637 13.32L66.6276 15.1233L68.4841 15.8721L70.3407 16.6209L70.0437 17.1608L69.7467 17.7006L68.5618 17.275L67.3769 16.8494L67.986 18.2923L68.595 19.7352L68.008 20.0079L67.421 20.2806L66.7957 18.8411C66.4518 18.0493 66.1192 17.3809 66.0566 17.3556C65.9941 17.3304 65.7176 17.8173 65.4423 18.4377L64.9417 19.5657L64.3739 19.2821L63.8061 18.9984L64.5603 17.1826L65.3145 15.3668L64.5886 13.6801L63.8626 11.9934L62.0599 16.0555L60.2571 20.1176L59.6295 19.8644L59.0019 19.6113L60.8048 15.549Z" fill="#00478F" stroke="#00478F" stroke-width="2" mask="url(#path-1-inside-1)"/>
</svg>
