<svg width="113" height="120" viewBox="0 0 113 120" fill="none" xmlns="http://www.w3.org/2000/svg">
<mask id="path-1-inside-1" fill="white">
<path d="M64.806 118.871C64.7828 118.811 65.6042 116.665 66.6312 114.102L68.4984 109.443L66.5611 110.266L64.6239 111.089L63.7832 113.187L62.9425 115.285L62.3426 115.017L61.7427 114.749L62.3288 113.287L62.9149 111.824L61.2104 112.548L59.5059 113.271L59.2706 112.661L59.0353 112.05L60.6239 111.369C61.4977 110.995 62.2277 110.651 62.2463 110.604C62.2649 110.558 61.6885 110.256 60.9655 109.933L59.651 109.346L59.9256 108.757L60.2002 108.169L62.1759 109.015L64.1516 109.861L66.0499 109.055C67.0939 108.611 67.964 108.209 67.9833 108.161C68.0027 108.113 66.0037 107.173 63.5411 106.073L59.0636 104.073L59.3383 103.484L59.6129 102.896L64.0938 104.862L68.5747 106.829L67.7907 104.787L67.0066 102.746L65.0145 101.856L63.0224 100.966L63.2756 100.334L63.5287 99.7023L64.8375 100.287C65.5574 100.609 66.1615 100.834 66.1801 100.787C66.1986 100.741 65.9242 99.9482 65.5703 99.0253L64.9269 97.3473L65.5057 97.1005L66.0846 96.8536L66.7482 98.5673L67.4118 100.281L67.9748 98.8759L68.5378 97.4709L69.1377 97.7389L69.7375 98.0068L68.9199 100.047L68.1022 102.088L68.9223 104.209L69.7425 106.331L71.6569 101.637L73.5714 96.9433L74.1579 97.1644L74.7444 97.3854L72.8549 102.101C71.8156 104.694 71.0029 106.833 71.0488 106.854C71.0947 106.874 71.9867 106.525 73.0311 106.078L74.9301 105.266L75.7694 103.171L76.6087 101.076L77.2086 101.344L77.8085 101.612L77.2561 102.991C76.9524 103.749 76.7415 104.386 76.7877 104.407C76.8338 104.427 77.5676 104.146 78.4184 103.781C79.2691 103.416 80.0067 103.136 80.0574 103.159C80.1775 103.212 80.53 104.127 80.4793 104.253C80.4579 104.307 79.7432 104.646 78.8912 105.008C78.0391 105.369 77.326 105.704 77.3066 105.753C77.2871 105.802 77.8601 106.104 78.58 106.426L79.8888 107.011L79.6356 107.642L79.3825 108.274L77.3904 107.384L75.3983 106.494L73.4646 107.322L71.531 108.149L75.9878 110.176L80.4446 112.202L80.236 112.82L80.0273 113.438L75.4696 111.402L70.9119 109.366L71.727 111.487L72.5419 113.609L74.4966 114.519L76.4512 115.429L76.2425 116.047L76.0339 116.664L74.6394 116.041L73.245 115.419L73.92 117.178C74.2913 118.146 74.5783 118.98 74.5578 119.031C74.5092 119.152 73.6404 119.523 73.5254 119.471C73.4767 119.449 73.1309 118.641 72.7567 117.674L72.0765 115.917L71.4904 117.379L70.9043 118.842L70.3045 118.574L69.7046 118.306L70.5453 116.208L71.386 114.11L70.6115 112.107C70.1855 111.006 69.8009 110.088 69.7568 110.068C69.7127 110.049 68.8273 112.152 67.7894 114.742L65.9023 119.451L65.3751 119.216C65.0852 119.086 64.8291 118.931 64.806 118.871ZM12.2458 88.4086L13.4991 85.2811L12.1828 85.8383L10.8665 86.3954L10.3219 87.7545L9.77727 89.1136L9.38256 88.8953L8.98784 88.6769L9.29721 87.8094L9.6066 86.9419L8.54453 87.3898L7.48247 87.8378L7.31076 87.3922L7.13905 86.9466L8.19779 86.49L9.25654 86.0335L8.46028 85.6376L7.66402 85.2416L7.80277 84.7957L7.94152 84.3498L9.23205 84.9264L10.5226 85.5029L11.8361 84.9385L13.1496 84.3742L10.1799 83.0475L7.21022 81.7209L7.39433 81.2615L7.57844 80.802L10.5481 82.1286L13.5178 83.4552L12.9886 82.0717L12.4594 80.6881L11.1578 80.0689L9.85632 79.4496L10.0174 79.0476L10.1785 78.6456L11.0568 78.9979L11.9351 79.3503L11.5081 78.2298L11.081 77.1092L11.5034 76.9291L11.9259 76.7489L12.364 77.8733L12.8021 78.9978L13.1576 78.1107L13.513 77.2235L13.9493 77.4184L14.3856 77.6133L13.8437 78.9655L13.3019 80.3177L13.8398 81.7031L14.3776 83.0886L15.6309 79.961L16.8841 76.8335L17.3204 77.0284L17.7566 77.2233L16.5034 80.3508L15.2502 83.4783L16.5664 82.9212L17.8827 82.3641L18.4273 81.0049L18.9719 79.6458L19.3667 79.8642L19.7614 80.0825L19.452 80.95L19.1426 81.8175L20.2262 81.3636L21.3097 80.9096L21.4511 81.3651L21.5925 81.8205L20.5426 82.2732L19.4927 82.7259L20.2889 83.1219L21.0852 83.5179L20.9465 83.9637L20.8077 84.4096L19.5172 83.8331L18.2266 83.2566L16.9132 83.8209L15.5997 84.3853L18.5693 85.7119L21.539 87.0385L21.3549 87.498L21.1708 87.9575L18.2011 86.6308L15.2315 85.3042L15.7625 86.6926L16.2935 88.0809L17.584 88.6574L18.8745 89.2339L18.6681 89.6495L18.4616 90.0652L17.638 89.7375L16.8144 89.4098L17.2377 90.5207L17.6611 91.6316L17.2531 91.8415L16.845 92.0515L16.4103 90.9432C16.1712 90.3336 15.9401 89.819 15.8966 89.7995C15.8531 89.7801 15.6609 90.155 15.4695 90.6326L15.1216 91.5011L14.7268 91.2827L14.3321 91.0643L14.8564 89.6663L15.3807 88.2683L14.8761 86.9698L14.3715 85.6712L13.1183 88.7986L11.8651 91.9259L11.4289 91.7311L10.9926 91.5362L12.2458 88.4086ZM40.9302 80.5785C40.907 80.5185 42.5985 76.2012 44.6889 70.9844L48.4897 61.4993L44.4579 63.2173L40.4261 64.9353L38.7573 69.1L37.0884 73.2647L35.9432 72.7531L34.798 72.2415L35.9487 69.3699C36.5816 67.7905 37.0622 66.4816 37.0166 66.4613C36.9711 66.441 35.4691 67.0497 33.6788 67.8142C31.8886 68.5786 30.3729 69.1813 30.3108 69.1535C30.2487 69.1258 30.0117 68.6086 29.7842 68.0042L29.3706 66.9053L32.6369 65.4528L35.9032 64.0002L33.2882 62.7582C31.8499 62.0751 30.6633 61.4994 30.6514 61.4788C30.6395 61.4582 30.8561 60.9178 31.1327 60.2778L31.6355 59.1144L35.5216 60.8148L39.4077 62.5153L43.5142 60.7627L47.6208 59.0101L38.5379 54.9525L29.455 50.895L29.9579 49.7315L30.4608 48.568L39.4691 52.5577L48.4775 56.5473L46.8404 52.2957L45.2033 48.0441L41.2997 46.3002L37.3961 44.5564L37.9218 43.3354L38.4476 42.1144L41.1079 43.2352L43.7683 44.3559L42.4841 40.8706L41.1999 37.3852L42.2348 36.9334C42.804 36.6849 43.3196 36.5039 43.3807 36.5312C43.4418 36.5585 44.0952 38.1448 44.8327 40.0564L46.1736 43.5321L47.3354 40.6328L48.4972 37.7334L49.6424 38.245L50.7876 38.7566L49.1418 42.8639L47.496 46.9711L49.1668 51.3035L50.8376 55.636L54.6852 46.1162L58.5328 36.5964L59.6639 37.0631L60.7949 37.5298L56.9619 47.0955L53.1288 56.6611L57.2362 54.9108L61.3437 53.1605L63.0072 49.0934L64.6706 45.0262L65.8017 45.4929L66.9327 45.9596L65.8035 48.7778C65.1824 50.3278 64.7106 51.6123 64.755 51.6321C64.7995 51.652 66.3186 51.0367 68.1308 50.2648L71.4257 48.8613L71.87 50.0017C72.1144 50.6289 72.2929 51.1957 72.2666 51.2611C72.2404 51.3265 70.753 52.0044 68.9612 52.7675L65.7035 54.1549L68.3811 55.4188L71.0586 56.6826L70.5753 57.8887L70.092 59.0948L66.1536 57.3707L62.2152 55.6467L58.2212 57.3482L54.2272 59.0497L63.2303 63.1393L72.2334 67.229L71.7927 68.4202L71.352 69.6114L62.2146 65.5295L53.0772 61.4476L54.7462 65.782L56.4152 70.1164L60.3188 71.8602L64.2224 73.6041L63.6966 74.825L63.1709 76.046L60.5018 74.9214L57.8328 73.7967L59.1582 77.2316C59.8872 79.1207 60.4621 80.7199 60.4359 80.7854C60.4097 80.8508 59.9002 81.1102 59.3036 81.3618L58.219 81.8192L56.8319 78.2237L55.4449 74.6283L54.2831 77.5276L53.1213 80.427L51.9761 79.9154L50.8309 79.4038L52.4767 75.2966L54.1225 71.1893L52.4513 66.8559L50.7801 62.5225L46.9486 72.0841L43.1172 81.6458L42.0447 81.1667C41.4548 80.9031 40.9533 80.6385 40.9302 80.5785ZM6.7391 52.3035C6.71599 52.2436 7.53734 50.0976 8.56434 47.5346L10.4316 42.8748L8.4943 43.6981L6.557 44.5214L5.71631 46.6194L4.87561 48.7174L4.27574 48.4494L3.67587 48.1815L4.26194 46.7189L4.84801 45.2563L3.14351 45.98L1.43901 46.7036L1.2037 46.093L0.968422 45.4824L2.55706 44.8016C3.43081 44.4272 4.1609 44.0829 4.17945 44.0366C4.198 43.9903 3.62164 43.6882 2.89867 43.3652L1.58418 42.778L1.85878 42.1897L2.1334 41.6014L4.10907 42.4473L6.08475 43.2932L7.983 42.4871C9.02704 42.0437 9.8971 41.6414 9.91646 41.5931C9.93583 41.5447 7.93681 40.6051 5.47422 39.505L0.99679 37.5048L1.27139 36.9165L1.54601 36.3282L6.02691 38.2945L10.5078 40.2608L9.72381 38.2193L8.93978 36.1778L6.94769 35.2879L4.95558 34.398L5.20873 33.7662L5.46188 33.1345L6.77069 33.7191C7.49053 34.0407 8.09467 34.2659 8.11323 34.2196C8.13178 34.1733 7.8574 33.3804 7.5035 32.4575L6.86005 30.7795L7.43887 30.5327L8.01772 30.2858L8.68129 31.9995L9.34491 33.7132L9.90792 32.3081L10.4709 30.9031L11.0708 31.1711L11.6707 31.439L10.853 33.4795L10.0354 35.52L10.8555 37.6415L11.6756 39.7629L13.59 35.0692L15.5045 30.3755L16.091 30.5965L16.6775 30.8176L14.788 35.5331C13.7488 38.1266 12.936 40.2653 12.9819 40.2858C13.0278 40.3063 13.9199 39.9574 14.9643 39.5104L16.8632 38.6978L17.7026 36.6032L18.5419 34.5086L19.1418 34.7766L19.7416 35.0445L19.1893 36.4229C18.8855 37.181 18.6747 37.8181 18.7208 37.8387C18.7669 37.8593 19.5007 37.5777 20.3515 37.213C21.2023 36.8482 21.9399 36.5683 21.9906 36.5909C22.1106 36.6445 22.4631 37.5592 22.4124 37.6856C22.391 37.739 21.6764 38.0785 20.8243 38.4399C19.9722 38.8013 19.2592 39.1367 19.2397 39.1853C19.2202 39.2338 19.7933 39.5367 20.5131 39.8582L21.8219 40.4429L21.5688 41.0747L21.3156 41.7064L19.3235 40.8165L17.3314 39.9266L15.3978 40.754L13.4641 41.5815L17.921 43.6079L22.3778 45.6343L22.1691 46.2521L21.9604 46.8698L17.4028 44.8338L12.8451 42.7978L13.6601 44.9194L14.4751 47.0411L16.4297 47.9511L18.3844 48.8611L18.1757 49.4789L17.967 50.0966L16.5726 49.4737L15.1781 48.8508L15.8532 50.6104C16.2245 51.5782 16.5115 52.4119 16.4909 52.4631C16.4424 52.5843 15.5736 52.9548 15.4585 52.9034C15.4099 52.8817 15.064 52.073 14.6899 51.1065L14.0096 49.3491L13.4236 50.8116L12.8375 52.2742L12.2376 52.0062L11.6378 51.7383L12.4785 49.6402L13.3191 47.5423L12.5446 45.5393C12.1187 44.4377 11.7341 43.5203 11.6899 43.5006C11.6458 43.4808 10.7605 45.584 9.72257 48.1742L7.83544 52.8836L7.30828 52.6481C7.01834 52.5186 6.76222 52.3635 6.7391 52.3035ZM94.4113 46.7009L96.9539 40.3558L94.2407 41.5108L91.5275 42.6659L90.4339 45.3951L89.3402 48.1244L88.5768 47.7833L87.8133 47.4422L88.5837 45.5197L89.354 43.5973L87.1432 44.5377C85.9272 45.0549 84.8857 45.4573 84.8287 45.4318C84.6859 45.368 84.1659 44.0293 84.2258 43.8797C84.2525 43.813 85.2171 43.3577 86.3694 42.868L88.4644 41.9775L86.7677 41.1518L85.0711 40.3262L85.3727 39.4791L85.6744 38.632L88.2707 39.7919L90.867 40.9517L93.5788 39.7932L96.2906 38.6346L90.2658 35.9432L84.241 33.2518L84.5632 32.4478L84.8854 31.6437L90.8296 34.2991C94.0988 35.7596 96.7895 36.9152 96.8087 36.8671C96.828 36.819 96.3681 35.548 95.7866 34.0427L94.7295 31.3057L92.1241 30.1058L89.5187 28.9059L89.7118 28.324C90.1039 27.1418 89.994 27.1545 92.0136 28.0567L93.7824 28.8469L92.9177 26.5968C92.4421 25.3592 92.0743 24.2934 92.1003 24.2284C92.1594 24.081 93.4328 23.5445 93.5739 23.6076C93.6308 23.633 94.0684 24.6656 94.5462 25.9022L95.4151 28.1507L96.1624 26.2856L96.9097 24.4206L97.7277 24.7861L98.5457 25.1515L97.4351 27.9231L96.3245 30.6948L97.368 33.4456C97.9419 34.9586 98.4514 36.2143 98.5001 36.2361C98.5489 36.2578 99.728 33.4328 101.12 29.9581L103.652 23.6406L104.415 23.9816L105.179 24.3227L102.636 30.6677L100.094 37.0128L102.807 35.8578L105.52 34.7027L106.616 31.9684L107.711 29.2342L108.489 29.6211L109.266 30.0081L108.595 31.8436L107.923 33.6791L110.016 32.7835C111.168 32.2909 112.157 31.9093 112.216 31.9355C112.361 32.0002 112.882 33.3375 112.822 33.4889C112.795 33.5556 111.83 34.0108 110.678 34.5006L108.583 35.3911L110.28 36.2167L111.977 37.0424L111.675 37.8895L111.373 38.7366L108.777 37.5767L106.181 36.4169L103.469 37.5754L100.757 38.7339L106.782 41.4254L112.807 44.1168L112.484 44.9208L112.162 45.7249L106.163 43.0451C102.864 41.5713 100.149 40.4047 100.13 40.4528C100.111 40.5009 100.571 41.7729 101.152 43.2795L102.21 46.0189L104.858 47.202L107.507 48.3852L107.141 49.2036L106.775 50.0221L104.967 49.2517L103.159 48.4813L104.068 50.8455L104.977 53.2097L104.286 53.5123C103.906 53.6788 103.544 53.7925 103.482 53.7649C103.421 53.7373 102.965 52.6661 102.47 51.3845L101.57 49.0542L100.799 50.9767L100.029 52.8992L99.2653 52.5582L98.5019 52.2171L99.5924 49.4956L100.683 46.7742L99.5832 43.9052L98.4834 41.0362L95.9396 47.3821L93.3957 53.728L92.6322 53.3869L91.8687 53.0458L94.4113 46.7009ZM42.9001 11.9089L44.1534 8.78141L42.8371 9.33854L41.5208 9.89567L40.9762 11.2548L40.4316 12.6139L40.0369 12.3956L39.6422 12.1772L39.9515 11.3097L40.2609 10.4422L39.1989 10.8901L38.1368 11.338L37.9651 10.8925L37.7934 10.4469L38.8521 9.99035L39.9109 9.53383L39.1146 9.13785L38.3183 8.74187L38.4571 8.296L38.5958 7.85014L39.8864 8.42665L41.1769 9.00316L42.4904 8.43881L43.8039 7.87446L40.8342 6.54783L37.8645 5.2212L38.0486 4.76175L38.2328 4.30229L41.2024 5.62892L44.1721 6.95554L43.6429 5.57196L43.1137 4.18839L41.8122 3.56915L40.5106 2.94992L40.6717 2.5479L40.8328 2.14587L41.7111 2.49823L42.5894 2.85061L42.1624 1.73006L41.7353 0.609514L42.1578 0.429352L42.5802 0.249189L43.0183 1.37362L43.4564 2.49807L43.8119 1.61095L44.1674 0.723829L44.6036 0.918721L45.0399 1.11361L44.4981 2.46581L43.9562 3.818L44.4941 5.20342L45.032 6.58884L46.2852 3.46132L47.5384 0.333802L47.9747 0.528694L48.411 0.723586L47.1577 3.85111L45.9045 6.97862L47.2208 6.4215L48.537 5.86437L49.0817 4.50524L49.6263 3.14611L50.021 3.36448L50.4157 3.58283L50.1063 4.45032L49.7969 5.31782L50.8805 4.86388L51.964 4.40993L52.1054 4.86535L52.2468 5.32077L51.1969 5.77349L50.147 6.22621L50.9433 6.62219L51.7395 7.01817L51.6008 7.46404L51.462 7.9099L50.1715 7.33339L48.881 6.75687L47.5675 7.32123L46.254 7.88558L49.2237 9.21221L52.1933 10.5388L52.0092 10.9983L51.8251 11.4578L48.8554 10.1311L45.8858 8.8045L46.4168 10.1928L46.9478 11.5812L48.2383 12.1577L49.5289 12.7342L49.3224 13.1498L49.116 13.5654L48.2923 13.2378L47.4687 12.9101L47.8921 14.021L48.3154 15.1319L47.9074 15.3418L47.4993 15.5518L47.0647 14.4435C46.8256 13.8339 46.5944 13.3193 46.5509 13.2998C46.5074 13.2804 46.3152 13.6553 46.1239 14.1329L45.7759 15.0014L45.3812 14.783L44.9864 14.5646L45.5107 13.1666L46.035 11.7686L45.5304 10.4701L45.0258 9.17151L43.7726 12.2989L42.5194 15.4262L42.0832 15.2313L41.6469 15.0365L42.9001 11.9089Z"/>
</mask>
<path d="M64.806 118.871C64.7828 118.811 65.6042 116.665 66.6312 114.102L68.4984 109.443L66.5611 110.266L64.6239 111.089L63.7832 113.187L62.9425 115.285L62.3426 115.017L61.7427 114.749L62.3288 113.287L62.9149 111.824L61.2104 112.548L59.5059 113.271L59.2706 112.661L59.0353 112.05L60.6239 111.369C61.4977 110.995 62.2277 110.651 62.2463 110.604C62.2649 110.558 61.6885 110.256 60.9655 109.933L59.651 109.346L59.9256 108.757L60.2002 108.169L62.1759 109.015L64.1516 109.861L66.0499 109.055C67.0939 108.611 67.964 108.209 67.9833 108.161C68.0027 108.113 66.0037 107.173 63.5411 106.073L59.0636 104.073L59.3383 103.484L59.6129 102.896L64.0938 104.862L68.5747 106.829L67.7907 104.787L67.0066 102.746L65.0145 101.856L63.0224 100.966L63.2756 100.334L63.5287 99.7023L64.8375 100.287C65.5574 100.609 66.1615 100.834 66.1801 100.787C66.1986 100.741 65.9242 99.9482 65.5703 99.0253L64.9269 97.3473L65.5057 97.1005L66.0846 96.8536L66.7482 98.5673L67.4118 100.281L67.9748 98.8759L68.5378 97.4709L69.1377 97.7389L69.7375 98.0068L68.9199 100.047L68.1022 102.088L68.9223 104.209L69.7425 106.331L71.6569 101.637L73.5714 96.9433L74.1579 97.1644L74.7444 97.3854L72.8549 102.101C71.8156 104.694 71.0029 106.833 71.0488 106.854C71.0947 106.874 71.9867 106.525 73.0311 106.078L74.9301 105.266L75.7694 103.171L76.6087 101.076L77.2086 101.344L77.8085 101.612L77.2561 102.991C76.9524 103.749 76.7415 104.386 76.7877 104.407C76.8338 104.427 77.5676 104.146 78.4184 103.781C79.2691 103.416 80.0067 103.136 80.0574 103.159C80.1775 103.212 80.53 104.127 80.4793 104.253C80.4579 104.307 79.7432 104.646 78.8912 105.008C78.0391 105.369 77.326 105.704 77.3066 105.753C77.2871 105.802 77.8601 106.104 78.58 106.426L79.8888 107.011L79.6356 107.642L79.3825 108.274L77.3904 107.384L75.3983 106.494L73.4646 107.322L71.531 108.149L75.9878 110.176L80.4446 112.202L80.236 112.82L80.0273 113.438L75.4696 111.402L70.9119 109.366L71.727 111.487L72.5419 113.609L74.4966 114.519L76.4512 115.429L76.2425 116.047L76.0339 116.664L74.6394 116.041L73.245 115.419L73.92 117.178C74.2913 118.146 74.5783 118.98 74.5578 119.031C74.5092 119.152 73.6404 119.523 73.5254 119.471C73.4767 119.449 73.1309 118.641 72.7567 117.674L72.0765 115.917L71.4904 117.379L70.9043 118.842L70.3045 118.574L69.7046 118.306L70.5453 116.208L71.386 114.11L70.6115 112.107C70.1855 111.006 69.8009 110.088 69.7568 110.068C69.7127 110.049 68.8273 112.152 67.7894 114.742L65.9023 119.451L65.3751 119.216C65.0852 119.086 64.8291 118.931 64.806 118.871ZM12.2458 88.4086L13.4991 85.2811L12.1828 85.8383L10.8665 86.3954L10.3219 87.7545L9.77727 89.1136L9.38256 88.8953L8.98784 88.6769L9.29721 87.8094L9.6066 86.9419L8.54453 87.3898L7.48247 87.8378L7.31076 87.3922L7.13905 86.9466L8.19779 86.49L9.25654 86.0335L8.46028 85.6376L7.66402 85.2416L7.80277 84.7957L7.94152 84.3498L9.23205 84.9264L10.5226 85.5029L11.8361 84.9385L13.1496 84.3742L10.1799 83.0475L7.21022 81.7209L7.39433 81.2615L7.57844 80.802L10.5481 82.1286L13.5178 83.4552L12.9886 82.0717L12.4594 80.6881L11.1578 80.0689L9.85632 79.4496L10.0174 79.0476L10.1785 78.6456L11.0568 78.9979L11.9351 79.3503L11.5081 78.2298L11.081 77.1092L11.5034 76.9291L11.9259 76.7489L12.364 77.8733L12.8021 78.9978L13.1576 78.1107L13.513 77.2235L13.9493 77.4184L14.3856 77.6133L13.8437 78.9655L13.3019 80.3177L13.8398 81.7031L14.3776 83.0886L15.6309 79.961L16.8841 76.8335L17.3204 77.0284L17.7566 77.2233L16.5034 80.3508L15.2502 83.4783L16.5664 82.9212L17.8827 82.3641L18.4273 81.0049L18.9719 79.6458L19.3667 79.8642L19.7614 80.0825L19.452 80.95L19.1426 81.8175L20.2262 81.3636L21.3097 80.9096L21.4511 81.3651L21.5925 81.8205L20.5426 82.2732L19.4927 82.7259L20.2889 83.1219L21.0852 83.5179L20.9465 83.9637L20.8077 84.4096L19.5172 83.8331L18.2266 83.2566L16.9132 83.8209L15.5997 84.3853L18.5693 85.7119L21.539 87.0385L21.3549 87.498L21.1708 87.9575L18.2011 86.6308L15.2315 85.3042L15.7625 86.6926L16.2935 88.0809L17.584 88.6574L18.8745 89.2339L18.6681 89.6495L18.4616 90.0652L17.638 89.7375L16.8144 89.4098L17.2377 90.5207L17.6611 91.6316L17.2531 91.8415L16.845 92.0515L16.4103 90.9432C16.1712 90.3336 15.9401 89.819 15.8966 89.7995C15.8531 89.7801 15.6609 90.155 15.4695 90.6326L15.1216 91.5011L14.7268 91.2827L14.3321 91.0643L14.8564 89.6663L15.3807 88.2683L14.8761 86.9698L14.3715 85.6712L13.1183 88.7986L11.8651 91.9259L11.4289 91.7311L10.9926 91.5362L12.2458 88.4086ZM40.9302 80.5785C40.907 80.5185 42.5985 76.2012 44.6889 70.9844L48.4897 61.4993L44.4579 63.2173L40.4261 64.9353L38.7573 69.1L37.0884 73.2647L35.9432 72.7531L34.798 72.2415L35.9487 69.3699C36.5816 67.7905 37.0622 66.4816 37.0166 66.4613C36.9711 66.441 35.4691 67.0497 33.6788 67.8142C31.8886 68.5786 30.3729 69.1813 30.3108 69.1535C30.2487 69.1258 30.0117 68.6086 29.7842 68.0042L29.3706 66.9053L32.6369 65.4528L35.9032 64.0002L33.2882 62.7582C31.8499 62.0751 30.6633 61.4994 30.6514 61.4788C30.6395 61.4582 30.8561 60.9178 31.1327 60.2778L31.6355 59.1144L35.5216 60.8148L39.4077 62.5153L43.5142 60.7627L47.6208 59.0101L38.5379 54.9525L29.455 50.895L29.9579 49.7315L30.4608 48.568L39.4691 52.5577L48.4775 56.5473L46.8404 52.2957L45.2033 48.0441L41.2997 46.3002L37.3961 44.5564L37.9218 43.3354L38.4476 42.1144L41.1079 43.2352L43.7683 44.3559L42.4841 40.8706L41.1999 37.3852L42.2348 36.9334C42.804 36.6849 43.3196 36.5039 43.3807 36.5312C43.4418 36.5585 44.0952 38.1448 44.8327 40.0564L46.1736 43.5321L47.3354 40.6328L48.4972 37.7334L49.6424 38.245L50.7876 38.7566L49.1418 42.8639L47.496 46.9711L49.1668 51.3035L50.8376 55.636L54.6852 46.1162L58.5328 36.5964L59.6639 37.0631L60.7949 37.5298L56.9619 47.0955L53.1288 56.6611L57.2362 54.9108L61.3437 53.1605L63.0072 49.0934L64.6706 45.0262L65.8017 45.4929L66.9327 45.9596L65.8035 48.7778C65.1824 50.3278 64.7106 51.6123 64.755 51.6321C64.7995 51.652 66.3186 51.0367 68.1308 50.2648L71.4257 48.8613L71.87 50.0017C72.1144 50.6289 72.2929 51.1957 72.2666 51.2611C72.2404 51.3265 70.753 52.0044 68.9612 52.7675L65.7035 54.1549L68.3811 55.4188L71.0586 56.6826L70.5753 57.8887L70.092 59.0948L66.1536 57.3707L62.2152 55.6467L58.2212 57.3482L54.2272 59.0497L63.2303 63.1393L72.2334 67.229L71.7927 68.4202L71.352 69.6114L62.2146 65.5295L53.0772 61.4476L54.7462 65.782L56.4152 70.1164L60.3188 71.8602L64.2224 73.6041L63.6966 74.825L63.1709 76.046L60.5018 74.9214L57.8328 73.7967L59.1582 77.2316C59.8872 79.1207 60.4621 80.7199 60.4359 80.7854C60.4097 80.8508 59.9002 81.1102 59.3036 81.3618L58.219 81.8192L56.8319 78.2237L55.4449 74.6283L54.2831 77.5276L53.1213 80.427L51.9761 79.9154L50.8309 79.4038L52.4767 75.2966L54.1225 71.1893L52.4513 66.8559L50.7801 62.5225L46.9486 72.0841L43.1172 81.6458L42.0447 81.1667C41.4548 80.9031 40.9533 80.6385 40.9302 80.5785ZM6.7391 52.3035C6.71599 52.2436 7.53734 50.0976 8.56434 47.5346L10.4316 42.8748L8.4943 43.6981L6.557 44.5214L5.71631 46.6194L4.87561 48.7174L4.27574 48.4494L3.67587 48.1815L4.26194 46.7189L4.84801 45.2563L3.14351 45.98L1.43901 46.7036L1.2037 46.093L0.968422 45.4824L2.55706 44.8016C3.43081 44.4272 4.1609 44.0829 4.17945 44.0366C4.198 43.9903 3.62164 43.6882 2.89867 43.3652L1.58418 42.778L1.85878 42.1897L2.1334 41.6014L4.10907 42.4473L6.08475 43.2932L7.983 42.4871C9.02704 42.0437 9.8971 41.6414 9.91646 41.5931C9.93583 41.5447 7.93681 40.6051 5.47422 39.505L0.99679 37.5048L1.27139 36.9165L1.54601 36.3282L6.02691 38.2945L10.5078 40.2608L9.72381 38.2193L8.93978 36.1778L6.94769 35.2879L4.95558 34.398L5.20873 33.7662L5.46188 33.1345L6.77069 33.7191C7.49053 34.0407 8.09467 34.2659 8.11323 34.2196C8.13178 34.1733 7.8574 33.3804 7.5035 32.4575L6.86005 30.7795L7.43887 30.5327L8.01772 30.2858L8.68129 31.9995L9.34491 33.7132L9.90792 32.3081L10.4709 30.9031L11.0708 31.1711L11.6707 31.439L10.853 33.4795L10.0354 35.52L10.8555 37.6415L11.6756 39.7629L13.59 35.0692L15.5045 30.3755L16.091 30.5965L16.6775 30.8176L14.788 35.5331C13.7488 38.1266 12.936 40.2653 12.9819 40.2858C13.0278 40.3063 13.9199 39.9574 14.9643 39.5104L16.8632 38.6978L17.7026 36.6032L18.5419 34.5086L19.1418 34.7766L19.7416 35.0445L19.1893 36.4229C18.8855 37.181 18.6747 37.8181 18.7208 37.8387C18.7669 37.8593 19.5007 37.5777 20.3515 37.213C21.2023 36.8482 21.9399 36.5683 21.9906 36.5909C22.1106 36.6445 22.4631 37.5592 22.4124 37.6856C22.391 37.739 21.6764 38.0785 20.8243 38.4399C19.9722 38.8013 19.2592 39.1367 19.2397 39.1853C19.2202 39.2338 19.7933 39.5367 20.5131 39.8582L21.8219 40.4429L21.5688 41.0747L21.3156 41.7064L19.3235 40.8165L17.3314 39.9266L15.3978 40.754L13.4641 41.5815L17.921 43.6079L22.3778 45.6343L22.1691 46.2521L21.9604 46.8698L17.4028 44.8338L12.8451 42.7978L13.6601 44.9194L14.4751 47.0411L16.4297 47.9511L18.3844 48.8611L18.1757 49.4789L17.967 50.0966L16.5726 49.4737L15.1781 48.8508L15.8532 50.6104C16.2245 51.5782 16.5115 52.4119 16.4909 52.4631C16.4424 52.5843 15.5736 52.9548 15.4585 52.9034C15.4099 52.8817 15.064 52.073 14.6899 51.1065L14.0096 49.3491L13.4236 50.8116L12.8375 52.2742L12.2376 52.0062L11.6378 51.7383L12.4785 49.6402L13.3191 47.5423L12.5446 45.5393C12.1187 44.4377 11.7341 43.5203 11.6899 43.5006C11.6458 43.4808 10.7605 45.584 9.72257 48.1742L7.83544 52.8836L7.30828 52.6481C7.01834 52.5186 6.76222 52.3635 6.7391 52.3035ZM94.4113 46.7009L96.9539 40.3558L94.2407 41.5108L91.5275 42.6659L90.4339 45.3951L89.3402 48.1244L88.5768 47.7833L87.8133 47.4422L88.5837 45.5197L89.354 43.5973L87.1432 44.5377C85.9272 45.0549 84.8857 45.4573 84.8287 45.4318C84.6859 45.368 84.1659 44.0293 84.2258 43.8797C84.2525 43.813 85.2171 43.3577 86.3694 42.868L88.4644 41.9775L86.7677 41.1518L85.0711 40.3262L85.3727 39.4791L85.6744 38.632L88.2707 39.7919L90.867 40.9517L93.5788 39.7932L96.2906 38.6346L90.2658 35.9432L84.241 33.2518L84.5632 32.4478L84.8854 31.6437L90.8296 34.2991C94.0988 35.7596 96.7895 36.9152 96.8087 36.8671C96.828 36.819 96.3681 35.548 95.7866 34.0427L94.7295 31.3057L92.1241 30.1058L89.5187 28.9059L89.7118 28.324C90.1039 27.1418 89.994 27.1545 92.0136 28.0567L93.7824 28.8469L92.9177 26.5968C92.4421 25.3592 92.0743 24.2934 92.1003 24.2284C92.1594 24.081 93.4328 23.5445 93.5739 23.6076C93.6308 23.633 94.0684 24.6656 94.5462 25.9022L95.4151 28.1507L96.1624 26.2856L96.9097 24.4206L97.7277 24.7861L98.5457 25.1515L97.4351 27.9231L96.3245 30.6948L97.368 33.4456C97.9419 34.9586 98.4514 36.2143 98.5001 36.2361C98.5489 36.2578 99.728 33.4328 101.12 29.9581L103.652 23.6406L104.415 23.9816L105.179 24.3227L102.636 30.6677L100.094 37.0128L102.807 35.8578L105.52 34.7027L106.616 31.9684L107.711 29.2342L108.489 29.6211L109.266 30.0081L108.595 31.8436L107.923 33.6791L110.016 32.7835C111.168 32.2909 112.157 31.9093 112.216 31.9355C112.361 32.0002 112.882 33.3375 112.822 33.4889C112.795 33.5556 111.83 34.0108 110.678 34.5006L108.583 35.3911L110.28 36.2167L111.977 37.0424L111.675 37.8895L111.373 38.7366L108.777 37.5767L106.181 36.4169L103.469 37.5754L100.757 38.7339L106.782 41.4254L112.807 44.1168L112.484 44.9208L112.162 45.7249L106.163 43.0451C102.864 41.5713 100.149 40.4047 100.13 40.4528C100.111 40.5009 100.571 41.7729 101.152 43.2795L102.21 46.0189L104.858 47.202L107.507 48.3852L107.141 49.2036L106.775 50.0221L104.967 49.2517L103.159 48.4813L104.068 50.8455L104.977 53.2097L104.286 53.5123C103.906 53.6788 103.544 53.7925 103.482 53.7649C103.421 53.7373 102.965 52.6661 102.47 51.3845L101.57 49.0542L100.799 50.9767L100.029 52.8992L99.2653 52.5582L98.5019 52.2171L99.5924 49.4956L100.683 46.7742L99.5832 43.9052L98.4834 41.0362L95.9396 47.3821L93.3957 53.728L92.6322 53.3869L91.8687 53.0458L94.4113 46.7009ZM42.9001 11.9089L44.1534 8.78141L42.8371 9.33854L41.5208 9.89567L40.9762 11.2548L40.4316 12.6139L40.0369 12.3956L39.6422 12.1772L39.9515 11.3097L40.2609 10.4422L39.1989 10.8901L38.1368 11.338L37.9651 10.8925L37.7934 10.4469L38.8521 9.99035L39.9109 9.53383L39.1146 9.13785L38.3183 8.74187L38.4571 8.296L38.5958 7.85014L39.8864 8.42665L41.1769 9.00316L42.4904 8.43881L43.8039 7.87446L40.8342 6.54783L37.8645 5.2212L38.0486 4.76175L38.2328 4.30229L41.2024 5.62892L44.1721 6.95554L43.6429 5.57196L43.1137 4.18839L41.8122 3.56915L40.5106 2.94992L40.6717 2.5479L40.8328 2.14587L41.7111 2.49823L42.5894 2.85061L42.1624 1.73006L41.7353 0.609514L42.1578 0.429352L42.5802 0.249189L43.0183 1.37362L43.4564 2.49807L43.8119 1.61095L44.1674 0.723829L44.6036 0.918721L45.0399 1.11361L44.4981 2.46581L43.9562 3.818L44.4941 5.20342L45.032 6.58884L46.2852 3.46132L47.5384 0.333802L47.9747 0.528694L48.411 0.723586L47.1577 3.85111L45.9045 6.97862L47.2208 6.4215L48.537 5.86437L49.0817 4.50524L49.6263 3.14611L50.021 3.36448L50.4157 3.58283L50.1063 4.45032L49.7969 5.31782L50.8805 4.86388L51.964 4.40993L52.1054 4.86535L52.2468 5.32077L51.1969 5.77349L50.147 6.22621L50.9433 6.62219L51.7395 7.01817L51.6008 7.46404L51.462 7.9099L50.1715 7.33339L48.881 6.75687L47.5675 7.32123L46.254 7.88558L49.2237 9.21221L52.1933 10.5388L52.0092 10.9983L51.8251 11.4578L48.8554 10.1311L45.8858 8.8045L46.4168 10.1928L46.9478 11.5812L48.2383 12.1577L49.5289 12.7342L49.3224 13.1498L49.116 13.5654L48.2923 13.2378L47.4687 12.9101L47.8921 14.021L48.3154 15.1319L47.9074 15.3418L47.4993 15.5518L47.0647 14.4435C46.8256 13.8339 46.5944 13.3193 46.5509 13.2998C46.5074 13.2804 46.3152 13.6553 46.1239 14.1329L45.7759 15.0014L45.3812 14.783L44.9864 14.5646L45.5107 13.1666L46.035 11.7686L45.5304 10.4701L45.0258 9.17151L43.7726 12.2989L42.5194 15.4262L42.0832 15.2313L41.6469 15.0365L42.9001 11.9089Z" stroke="white" stroke-width="2" mask="url(#path-1-inside-1)"/>
</svg>
