<svg width="73" height="88" viewBox="0 0 73 88" fill="none" xmlns="http://www.w3.org/2000/svg">
<mask id="path-1-inside-1" fill="white">
<path d="M68.121 32.6056C68.9367 32.7809 69.9156 32.255 70.0787 31.3785L72.0364 23.6653C72.1996 22.7888 71.7101 21.7371 70.8944 21.5618L63.7161 19.4582C63.2267 19.2829 62.9004 19.4582 62.411 19.6335C62.0847 19.8088 61.7584 20.3347 61.5953 20.6853L59.8007 27.6972L56.2115 29.8008L57.5167 24.5418C57.6798 23.6653 57.1904 22.6135 56.3747 22.4382C55.559 22.2629 54.5801 22.7888 54.417 23.6653L52.2961 32.255L48.8701 34.3586L50.991 25.7689C51.1541 24.8924 50.6647 23.8406 49.849 23.6653C49.0333 23.49 48.0544 24.0159 47.8913 24.8924L44.9547 36.988L41.5287 39.0916L38.2658 35.5857V32.6056L46.423 23.8406C47.0755 23.1394 47.0755 22.0877 46.423 21.3865C45.7704 20.6853 44.7915 20.6853 44.139 21.3865L38.2658 27.6972V23.49L44.139 17.1793C44.7915 16.4781 44.7915 15.4263 44.139 14.7251C43.4864 14.0239 42.5075 14.0239 41.855 14.7251L38.2658 18.5817V14.0239L43.1601 8.76494C43.4864 8.41434 43.6495 8.06374 43.6495 7.53785C43.6495 7.01195 43.4864 6.66135 43.1601 6.31076L37.7764 0.525896C37.1238 -0.175299 36.145 -0.175299 35.4924 0.525896L30.1087 6.31076C29.9455 6.66135 29.7824 7.18725 29.7824 7.53785C29.7824 8.06374 29.9455 8.41434 30.2718 8.76494L35.1661 14.0239V18.4064L31.577 14.5498C30.9244 13.8486 29.9455 13.8486 29.293 14.5498C28.6404 15.251 28.6404 16.3028 29.293 17.004L35.1661 23.3147V27.5219L29.293 21.2112C28.6404 20.51 27.6615 20.51 27.0089 21.2112C26.3564 21.9124 26.3564 22.9641 27.0089 23.6653L35.1661 32.4303V35.0598L31.577 38.741L28.1509 36.6375L25.2144 24.7171C25.0512 23.8406 24.0724 23.1394 23.2567 23.49C22.4409 23.6653 21.7884 24.7171 22.1147 25.5936L24.2355 34.1833L20.8095 32.0797L18.5255 23.3147C18.3624 22.4382 17.3835 21.7371 16.5678 22.0877C15.7521 22.2629 15.0995 23.3147 15.4258 24.1912L16.7309 29.4502L13.1418 27.3466L11.3472 20.3347C11.1841 19.8088 11.0209 19.4582 10.5315 19.2829C10.2052 19.1076 9.71579 18.9323 9.22636 19.1076L2.21121 21.0359C1.39549 21.2112 0.742919 22.263 1.06921 23.1394L3.02692 30.8526C3.19006 31.7291 4.16892 32.4303 4.98464 32.0797L11.5104 30.1514L15.0995 32.255L10.2052 33.6574C9.3895 33.8327 8.73693 34.8845 9.06321 35.761C9.22636 36.6375 10.2052 37.1633 11.0209 36.988L19.0149 34.7092L22.4409 36.8128L14.4469 39.0916C13.6312 39.2669 12.9786 40.3187 13.3049 41.1952C13.4681 42.0717 14.4469 42.5976 15.2626 42.4223L26.3564 39.2669L29.1298 41.0199L27.8247 42.4223C27.4984 42.7729 27.3352 43.1235 27.3352 43.6494C27.3352 44.1753 27.4984 44.5259 27.8247 44.8765L28.9667 46.1036L26.3564 47.6813L15.2626 44.8765C14.4469 44.7012 13.4681 45.2271 13.3049 46.1036C13.1418 46.9801 13.6312 48.0319 14.4469 48.2072L22.4409 50.4861L19.0149 52.5896L11.0209 50.3108C10.2052 50.1355 9.22636 50.6614 9.06321 51.5378C8.90007 52.4143 9.3895 53.4661 10.2052 53.6414L15.0995 55.0438L11.5104 57.1474L4.98464 55.2191C4.16892 55.0438 3.19006 55.5697 3.02692 56.4462L1.06921 64.1594C0.906062 64.6853 1.06921 65.0359 1.23235 65.5618C1.39549 65.9123 1.88492 66.2629 2.21121 66.4382L9.3895 68.5418C10.2052 68.7171 11.1841 68.1912 11.3472 67.3147L13.1418 60.3028L16.7309 58.1992L15.4258 63.4582C15.2626 64.3347 15.7521 65.3865 16.5678 65.5618C17.3835 65.7371 18.3624 65.2112 18.5255 64.3347L20.6464 55.745L24.0724 53.6414L21.9515 62.2311C21.7884 63.1076 22.2778 64.1594 23.0935 64.3347C23.9092 64.51 24.8881 63.9841 25.0512 63.1076L27.9878 51.1873L31.4138 49.0837L34.6767 52.5896V55.5697L26.5195 64.3347C25.8669 65.0359 25.8669 66.0876 26.5195 66.7888C27.1721 67.49 28.1509 67.49 28.8035 66.7888L34.6767 60.4781V64.6853L28.8035 70.996C28.1509 71.6972 28.1509 72.749 28.8035 73.4502C29.4561 74.1514 30.435 74.1514 31.0875 73.4502L34.6767 69.5936V73.9761L29.7824 79.2351C29.4561 79.5857 29.293 79.9363 29.293 80.4622C29.293 80.988 29.4561 81.3386 29.7824 81.6892L35.1661 87.4741C35.4924 87.8247 35.9818 88 36.3081 88C36.7975 88 37.1238 87.8247 37.4501 87.4741L42.8338 81.6892C43.4864 80.988 43.4864 79.9362 42.8338 79.2351L37.9395 73.9761V69.5936L41.5287 73.4502C42.1813 74.1514 43.1601 74.1514 43.8127 73.4502C44.4653 72.749 44.4653 71.6972 43.8127 70.996L37.9395 64.6853V60.4781L43.8127 66.7888C44.4653 67.49 45.4441 67.49 46.0967 66.7888C46.7493 66.0876 46.7493 65.0359 46.0967 64.3347L37.9395 55.5697V52.7649L41.3655 49.0837L44.7915 51.1873L47.7281 63.1076C47.8913 63.8088 48.5438 64.3347 49.3595 64.3347C50.5015 64.3347 51.1541 63.2829 50.991 62.0558L48.8701 53.4661L52.2961 55.5697L54.417 64.1594C54.5801 64.8606 55.2327 65.3865 56.0484 65.3865C57.1904 65.3865 57.843 64.3347 57.6798 63.1076L56.3747 57.8486L59.9638 59.9522L61.7584 66.9641C61.9216 67.8406 62.9004 68.5418 63.7161 68.1912L70.8944 66.0876C71.3839 65.9123 71.7101 65.737 71.8733 65.2112C72.0364 64.8606 72.1996 64.3347 72.0364 63.8088L70.0787 56.0956C69.9156 55.2191 68.9367 54.5179 68.121 54.8685L61.5953 56.7968L58.0061 54.6932L62.9004 53.2908C63.7161 53.1155 64.3687 52.0637 64.0424 51.1873C63.8793 50.3108 62.9004 49.6096 62.0847 49.9602L53.9275 52.239L50.5015 50.1355L58.4956 47.8566C59.3113 47.6813 59.9638 46.6295 59.6376 45.753C59.4744 44.8765 58.4956 44.1753 57.6798 44.5259L46.5861 47.6813L43.8127 45.9283L45.1178 44.5259C45.7704 43.8247 45.7704 42.7729 45.1178 42.0717L44.139 41.0199L46.7493 39.4422L57.843 42.5976C58.6587 42.7729 59.6376 42.247 59.8007 41.3705C59.9638 40.494 59.4744 39.4422 58.6587 39.2669L50.6647 36.988L54.0907 34.8845L62.0847 37.1633C62.9004 37.3386 63.8793 36.8128 64.0424 35.9363C64.2056 35.0598 63.7161 34.008 62.9004 33.8327L58.0061 32.4303L61.5953 30.3267L68.121 32.6056ZM64.3687 23.1394L68.4473 24.3665L67.3053 28.749L63.2267 27.5219L64.3687 23.1394ZM5.80035 28.3984L4.65835 24.0159L8.73693 22.7888L9.87893 27.1713L5.80035 28.3984ZM8.57378 64.8606L4.49521 63.6335L5.63721 59.251L9.71579 60.4781L8.57378 64.8606ZM67.1421 59.6016L68.2841 63.9841L64.2056 65.2112L63.0636 60.8287L67.1421 59.6016ZM36.4712 49.4343L31.4138 44L36.4712 38.5657C37.1238 39.2669 41.0392 43.4741 41.5287 44L36.4712 49.4343ZM36.6344 4.38247L39.571 7.53785L36.6344 10.6932L33.6978 7.53785L36.6344 4.38247ZM36.3081 83.6175L33.3715 80.4622L36.3081 77.3068L39.2447 80.4622L36.3081 83.6175Z"/>
</mask>
<path d="M68.121 32.6056C68.9367 32.7809 69.9156 32.255 70.0787 31.3785L72.0364 23.6653C72.1996 22.7888 71.7101 21.7371 70.8944 21.5618L63.7161 19.4582C63.2267 19.2829 62.9004 19.4582 62.411 19.6335C62.0847 19.8088 61.7584 20.3347 61.5953 20.6853L59.8007 27.6972L56.2115 29.8008L57.5167 24.5418C57.6798 23.6653 57.1904 22.6135 56.3747 22.4382C55.559 22.2629 54.5801 22.7888 54.417 23.6653L52.2961 32.255L48.8701 34.3586L50.991 25.7689C51.1541 24.8924 50.6647 23.8406 49.849 23.6653C49.0333 23.49 48.0544 24.0159 47.8913 24.8924L44.9547 36.988L41.5287 39.0916L38.2658 35.5857V32.6056L46.423 23.8406C47.0755 23.1394 47.0755 22.0877 46.423 21.3865C45.7704 20.6853 44.7915 20.6853 44.139 21.3865L38.2658 27.6972V23.49L44.139 17.1793C44.7915 16.4781 44.7915 15.4263 44.139 14.7251C43.4864 14.0239 42.5075 14.0239 41.855 14.7251L38.2658 18.5817V14.0239L43.1601 8.76494C43.4864 8.41434 43.6495 8.06374 43.6495 7.53785C43.6495 7.01195 43.4864 6.66135 43.1601 6.31076L37.7764 0.525896C37.1238 -0.175299 36.145 -0.175299 35.4924 0.525896L30.1087 6.31076C29.9455 6.66135 29.7824 7.18725 29.7824 7.53785C29.7824 8.06374 29.9455 8.41434 30.2718 8.76494L35.1661 14.0239V18.4064L31.577 14.5498C30.9244 13.8486 29.9455 13.8486 29.293 14.5498C28.6404 15.251 28.6404 16.3028 29.293 17.004L35.1661 23.3147V27.5219L29.293 21.2112C28.6404 20.51 27.6615 20.51 27.0089 21.2112C26.3564 21.9124 26.3564 22.9641 27.0089 23.6653L35.1661 32.4303V35.0598L31.577 38.741L28.1509 36.6375L25.2144 24.7171C25.0512 23.8406 24.0724 23.1394 23.2567 23.49C22.4409 23.6653 21.7884 24.7171 22.1147 25.5936L24.2355 34.1833L20.8095 32.0797L18.5255 23.3147C18.3624 22.4382 17.3835 21.7371 16.5678 22.0877C15.7521 22.2629 15.0995 23.3147 15.4258 24.1912L16.7309 29.4502L13.1418 27.3466L11.3472 20.3347C11.1841 19.8088 11.0209 19.4582 10.5315 19.2829C10.2052 19.1076 9.71579 18.9323 9.22636 19.1076L2.21121 21.0359C1.39549 21.2112 0.742919 22.263 1.06921 23.1394L3.02692 30.8526C3.19006 31.7291 4.16892 32.4303 4.98464 32.0797L11.5104 30.1514L15.0995 32.255L10.2052 33.6574C9.3895 33.8327 8.73693 34.8845 9.06321 35.761C9.22636 36.6375 10.2052 37.1633 11.0209 36.988L19.0149 34.7092L22.4409 36.8128L14.4469 39.0916C13.6312 39.2669 12.9786 40.3187 13.3049 41.1952C13.4681 42.0717 14.4469 42.5976 15.2626 42.4223L26.3564 39.2669L29.1298 41.0199L27.8247 42.4223C27.4984 42.7729 27.3352 43.1235 27.3352 43.6494C27.3352 44.1753 27.4984 44.5259 27.8247 44.8765L28.9667 46.1036L26.3564 47.6813L15.2626 44.8765C14.4469 44.7012 13.4681 45.2271 13.3049 46.1036C13.1418 46.9801 13.6312 48.0319 14.4469 48.2072L22.4409 50.4861L19.0149 52.5896L11.0209 50.3108C10.2052 50.1355 9.22636 50.6614 9.06321 51.5378C8.90007 52.4143 9.3895 53.4661 10.2052 53.6414L15.0995 55.0438L11.5104 57.1474L4.98464 55.2191C4.16892 55.0438 3.19006 55.5697 3.02692 56.4462L1.06921 64.1594C0.906062 64.6853 1.06921 65.0359 1.23235 65.5618C1.39549 65.9123 1.88492 66.2629 2.21121 66.4382L9.3895 68.5418C10.2052 68.7171 11.1841 68.1912 11.3472 67.3147L13.1418 60.3028L16.7309 58.1992L15.4258 63.4582C15.2626 64.3347 15.7521 65.3865 16.5678 65.5618C17.3835 65.7371 18.3624 65.2112 18.5255 64.3347L20.6464 55.745L24.0724 53.6414L21.9515 62.2311C21.7884 63.1076 22.2778 64.1594 23.0935 64.3347C23.9092 64.51 24.8881 63.9841 25.0512 63.1076L27.9878 51.1873L31.4138 49.0837L34.6767 52.5896V55.5697L26.5195 64.3347C25.8669 65.0359 25.8669 66.0876 26.5195 66.7888C27.1721 67.49 28.1509 67.49 28.8035 66.7888L34.6767 60.4781V64.6853L28.8035 70.996C28.1509 71.6972 28.1509 72.749 28.8035 73.4502C29.4561 74.1514 30.435 74.1514 31.0875 73.4502L34.6767 69.5936V73.9761L29.7824 79.2351C29.4561 79.5857 29.293 79.9363 29.293 80.4622C29.293 80.988 29.4561 81.3386 29.7824 81.6892L35.1661 87.4741C35.4924 87.8247 35.9818 88 36.3081 88C36.7975 88 37.1238 87.8247 37.4501 87.4741L42.8338 81.6892C43.4864 80.988 43.4864 79.9362 42.8338 79.2351L37.9395 73.9761V69.5936L41.5287 73.4502C42.1813 74.1514 43.1601 74.1514 43.8127 73.4502C44.4653 72.749 44.4653 71.6972 43.8127 70.996L37.9395 64.6853V60.4781L43.8127 66.7888C44.4653 67.49 45.4441 67.49 46.0967 66.7888C46.7493 66.0876 46.7493 65.0359 46.0967 64.3347L37.9395 55.5697V52.7649L41.3655 49.0837L44.7915 51.1873L47.7281 63.1076C47.8913 63.8088 48.5438 64.3347 49.3595 64.3347C50.5015 64.3347 51.1541 63.2829 50.991 62.0558L48.8701 53.4661L52.2961 55.5697L54.417 64.1594C54.5801 64.8606 55.2327 65.3865 56.0484 65.3865C57.1904 65.3865 57.843 64.3347 57.6798 63.1076L56.3747 57.8486L59.9638 59.9522L61.7584 66.9641C61.9216 67.8406 62.9004 68.5418 63.7161 68.1912L70.8944 66.0876C71.3839 65.9123 71.7101 65.737 71.8733 65.2112C72.0364 64.8606 72.1996 64.3347 72.0364 63.8088L70.0787 56.0956C69.9156 55.2191 68.9367 54.5179 68.121 54.8685L61.5953 56.7968L58.0061 54.6932L62.9004 53.2908C63.7161 53.1155 64.3687 52.0637 64.0424 51.1873C63.8793 50.3108 62.9004 49.6096 62.0847 49.9602L53.9275 52.239L50.5015 50.1355L58.4956 47.8566C59.3113 47.6813 59.9638 46.6295 59.6376 45.753C59.4744 44.8765 58.4956 44.1753 57.6798 44.5259L46.5861 47.6813L43.8127 45.9283L45.1178 44.5259C45.7704 43.8247 45.7704 42.7729 45.1178 42.0717L44.139 41.0199L46.7493 39.4422L57.843 42.5976C58.6587 42.7729 59.6376 42.247 59.8007 41.3705C59.9638 40.494 59.4744 39.4422 58.6587 39.2669L50.6647 36.988L54.0907 34.8845L62.0847 37.1633C62.9004 37.3386 63.8793 36.8128 64.0424 35.9363C64.2056 35.0598 63.7161 34.008 62.9004 33.8327L58.0061 32.4303L61.5953 30.3267L68.121 32.6056ZM64.3687 23.1394L68.4473 24.3665L67.3053 28.749L63.2267 27.5219L64.3687 23.1394ZM5.80035 28.3984L4.65835 24.0159L8.73693 22.7888L9.87893 27.1713L5.80035 28.3984ZM8.57378 64.8606L4.49521 63.6335L5.63721 59.251L9.71579 60.4781L8.57378 64.8606ZM67.1421 59.6016L68.2841 63.9841L64.2056 65.2112L63.0636 60.8287L67.1421 59.6016ZM36.4712 49.4343L31.4138 44L36.4712 38.5657C37.1238 39.2669 41.0392 43.4741 41.5287 44L36.4712 49.4343ZM36.6344 4.38247L39.571 7.53785L36.6344 10.6932L33.6978 7.53785L36.6344 4.38247ZM36.3081 83.6175L33.3715 80.4622L36.3081 77.3068L39.2447 80.4622L36.3081 83.6175Z" fill="white" stroke="white" stroke-width="6" mask="url(#path-1-inside-1)"/>
</svg>
