<svg width="23" height="22" viewBox="0 0 23 22" fill="none" xmlns="http://www.w3.org/2000/svg">
<path fill-rule="evenodd" clip-rule="evenodd" d="M12.0556 4.07089C11.7289 4.02417 11.3951 4 11.0556 4C10.716 4 10.3822 4.02417 10.0556 4.07089V0.044843C10.3849 0.0151626 10.7185 0 11.0556 0C11.3926 0 11.7262 0.0151626 12.0556 0.044843V4.07089ZM6.05755 11C6.05755 13.7614 8.29501 16 11.0551 16C13.8151 16 16.0526 13.7614 16.0526 11C16.0526 8.23858 13.8151 6 11.0551 6C8.29501 6 6.05755 8.23858 6.05755 11ZM14.0536 11C14.0536 12.6569 12.7111 14 11.0551 14C9.39902 14 8.05655 12.6569 8.05655 11C8.05655 9.34315 9.39902 8 11.0551 8C12.7111 8 14.0536 9.34315 14.0536 11ZM12.0556 21.9552V17.9291C11.7289 17.9758 11.3951 18 11.0556 18C10.716 18 10.3822 17.9758 10.0556 17.9291V21.9552C10.3849 21.9848 10.7185 22 11.0556 22C11.3926 22 11.7262 21.9848 12.0556 21.9552ZM17.9807 10H22.0048C22.0344 10.3294 22.0496 10.6629 22.0496 11C22.0496 11.3371 22.0344 11.6706 22.0048 12H17.9807C18.0274 11.6734 18.0516 11.3395 18.0516 11C18.0516 10.6605 18.0274 10.3266 17.9807 10ZM4.05904 11C4.05904 10.6605 4.0832 10.3266 4.12989 10H0.105856C0.0761902 10.3294 0.0610352 10.6629 0.0610352 11C0.0610352 11.3371 0.0761902 11.6706 0.105856 12H4.12989C4.0832 11.6734 4.05904 11.3395 4.05904 11ZM15.2451 5.39362L18.0906 2.54673C18.6034 2.9744 19.0766 3.44791 19.5041 3.96094L16.6586 6.80783C16.2573 6.27173 15.781 5.79513 15.2451 5.39362ZM2.606 3.96094L5.45146 6.80783C5.85277 6.27173 6.32914 5.79513 6.86497 5.39362L4.01951 2.54673C3.50672 2.9744 3.03346 3.44791 2.606 3.96094ZM16.6586 15.1922L19.5041 18.0391C19.0766 18.5521 18.6034 19.0256 18.0906 19.4533L15.2451 16.6064C15.781 16.2049 16.2573 15.7283 16.6586 15.1922ZM4.01951 19.4533L6.86497 16.6064C6.32914 16.2049 5.85277 15.7283 5.45146 15.1922L2.606 18.0391C3.03346 18.5521 3.50672 19.0256 4.01951 19.4533Z" fill="white"/>
</svg>
