<svg width="21" height="22" viewBox="0 0 21 22" fill="none" xmlns="http://www.w3.org/2000/svg">
<path fill-rule="evenodd" clip-rule="evenodd" d="M19.5532 3.10178L21 3.28441L20.3496 4.69327C20.0325 5.38031 19.715 6.06736 19.3972 6.7544C19.3595 6.89991 19.2933 7.02748 19.1954 7.19357C19.1544 7.26297 19.0146 7.48372 19.0081 7.49432C18.9711 7.55417 18.9438 7.60136 18.9242 7.63918V10.2795C18.9242 17.0358 12.8751 21.3291 7.16238 21.3291C5.99343 21.3291 5.10529 21.2685 4.08831 21.0287C2.4147 20.6339 1.1692 19.8492 0.599263 18.4778L0.0124876 17.0658L1.43849 16.924C2.72852 16.7958 3.84701 16.5302 4.70595 16.1744C2.34784 15.7645 1.02636 14.6451 1.02636 12.5427V11.4373H2.04904C2.27374 11.4373 2.47635 11.4176 2.65748 11.3814C0.887687 10.2376 0.00124946 8.4028 0.00124946 5.85785C0.00105608 5.74938 0.00105608 5.74938 0.000452588 5.63339C-0.00619598 4.35062 0.0575484 3.6652 0.382429 2.79041C0.590642 2.22976 0.891604 1.71074 1.29666 1.23517L2.06838 0.329102L2.81869 1.25595C5.29129 4.31036 7.7355 6.16342 10.2311 6.38756C10.2417 3.56912 12.2124 1.4362 14.8333 1.4362C16.0551 1.4362 17.1635 1.93749 18.0344 2.8414C18.5111 2.94728 19.0174 3.03415 19.5532 3.10178ZM17.2922 4.92924L16.9787 4.85251L16.7622 4.5957C16.2386 3.97476 15.5815 3.64643 14.8333 3.64643C13.3371 3.64643 12.2764 4.79868 12.2764 6.40994C12.2764 6.67326 12.2701 6.83872 12.2397 7.05618C12.1186 7.92394 11.6683 8.62074 10.7423 8.62074C7.6762 8.62074 4.91009 6.84535 2.21276 3.81308C2.07371 4.26997 2.04101 4.73962 2.04557 5.6204C2.04619 5.7382 2.04619 5.7382 2.0464 5.85723C2.0464 8.12111 2.89495 9.35943 4.90407 10.0497L5.61698 10.2946V11.1031C5.61698 12.0836 4.75757 13.0066 3.50013 13.42C4.07655 13.8927 5.2554 14.1478 7.16263 14.1478H8.18533V15.2532C8.18533 16.8369 6.50168 18.0769 3.95836 18.7245C4.7878 18.9992 5.89219 19.1176 7.16227 19.1176C11.8814 19.1176 16.8789 15.5707 16.8789 10.2788V7.51534C16.8789 7.19059 16.966 6.90871 17.1107 6.61562C17.1673 6.50103 17.2295 6.39178 17.3064 6.26717C17.3209 6.24372 17.3746 6.15872 17.4172 6.09077L17.4983 5.91556C17.6296 5.63165 17.7609 5.34774 17.8921 5.06383C17.6882 5.02207 17.4882 4.97721 17.2922 4.92924Z" fill="#00478F"/>
</svg>
