<svg width="80" height="69" viewBox="0 0 80 69" fill="none" xmlns="http://www.w3.org/2000/svg">
<path d="M77.9052 0H50.5115C50.1813 0 49.8645 0.117878 49.631 0.327701C49.3975 0.537525 49.2663 0.822107 49.2663 1.11884V12.3073C48.9361 12.3073 48.6194 12.4251 48.3859 12.635C48.1524 12.8448 48.0212 13.1294 48.0212 13.4261V17.9015C48.0212 18.1982 48.1524 18.4828 48.3859 18.6926C48.6194 18.9024 48.9361 19.0203 49.2663 19.0203V26.7907C48.1584 26.825 47.1059 27.2347 46.3203 27.9375L41.2375 32.5046L35.064 34.9661L36.075 37.0102L42.4603 34.4603C42.5995 34.4044 42.7261 34.3259 42.8338 34.2287L48.0797 29.5151C48.4432 29.189 48.9358 29.0059 49.4494 29.0059C49.963 29.0059 50.4556 29.189 50.8191 29.5151L52.5797 27.933C52.3311 27.7166 52.0548 27.5273 51.7567 27.3691V19.0203H59.2277V25.7334H61.718V19.0203C62.0482 19.0203 62.365 18.9024 62.5985 18.6926C62.832 18.4828 62.9632 18.1982 62.9632 17.9015V13.4261C62.9632 13.1294 62.832 12.8448 62.5985 12.635C62.365 12.4251 62.0482 12.3073 61.718 12.3073V10.0696H77.9052C78.2354 10.0696 78.5521 9.9517 78.7856 9.74188C79.0191 9.53206 79.1503 9.24747 79.1503 8.95074V1.11884C79.1503 0.822107 79.0191 0.537525 78.7856 0.327701C78.5521 0.117878 78.2354 0 77.9052 0V0ZM60.4728 16.7826H50.5115V14.5449H60.4728V16.7826ZM76.66 7.8319H60.4728C60.1426 7.8319 59.8259 7.94977 59.5924 8.1596C59.3589 8.36942 59.2277 8.654 59.2277 8.95074V12.3073H51.7567V2.23768H76.66V7.8319Z" fill="black"/>
<path d="M56.828 51.0576L65.467 45.5998C66.1078 45.1724 66.6038 44.5933 66.8994 43.9273C67.1951 43.2612 67.2789 42.5344 67.1415 41.828C67.0041 41.1217 66.6508 40.4635 66.1212 39.9271C65.5915 39.3907 64.9063 38.9972 64.1422 38.7905L66.7819 36.1589C67.449 35.3527 67.7724 34.3582 67.6933 33.3561C67.6143 32.3539 67.1381 31.4104 66.3511 30.6967C65.7302 30.1517 64.9478 29.7788 64.0973 29.6226V24.7645H61.607V29.7278C60.916 29.9121 60.2853 30.2446 59.7691 30.6967L59.733 30.7303C59.52 30.1576 59.1639 29.6363 58.6921 29.2064C57.8495 28.483 56.729 28.0793 55.5636 28.0793C54.3982 28.0793 53.2777 28.483 52.4351 29.2064L47.3523 33.7735L35.0575 38.6831C34.8633 38.761 34.6471 38.7831 34.4384 38.7463C34.2298 38.7096 34.0388 38.6157 33.8919 38.4776C33.7449 38.3395 33.649 38.164 33.6174 37.975C33.5857 37.7861 33.6199 37.5929 33.7152 37.4221L36.3687 32.6536C36.7632 31.945 36.8715 31.1353 36.6751 30.3629C36.4787 29.5905 35.9898 28.9035 35.292 28.4191C34.5941 27.9348 33.7308 27.6834 32.8494 27.7078C31.9681 27.7322 31.1236 28.031 30.4603 28.553L27.132 31.1688C22.6091 34.7319 19.5511 39.5581 18.4494 44.8714L2.31203 56.333C2.16446 56.4378 2.04523 56.5712 1.96328 56.7233C1.88133 56.8755 1.83879 57.0423 1.83887 57.2113V67.281C1.83887 67.5777 1.97005 67.8623 2.20357 68.0721C2.43708 68.2819 2.7538 68.3998 3.08404 68.3998H21.7616C21.9919 68.3999 22.2178 68.3426 22.4141 68.2342L27.5653 65.3879L46.8505 61.3891C46.9467 61.3692 47.0399 61.3392 47.1282 61.2996L56.401 57.133C56.8988 56.9092 57.338 56.5929 57.6894 56.205C58.0408 55.8171 58.2965 55.3666 58.4394 54.8832C58.5824 54.3998 58.6093 53.8946 58.5185 53.4012C58.4277 52.9077 58.2211 52.4372 57.9126 52.0209C57.626 51.6382 57.2573 51.3107 56.828 51.0576V51.0576ZM56.0324 54.3123C55.9811 54.4897 55.8878 54.655 55.7589 54.7969C55.6299 54.9388 55.4684 55.0541 55.2853 55.1347L46.1445 59.242L26.807 63.2531C26.6748 63.28 26.5486 63.3265 26.4335 63.3907L21.4092 66.1621H4.32921V57.7528L20.3657 46.3584C20.6082 46.186 20.7707 45.9388 20.8215 45.6647C21.749 40.6983 24.5575 36.1723 28.7719 32.8527L32.0965 30.2368C32.3255 30.0561 32.6173 29.9526 32.922 29.944C33.2266 29.9354 33.5251 30.0223 33.7663 30.1897C34.0075 30.3571 34.1764 30.5946 34.2441 30.8617C34.3118 31.1287 34.274 31.4085 34.1373 31.6533L31.4839 36.4207C31.1596 37.0039 31.0436 37.6628 31.1517 38.3075C31.2599 38.9521 31.5869 39.551 32.0882 40.0224C32.5894 40.4937 33.2404 40.8145 33.9522 40.9408C34.6639 41.0672 35.4018 40.993 36.0648 40.7283L48.5751 35.7293C48.7143 35.6733 48.8409 35.5948 48.9486 35.4977L54.1945 30.784C54.5578 30.4575 55.0505 30.2742 55.5642 30.2742C56.0779 30.2742 56.5706 30.4575 56.9339 30.784C57.2972 31.1104 57.5012 31.5531 57.5012 32.0147C57.5012 32.4763 57.2972 32.919 56.9339 33.2454L51.8038 37.8551L41.4564 43.1686L42.6929 45.1109L53.1834 39.7236C53.2797 39.6746 53.3681 39.614 53.4462 39.5435L61.5298 32.2799C61.9417 31.9273 62.4888 31.7307 63.0576 31.7307C63.6265 31.7307 64.1736 31.9273 64.5855 32.2799C64.9426 32.5976 65.1652 33.0173 65.2147 33.4667C65.2643 33.916 65.1377 34.3669 64.8569 34.7413L59.9584 39.6184L53.3789 44.5414L44.5146 48.5234L45.629 50.525L54.6216 46.4848C54.7071 46.4458 54.7877 46.3985 54.8619 46.3439L61.6942 41.2262C62.045 40.9616 62.4937 40.8252 62.9512 40.8438C63.4088 40.8625 63.8418 41.0349 64.1646 41.3269C64.3475 41.492 64.4895 41.6899 64.5812 41.9078C64.6728 42.1257 64.7122 42.3585 64.6965 42.5911C64.6809 42.8236 64.6106 43.0505 64.4904 43.2568C64.3702 43.4632 64.2027 43.6444 63.999 43.7884L52.8086 50.8573L46.015 53.9107L47.1282 55.9123L54.004 52.8243C54.317 52.6841 54.6761 52.6511 55.0142 52.7317C55.3522 52.8122 55.646 53.0006 55.8406 53.2617C55.9544 53.4137 56.0304 53.5859 56.0635 53.7666C56.0966 53.9473 56.086 54.1323 56.0324 54.309V54.3123Z" fill="black"/>
<path d="M14.1838 45.1386C14.3217 45.0535 14.4391 44.9442 14.5289 44.8173C14.6188 44.6904 14.6793 44.5486 14.7067 44.4002C15.6331 39.4322 18.4418 34.9045 22.6571 31.5838L25.9818 28.9679C26.2328 28.7712 26.5575 28.6673 26.8904 28.6771C27.2233 28.6868 27.5398 28.8095 27.7761 29.0205L29.5367 27.4385C28.8528 26.8276 27.9369 26.472 26.9731 26.4434C26.0093 26.4148 25.0692 26.7151 24.3419 27.2841L21.0135 29.8999C16.5032 33.4533 13.4492 38.263 12.3397 43.5599L0 51.1782L1.40953 53.0221L14.1838 45.1386Z" fill="black"/>
<path d="M65.7476 54.159C65.6266 54.0251 65.474 53.9171 65.3007 53.8429C65.1274 53.7687 64.9378 53.7302 64.7459 53.7302C64.5539 53.7302 64.3644 53.7687 64.1911 53.8429C64.0178 53.9171 63.8651 54.0251 63.7441 54.159L61.5377 56.8443C61.0217 57.4751 60.743 58.2374 60.7421 59.0204C60.7327 59.4982 60.8293 59.9729 61.0263 60.4167C61.2233 60.8606 61.5167 61.2648 61.8895 61.6056C62.2622 61.9465 62.7067 62.2172 63.1971 62.4021C63.6876 62.5869 64.2141 62.6821 64.7459 62.6821C65.2777 62.6821 65.8042 62.5869 66.2946 62.4021C66.785 62.2172 67.2296 61.9465 67.6023 61.6056C67.975 61.2648 68.2684 60.8606 68.4654 60.4167C68.6624 59.9729 68.759 59.4982 68.7497 59.0204C68.7488 58.238 68.4705 57.4761 67.9552 56.8454L65.7476 54.159ZM64.7465 60.4178C64.3395 60.4122 63.9516 60.2619 63.6678 59.9997C63.384 59.7376 63.2274 59.385 63.2324 59.0193C63.2326 58.715 63.3408 58.4187 63.5412 58.1734L64.7465 56.7066L65.9518 58.1802C66.152 58.425 66.2597 58.721 66.2593 59.0249C66.263 59.3895 66.106 59.7407 65.8225 60.0016C65.5391 60.2626 65.1523 60.4122 64.7465 60.4178V60.4178Z" fill="black"/>
<path d="M69.641 27.6354C68.7978 27.8304 68.0455 28.2617 67.4931 28.8669L65.1435 31.4543C65.0202 31.5901 64.9342 31.7501 64.8923 31.9213C64.8505 32.0926 64.8539 32.2702 64.9023 32.4401C64.9508 32.6099 65.0429 32.7671 65.1713 32.899C65.2997 33.031 65.4608 33.134 65.6415 33.1997L69.0844 34.4581C69.9821 34.7849 70.9797 34.814 71.899 34.5402C72.8183 34.2664 73.5994 33.7075 74.1025 32.9635C74.3781 32.5575 74.5603 32.106 74.6383 31.6356C74.7164 31.1652 74.6887 30.6856 74.557 30.225C74.4234 29.7647 74.1902 29.3325 73.8708 28.9533C73.5515 28.574 73.1521 28.255 72.6956 28.0145C72.2391 27.774 71.7344 27.6168 71.2103 27.5517C70.6862 27.4867 70.1529 27.5151 69.641 27.6354V27.6354ZM71.967 31.8047C71.7529 32.1239 71.4068 32.3538 71.0045 32.444C70.6771 32.5194 70.3316 32.4986 70.0183 32.3846L68.1381 31.6972L69.4219 30.2832C69.6364 30.0482 69.9286 29.8807 70.2561 29.8051C70.6496 29.7099 71.069 29.759 71.4222 29.9417C71.7755 30.1243 72.0337 30.4255 72.1401 30.7791C72.1885 30.9515 72.1982 31.1308 72.1685 31.3065C72.1388 31.4823 72.0703 31.6509 71.967 31.8025V31.8047Z" fill="black"/>
<path d="M36.3416 25.4256L40.0422 25.7177C40.0796 25.7177 40.1157 25.7177 40.1518 25.7177C40.3374 25.7176 40.5207 25.6802 40.6882 25.6082C40.8556 25.5362 41.0031 25.4314 41.1197 25.3016C41.2363 25.1717 41.3192 25.0201 41.3622 24.8577C41.4052 24.6954 41.4073 24.5264 41.3683 24.3633L40.5913 21.098C40.3883 20.2461 39.8543 19.4871 39.085 18.9572C38.3158 18.4273 37.3617 18.1612 36.3939 18.2066C35.866 18.2312 35.3488 18.3501 34.8727 18.5566C34.3965 18.763 33.971 19.0527 33.6209 19.4088C33.2709 19.7649 33.0033 20.1801 32.834 20.6303C32.6646 21.0805 32.5969 21.5565 32.6347 22.0305C32.7075 22.9891 33.2001 23.8827 34.0044 24.5155C34.6561 25.0343 35.4747 25.3531 36.3416 25.4256V25.4256ZM35.4861 20.8954C35.6173 20.7621 35.7769 20.6537 35.9555 20.5768C36.1341 20.4999 36.328 20.456 36.5258 20.4477H36.6118C36.9963 20.448 37.3672 20.5755 37.654 20.8059C37.9061 21.0081 38.0804 21.2769 38.152 21.5738L38.5766 23.3581L36.5657 23.1946C36.2283 23.1672 35.9094 23.0437 35.6555 22.842C35.3444 22.597 35.1537 22.2514 35.125 21.8805C35.1091 21.7029 35.1328 21.5243 35.1949 21.3551C35.2569 21.186 35.3559 21.0297 35.4861 20.8954V20.8954Z" fill="black"/>
</svg>
